<svg class="img-fluid" xmlns="http://www.w3.org/2000/svg" width="512" height="512" viewBox="0 0 5120 5120">
    <g fill="#ff780a">
        <path d="M 1250 4806 c -107 -9 -183 -21 -245 -39 -178 -51 -202 -64 -293 -151 -68 -65 -99 -126 -123 -241 -18 -82 -19 -122 -14 -435 6 -391 20 -634 41 -701 8 -26 19 -69 24 -95 9 -54 33 -127 61 -190 11 -23 19 -48 19 -56 0 -9 6 -21 14 -27 8 -7 17 -22 20 -34 3 -12 19 -47 36 -77 128 -229 249 -365 402 -453 35 -20 60 -27 101 -27 67 0 99 22 120 82 12 37 12 49 0 82 -13 40 -39 76 -54 76 -19 0 -108 68 -164 125 -33 33 -80 92 -105 130 -74 114 -67 101 -110 200 -10 22 -28 61 -39 86 -12 25 -21 55 -21 65 0 10 -7 32 -15 48 -9 16 -20 57 -24 90 -5 34 -15 75 -22 91 -10 23 -14 141 -17 507 -3 477 -3 477 22 520 59 101 171 142 461 169 91 9 174 9 335 0 118 -7 615 -16 1105 -21 842 -9 992 -14 1230 -40 114 -13 138 -25 174 -90 19 -34 27 -71 37 -169 13 -126 11 -222 -16 -581 -15 -201 8 -250 120 -258 59 -4 61 -4 94 32 32 36 33 40 40 144 4 59 13 148 21 197 10 58 15 162 15 290 0 165 -4 214 -20 280 -11 44 -20 90 -20 101 0 35 -56 137 -103 190 -25 27 -65 59 -88 71 -76 37 -220 62 -404 68 -93 4 -201 11 -240 16 -38 6 -511 14 -1050 19 -539 5 -1018 11 -1065 14 -47 2 -155 -1 -240 -8 z "></path>
        <path d="M 3934 3121 c -55 -25 -70 -63 -65 -161 3 -41 5 -111 5 -155 1 -80 1 -80 -159 -85 -137 -4 -165 -8 -193 -25 -36 -21 -72 -80 -72 -115 0 -40 37 -95 80 -119 41 -23 47 -23 199 -17 97 4 162 3 171 -3 19 -13 27 -173 11 -235 -23 -92 33 -166 126 -166 43 0 53 4 86 38 31 32 38 47 48 112 7 44 9 109 5 160 -6 75 -5 88 10 101 13 10 60 15 180 19 163 5 163 5 198 39 32 31 36 40 36 88 0 47 -4 58 -34 91 -35 37 -35 37 -208 39 -95 0 -178 2 -185 2 -6 1 -16 16 -22 34 -13 42 -31 187 -31 247 0 56 -26 95 -76 116 -43 18 -61 17 -110 -5 z "></path>
        <path d="M 2325 2533 c -139 -21 -236 -53 -370 -121 -131 -66 -294 -230 -390 -391 -5 -9 -17 -28 -27 -43 -10 -15 -18 -33 -18 -40 0 -7 -9 -24 -20 -38 -11 -14 -20 -32 -20 -40 0 -8 -9 -32 -20 -53 -11 -20 -20 -46 -20 -57 0 -10 -10 -43 -22 -72 -20 -49 -22 -70 -22 -268 -1 -199 1 -221 23 -290 13 -41 32 -92 42 -112 11 -20 19 -43 19 -51 0 -8 9 -26 20 -40 11 -14 20 -30 20 -37 0 -6 12 -28 27 -48 137 -186 279 -293 548 -412 102 -45 222 -74 356 -86 60 -6 74 -3 156 30 50 20 102 36 117 36 14 0 43 9 63 20 21 11 44 20 51 20 11 0 30 8 108 49 20 10 129 83 134 90 3 3 32 26 65 50 113 84 236 213 310 326 46 70 98 195 114 275 6 30 16 73 21 95 17 75 12 263 -10 340 -11 38 -20 79 -20 90 0 11 -7 33 -15 49 -9 16 -20 46 -25 65 -16 66 -72 220 -91 251 -5 8 -16 30 -25 49 -9 19 -50 68 -93 110 -60 59 -97 86 -166 120 -129 62 -165 77 -212 90 -24 6 -60 15 -80 21 -152 39 -366 48 -528 23 z  m 415 -269 c 30 -8 74 -19 97 -23 24 -4 60 -16 80 -26 21 -10 58 -27 83 -39 64 -31 126 -73 149 -103 28 -34 82 -150 92 -193 8 -37 31 -106 60 -181 38 -97 34 -380 -7 -475 -54 -127 -71 -151 -194 -274 -114 -114 -232 -206 -301 -237 -15 -6 -30 -16 -33 -22 -4 -6 -17 -11 -29 -11 -12 0 -35 -7 -52 -16 -51 -27 -197 -39 -297 -25 -48 7 -101 10 -117 6 -20 -4 -42 0 -68 13 -21 11 -63 32 -93 47 -232 114 -396 295 -430 475 -5 28 -14 59 -20 70 -16 29 -23 188 -12 250 12 64 43 177 66 236 54 146 228 367 331 423 22 12 47 25 55 29 61 34 90 46 125 53 22 4 63 15 90 23 72 21 351 22 425 0 z "></path>
    </g>
</svg>