<svg xmlns="http://www.w3.org/2000/svg" width="512" height="512" viewBox="0 0 5120 5120">
    <g fill="#ff780a">
        <path d="M 2455 4794 c -209 -25 -301 -38 -355 -51 -36 -9 -86 -19 -112 -24 -25 -4 -60 -15 -77 -23 -16 -9 -39 -16 -51 -16 -11 0 -37 -9 -57 -20 -21 -11 -45 -20 -53 -20 -8 0 -30 -9 -48 -20 -18 -11 -40 -20 -50 -20 -9 0 -28 -9 -42 -20 -14 -11 -32 -20 -41 -20 -9 0 -28 -9 -42 -20 -14 -11 -28 -20 -31 -20 -6 0 -99 -53 -141 -80 -306 -201 -581 -494 -742 -790 -32 -59 -49 -92 -114 -225 -10 -22 -19 -46 -19 -54 0 -8 -8 -32 -19 -55 -32 -72 -91 -289 -98 -361 -2 -22 -11 -87 -20 -145 -21 -136 -21 -364 0 -500 9 -58 18 -123 20 -145 8 -80 65 -287 98 -361 11 -23 19 -47 19 -55 0 -14 6 -27 75 -169 32 -66 79 -151 118 -215 50 -83 197 -263 294 -362 138 -139 201 -195 296 -261 97 -66 105 -71 204 -127 106 -60 225 -117 303 -144 130 -46 190 -65 225 -71 22 -4 69 -15 105 -23 109 -27 328 -51 460 -51 181 -1 518 49 616 90 18 7 49 16 70 20 22 4 56 15 76 25 21 11 43 19 50 19 7 0 33 10 58 21 25 12 65 31 90 43 40 19 183 97 234 129 46 28 204 143 241 176 161 140 364 372 440 501 6 10 16 24 22 31 25 32 143 262 143 279 0 5 9 24 20 42 11 18 20 40 20 48 0 8 9 32 20 53 11 20 20 45 20 54 1 10 8 36 16 58 9 22 19 58 24 80 4 22 15 69 23 105 49 200 63 514 33 707 -9 57 -16 118 -16 138 0 19 -7 55 -16 81 -8 25 -19 67 -24 93 -28 152 -171 481 -280 645 -123 186 -240 321 -408 472 -169 153 -362 275 -602 381 -142 63 -382 130 -515 144 -43 5 -105 14 -136 19 -59 11 -272 20 -324 14 z  m 455 -336 c 30 -9 78 -21 105 -26 121 -24 270 -78 398 -144 12 -6 30 -15 41 -21 139 -69 369 -241 487 -363 61 -65 219 -257 219 -268 0 -2 17 -31 38 -63 21 -32 43 -69 50 -83 6 -14 16 -32 21 -40 5 -8 19 -37 32 -65 12 -27 31 -66 41 -86 10 -20 18 -45 18 -56 0 -10 6 -27 14 -38 14 -20 38 -98 57 -185 6 -25 18 -76 27 -115 26 -106 25 -587 -2 -700 -40 -175 -60 -248 -81 -292 -8 -17 -15 -37 -15 -43 0 -11 -64 -154 -92 -204 -136 -249 -296 -441 -503 -605 -154 -122 -230 -170 -392 -250 -107 -52 -252 -101 -358 -123 -27 -5 -77 -17 -110 -26 -89 -25 -588 -25 -690 0 -38 9 -90 21 -115 27 -87 19 -165 43 -185 57 -11 8 -28 14 -38 14 -11 0 -36 8 -56 18 -20 10 -58 29 -86 41 -27 13 -57 27 -65 32 -8 5 -26 15 -40 22 -24 12 -35 18 -125 76 -78 50 -261 200 -326 267 -59 62 -195 230 -226 279 -7 11 -31 52 -53 90 -23 39 -45 77 -50 85 -52 89 -126 281 -160 420 -42 170 -44 186 -48 450 -3 244 -2 272 17 345 12 43 21 91 21 106 0 15 5 40 11 56 7 15 20 55 30 88 31 106 93 257 130 315 5 8 15 26 21 40 47 97 197 298 307 414 98 102 402 335 438 336 4 0 19 9 33 20 14 11 32 20 40 20 8 0 26 9 40 20 14 11 33 20 42 20 10 0 32 9 50 20 18 11 41 20 51 20 9 0 34 9 54 20 21 11 48 20 61 20 13 0 36 7 52 15 16 8 61 19 101 25 39 6 75 13 80 16 28 17 124 22 364 21 216 -2 281 -6 325 -19 z "></path>
        <path d="M 2502 3339 c -26 -13 -54 -39 -70 -63 l -27 -41 -5 -255 -5 -255 -255 -5 c -244 -5 -257 -6 -292 -28 -37 -23 -73 -73 -84 -117 -9 -36 34 -113 80 -144 39 -26 40 -26 295 -31 l 256 -5 5 -255 5 -255 27 -41 c 33 -51 105 -90 146 -79 45 11 90 44 114 83 22 35 23 48 28 292 l 5 255 256 5 c 255 5 256 5 295 31 47 31 89 108 80 145 -13 50 -54 101 -99 123 -40 20 -59 21 -285 21 -152 0 -243 4 -247 10 -4 6 -6 116 -5 246 1 223 -1 239 -21 281 -22 47 -78 90 -127 99 -17 3 -43 -4 -70 -17 z "></path>
    </g>
</svg>