<svg xmlns="http://www.w3.org/2000/svg"
     width="478" height="478" viewBox="0 0 4780 4780">
    <g fill="#000">
        <path d="M2095 4770 c-3 -5 -35 -10 -70 -10 -35 0 -67 -4 -70 -10 -3 -5 -26 -10 -50 -10 -24 0 -46 -4 -49 -9 -3 -5 -23 -11 -43 -15 -90 -13 -113 -19 -113 -27 0 -5 -13 -9 -30 -9 -16 0 -30 -4 -30 -10 0 -5 -13 -10 -30 -10 -16 0 -30 -4 -30 -10 0 -5 -9 -10 -19 -10 -11 0 -23 -4 -26 -10 -3 -5 -17 -10 -31 -10 -13 0 -24 -4 -24 -10 0 -5 -9 -10 -19 -10 -11 0 -23 -4 -26 -10 -3 -5 -17 -10 -31 -10 -13 0 -24 -3 -24 -7 0 -9 -49 -33 -67 -33 -7 0 -13 -4 -13 -8 0 -5 -21 -20 -47 -33 -27 -13 -49 -27 -51 -31 -2 -5 -12 -8 -23 -8 -10 0 -19 -3 -19 -8 0 -4 -21 -18 -47 -32 -27 -13 -55 -32 -64 -42 -9 -10 -21 -18 -26 -18 -5 0 -26 -16 -47 -35 -21 -19 -43 -35 -48 -35 -6 0 -26 -16 -46 -36 -19 -19 -55 -49 -79 -65 -23 -17 -43 -37 -43 -47 0 -18 443 -462 461 -462 6 0 31 20 56 45 24 25 48 45 52 45 5 0 26 16 47 35 22 19 45 35 52 35 6 0 12 3 12 8 0 4 10 12 23 18 27 13 118 63 170 92 21 12 44 22 52 22 8 0 15 4 15 8 0 5 23 15 51 22 27 8 52 18 55 22 3 4 16 8 29 8 13 0 27 5 30 10 3 6 17 10 30 10 13 0 27 5 30 10 3 6 22 10 41 10 19 0 34 5 34 10 0 6 26 10 59 10 33 0 63 5 66 10 3 6 32 10 63 10 31 0 74 5 95 11 37 10 37 10 37 329 0 320 0 320 -109 320 -63 0 -112 -4 -116 -10z"/>
        <path d="M2460 4460 c0 -319 0 -319 38 -329 20 -6 65 -11 100 -11 34 0 62 -4 62 -10 0 -5 19 -10 42 -10 23 0 55 -4 72 -9 17 -5 51 -15 76 -21 25 -7 53 -16 62 -21 10 -5 29 -9 43 -9 14 0 25 -4 25 -10 0 -5 9 -10 19 -10 11 0 23 -4 26 -10 3 -5 17 -10 31 -10 13 0 24 -3 24 -7 0 -9 49 -33 67 -33 7 0 13 -4 13 -10 0 -5 9 -10 20 -10 11 0 20 -4 20 -10 0 -5 9 -10 20 -10 11 0 20 -3 20 -8 0 -4 21 -18 48 -32 26 -13 49 -27 52 -30 3 -3 21 -17 40 -30 19 -13 42 -32 51 -42 9 -10 22 -18 28 -18 7 0 30 -18 51 -40 21 -22 43 -40 49 -40 15 0 461 446 461 460 0 13 -25 40 -37 40 -4 0 -30 22 -58 50 -27 27 -55 49 -61 50 -5 0 -23 14 -39 30 -16 17 -34 30 -39 30 -6 0 -24 11 -40 25 -16 13 -37 27 -47 30 -11 4 -19 11 -19 16 0 5 -8 9 -18 9 -10 0 -24 9 -32 20 -8 11 -22 20 -32 20 -10 0 -18 5 -18 10 0 6 -9 10 -20 10 -11 0 -20 5 -20 10 0 6 -6 10 -13 10 -7 0 -23 9 -35 20 -12 11 -29 20 -39 20 -10 0 -29 9 -43 20 -14 11 -35 20 -47 20 -13 0 -23 5 -23 10 0 6 -9 10 -20 10 -11 0 -20 5 -20 10 0 6 -13 10 -30 10 -16 0 -30 5 -30 10 0 6 -7 10 -15 10 -8 0 -24 5 -35 10 -11 6 -29 15 -40 20 -11 6 -27 10 -37 10 -19 0 -79 18 -105 31 -10 5 -33 9 -52 9 -19 0 -38 5 -41 10 -3 6 -24 10 -45 10 -21 0 -42 5 -45 10 -3 6 -37 10 -76 10 -39 0 -69 4 -69 10 0 6 -43 10 -110 10 -110 0 -110 0 -110 -320z"/>
        <path d="M3891 3804 c-232 -234 -232 -234 -192 -273 23 -22 41 -43 41 -48 0 -5 18 -29 40 -53 22 -24 40 -50 40 -57 0 -7 4 -13 9 -13 5 0 14 -13 21 -30 7 -16 16 -30 21 -30 5 0 9 -9 9 -20 0 -11 3 -20 8 -20 4 0 12 -10 18 -23 6 -12 21 -42 34 -67 12 -25 26 -53 31 -62 5 -10 9 -25 9 -33 0 -8 5 -15 10 -15 6 0 10 -11 10 -24 0 -14 5 -28 10 -31 6 -3 10 -15 10 -26 0 -10 5 -19 10 -19 6 0 10 -15 10 -34 0 -19 5 -38 10 -41 6 -3 10 -19 10 -36 0 -16 5 -29 10 -29 6 0 10 -22 10 -50 0 -27 5 -50 10 -50 6 0 10 -27 10 -60 0 -33 4 -60 10 -60 6 0 10 -30 10 -70 0 -70 0 -70 318 -70 174 0 323 4 331 9 9 6 12 23 7 62 -3 30 -8 91 -12 137 -4 45 -10 85 -15 88 -5 3 -9 32 -9 64 0 32 -4 62 -10 65 -5 3 -10 22 -10 41 0 19 -4 34 -10 34 -5 0 -10 18 -10 40 0 22 -4 40 -10 40 -5 0 -10 10 -10 23 0 24 -22 92 -33 103 -4 4 -7 18 -7 30 0 13 -4 26 -10 29 -5 3 -10 14 -10 25 0 16 -12 45 -51 122 -5 10 -9 25 -9 33 0 8 -4 15 -10 15 -5 0 -10 9 -10 20 0 11 -4 20 -10 20 -5 0 -10 9 -10 20 0 11 -4 20 -10 20 -5 0 -10 9 -10 20 0 11 -4 20 -10 20 -5 0 -10 7 -10 15 0 9 -9 25 -20 37 -11 12 -20 28 -20 35 0 7 -4 13 -10 13 -5 0 -10 5 -10 10 0 15 -119 190 -129 190 -4 0 -14 12 -22 28 -8 15 -30 43 -49 62 -19 19 -41 46 -48 60 -33 64 -31 65 -281 -186z"/>
        <path d="M605 3995 c-19 -20 -35 -40 -35 -45 0 -4 -18 -27 -40 -50 -22 -23 -40 -45 -40 -50 0 -4 -16 -25 -35 -46 -19 -21 -35 -42 -35 -46 0 -5 -9 -18 -20 -30 -11 -12 -20 -28 -20 -35 0 -7 -4 -13 -9 -13 -5 0 -13 -9 -16 -20 -3 -11 -12 -26 -19 -32 -16 -17 -116 -219 -116 -235 0 -7 -4 -13 -10 -13 -5 0 -10 -9 -10 -20 0 -11 -4 -20 -8 -20 -4 0 -14 -21 -21 -47 -8 -27 -17 -50 -20 -53 -10 -8 -31 -75 -31 -98 0 -12 -4 -22 -10 -22 -5 0 -10 -13 -10 -30 0 -16 -4 -30 -10 -30 -5 0 -10 -15 -10 -33 0 -18 -4 -37 -9 -42 -9 -10 -15 -47 -27 -145 -3 -25 -9 -54 -14 -65 -9 -20 -16 -83 -26 -232 -5 -83 -5 -83 314 -83 244 0 322 3 330 13 5 6 12 44 16 82 3 39 10 97 16 130 5 33 13 81 16 108 4 26 10 47 15 47 5 0 9 14 9 30 0 17 5 30 10 30 6 0 10 11 10 25 0 14 4 34 10 45 22 44 27 57 41 103 7 26 17 47 21 47 4 0 8 9 8 20 0 11 5 20 10 20 6 0 10 9 10 20 0 11 5 20 10 20 6 0 10 9 10 20 0 11 4 20 9 20 5 0 14 14 21 30 7 17 16 30 21 30 5 0 9 6 9 13 0 7 9 23 20 35 11 12 20 26 20 32 0 6 9 21 20 33 10 12 44 50 75 84 30 35 55 68 55 73 0 15 -444 460 -458 460 -6 0 -27 -16 -47 -35z"/>
        <path d="M0 2255 c0 -50 4 -85 10 -85 6 0 10 -30 10 -69 0 -39 5 -73 10 -76 6 -3 10 -33 10 -66 0 -33 4 -59 10 -59 6 0 10 -18 10 -40 0 -22 5 -40 10 -40 6 0 10 -18 10 -39 0 -22 5 -43 10 -46 6 -3 10 -17 10 -31 0 -13 5 -24 10 -24 6 0 10 -13 10 -29 0 -17 5 -33 10 -36 6 -3 10 -17 10 -31 0 -13 4 -24 8 -24 5 0 15 -22 22 -50 7 -27 17 -50 22 -50 4 0 8 -6 8 -13 0 -17 101 -221 111 -225 5 -2 9 -10 9 -18 0 -8 9 -24 20 -36 11 -12 20 -28 20 -35 0 -7 5 -13 10 -13 6 0 10 -8 10 -18 0 -10 9 -24 20 -32 11 -8 20 -19 20 -25 0 -6 16 -28 35 -50 19 -22 35 -43 35 -47 0 -7 64 -83 126 -150 35 -38 35 -38 260 188 256 255 246 236 169 326 -25 29 -53 62 -63 74 -23 27 -52 75 -59 97 -3 9 -9 17 -14 17 -5 0 -9 6 -9 13 0 7 -9 23 -20 35 -11 12 -20 28 -20 37 0 8 -4 15 -10 15 -5 0 -10 9 -10 20 0 11 -4 20 -10 20 -5 0 -10 7 -10 15 0 8 -9 30 -20 50 -11 20 -20 42 -20 50 0 8 -9 30 -20 50 -11 20 -20 49 -20 65 0 17 -4 30 -10 30 -5 0 -10 14 -10 30 0 17 -4 30 -9 30 -5 0 -11 21 -15 48 -3 26 -11 74 -16 107 -6 33 -13 92 -16 130 -4 39 -11 76 -16 83 -8 9 -86 12 -329 12 -319 0 -319 0 -319 -85z"/>
        <path d="M4127 2333 c-4 -3 -7 -32 -7 -64 0 -32 -4 -61 -10 -64 -5 -3 -10 -33 -10 -66 0 -33 -4 -59 -10 -59 -5 0 -10 -17 -10 -37 0 -36 -14 -91 -31 -125 -5 -10 -9 -31 -9 -48 0 -16 -4 -30 -10 -30 -5 0 -10 -9 -10 -19 0 -11 -4 -23 -10 -26 -5 -3 -10 -17 -10 -31 0 -13 -4 -24 -10 -24 -5 0 -10 -9 -10 -20 0 -11 -4 -20 -10 -20 -5 0 -10 -8 -10 -17 0 -22 -61 -143 -72 -143 -4 0 -8 -7 -8 -15 0 -9 -9 -25 -20 -37 -11 -12 -20 -28 -20 -35 0 -7 -4 -13 -10 -13 -5 0 -10 -6 -10 -13 0 -7 -16 -30 -35 -51 -19 -21 -35 -42 -35 -47 0 -5 -20 -29 -45 -54 -46 -45 -46 -45 188 -280 128 -129 236 -235 239 -235 4 0 22 21 40 48 17 26 49 64 70 84 21 20 38 41 38 46 0 5 14 23 30 40 17 18 30 37 30 42 0 6 11 22 25 36 14 14 25 29 25 34 0 5 6 15 13 22 6 7 23 34 36 61 13 26 28 47 33 47 4 0 8 9 8 20 0 11 5 20 10 20 6 0 10 9 10 20 0 11 3 20 8 20 8 0 32 49 32 67 0 7 5 13 10 13 6 0 10 9 10 20 0 11 5 20 10 20 6 0 10 7 10 15 0 8 8 34 19 58 10 23 24 58 31 77 7 19 15 44 20 55 25 67 50 157 50 184 0 17 5 31 10 31 6 0 10 18 10 40 0 22 5 40 10 40 6 0 10 26 10 59 0 33 5 63 10 66 6 3 10 43 10 89 0 45 5 87 11 93 5 5 9 32 7 59 -3 49 -3 49 -324 52 -176 1 -323 -1 -327 -5z"/>
        <path d="M983 895 c-123 -123 -223 -229 -223 -236 0 -12 80 -89 92 -89 4 0 17 -10 30 -23 13 -12 39 -33 58 -47 19 -13 41 -30 48 -37 7 -7 26 -20 42 -30 17 -9 30 -21 30 -25 0 -4 8 -8 18 -8 10 0 24 -9 32 -20 8 -11 22 -20 32 -20 10 0 18 -4 18 -10 0 -5 6 -10 13 -10 7 0 23 -9 35 -20 12 -11 28 -20 37 -20 8 0 15 -4 15 -10 0 -5 9 -10 20 -10 11 0 20 -4 20 -10 0 -5 9 -10 20 -10 11 0 20 -4 20 -10 0 -5 9 -10 20 -10 11 0 20 -4 20 -10 0 -5 9 -10 19 -10 17 0 46 -12 123 -51 10 -5 27 -9 38 -9 11 0 20 -4 20 -10 0 -5 14 -10 30 -10 17 0 30 -4 30 -10 0 -5 14 -10 30 -10 17 0 30 -4 30 -9 0 -5 15 -11 33 -14 17 -3 52 -11 77 -17 25 -7 65 -14 90 -17 25 -3 49 -9 54 -14 6 -5 36 -9 67 -9 32 0 61 -5 64 -10 3 -6 50 -10 106 -10 66 0 99 -4 99 -11 0 -8 5 -8 15 1 13 11 15 60 15 331 0 319 0 319 -33 319 -18 0 -37 4 -42 9 -6 5 -37 12 -70 15 -127 12 -170 18 -179 27 -6 5 -25 9 -43 9 -18 0 -33 5 -33 10 0 6 -11 10 -24 10 -14 0 -28 5 -31 10 -3 6 -19 10 -36 10 -16 0 -29 5 -29 10 0 6 -13 10 -30 10 -16 0 -30 5 -30 10 0 6 -7 10 -15 10 -8 0 -30 9 -50 20 -20 11 -41 20 -48 20 -7 0 -23 9 -35 20 -12 11 -28 20 -37 20 -8 0 -15 5 -15 10 0 6 -9 10 -20 10 -11 0 -20 5 -20 10 0 6 -6 10 -13 10 -7 0 -22 8 -33 18 -10 9 -44 34 -74 54 -30 20 -68 50 -85 68 -25 26 -76 61 -87 60 -2 -1 -103 -102 -225 -225z"/>
        <path d="M3510 1080 c-19 -21 -40 -39 -46 -40 -6 0 -25 -13 -42 -30 -18 -16 -37 -30 -43 -30 -7 0 -19 -8 -28 -18 -9 -10 -36 -29 -61 -43 -25 -13 -46 -27 -48 -31 -2 -5 -12 -8 -23 -8 -10 0 -19 -4 -19 -10 0 -5 -9 -10 -20 -10 -11 0 -20 -4 -20 -10 0 -5 -9 -10 -20 -10 -11 0 -20 -4 -20 -10 0 -5 -9 -10 -20 -10 -11 0 -20 -4 -20 -10 0 -5 -11 -10 -24 -10 -14 0 -28 -4 -31 -10 -3 -5 -15 -10 -26 -10 -10 0 -19 -4 -19 -10 0 -5 -13 -10 -30 -10 -16 0 -30 -4 -30 -10 0 -5 -13 -10 -29 -10 -17 0 -33 -4 -36 -10 -3 -5 -16 -10 -29 -10 -12 0 -26 -4 -31 -9 -6 -5 -35 -12 -65 -15 -57 -5 -155 -19 -227 -31 -43 -8 -43 -8 -43 -329 0 -322 0 -322 73 -319 81 4 132 9 227 23 36 5 86 12 113 16 26 3 47 10 47 15 0 5 14 9 32 9 31 0 87 14 120 31 10 5 29 9 42 9 14 0 28 5 31 10 3 6 17 10 31 10 13 0 24 5 24 10 0 6 9 10 20 10 11 0 20 5 20 10 0 6 10 10 23 10 13 0 42 9 65 20 22 11 46 20 52 20 6 0 18 7 26 15 9 8 27 18 42 22 15 3 29 9 32 13 3 4 25 18 50 30 25 12 55 28 67 34 13 6 23 14 23 19 0 4 6 7 13 7 7 0 22 8 33 18 10 9 31 23 47 31 15 8 27 18 27 23 0 4 6 8 13 8 7 0 30 16 52 35 22 19 43 35 47 35 4 0 17 10 30 23 31 29 89 78 116 97 12 8 22 20 22 27 0 17 -446 463 -462 463 -7 -1 -29 -19 -48 -40z"/>
    </g>
</svg>