<svg xmlns="http://www.w3.org/2000/svg" width="478" height="478" viewBox="0 0 4780 4780">
    <g fill="rgb(0,0,0)">
        <path d="M2095 4771 c-6 -5 -39 -12 -75 -14 -84 -7 -140 -16 -165 -27 -11 -5 -36 -11 -55 -15 -19 -3 -50 -8 -67 -12 -18 -3 -33 -9 -33 -14 0 -5 -13 -9 -29 -9 -17 0 -33 -4 -36 -10 -3 -5 -15 -10 -25 -10 -11 0 -35 -9 -55 -20 -20 -11 -42 -20 -50 -20 -8 0 -30 -9 -50 -20 -20 -11 -44 -20 -55 -20 -11 0 -20 -3 -20 -7 0 -9 -49 -33 -67 -33 -7 0 -13 -4 -13 -9 0 -5 -22 -20 -50 -32 -27 -12 -50 -26 -50 -31 0 -4 -9 -8 -20 -8 -11 0 -20 -3 -20 -8 0 -4 -21 -18 -47 -32 -27 -13 -55 -32 -64 -42 -9 -10 -20 -18 -26 -18 -5 0 -28 -18 -52 -39 -24 -22 -47 -39 -50 -38 -3 1 -24 -15 -46 -35 -22 -20 -56 -48 -75 -60 -55 -37 -51 -54 39 -141 l80 -78 107 87 c179 144 343 242 555 328 149 61 231 85 389 116 84 17 272 39 338 40 9 0 12 31 12 120 l0 120 -108 0 c-59 0 -112 -4 -117 -9z"/>
        <path d="M2458 4660 c2 -66 4 -120 5 -120 1 0 52 -5 112 -10 432 -36 849 -212 1198 -506 l79 -65 84 84 c46 47 84 91 84 99 0 7 -11 20 -24 28 -14 8 -47 36 -74 63 -28 26 -55 47 -59 47 -5 0 -22 13 -37 29 -16 16 -41 35 -57 41 -16 7 -29 16 -29 20 0 4 -13 13 -30 20 -16 7 -30 16 -30 21 0 5 -6 9 -13 9 -7 0 -23 9 -35 20 -12 11 -28 20 -37 20 -8 0 -15 3 -15 8 0 4 -15 13 -32 21 -18 8 -45 22 -60 33 -14 10 -32 18 -40 18 -7 0 -24 9 -38 20 -14 11 -35 20 -47 20 -13 0 -23 5 -23 10 0 6 -9 10 -20 10 -11 0 -20 5 -20 10 0 6 -9 10 -20 10 -11 0 -28 4 -38 9 -9 5 -30 14 -47 21 -16 7 -38 16 -47 21 -10 5 -25 9 -35 9 -19 0 -79 18 -105 31 -10 5 -33 9 -52 9 -19 0 -37 4 -40 9 -6 10 -53 18 -156 27 -36 3 -69 10 -75 15 -5 5 -59 9 -120 9 l-110 0 3 -120z"/>
        <path d="M632 4023 c-7 -2 -27 -26 -44 -51 -18 -26 -45 -59 -60 -74 -15 -14 -28 -30 -28 -35 0 -5 -16 -26 -35 -47 -19 -21 -35 -42 -35 -46 0 -4 -11 -20 -25 -36 -14 -16 -25 -35 -25 -41 0 -7 -4 -13 -10 -13 -5 0 -10 -6 -10 -13 0 -7 -9 -23 -20 -35 -11 -12 -20 -28 -20 -36 0 -8 -4 -16 -8 -18 -11 -4 -112 -209 -112 -226 0 -7 -4 -12 -8 -12 -5 0 -15 -22 -22 -50 -7 -27 -17 -50 -22 -50 -4 0 -8 -11 -8 -24 0 -14 -5 -28 -10 -31 -5 -3 -10 -19 -10 -36 0 -16 -4 -29 -10 -29 -5 0 -10 -11 -10 -24 0 -14 -4 -27 -9 -30 -5 -3 -11 -23 -14 -43 -3 -21 -10 -58 -16 -83 -24 -96 -48 -262 -57 -402 l-6 -78 120 0 120 0 6 88 c36 463 206 878 509 1240 l69 84 -78 79 c-77 77 -86 83 -112 72z"/>
        <path d="M4033 3944 c-78 -81 -95 -104 -75 -104 15 0 146 -169 222 -285 183 -280 300 -621 331 -967 l12 -128 116 0 c64 0 122 4 130 9 10 7 12 23 7 67 -18 145 -25 214 -32 274 -3 36 -10 69 -15 75 -5 5 -9 24 -9 42 0 18 -4 33 -10 33 -5 0 -10 18 -10 39 0 22 -4 43 -10 46 -5 3 -10 17 -10 30 0 13 -4 27 -10 30 -5 3 -10 17 -10 30 0 13 -4 27 -10 30 -5 3 -10 17 -10 30 0 13 -4 27 -10 30 -5 3 -10 14 -10 23 0 10 -13 44 -30 77 -16 33 -30 68 -30 78 0 9 -4 17 -10 17 -5 0 -10 6 -10 14 0 17 -42 100 -52 104 -5 2 -8 12 -8 23 0 10 -4 19 -8 19 -5 0 -15 12 -23 28 -24 49 -150 232 -159 232 -5 0 -11 9 -15 19 -3 11 -28 44 -55 73 -27 29 -50 56 -50 60 0 11 -31 38 -43 38 -7 0 -49 -39 -94 -86z"/>
        <path d="M0 2255 c0 -47 4 -85 9 -85 5 0 12 -30 15 -67 4 -62 14 -136 32 -236 3 -20 10 -40 15 -43 5 -3 9 -23 9 -44 0 -21 5 -42 10 -45 6 -3 10 -17 10 -30 0 -13 5 -27 10 -30 6 -3 10 -17 10 -30 0 -13 5 -27 10 -30 6 -3 10 -14 10 -24 0 -9 9 -36 20 -59 11 -22 20 -48 20 -57 0 -8 5 -15 10 -15 6 0 10 -6 10 -14 0 -19 96 -211 131 -263 16 -23 29 -46 29 -52 0 -6 5 -11 10 -11 6 0 10 -7 10 -15 0 -9 11 -27 25 -41 14 -14 25 -29 25 -33 0 -5 13 -24 30 -42 16 -19 30 -37 30 -41 0 -4 23 -34 51 -65 28 -32 61 -70 75 -85 13 -16 29 -28 36 -28 7 0 48 36 92 79 l78 79 -74 89 c-295 355 -458 745 -500 1199 l-11 124 -119 0 -118 0 0 -85z"/>
        <path d="M4516 2253 c-36 -456 -198 -860 -487 -1215 l-80 -98 88 -90 c48 -49 91 -90 95 -90 4 0 22 21 39 48 18 26 50 63 71 82 21 20 38 40 38 45 0 6 14 24 30 42 17 18 30 37 30 43 0 6 11 22 25 36 14 14 25 29 25 34 0 5 6 15 13 22 7 7 21 30 30 50 10 20 23 43 30 50 19 21 37 56 37 72 0 8 3 16 8 18 8 4 72 127 72 140 0 4 9 27 19 51 34 74 101 284 101 316 0 17 5 31 10 31 6 0 10 18 10 40 0 22 4 40 9 40 5 0 12 28 15 63 6 58 17 161 32 286 4 40 3 56 -7 62 -8 5 -66 9 -130 9 l-117 0 -6 -87z"/>
        <path d="M3805 804 c-201 -179 -441 -321 -715 -422 -178 -66 -383 -106 -627 -122 -8 0 -1 -237 7 -250 6 -9 10 -10 10 -3 0 8 33 13 103 17 56 2 134 9 172 15 39 6 90 13 115 17 25 3 49 10 55 15 5 5 20 9 34 9 25 0 83 16 113 31 10 5 25 9 33 9 24 0 95 24 95 32 0 5 9 8 19 8 11 0 23 5 26 10 3 6 16 10 29 10 12 0 26 4 32 9 5 5 27 14 49 21 22 7 46 19 53 27 8 8 27 17 43 20 16 3 29 9 29 13 0 4 17 15 38 24 42 17 90 45 109 63 7 6 22 15 33 18 11 3 20 11 20 16 0 5 6 9 13 9 6 0 25 11 41 25 16 14 32 25 36 25 4 0 25 16 46 35 22 19 44 35 49 35 6 0 32 23 60 50 27 28 53 50 58 50 12 0 37 27 37 40 0 11 -162 181 -171 180 -2 -1 -22 -17 -44 -36z"/>
        <path d="M840 754 c-44 -43 -80 -84 -80 -92 0 -13 78 -91 91 -92 4 0 21 -13 39 -30 18 -16 35 -30 39 -30 3 0 22 -14 41 -31 19 -17 47 -38 62 -47 15 -9 28 -20 28 -24 0 -4 5 -8 11 -8 6 0 23 -8 37 -19 40 -28 115 -71 135 -78 9 -3 17 -9 17 -14 0 -5 9 -9 20 -9 11 0 20 -4 20 -10 0 -5 9 -10 20 -10 11 0 20 -3 20 -7 0 -9 48 -33 66 -33 7 0 32 -10 56 -21 23 -12 54 -26 68 -32 14 -5 33 -13 42 -18 10 -5 27 -9 37 -9 11 0 23 -4 26 -10 3 -5 19 -10 36 -10 16 0 29 -4 29 -9 0 -5 15 -11 33 -14 17 -3 52 -11 77 -17 80 -20 144 -31 205 -37 33 -2 64 -9 70 -14 5 -5 53 -9 107 -9 66 0 98 -4 98 -11 0 -8 5 -8 15 1 12 10 15 38 15 131 0 107 -2 119 -17 119 -71 2 -243 23 -359 45 -324 61 -676 233 -951 465 l-73 61 -80 -77z"/>
    </g>
</svg>