<svg id="outputsvg" xmlns="http://www.w3.org/2000/svg" width="478" height="478" viewBox="0 0 4780 4780">
    <g fill="rgb(0,0,0)">
        <g>
            <path d="M2095 4771 c-6 -5 -39 -12 -75 -14 -84 -7 -140 -16 -165 -27 -11 -5 -36 -11 -55 -15 -19 -3 -50 -8 -67 -12 -18 -3 -33 -9 -33 -14 0 -5 -13 -9 -29 -9 -17 0 -33 -4 -36 -10 -3 -5 -15 -10 -25 -10 -11 0 -35 -9 -55 -20 -20 -11 -42 -20 -50 -20 -8 0 -30 -9 -50 -20 -20 -11 -44 -20 -55 -20 -11 0 -20 -3 -20 -7 0 -9 -48 -33 -66 -33 -6 0 -17 -7 -25 -16 -7 -9 -30 -23 -51 -31 -21 -8 -38 -19 -38 -24 0 -5 -9 -9 -20 -9 -11 0 -20 -3 -20 -8 0 -4 -21 -18 -47 -32 -27 -13 -55 -32 -64 -42 -9 -10 -21 -18 -26 -18 -5 0 -26 -16 -47 -35 -21 -19 -43 -35 -48 -35 -5 0 -28 -18 -51 -40 -23 -22 -58 -50 -77 -63 -43 -28 -48 -56 -16 -86 l25 -24 73 68 c134 123 438 310 623 383 110 44 278 99 340 113 147 33 327 59 407 59 l68 0 0 40 0 40 -108 0 c-59 0 -112 -4 -117 -9z"/>
            <path d="M2458 4740 l4 -40 71 0 c181 0 484 -70 742 -172 185 -73 465 -244 610 -374 l87 -77 24 26 c30 33 30 49 0 67 -14 8 -47 36 -74 63 -28 26 -55 47 -59 47 -5 0 -22 13 -37 29 -16 16 -41 35 -57 41 -16 7 -29 16 -29 20 0 4 -13 13 -30 20 -16 7 -30 16 -30 21 0 5 -6 9 -13 9 -7 0 -23 9 -35 20 -12 11 -28 20 -37 20 -8 0 -15 3 -15 8 0 4 -17 15 -37 24 -21 10 -51 25 -68 34 -16 9 -38 21 -47 26 -18 8 -41 19 -78 38 -11 6 -27 10 -35 10 -8 0 -15 5 -15 10 0 6 -9 10 -20 10 -11 0 -28 4 -38 9 -9 5 -30 14 -47 21 -16 7 -38 16 -47 21 -10 5 -25 9 -35 9 -19 0 -79 18 -105 31 -10 5 -33 9 -52 9 -19 0 -37 4 -40 9 -6 10 -53 18 -156 27 -36 3 -69 10 -75 15 -5 5 -59 9 -120 9 l-111 0 4 -40z"/>
            <path d="M632 4023 c-7 -2 -27 -26 -44 -51 -18 -26 -47 -61 -65 -78 -18 -17 -33 -35 -33 -41 0 -6 -13 -25 -30 -43 -16 -18 -30 -35 -30 -40 0 -4 -11 -20 -25 -36 -14 -16 -25 -35 -25 -41 0 -7 -4 -13 -10 -13 -5 0 -10 -6 -10 -13 0 -7 -9 -23 -20 -35 -11 -12 -20 -28 -20 -36 0 -8 -4 -16 -8 -18 -11 -4 -112 -209 -112 -226 0 -7 -4 -12 -8 -12 -5 0 -15 -22 -22 -50 -7 -27 -17 -50 -22 -50 -4 0 -8 -11 -8 -24 0 -14 -5 -28 -10 -31 -5 -3 -10 -19 -10 -36 0 -16 -4 -29 -10 -29 -5 0 -10 -11 -10 -24 0 -14 -4 -27 -9 -30 -5 -3 -11 -23 -14 -43 -3 -21 -10 -58 -16 -83 -24 -96 -48 -262 -57 -402 l-6 -78 41 0 c36 0 41 3 41 23 0 65 24 257 46 371 71 363 280 790 514 1048 33 36 60 73 60 81 0 16 -31 47 -46 46 -5 0 -15 -3 -22 -6z"/>
            <path d="M4097 4012 c-25 -28 -21 -39 30 -93 108 -114 251 -331 342 -520 133 -274 200 -530 227 -856 6 -81 7 -83 33 -83 47 0 54 12 47 76 -4 33 -9 88 -12 124 -3 36 -9 78 -14 94 -6 16 -10 51 -10 77 0 26 -4 51 -10 54 -5 3 -10 22 -10 41 0 19 -4 34 -10 34 -5 0 -10 18 -10 39 0 22 -4 43 -10 46 -5 3 -10 17 -10 30 0 13 -4 27 -10 30 -5 3 -10 17 -10 30 0 13 -4 27 -10 30 -5 3 -10 17 -10 30 0 13 -4 27 -10 30 -5 3 -10 14 -10 23 0 10 -13 44 -30 77 -16 33 -30 68 -30 78 0 9 -4 17 -10 17 -5 0 -10 6 -10 14 0 17 -42 100 -52 104 -5 2 -8 12 -8 23 0 10 -4 19 -8 19 -5 0 -15 12 -23 28 -24 49 -150 232 -159 232 -5 0 -11 9 -15 19 -3 11 -28 44 -55 73 -27 29 -50 56 -50 60 0 12 -31 38 -44 38 -7 0 -20 -8 -29 -18z"/>
            <path d="M0 2255 c0 -47 4 -85 9 -85 5 0 12 -30 15 -67 3 -38 10 -97 15 -133 6 -36 13 -84 17 -107 3 -24 10 -43 15 -43 5 0 9 -18 9 -39 0 -22 5 -43 10 -46 6 -3 10 -17 10 -30 0 -13 5 -27 10 -30 6 -3 10 -17 10 -30 0 -13 5 -27 10 -30 6 -3 10 -14 10 -24 0 -9 9 -36 20 -59 11 -22 20 -48 20 -57 0 -8 5 -15 10 -15 6 0 10 -6 10 -14 0 -29 152 -315 173 -324 4 -2 7 -10 7 -18 0 -8 11 -26 25 -40 14 -14 25 -29 25 -33 0 -5 13 -24 30 -42 16 -19 30 -37 30 -41 0 -4 21 -32 48 -61 26 -29 56 -65 67 -80 26 -36 52 -43 76 -21 28 25 24 46 -17 85 -98 93 -250 321 -350 524 -126 256 -200 525 -226 817 l-11 128 -39 0 -38 0 0 -85z"/>
            <path d="M4700 2323 c-1 -142 -51 -437 -101 -598 -92 -295 -274 -623 -459 -827 -33 -36 -60 -73 -60 -82 0 -15 37 -56 51 -56 5 0 23 21 40 48 18 26 50 63 71 82 21 20 38 40 38 45 0 6 14 24 30 42 17 18 30 37 30 43 0 6 11 22 25 36 14 14 25 29 25 34 0 5 6 15 13 22 7 7 21 30 30 50 10 20 23 43 30 50 19 21 37 56 37 72 0 8 3 16 8 18 8 4 72 127 72 140 0 4 9 27 19 51 34 74 101 284 101 316 0 17 5 31 10 31 6 0 10 18 10 40 0 22 4 40 9 40 5 0 12 28 15 63 6 58 17 161 32 286 7 59 -1 71 -48 71 -20 0 -28 -5 -28 -17z"/>
            <path d="M783 697 c-13 -13 -23 -29 -23 -36 0 -13 78 -91 91 -91 4 0 21 -13 39 -30 18 -16 35 -30 39 -30 3 0 22 -14 41 -31 19 -17 47 -38 62 -47 15 -9 28 -20 28 -24 0 -4 5 -8 11 -8 6 0 23 -8 37 -19 40 -28 115 -71 135 -78 9 -3 17 -9 17 -14 0 -5 9 -9 20 -9 11 0 20 -4 20 -10 0 -5 9 -10 20 -10 11 0 20 -3 20 -7 0 -9 48 -33 66 -33 7 0 32 -10 56 -21 23 -12 54 -26 68 -32 14 -5 33 -13 42 -18 10 -5 27 -9 37 -9 11 0 23 -5 26 -10 3 -6 19 -10 36 -10 16 0 29 -4 29 -9 0 -5 15 -11 33 -14 17 -3 52 -11 77 -17 125 -31 252 -50 378 -56 62 -3 102 -9 102 -16 0 -6 6 -6 15 2 8 7 15 29 15 50 l0 37 -102 7 c-245 14 -455 65 -733 175 -92 37 -237 116 -379 208 -103 67 -286 211 -286 225 0 14 -14 8 -37 -15z"/>
            <path d="M3958 711 c-13 -38 -281 -229 -473 -338 -260 -148 -616 -252 -930 -272 l-100 -6 3 -35 c4 -34 21 -77 22 -53 0 8 33 13 103 17 56 2 134 9 172 15 39 6 90 13 115 17 25 3 49 10 55 15 5 5 20 9 34 9 25 0 83 16 113 31 10 5 25 9 33 9 24 0 95 24 95 32 0 5 9 8 19 8 11 0 23 5 26 10 3 5 16 10 29 10 12 0 26 4 31 9 6 5 28 14 50 21 22 7 46 19 53 27 8 8 27 17 43 20 16 3 29 9 29 13 0 4 17 15 38 24 42 17 90 45 109 63 7 6 22 15 33 18 11 3 20 11 20 16 0 5 6 9 13 9 6 0 25 11 41 25 16 14 32 25 36 25 4 0 25 16 46 35 22 19 44 35 49 35 6 0 32 23 60 50 27 28 53 50 58 50 12 0 37 27 37 40 0 10 -44 60 -54 60 -2 0 -6 -4 -8 -9z"/>
        </g>
    </g>
</svg>