<svg xmlns="http://www.w3.org/2000/svg" width="239" height="239" viewBox="0 0 2390 2390">
    <g fill="#fff">
        <path id="p659yovdC" d="M 1015 2374 c -157 -31 -220 -51 -330 -105 -83 -40 -88 -43 -168 -96 -87 -58 -111 -82 -97 -98 10 -12 20 -8 66 30 126 103 342 199 504 224 121 19 130 22 130 37 0 14 -54 18 -105 8 z "/>
        <path id="p2Nodeu7H" d="M 1270 2367 c 0 -11 13 -18 38 -22 84 -13 201 -39 257 -57 92 -30 239 -107 316 -166 65 -50 107 -62 97 -29 -11 32 -192 145 -338 211 -58 26 -214 64 -294 71 -65 6 -76 5 -76 -8 z "/>
        <path id="pNeJeJmcG" d="M 268 1944 c -16 -17 -28 -35 -28 -40 0 -4 -9 -17 -19 -28 -19 -21 -38 -53 -91 -151 -64 -118 -140 -419 -113 -446 18 -18 33 -1 33 35 0 158 113 441 235 590 19 24 35 48 35 53 0 24 -27 18 -52 -13 z "/>
        <path id="p1Hf4tdiUH" d="M 2081 1966 c -10 -12 -1 -28 44 -87 104 -135 187 -337 216 -528 10 -67 16 -81 31 -81 15 0 17 6 12 48 -25 213 -94 396 -210 563 -66 94 -77 104 -93 85 z "/>
        <path id="pTrY8rO2j" d="M 10 1091 c 0 -41 28 -181 51 -259 50 -163 221 -444 252 -413 8 8 8 16 2 26 -98 140 -131 194 -166 268 -45 98 -99 295 -99 363 0 37 -3 44 -20 44 -15 0 -20 -7 -20 -29 z "/>
        <path id="p2j3xDp8Q" d="M 2338 1016 c -32 -201 -105 -370 -227 -528 -37 -48 -42 -60 -31 -73 10 -12 16 -13 26 -4 8 6 14 16 14 21 0 6 17 31 39 57 106 127 203 374 226 574 6 51 5 57 -12 57 -16 0 -21 -15 -35 -104 z "/>
        <path id="pk1WFsPtn" d="M 424 308 c -15 -23 133 -131 267 -195 77 -37 243 -88 315 -98 27 -3 64 -8 82 -11 27 -4 32 -2 32 14 0 21 -25 32 -71 32 -14 0 -73 12 -130 26 -149 37 -324 122 -435 211 -46 37 -50 38 -60 21 z "/>
        <path id="phrObjsbH" d="M 1930 299 c -159 -128 -355 -215 -556 -246 -85 -13 -104 -19 -104 -33 0 -14 9 -16 58 -12 182 13 424 108 576 226 32 25 63 47 69 49 12 4 2 37 -10 37 -4 0 -19 -10 -33 -21 z "/>
    </g>
</svg>