<svg xmlns="http://www.w3.org/2000/svg" width="478" height="478" viewBox="0 0 4780 4780">
    <g fill="#fff">
        <path d="M1995 4738 c-49 -10 -103 -19 -120 -19 -16 -1 -32 -5 -35 -9 -3 -3 -48 -16 -100 -29 -52 -13 -99 -27 -105 -31 -5 -4 -30 -13 -55 -20 -25 -6 -64 -20 -87 -31 -24 -10 -49 -19 -57 -19 -8 0 -17 -4 -21 -9 -3 -5 -56 -35 -119 -65 -62 -31 -119 -63 -126 -71 -7 -8 -19 -15 -27 -15 -8 0 -28 -11 -45 -25 -16 -14 -35 -25 -42 -25 -7 0 -23 -12 -37 -26 -13 -14 -40 -34 -61 -45 -20 -10 -38 -23 -40 -28 -1 -5 -22 -24 -45 -43 l-41 -35 94 -94 c52 -51 94 -89 94 -84 0 13 111 97 221 168 99 63 255 144 362 186 165 66 422 127 552 133 28 1 53 6 57 12 4 6 8 63 8 127 l0 116 -67 -1 c-38 0 -108 -8 -158 -18z"/>
        <path d="M2560 4641 c0 -64 4 -121 8 -127 4 -6 32 -12 62 -13 132 -5 381 -66 550 -135 207 -84 341 -160 523 -298 l68 -52 86 86 86 86 -32 31 c-18 17 -49 42 -69 55 -20 13 -48 35 -61 50 -14 14 -32 26 -41 26 -9 0 -27 11 -40 25 -13 14 -29 25 -35 25 -7 0 -24 9 -39 21 -28 22 -89 56 -171 96 -27 13 -58 28 -67 34 -10 5 -24 9 -32 9 -7 0 -19 7 -26 15 -7 8 -20 15 -29 15 -9 0 -32 8 -51 19 -19 10 -52 21 -72 25 -20 4 -38 10 -40 14 -3 8 -253 72 -358 91 -30 6 -92 13 -137 15 l-83 4 0 -117z"/>
        <path d="M570 3937 c0 -8 -25 -40 -55 -72 -30 -31 -55 -63 -55 -69 0 -7 -16 -27 -35 -46 -19 -19 -35 -41 -35 -50 0 -9 -9 -25 -20 -35 -11 -10 -20 -24 -20 -31 0 -7 -11 -26 -25 -42 -14 -17 -25 -35 -25 -41 0 -5 -12 -32 -28 -58 -15 -26 -33 -61 -41 -78 -7 -16 -17 -37 -22 -45 -10 -17 -9 -15 -57 -140 -19 -52 -39 -99 -44 -105 -4 -5 -8 -24 -8 -41 0 -18 -4 -35 -9 -38 -5 -3 -11 -18 -14 -33 -2 -16 -16 -84 -31 -152 -14 -68 -26 -144 -26 -168 0 -27 -4 -42 -10 -38 -16 10 -12 -65 4 -81 19 -19 235 -21 240 -1 2 6 11 63 20 125 27 175 84 381 143 512 67 149 143 287 196 357 15 20 27 42 27 49 0 7 4 14 8 16 5 2 32 34 62 71 l53 69 -89 89 c-89 89 -104 100 -104 76z"/>
        <path d="M4101 3856 l-83 -84 49 -63 c94 -122 192 -275 233 -364 80 -172 90 -194 90 -205 0 -6 7 -24 15 -40 33 -64 105 -372 117 -505 l3 -30 118 -3 118 -3 -6 83 c-3 46 -13 119 -21 163 -8 44 -17 91 -19 105 -7 44 -56 214 -71 247 -8 17 -14 36 -14 42 0 6 -9 28 -20 48 -11 21 -20 43 -20 49 0 6 -13 37 -29 70 -16 32 -41 84 -56 114 -15 30 -38 73 -51 95 -13 22 -32 56 -43 75 -10 19 -28 44 -40 54 -12 11 -21 27 -21 36 0 9 -16 31 -35 50 -19 19 -35 39 -35 45 0 11 -83 105 -92 105 -2 0 -41 -38 -87 -84z"/>
        <path d="M13 2205 c-15 -17 -17 -102 -3 -107 5 -1 11 -28 14 -58 2 -30 12 -89 21 -130 9 -41 18 -84 19 -95 1 -12 5 -25 8 -30 3 -6 11 -35 18 -65 11 -47 53 -171 80 -235 22 -51 82 -182 90 -195 5 -8 16 -29 24 -46 8 -17 19 -35 25 -38 6 -4 11 -15 11 -25 0 -10 7 -24 16 -32 9 -7 23 -27 32 -45 27 -51 87 -137 111 -158 11 -11 21 -24 21 -31 0 -6 18 -29 40 -50 l40 -39 80 79 c44 44 80 85 80 91 0 7 -25 45 -55 86 -109 146 -139 194 -200 318 -130 260 -179 427 -231 778 l-6 42 -111 0 c-84 -1 -115 -4 -124 -15z"/>
        <path d="M4525 2183 c-42 -282 -51 -323 -109 -504 -34 -107 -144 -342 -195 -417 -10 -15 -37 -56 -61 -92 -24 -36 -55 -78 -70 -95 -68 -76 -68 -72 23 -163 46 -45 85 -82 89 -82 3 0 16 17 28 37 12 21 31 44 41 51 11 7 26 28 35 45 9 18 32 49 50 70 19 20 34 43 34 50 0 8 9 22 20 32 11 10 20 24 20 31 0 7 11 26 25 42 14 17 25 35 25 41 0 9 10 29 49 97 52 92 148 356 167 462 4 20 10 42 15 48 5 6 13 40 19 75 5 35 12 78 15 94 2 17 7 72 11 123 l7 92 -116 0 -116 0 -6 -37z"/>
        <path d="M3768 741 c-6 -17 -143 -120 -232 -175 -173 -107 -387 -204 -542 -246 -106 -28 -317 -70 -379 -75 l-50 -3 0 -119 0 -118 54 -3 c30 -2 57 1 60 7 4 6 22 11 41 12 45 2 249 38 275 49 33 13 269 91 283 94 7 1 18 8 24 14 7 7 18 12 26 12 21 0 238 108 252 125 7 8 18 15 25 15 7 0 29 14 50 30 21 17 43 30 50 30 7 0 19 7 26 16 8 9 30 27 50 39 19 13 56 40 82 62 25 21 56 46 69 55 l23 17 -85 85 c-84 85 -95 94 -102 77z"/>
        <path d="M906 661 l-78 -79 37 -41 c21 -22 43 -41 50 -41 7 0 30 -17 52 -37 37 -35 62 -53 134 -94 16 -9 36 -22 44 -29 33 -27 242 -132 340 -170 11 -4 31 -12 45 -18 40 -17 172 -59 210 -67 19 -4 40 -11 45 -15 6 -4 26 -10 45 -13 19 -3 62 -11 95 -17 33 -6 85 -13 115 -16 29 -2 57 -9 60 -15 4 -6 31 -9 61 -7 l54 3 0 120 c0 109 -2 120 -18 117 -53 -9 -398 69 -552 125 -182 66 -423 201 -580 326 -33 26 -65 47 -70 47 -6 0 -46 -35 -89 -79z"/>
    </g>
</svg>