<svg xmlns="http://www.w3.org/2000/svg" width="128" height="128" viewBox="0 0 1280 1280">
    <g fill="#fff">
        <path d="M570 1180 c-120 -19 -207 -66 -294 -160 -89 -96 -125 -193 -126 -331 0 -214 140 -405 346 -469 l56 -17 -26 -17 c-39 -25 -29 -76 14 -76 19 0 139 90 152 115 11 19 -14 62 -79 134 -30 34 -43 42 -60 37 -32 -10 -36 -34 -11 -74 l22 -35 -30 7 c-58 14 -135 59 -185 107 -133 130 -158 353 -57 512 109 172 329 237 520 155 54 -23 78 -15 78 28 0 53 -192 103 -320 84z"/>
        <path d="M1015 936 c-19 -13 -19 -16 9 -99 25 -74 28 -97 24 -169 -7 -134 -65 -239 -172 -313 -57 -39 -69 -55 -60 -80 24 -61 161 29 243 160 54 85 74 171 69 284 -6 101 -33 194 -65 219 -21 15 -25 15 -48 -2z"/>
        <path d="M402 908 c-54 -54 84 -129 238 -130 126 0 256 54 248 105 -6 39 -32 43 -87 14 -98 -54 -225 -54 -320 -1 -49 27 -62 29 -79 12z"/>
        <path d="M560 738 c-76 -52 -98 -125 -61 -202 29 -59 73 -86 141 -86 68 0 112 27 141 86 50 105 -24 224 -141 224 -32 0 -57 -7 -80 -22z m135 -83 c49 -49 16 -125 -55 -125 -44 0 -80 35 -80 77 0 34 42 73 80 73 19 0 40 -9 55 -25z"/>
    </g>
</svg>