<svg xmlns="http://www.w3.org/2000/svg" viewBox="0 0 68 68">
    <path fill="#ff780a" d="M57.974 17.146C57.533 9.812 51.445 4 44 4a2 2 0 0 1 0-4c9.67 0 17.558 7.625 17.982 17.19l.604-.604a2 2 0 0 1 2.828 2.828l-4 4a2 2 0 0 1-2.828 0l-4-4a2 2 0 0 1 2.828-2.828l.56.56zM24.081 47.903c-.689.064-1.383.097-2.081.097C9.85 48 0 38.15 0 26S9.85 4 22 4c11.51 0 20.954 8.838 21.919 20.097.685-.064 1.38-.097 2.081-.097 12.15 0 22 9.85 22 22s-9.85 22-22 22c-11.51 0-20.954-8.838-21.919-20.097zM22 8C12.059 8 4 16.059 4 26s8.059 18 18 18c.707 0 1.408-.04 2.101-.121.867-9.027 7.217-16.582 15.862-19.04C39.365 15.439 31.551 8 22 8zm24 56c9.941 0 18-8.059 18-18s-8.059-18-18-18-18 8.059-18 18 8.059 18 18 18z"/>
</svg>