<?xml version="1.0" encoding="utf-8"?>
<svg viewBox="580.569 15.866 202.331 202.735" width="202.331" height="202.735" xmlns="http://www.w3.org/2000/svg">
  <path d="m 5032.64,8075.84 c -1.16,-0.09 -2.3,-0.13 -3.44,-0.21 -3.27,-0.23 -6.56,-0.7 -9.75,-1.51 -1.59,-0.41 -3.12,-0.98 -4.69,-1.45 -1.72,-0.53 -3.5,-0.85 -5.3,-1.14 -2.67,-0.36 -5.34,-0.73 -7.98,-1.23 -3.35,-0.64 -6.67,-1.51 -10.02,-2.13 -4.32,-0.42 -8.67,-0.51 -12.95,-1.19 -2.36,-0.38 -4.68,-1.33 -6.96,-2.04 -1.75,-0.55 -3.5,-1.09 -5.23,-1.71 -3.59,-1.28 -7.12,-2.67 -10.74,-3.79 1.49,16.74 1.55,33.63 1.99,50.44 0.3,11.45 0.83,22.88 1.75,34.31 0.9,11.02 1.99,22.02 2.85,33.06 0.68,8.72 1.54,17.38 2.51,26.05 1.06,9.59 1.77,19.14 2.16,28.77 0.36,8.81 0.95,17.59 1.56,26.39 0.44,-0.89 0.93,-1.76 1.35,-2.67 3.89,-8.2 7.56,-16.47 11.14,-24.82 3.75,-9.56 7.2,-19.26 10.91,-28.84 4.08,-10.48 8.49,-20.84 12.71,-31.27 3.86,-9.63 7.44,-19.41 11.12,-29.1 3.84,-10.15 8.13,-20.11 12.33,-30.12 1.51,-3.6 3.04,-7.21 4.57,-10.82 3.11,-7.77 6.05,-15.59 9.35,-23.3 -0.36,0.86 -0.71,1.71 -1.07,2.56 0.39,-0.94 0.76,-1.89 1.15,-2.83 -3.13,-0.13 -6.24,-0.84 -9.32,-1.41 z m 26.84,-18.33 c 0.07,0.02 0.14,0 0.21,0.02 5.5,1.49 8.35,7.09 7.09,12.5 -0.13,0.54 -0.37,1.11 -0.64,1.69 -1.38,3.82 -2.48,7.74 -3.85,11.58 -1.68,4.7 -3.17,9.4 -4.61,14.16 -3.24,10.7 -7.59,21.06 -12.27,31.21 -4.4,9.51 -9.1,18.9 -13.54,28.38 -4.51,9.68 -8.91,19.4 -13.44,29.05 -2.4,5.03 -4.75,10.07 -7.03,15.14 -6.23,15.11 -11.96,30.42 -18.41,45.42 -1.53,3.56 -3.16,7.07 -4.8,10.6 -1.49,3.2 -2.89,6.54 -4.6,9.65 -4.66,8.48 -9.54,16.84 -14.39,25.22 -1.18,4.42 -5.41,7.78 -10.09,7.78 -5.84,0 -10.34,-4.77 -10.49,-10.46 -0.16,-6.19 -0.33,-12.35 -0.58,-18.54 -0.25,-5.65 -0.72,-11.24 -1.17,-16.89 -0.9,-11.21 -1.75,-22.43 -2.68,-33.67 -0.9,-10.95 -2.73,-21.86 -3.94,-32.79 -1.21,-11.03 -1.99,-22.13 -3.12,-33.15 -1.1,-10.7 -2.14,-21.41 -2.47,-32.18 -0.33,-11.27 -0.38,-22.5 -0.14,-33.77 0.21,-10.19 0.7,-20.39 1.35,-30.58 0.15,-2.14 0.16,-4.27 0.28,-6.41 0.17,-3.11 -0.02,-6.54 1.59,-9.29 0.8,-1.38 2.18,-2.68 3.56,-3.49 1.68,-0.99 3.34,-1.19 5.26,-1.3 0.65,-0.03 1.45,0.16 2.09,0.25 1.28,0.17 2.41,0.31 3.63,0.55 2.85,0.5 5.64,1.09 8.44,1.76 7.14,1.69 14.08,4.24 21.31,5.53 1.19,0.06 2.39,0.06 3.58,0.06 1.17,0 2.33,0 3.49,0.07 3.47,0.17 6.91,0.48 10.31,1.12 3.87,0.75 7.74,1.48 11.64,2.07 2.82,0.33 5.65,0.69 8.35,1.53 2.71,0.87 5.33,1.88 8.07,2.49 1.84,0.13 3.67,0.13 5.53,0.17 2.67,0.05 5.35,0.76 8.03,0.97 1.92,0.15 3.84,0.07 5.74,0.05 2.49,-0.03 5.72,-0.17 8,0.74 1.8,0.51 3.39,1.43 4.71,2.76" style="fill:yellow;fill-opacity:1;fill-rule:nonzero;stroke:none" id="path482" transform="matrix(0.133333, 0, 0, -0.133333, 0, 1122.52002)"/>
  <path d="m 5155.25,8071.82 c -4.65,-0.49 -9.27,-0.53 -13.95,-0.29 -4.27,0.21 -8.53,0.45 -12.79,0.68 3.61,14.75 7.09,29.53 11.12,44.15 2.01,7.28 4.17,14.52 6.26,21.75 0.43,1.5 0.88,3.01 1.34,4.52 0.08,-0.48 0.18,-0.96 0.27,-1.44 1.11,-5.83 2.23,-11.69 3.3,-17.55 1.2,-6.64 2.34,-13.32 3.77,-19.94 1.35,-6.14 2.68,-12.29 3.53,-18.51 -0.07,0.61 -0.15,1.2 -0.24,1.81 0.14,-0.98 0.27,-1.97 0.41,-2.96 0,0 0,-0.01 0,-0.02 -0.04,0.3 -0.08,0.59 -0.13,0.88 0.02,-0.11 0.03,-0.21 0.04,-0.31 0.01,-0.02 0.01,-0.04 0.01,-0.05 0,0.01 0,0.03 -0.01,0.05 0.04,-0.27 0.08,-0.54 0.12,-0.8 0.42,-3.79 0.65,-7.59 0.91,-11.4 -1.32,-0.18 -2.64,-0.37 -3.96,-0.57 z m 3.03,12.13 c 0,0.01 0,0.03 -0.01,0.05 0,0 0,0.01 0,0.02 0,-0.03 0.01,-0.05 0.01,-0.07 z m 0.11,-0.82 c 0.03,-0.21 0.05,-0.41 0.08,-0.62 -0.05,0.36 -0.1,0.72 -0.15,1.08 0.03,-0.15 0.05,-0.31 0.07,-0.46 z m 0.2,-1.55 c -0.04,0.3 -0.07,0.6 -0.11,0.9 -0.02,0.13 -0.04,0.26 -0.05,0.4 0.06,-0.43 0.11,-0.87 0.16,-1.3 z m 10.39,-29.29 c 2.54,-0.39 5.19,-0.01 7.45,1.31 3.6,2.11 5.41,5.74 5.62,9.79 0.1,1.9 -0.6,4.39 -0.9,6.33 -0.26,1.69 -0.64,3.32 -1.12,4.96 -1.13,3.86 -2.3,7.7 -3.27,11.64 -1.02,4.15 -2.01,8.3 -3.06,12.43 -1.16,4.52 -2.54,9 -3.72,13.54 -2.26,8.6 -3.96,17.35 -5.98,26.03 -1.11,4.7 -2.2,9.36 -3.32,14.06 -0.5,2.06 -1.04,4.13 -1.56,6.19 -0.86,3.29 -1.99,7.02 -3.96,9.77 -1.09,1.49 -2.23,2.63 -4.08,3.13 -0.59,0.16 -1.17,0.24 -1.73,0.24 -1.8,0 -3.39,-0.8 -4.89,-2 -1.35,-1.09 -2.22,-3.17 -2.99,-4.73 -1.08,-2.16 -1.91,-4.46 -2.67,-6.77 -1.18,-3.58 -2.21,-7.21 -3.27,-10.83 -2.4,-8.16 -4.34,-16.43 -6.64,-24.62 -5.08,-18.15 -9.26,-36.56 -13.83,-54.86 -0.5,-1.04 -0.79,-2.17 -0.79,-3.32 0,-4.55 3.65,-7.68 7.99,-7.96 6.99,-0.46 13.99,-0.96 20.98,-1.6 5.28,-0.5 10.54,-0.68 15.78,-1.07 1.5,-0.32 2.95,-0.76 4.45,-1.11 1.73,-0.41 3.65,-0.64 5.51,-0.55" style="fill:yellow;fill-opacity:1;fill-rule:nonzero;stroke:none" id="path484" transform="matrix(0.133333, 0, 0, -0.133333, 0, 1122.52002)"/>
  <path d="m 5158.18,8084.59 c -0.02,0.2 -0.05,0.4 -0.08,0.6 0.03,-0.2 0.06,-0.4 0.08,-0.6 v 0" style="fill:yellow;fill-opacity:1;fill-rule:nonzero;stroke:none" id="path486" transform="matrix(0.133333, 0, 0, -0.133333, 0, 1122.52002)"/>
  <path d="m 5309.34,8039.94 c -3.61,0.83 -7.03,2.04 -10.51,3.25 -2.18,0.76 -4.5,0.97 -6.76,1.35 -4.37,0.71 -8.49,1.69 -12.64,3.25 -7.44,2.87 -15.32,4.65 -23.04,6.55 -3.66,0.9 -7.43,1.49 -11.11,2.25 -2.68,0.56 -5.35,1.12 -8.02,1.67 0.15,0.22 0.32,0.4 0.47,0.63 0.53,0.74 0.83,1.66 1.26,2.44 1.85,3.46 4.2,6.62 6.31,9.91 1.65,2.53 3.31,5.08 4.96,7.62 2.48,3.14 4.95,6.28 7.42,9.44 3.2,4.05 6.35,8.15 9.09,12.56 0.84,1.35 1.65,2.73 2.48,4.09 2.53,3.33 4.94,6.75 7.14,10.33 2.22,3.63 4.36,7.32 6.69,10.91 2.42,3.69 4.98,7.27 7.49,10.9 4.96,7.16 9.01,14.87 13.21,22.5 0.89,1.62 1.79,3.24 2.68,4.85 4.35,6.68 8.72,13.35 12.88,20.15 3.53,5.77 6.61,11.86 9.86,17.79 3.46,6.35 7.04,12.64 10.64,18.9 0.3,0.5 0.58,1.01 0.87,1.51 -0.46,-8.02 -0.91,-16.05 -1.34,-24.06 -1.16,-22.1 -2.96,-44.13 -4.69,-66.19 -0.76,-9.84 -1.45,-19.66 -2.11,-29.49 -0.65,-9.31 -1.92,-18.58 -3.14,-27.84 -0.67,-4.58 -1.36,-9.16 -2.17,-13.73 -0.88,-4.82 -2,-9.6 -2.99,-14.39 -0.77,-3.73 -1.59,-7.46 -2.62,-11.12 -4.04,1.72 -8.03,3.01 -12.31,3.97 z m 12.61,-27.52 c 1,-1.13 2.11,-2.17 3.43,-2.94 2.21,-1.28 4.6,-1.92 7.16,-1.94 2.57,0.02 4.96,0.66 7.17,1.94 2.53,1.89 3.81,2.84 5.59,5.48 1.09,1.61 1.75,3.5 2.35,5.38 0.47,1.59 0.54,3.41 0.87,5.05 0.85,4.17 1.6,8.34 2.23,12.56 0.78,5.18 1.59,10.37 2.35,15.56 0.92,6.33 1.45,12.74 1.9,19.11 0.35,5.08 0.28,10.2 0.5,15.27 0.18,5.06 0.25,10.11 0.3,15.16 0.12,10.38 -0.33,20.74 0.1,31.13 0.9,22.01 2.37,43.96 3.39,65.97 0.48,10.2 1.02,20.39 1.35,30.59 0.19,5.69 0.4,11.38 0.64,17.1 0.1,2.49 0.28,5 0.41,7.51 0.2,3.99 0.75,8.02 -0.1,11.93 -0.48,2.25 -2.23,4.29 -4.18,5.43 -1.44,0.85 -2.93,1.18 -4.47,1.18 -0.82,0 -1.66,-0.09 -2.52,-0.26 -3.89,-0.75 -5.45,-4.12 -7.11,-7.18 -1.42,-2.59 -2.29,-5.47 -3.33,-8.21 -1.82,-3.92 -4.02,-7.6 -6.04,-11.42 -2.32,-4.46 -4.58,-8.94 -6.92,-13.38 -4.91,-9.34 -9.75,-18.69 -14.42,-28.15 -4.79,-9.7 -9.93,-19.11 -15.41,-28.43 -5.48,-9.34 -10.84,-18.73 -16.2,-28.12 -1.76,-3.07 -3.48,-6.17 -5.23,-9.25 -1.09,-1.52 -2.2,-3.03 -3.26,-4.58 -2.21,-3.18 -4.27,-6.4 -6.38,-9.65 -2.14,-3.3 -4.36,-6.5 -6.67,-9.69 -2.53,-3.01 -5.13,-5.94 -7.72,-8.9 -2.8,-3.27 -5.46,-6.64 -8.23,-9.94 -2.66,-3.18 -5.5,-6.14 -8.21,-9.27 -2.75,-3.22 -5.52,-6.42 -8.51,-9.44 -3.63,-3.67 -8.42,-6.16 -9.92,-11.55 -0.96,-3.55 -0.11,-7.26 2.19,-10.11 -0.46,-0.55 -0.9,-1.11 -1.35,-1.66 -1.85,-2.25 -2.23,-5.34 0,-7.54 0.48,-0.49 1.08,-0.87 1.74,-1.14 1.16,-1.79 2.88,-3.19 5.05,-3.66 8.7,-1.87 17.43,-3.65 26.13,-5.5 6.78,-1.45 13.42,-3.68 19.97,-5.99 4.46,-1.96 8.91,-3.82 13.73,-4.85 2.91,-0.6 5.85,-1.04 8.7,-1.98 2.55,-1.13 5.08,-2.31 7.7,-3.26 2.31,-0.83 4.63,-1.6 6.92,-2.46 1.85,-0.9 3.69,-1.89 5.58,-2.71 1.16,-0.5 2.46,-1.13 3.81,-1.7 1.43,-0.95 3.1,-1.5 4.82,-1.48 0.03,0 0.07,0 0.1,-0.01" style="fill:yellow;fill-opacity:1;fill-rule:nonzero;stroke:none" id="path488" transform="matrix(0.133333, 0, 0, -0.133333, 0, 1122.52002)"/>
  <path d="m 5451.61,8063.04 c 0.01,0.01 0.03,0.02 0.04,0.03 0.09,0.06 0.17,0.13 0.25,0.2 -0.09,-0.08 -0.19,-0.16 -0.29,-0.23" style="fill:yellow;fill-opacity:1;fill-rule:nonzero;stroke:none" id="path490" transform="matrix(0.133333, 0, 0, -0.133333, 0, 1122.52002)"/>
  <path d="m 5410.68,7988.06 c -3.93,2.23 -8.03,4.15 -11.99,6.36 -1.5,0.83 -3,1.65 -4.49,2.48 1.82,1.93 3.67,3.84 5.57,5.67 2.61,2.52 5.39,4.79 8.12,7.16 3.15,2.73 6.21,5.53 9.34,8.28 3.08,2.7 6.35,5.22 9.49,7.87 6.16,5.17 12.23,10.41 18.35,15.63 0.61,0.53 1.23,1.05 1.84,1.58 -2.55,-5.55 -5.04,-11.14 -7.44,-16.76 -1.61,-3.79 -3.25,-7.51 -5.21,-11.14 -1.99,-3.63 -3.97,-7.26 -5.88,-10.93 -1.83,-3.49 -3.4,-7.09 -5.01,-10.67 -1.63,-3.59 -3.25,-7.2 -4.75,-10.83 -2.51,1.96 -5.14,3.72 -7.94,5.3 z m 17.45,-31.42 c 2.43,1.43 3.73,3.52 4.73,6.07 0.36,0.98 0.44,2.43 0.53,3.7 1.72,10.21 5.23,19.96 9.07,29.55 1.71,3.81 3.45,7.61 5.17,11.43 2.1,4.63 3.95,9.35 5.91,14.03 1.38,3.19 2.81,6.34 4.21,9.52 1.49,3.37 2.82,6.78 4.19,10.18 1.46,3.21 2.96,6.41 4.13,9.74 0.96,2.7 1.46,5.5 1.88,8.3 0.19,1.08 0.41,2.13 0.66,3.19 0.43,1.88 0.07,3.87 -1.34,5.29 -1.16,1.15 -2.57,1.57 -4.08,1.57 -0.48,0 -0.96,-0.05 -1.45,-0.12 -1.85,-0.29 -3.54,-1.4 -5.05,-2.42 -1.75,-1.13 -3.42,-2.33 -5.04,-3.6 -0.46,-0.36 -0.93,-0.72 -1.39,-1.07 0.09,0.06 0.18,0.13 0.27,0.19 -0.14,-0.1 -0.26,-0.19 -0.38,-0.29 -0.19,-0.14 -0.38,-0.28 -0.55,-0.42 0.15,0.11 0.29,0.23 0.44,0.34 -0.57,-0.43 -1.12,-0.87 -1.7,-1.29 0.43,0.31 0.83,0.62 1.26,0.95 -9.38,-7.22 -18.57,-14.66 -27.9,-21.93 -3.91,-2.95 -7.83,-5.85 -11.7,-8.83 -4.47,-3.44 -8.68,-7.18 -13.06,-10.69 -5.39,-4.07 -10.95,-7.9 -17.11,-10.72 -1.96,-0.74 -4.06,-1.29 -5.76,-2.51 -2.59,-1.88 -4.1,-3.68 -5.19,-6.84 -0.5,-1.37 -0.52,-4.19 0.03,-5.57 0.25,-0.93 0.62,-1.79 1.11,-2.59 0.58,-2.48 2.11,-4.74 4.45,-6.04 5.31,-2.89 10.56,-5.88 15.92,-8.65 4.79,-2.48 9.42,-5 13.75,-8.18 2.87,-2.38 5.53,-5.1 8.04,-7.78 1.54,-1.66 3.18,-3.25 5.14,-4.39 3.3,-1.92 7.52,-2.04 10.81,-0.12" style="fill:yellow;fill-opacity:1;fill-rule:nonzero;stroke:none" id="path492" transform="matrix(0.133333, 0, 0, -0.133333, 0, 1122.52002)"/>
  <path d="m 5450.26,8062 c -0.07,-0.06 -0.14,-0.12 -0.22,-0.18 0.04,0.03 0.07,0.06 0.11,0.08 0.03,0.03 0.07,0.06 0.11,0.1" style="fill:yellow;fill-opacity:1;fill-rule:nonzero;stroke:none" id="path494" transform="matrix(0.133333, 0, 0, -0.133333, 0, 1122.52002)"/>
  <path d="m 5496.65,7935.8 c 7.21,4.17 14.82,7.7 22.29,11.35 7.07,3.42 13.92,7.19 20.78,10.96 3.45,1.89 6.97,3.72 10.41,5.66 3.6,2.02 7.14,4.15 10.64,6.31 7.11,4.39 14.41,8.3 21.82,12.15 6.82,3.57 13.32,7.7 19.77,11.92 6.71,4.41 13.37,8.87 20.11,13.23 3.22,2.11 6.57,4.08 9.68,6.36 3.33,2.46 6.52,5.1 9.74,7.69 0.27,0.2 0.54,0.4 0.81,0.61 -1.45,-1.99 -2.9,-3.98 -4.34,-5.98 -4.84,-6.66 -9.75,-13.26 -14.49,-19.99 -4.55,-6.47 -8.8,-13.14 -12.92,-19.84 -4.1,-6.69 -8.3,-13.33 -12.43,-20.02 -4.15,-6.73 -8.54,-13.3 -12.94,-19.85 -4.56,-6.73 -8.95,-13.56 -13.43,-20.32 -4.44,-6.68 -8.7,-13.49 -13.09,-20.18 -4.33,-6.59 -8.91,-12.99 -13.25,-19.56 -2.37,-3.63 -4.75,-7.26 -7.04,-10.91 -0.13,-0.2 -0.25,-0.41 -0.37,-0.61 -0.56,1.13 -1.14,2.25 -1.85,3.31 -2.02,3.06 -4.43,5.91 -6.69,8.77 -4.31,5.58 -8.58,11.27 -13.68,16.16 -2.7,2.61 -5.38,5.21 -7.97,7.94 -2.39,2.51 -4.53,5.31 -6.76,7.99 -5.57,6.76 -12.29,12.34 -19.19,17.69 1.38,1 2.73,2.05 4.15,3.01 3.27,2.23 6.8,4.15 10.24,6.15 z m -29.77,0.37 c -2.37,0 -4.69,-0.95 -6.35,-2.63 -1.68,-1.66 -2.63,-3.96 -2.63,-6.36 0,-2.11 0.85,-4.97 2.63,-6.35 4.05,-3.15 8.18,-6.26 12.16,-9.53 4.01,-3.27 7.76,-6.78 11.29,-10.6 1.23,-1.34 2.37,-2.81 3.52,-4.22 2.81,-3.77 5.61,-7.54 8.62,-11.15 2.78,-3.34 5.65,-6.54 8.36,-9.88 3.9,-5.23 7.68,-10.53 11.42,-15.87 1.73,-2.47 3.27,-5.03 4.67,-7.7 1.54,-2.89 3.55,-5.45 5.57,-8.01 1.38,-1.88 2.58,-3.84 4.03,-5.68 1.68,-2.06 4.96,-3.08 7.5,-3.08 3.72,0 7.25,2.02 9.13,5.24 0.97,1.68 1.41,3.52 1.39,5.34 0,0 0.01,0.01 0.01,0.02 1.05,1.69 2.3,3.22 3.39,4.88 1.73,2.57 3.37,5.2 5.15,7.71 4.48,6.36 8.86,12.76 13.38,19.07 2.44,3.41 4.95,6.76 7.37,10.19 2.32,3.25 4.5,6.62 6.73,9.94 4.53,6.73 9.18,13.4 13.54,20.22 4.12,6.43 8.27,12.81 12.29,19.28 4.24,6.81 7.84,14.06 11.69,21.09 7.61,13.96 15.86,27.6 24.39,41.02 6.36,9.98 12.42,20.19 19.28,29.86 2.61,3.32 5.25,6.62 8,9.83 1.73,2.06 3.45,4.13 5.21,6.19 0.95,1.14 1.87,2.39 2.85,3.56 0.28,0.23 0.55,0.46 0.82,0.68 1.24,1.02 2.99,2.57 3.23,4.15 0.31,2 0.05,3.49 -1.35,5.03 -1.04,1.14 -2.45,1.5 -3.9,1.5 -0.52,0 -1.06,-0.05 -1.58,-0.12 -1.43,-0.22 -2.67,-1.14 -3.8,-2.13 -1.54,-0.51 -3.08,-1.13 -4.59,-1.78 -3.23,-1.4 -6.42,-2.92 -9.61,-4.44 -7.02,-3.35 -13.89,-6.95 -20.51,-11.03 -3.38,-2.11 -6.68,-4.36 -9.96,-6.66 -3.12,-2.23 -6.42,-4.08 -9.81,-5.86 -7.12,-3.72 -13.83,-8.03 -20.59,-12.35 -6.52,-4.2 -12.85,-8.7 -19.42,-12.83 -7.28,-4.55 -14.7,-8.87 -21.84,-13.63 -3.25,-2.16 -6.4,-4.53 -9.6,-6.81 -3.27,-2.3 -6.59,-4.5 -9.99,-6.62 -6.75,-4.19 -13.48,-8.6 -20.5,-12.33 -8.8,-4.67 -17.79,-9.03 -26.54,-13.79 -4.1,-2.24 -8.08,-4.65 -12.02,-7.12 -3.36,-2.11 -6.55,-4.52 -9.72,-6.95 -1.05,0.43 -2.14,0.71 -3.31,0.71" style="fill:yellow;fill-opacity:1;fill-rule:nonzero;stroke:none" id="path496" transform="matrix(0.133333, 0, 0, -0.133333, 0, 1122.52002)"/>
  <path d="m 5637.52,7802.36 c -6.11,-5.57 -12.17,-11.24 -18.12,-16.98 -5.71,-5.55 -11,-11.59 -16.33,-17.52 -0.51,-0.56 -1.01,-1.13 -1.51,-1.7 -0.29,0.62 -0.58,1.23 -0.89,1.84 -1.75,3.54 -3.43,7.07 -5.31,10.53 -1.99,3.63 -4.08,7.16 -6.29,10.67 -1.7,2.71 -3.58,5.33 -5.5,7.92 0.65,0.16 1.28,0.31 1.93,0.45 3.77,0.83 7.44,1.88 11.14,3.02 3.6,1.11 7.42,1.58 11.12,2.32 3.56,0.69 7.09,1.52 10.67,2.23 7.66,1.54 15.2,3.48 22.76,5.43 2.74,0.71 5.45,1.42 8.16,2.14 -4.04,-3.35 -7.96,-6.82 -11.83,-10.35 z m 43.04,34.12 c -0.35,0.04 -0.69,0.05 -1.03,0.05 -2.3,0 -4.75,-0.67 -7.01,-1.04 -1.85,-0.31 -3.7,-0.64 -5.55,-0.97 -4.25,-0.71 -8.46,-1.52 -12.66,-2.39 -7.52,-1.58 -15.01,-3.21 -22.5,-4.87 -4.09,-0.92 -8.19,-1.87 -12.27,-2.8 -3.62,-0.8 -7.27,-1.37 -10.95,-1.99 -3.58,-0.61 -7.14,-1.45 -10.69,-2.18 -1.83,-0.38 -3.63,-0.76 -5.43,-1.23 -2.07,-0.55 -4.08,-1.45 -6.1,-2.21 -3.25,-1.21 -6.57,-1.83 -9.89,-2.77 -1.66,-0.48 -3.25,-1.24 -4.86,-1.78 -2.96,-1 -5.9,-1.44 -8.13,-3.96 -1.64,-1.85 -2.68,-3.91 -2.68,-6.45 0,-2.4 0.97,-4.79 2.68,-6.48 0.15,-0.14 0.3,-0.28 0.46,-0.41 0.16,-1.13 0.52,-2.22 1.15,-3.07 4.08,-5.57 8.23,-11.17 11.65,-17.22 2.74,-4.85 5.54,-9.65 7.86,-14.73 1.55,-3.95 2.8,-7.99 4.23,-11.99 0.23,-0.74 0.5,-1.47 0.76,-2.18 0.73,-1.99 1.42,-3.56 2.94,-5.08 1.96,-1.97 4.43,-2.84 7.21,-3.03 4.74,-0.31 8.51,3.32 9.96,7.51 0.11,0.36 0.21,0.72 0.31,1.08 1.77,3 3.92,5.8 6.06,8.56 0.1,0.11 0.19,0.23 0.28,0.34 0.25,0.34 0.51,0.67 0.77,1.01 4.42,5.71 8.89,11.44 13.75,16.81 5.67,6.26 11.52,12.35 17.36,18.47 2.68,2.8 5.35,5.59 8.09,8.37 2.46,2.51 4.9,5.08 7.46,7.49 4.92,4.6 9.87,9.26 15.16,13.45 -0.04,-0.04 -0.09,-0.08 -0.14,-0.12 0.23,0.19 0.47,0.37 0.7,0.55 0.13,0.09 0.25,0.19 0.36,0.28 -0.04,-0.03 -0.08,-0.06 -0.11,-0.09 0.77,0.59 1.53,1.21 2.3,1.8 -0.12,-0.1 -0.24,-0.19 -0.36,-0.29 0.29,0.22 0.57,0.43 0.88,0.62 3.48,0.83 5.18,4.67 4.43,7.94 -0.03,0.05 -0.03,0.1 -0.05,0.12 -0.31,1.14 -0.88,2.11 -1.71,2.94 -1.32,1.35 -2.87,1.75 -4.69,1.94" style="fill:yellow;fill-opacity:1;fill-rule:nonzero;stroke:none" id="path498" transform="matrix(0.133333, 0, 0, -0.133333, 0, 1122.52002)"/>
  <path d="m 5678.95,7820.79 c 0.28,0.19 0.54,0.41 0.81,0.62 -0.08,-0.06 -0.16,-0.12 -0.25,-0.19 -0.18,-0.15 -0.37,-0.29 -0.56,-0.43" style="fill:yellow;fill-opacity:1;fill-rule:nonzero;stroke:none" id="path500" transform="matrix(0.133333, 0, 0, -0.133333, 0, 1122.52002)"/>
  <path d="m 5843.24,7682.09 c -0.13,-0.05 -0.24,-0.1 -0.37,-0.15 -0.57,-0.24 -1.14,-0.49 -1.72,-0.73 0.71,0.29 1.41,0.59 2.09,0.88" style="fill:yellow;fill-opacity:1;fill-rule:nonzero;stroke:none" id="path502" transform="matrix(0.133333, 0, 0, -0.133333, 0, 1122.52002)"/>
  <path d="m 5788.56,7679.86 c -8.98,-3.75 -17.97,-7.41 -26.89,-11.26 -8.27,-3.58 -16.62,-7 -24.73,-10.91 -8.54,-4.13 -17.17,-8.11 -25.66,-12.33 -8.46,-4.17 -16.74,-8.75 -25.13,-13.09 -9.18,-4.77 -17.86,-10.24 -26.63,-15.7 -4.75,-2.96 -9.39,-6.02 -13.96,-9.22 -0.66,-0.47 -1.31,-0.94 -1.96,-1.41 -0.34,2.15 -0.72,4.3 -1.07,6.46 -0.6,5.14 -0.95,10.28 -1.44,15.44 -0.26,2.77 -0.64,5.54 -0.94,8.32 -0.57,4.74 -0.67,9.51 -1.43,14.22 -0.68,4.32 -2.21,8.57 -3.37,12.76 -0.75,2.73 -1.7,5.41 -2.58,8.09 -0.97,3.01 -2.14,5.98 -3.2,8.94 -1.61,4.48 -3.27,8.92 -5.15,13.28 -0.21,0.51 -0.44,1.03 -0.67,1.53 0.06,0 0.12,0.01 0.18,0.01 3.05,0.02 6.09,-0.55 9.15,-0.61 2.8,-0.08 5.54,-0.43 8.35,-0.65 3.18,-0.25 6.37,-0.48 9.58,-0.85 4.1,-0.59 8.2,-1.15 12.33,-1.59 -0.69,0.1 -1.38,0.19 -2.07,0.29 4.96,-0.67 9.84,-1.43 14.84,-1.66 4.49,-0.22 8.97,-0.6 13.45,-1.03 4.91,-0.44 9.81,-0.71 14.73,-0.87 4.74,-0.17 9.48,-0.5 14.24,-0.71 4.54,-0.22 9.12,-0.08 13.67,-0.08 4.95,-0.02 9.91,-0.07 14.86,-0.02 9.21,0.08 18.24,2.13 27.39,2.66 7.52,0.45 15.03,0.74 22.55,1.25 6.91,0.5 13.76,0.81 20.66,0.91 0.21,0 0.43,0 0.63,0 -10.05,-3.67 -19.85,-7.97 -29.73,-12.17 z m 82.09,23.17 c -0.71,1.21 -1.68,2.15 -2.87,2.87 -1.21,0.92 -3.01,1.28 -4.48,1.66 -1.11,0.31 -2.28,0.42 -3.41,0.64 -2.75,0.47 -5.62,0.83 -8.42,1.04 -4.72,0.38 -9.46,0.69 -14.2,0.86 -4.82,0.14 -9.63,0.26 -14.45,0.37 -4.18,0.11 -8.38,0.34 -12.56,0.34 -0.37,0 -0.74,0 -1.12,-0.01 -9.75,-0.06 -19.46,-0.92 -29.21,-1.27 -4.7,-0.19 -9.36,-0.55 -14.04,-1.03 -4.65,-0.47 -9.25,-1.3 -13.87,-1.8 -9.41,-0.99 -18.83,-0.95 -28.29,-1.13 -9.48,-0.19 -18.96,0 -28.43,0.35 -9.18,0.33 -18.36,0.76 -27.53,0.81 -8.78,0.02 -17.58,0.4 -26.34,0.71 -3.29,0.13 -6.57,0.2 -9.83,0.51 -1.94,0.32 -3.86,0.7 -5.8,0.98 -1.91,0.29 -3.83,0.42 -5.75,0.62 -2.37,0.51 -4.64,0.86 -7.1,0.36 -0.84,-0.17 -1.63,-0.45 -2.37,-0.8 -1.7,-0.03 -3.38,-0.46 -4.82,-1.29 -2.21,-1.31 -3.87,-3.44 -4.55,-5.91 -0.73,-2.7 -0.19,-5.17 1,-7.61 1.71,-3.45 3.4,-6.91 4.97,-10.44 2.52,-6.34 4.83,-12.92 6.67,-19.48 1.59,-5.63 3.18,-11.33 4.18,-17.11 0.43,-4.5 0.29,-9.06 0.65,-13.56 0.29,-3.74 0.55,-7.51 0.79,-11.28 0.21,-3.54 0.4,-7.09 0.75,-10.6 0.38,-3.67 0.96,-7.32 1.49,-10.99 0.45,-3.92 0.69,-7.98 2.2,-11.66 0.94,-2.25 1.74,-4.19 3.57,-5.93 2.59,-2.41 5.98,-3.43 9.46,-2.62 3.7,0.82 6.79,3.36 9.82,5.5 7.85,5.5 16,10.38 24.28,15.2 4.32,2.51 8.61,5.1 12.97,7.56 4.3,2.42 8.66,4.65 13.07,6.82 8.6,4.3 17,8.97 25.6,13.24 7.12,3.53 14.45,6.71 21.64,10.1 7.21,3.43 14.55,6.57 21.92,9.7 -0.19,-0.08 -0.37,-0.16 -0.56,-0.23 4.6,1.93 9.16,3.91 13.75,5.86 1.88,0.78 3.75,1.57 5.62,2.35 13.68,5.67 27.06,12 40.55,18.06 5.8,2.32 11.54,4.71 17.27,7.15 0.44,0.19 0.88,0.37 1.32,0.56 -0.71,-0.31 -1.4,-0.6 -2.08,-0.91 3.23,1.39 6.48,2.75 9.74,4.12 2.99,1.25 6.01,2.44 9.01,3.66 1.19,0.47 2.35,1 3.55,1.4 0.32,0.12 0.65,0.21 0.96,0.31 1.61,0.52 2.7,1.13 4.02,2.25 1.58,1.28 2.36,3.7 2.36,5.64 0,1.45 -0.38,2.8 -1.1,4.06" style="fill:yellow;fill-opacity:1;fill-rule:nonzero;stroke:none" id="path504" transform="matrix(0.133333, 0, 0, -0.133333, 0, 1122.52002)"/>
  <path d="m 5657.09,7523.84 c 3.79,-1.12 7.49,-2.49 11.36,-3.37 2.06,-0.47 4.12,-0.97 6.18,-1.5 2.14,-0.52 4.18,-1.37 6.24,-2.18 3.7,-1.45 7.68,-1.84 11.55,-2.72 3.41,-0.76 6.66,-1.71 9.9,-3.04 2.04,-0.83 4.18,-1.33 6.29,-1.87 4.22,-1.09 8.44,-1.93 12.54,-3.42 1.79,-0.66 3.52,-1.4 5.34,-1.99 1.78,-0.57 3.7,-0.95 5.53,-1.32 1,-0.21 1.99,-0.43 2.98,-0.65 -4.44,-1 -8.89,-2 -13.37,-2.79 -13.25,-1.7 -26.54,-3.11 -39.88,-3.99 -3.49,-0.21 -6.98,-0.5 -10.46,-0.57 -3.75,-0.05 -7.49,0.03 -11.24,0.1 -3.7,0.07 -7.41,0.16 -11.1,0.28 0.09,0.6 0.16,1.19 0.24,1.78 0.5,4.08 0.76,8.23 0.48,12.33 -0.46,6.14 -1.05,12.27 -1.81,18.37 3.02,-1.3 6.05,-2.54 9.23,-3.45 z M 5627,7492.22 c -1.57,-3.51 -3.32,-6.85 -2.07,-10.95 0.67,-2.11 1.5,-3.84 3.09,-5.43 1.16,-1.18 3.82,-3.03 5.51,-3.3 1.76,-0.25 3.52,-0.59 5.32,-0.56 0.91,0 1.82,0.14 2.73,0.23 4.95,0.52 9.84,1.48 14.75,2.25 4.28,0.7 8.6,1.19 12.9,1.95 4.43,0.8 8.87,1.61 13.3,2.47 8.4,1.63 16.82,3.06 25.18,4.81 8.49,1.76 16.89,3.91 25.21,6.33 6.72,1.96 13.51,4.36 20.45,5.57 0.67,0.04 1.48,0.09 1.95,0.27 1.54,0.52 2.97,1.37 3.78,2.82 1.7,3.08 0.87,6.23 -1.21,8.84 -1.16,1.45 -2.73,2.23 -4.37,2.97 -1.34,0.61 -2.67,1.28 -3.98,1.99 -2.77,1.54 -5.58,3.01 -8.44,4.36 -2.66,1.25 -5.49,2.23 -8.25,3.3 -3.08,1.44 -6.06,3.1 -9.23,4.39 -3.15,1.25 -6.33,2.32 -9.58,3.31 -3.58,1.09 -7.07,2.35 -10.62,3.54 -3.82,1.3 -7.94,1.99 -11.93,2.56 -3.05,0.45 -6,1.28 -8.89,2.3 -3.18,1.11 -6.59,1.78 -9.92,2.32 -3.05,0.52 -6.04,1.17 -9.05,1.92 -2.79,0.72 -5.57,0.84 -8.29,1.84 -1.13,0.49 -2.28,0.97 -3.45,1.37 -1.21,0.42 -2.52,0.59 -3.75,0.85 -2.63,0.54 -4.9,1.81 -7.65,1.81 -0.12,0 -0.24,0 -0.36,-0.01 -1.06,-0.05 -2.07,-0.27 -3.02,-0.64 -0.53,-0.05 -1.07,-0.14 -1.58,-0.29 -2.16,-0.59 -4.01,-2.01 -5.14,-3.93 -1.26,-2.16 -1.26,-4.25 -0.86,-6.62 0.4,-2.35 0.74,-4.72 1.1,-7.07 0.61,-6.95 1.25,-14.02 0.66,-20.99 -0.92,-5 -2.41,-9.86 -4.29,-14.58" style="fill:yellow;fill-opacity:1;fill-rule:nonzero;stroke:none" id="path506" transform="matrix(0.133333, 0, 0, -0.133333, 0, 1122.52002)"/>
  <path d="m 5775.76,7318.18 c -6.61,0.94 -13.27,1.38 -19.91,2.17 -4.38,0.81 -8.71,1.7 -13.1,2.46 -4.33,0.76 -8.68,1.42 -13.01,2.18 -4.65,0.8 -9.3,1.66 -13.97,2.46 -5.26,0.93 -10.56,1.45 -15.87,1.86 -5.4,0.4 -10.83,0.28 -16.24,0.19 -3.32,-0.08 -6.66,-0.15 -9.96,-0.08 -9.27,0.17 -18.52,0.43 -27.79,0.36 -4.39,-0.03 -8.75,0.38 -13.14,0.4 -2.11,0.02 -4.25,-0.02 -6.35,-0.14 -2.07,-0.11 -4.12,-0.31 -6.19,-0.17 -1.59,0.28 -3.19,0.58 -4.79,0.83 -2.17,0.35 -4.33,0.6 -6.43,1.28 -0.18,0.08 -0.38,0.16 -0.57,0.25 2.18,3.87 4.3,7.75 6.18,11.79 2.39,5.12 4.76,10.22 7.04,15.39 2.58,5.95 4.78,11.98 6.92,18.1 1.23,3.58 2.63,7.16 3.58,10.81 1.04,4.12 1.99,8.18 2.68,12.38 0.95,5.69 1.9,11.38 2.8,17.08 6.71,-4.45 13.41,-8.92 20.14,-13.32 7.38,-4.81 15.01,-9.17 22.37,-13.96 8.22,-5.38 16.38,-10.89 24.65,-16.2 7.88,-5.05 15.91,-9.79 23.7,-14.98 4.66,-3.11 9.26,-6.31 13.84,-9.56 4.06,-2.87 8.09,-5.86 12.38,-8.35 4.74,-2.77 9.61,-5.36 14.34,-8.13 2.19,-1.28 4.25,-2.85 6.29,-4.37 1.56,-1.16 3.16,-2.3 4.75,-3.43 3.36,-2.41 7.24,-3.93 11.06,-5.47 2.5,-1.08 4.94,-2.22 7.38,-3.45 2.08,-1.07 4.1,-2.3 6.13,-3.48 -3.38,0.38 -6.76,0.7 -10.13,1.09 -6.27,1.32 -12.44,3.1 -18.78,4.01 z m 79.29,-15.21 c -1.31,1.26 -3.04,2.18 -4.6,3.11 -2.76,1.66 -5.79,2.8 -8.73,4.03 0.64,-0.26 1.28,-0.52 1.9,-0.78 -2.55,1.17 -4.85,2.53 -7.14,4.13 -3.09,2.42 -6.22,4.8 -9.46,7.01 -3.34,2.3 -7.02,4.13 -10.44,6.36 -3.07,2.04 -5.9,4.5 -9,6.52 -1.88,1.21 -3.75,2.35 -5.7,3.39 -3.44,1.87 -6.88,3.62 -10.06,5.86 -4.08,3.41 -8.13,7.01 -12.65,9.79 -3.99,2.47 -8.09,4.69 -12.14,7.07 -8.16,4.79 -15.75,10.55 -23.69,15.72 -7.45,4.83 -15.08,9.34 -22.74,13.82 -8.11,4.74 -16.01,9.8 -23.93,14.87 -8.82,5.65 -17.92,10.86 -26.75,16.51 -10.53,6.75 -20.94,13.65 -31.35,20.55 -1.45,0.96 -3.11,1.4 -4.77,1.4 -2.94,0 -5.83,-1.41 -7.76,-3.63 -0.83,-0.43 -1.62,-0.95 -2.3,-1.63 -1.76,-1.76 -2.3,-3.66 -2.63,-5.97 0.02,0.12 0.03,0.24 0.05,0.35 -0.88,-6.45 -2.06,-12.83 -3.68,-19.13 -0.83,-3.25 -1.66,-6.45 -2.65,-9.66 -0.8,-2.52 -1.73,-4.99 -2.71,-7.45 -4.63,-9.91 -9.5,-19.71 -14.42,-29.49 -2.39,-4.76 -4.66,-9.58 -6.99,-14.37 -1.04,-2.18 -2.11,-4.36 -3.22,-6.52 -1.59,-3.06 -3.54,-5.97 -4.5,-9.34 -1.21,-4.3 -0.05,-9.32 3.12,-12.47 1.91,-1.91 4.37,-3 6.93,-3.29 1.16,-1.93 2.97,-3.44 5.23,-4.2 2.14,-0.71 3.77,-1.35 6.12,-1.5 2,-0.14 3.99,-0.02 5.97,0.08 1.97,0.07 3.92,0.07 5.89,-0.08 1.96,-0.14 3.89,-0.5 5.88,-0.5 3.95,0 7.89,0.17 11.85,-0.14 4.12,-0.31 8.26,-0.61 12.38,-1.02 9.29,-0.95 18.66,-0.9 28,-1.14 4.09,-0.11 8.16,0 12.26,0.1 4.61,0.12 9.23,0.24 13.83,0.07 7.45,-0.28 14.77,-1.06 22.17,-2.04 6.5,-0.88 13.02,-1.61 19.55,-2.42 4.32,-0.72 8.64,-1.49 12.96,-2.13 4.74,-0.7 9.51,-1.2 14.27,-1.7 3,-0.46 5.94,-0.98 8.92,-1.64 3.11,-0.69 6.12,-1.64 9.2,-2.37 6.62,-1.6 13.44,-2.24 20.19,-3.05 4.75,-0.83 9.47,-1.78 14.17,-2.83 8.21,-1.85 16.56,-3.21 24.5,-6.1 3.72,-1.34 7.89,1.15 9.4,4.58 1.42,1.35 2.38,3.2 2.14,5.09 -0.2,1.58 -0.24,2.68 -1.14,4.05 -0.5,0.78 -1.07,1.49 -1.73,2.13" style="fill:yellow;fill-opacity:1;fill-rule:nonzero;stroke:none" id="path508" transform="matrix(0.133333, 0, 0, -0.133333, 0, 1122.52002)"/>
  <path d="m 5618.6,7204.73 c -3.27,1.81 -6.66,3.37 -9.93,5.17 -4.15,2.26 -7.8,5.29 -11.74,7.9 -4.1,2.75 -8.7,4.69 -12.95,7.18 -3.25,1.92 -6.57,3.75 -9.89,5.6 -4.36,2.42 -9.1,3.92 -13.86,5.41 2.09,3.06 4.09,6.16 6.09,9.29 2.37,3.75 4.71,7.52 6.87,11.38 1,1.76 1.96,3.53 2.88,5.32 0.51,-0.83 1.07,-1.65 1.62,-2.45 1.69,-2.39 3.33,-4.77 4.92,-7.21 1.82,-2.9 4.04,-5.56 6.24,-8.18 0.91,-1.29 1.76,-2.61 2.49,-4.03 0.66,-1.3 1.33,-2.56 2.06,-3.82 0.59,-0.97 1.35,-1.92 2.04,-2.82 1.38,-1.8 2.74,-3.58 4.15,-5.38 3.49,-4.51 7.27,-8.73 11.04,-12.99 3.16,-3.61 6.11,-7.4 9.19,-11.06 -0.4,0.24 -0.81,0.47 -1.22,0.69 z m 25.49,-6.61 c -1.33,2.63 -3.01,4.98 -4.72,7.37 -3.25,4.58 -6.66,9.01 -9.88,13.61 -3.56,5.12 -7.5,9.89 -11.6,14.54 -3.51,3.97 -6.88,8.03 -10.25,12.11 -2.04,2.84 -3.94,5.81 -6.54,8.21 -1.79,1.68 -3.67,3.29 -5.48,4.95 -3.18,2.9 -6.03,6.07 -8.73,9.41 -0.92,1.32 -1.75,2.68 -2.55,4.09 -0.78,1.36 -1.78,2.59 -2.79,3.81 -0.05,0.48 -0.13,0.98 -0.27,1.47 -0.64,2.3 -2.18,4.3 -4.25,5.51 -1.41,0.82 -3.02,1.25 -4.65,1.25 -0.82,0 -1.64,-0.11 -2.44,-0.33 -2.13,-0.59 -4.5,-2.15 -5.5,-4.22 -1.94,-4.08 -3.88,-8.18 -6.09,-12.12 -2.11,-3.74 -4.29,-7.42 -6.54,-11.12 -1.9,-3.13 -3.85,-6.21 -5.79,-9.34 -1.52,-2.44 -2.98,-4.95 -4.65,-7.31 -1.93,-2.24 -4.14,-4.35 -3.89,-7.65 0,-1.5 0.38,-2.87 1.14,-4.18 1.14,-1.94 2.84,-3.05 4.93,-3.79 3.82,-1.33 7.61,-2.63 11.51,-3.72 2.22,-0.62 4.43,-1.24 6.63,-1.95 1.74,-0.59 3.44,-1.24 5.15,-1.93 6.55,-3.14 13.19,-6.06 19.9,-8.89 -0.16,0.07 -0.32,0.14 -0.48,0.2 3.87,-1.8 7.44,-4.05 11.07,-6.31 1.98,-1.21 4.09,-2.2 6.19,-3.17 4.16,-1.95 8.14,-3.94 11.98,-6.45 3.79,-2.52 7.65,-4.96 11.67,-7.12 2.11,-1.14 4.45,-1.99 6.76,-2.73 1.13,-0.35 2.29,-0.59 3.43,-0.94 0.71,-0.24 1.4,-0.48 2.13,-0.64 2.02,-0.43 3.52,-0.05 5.31,0.83 2.11,1.02 3.16,3.46 3.26,5.66 0.11,2.51 -1.08,4.84 -2.11,7.07 -0.6,1.28 -1.21,2.56 -1.86,3.82" style="fill:yellow;fill-opacity:1;fill-rule:nonzero;stroke:none" id="path510" transform="matrix(0.133333, 0, 0, -0.133333, 0, 1122.52002)"/>
  <path d="m 5595.42,7004.95 c -2.79,2.92 -5.88,5.56 -8.94,8.19 -2.84,2.44 -5.81,4.76 -8.58,7.32 -2.97,2.73 -5.86,5.55 -8.9,8.19 -3.27,2.79 -6.56,5.5 -9.95,8.15 -3.87,3.01 -8,5.72 -12.07,8.47 -6.42,4.34 -12.5,9.13 -18.78,13.68 -6.69,4.86 -13.54,9.36 -20.53,13.7 -3.85,2.4 -7.71,4.79 -11.56,7.17 -3.07,1.92 -6.21,3.84 -9.43,5.52 -7.87,4.13 -15.87,7.99 -23.76,12.12 -3.3,1.7 -6.48,3.77 -9.61,5.79 -1.7,1.09 -3.44,2.12 -5.16,3.19 3.03,2.24 5.93,4.63 8.86,6.98 2.75,2.05 5.5,4.1 8.04,6.45 2.49,2.35 4.9,4.76 7.35,7.16 2.33,2.25 4.67,4.5 6.96,6.81 2.88,2.84 5.51,5.88 8.19,8.89 5.36,6.02 9.96,12.59 14.75,19.04 2.08,2.8 4.21,5.59 6.33,8.38 8.04,-14.08 16.18,-28.1 24.4,-42.09 4.38,-7.45 8.7,-14.95 13.06,-22.39 4.51,-7.66 9.23,-15.2 13.8,-22.79 4.37,-7.26 8.66,-14.53 12.85,-21.86 4.52,-7.87 8.7,-15.89 12.84,-23.95 3.93,-7.73 7.37,-15.72 11.59,-23.31 4.08,-7.37 8.1,-14.75 12.01,-22.22 -0.47,0.35 -0.92,0.73 -1.39,1.09 -4.55,3.69 -8.36,8.09 -12.37,12.32 z m 37.82,-23.39 c -2.25,3.3 -4.2,6.8 -6.24,10.22 -2.39,4.03 -4.91,7.99 -7.25,12.05 -2.02,3.41 -3.92,6.9 -5.96,10.28 -9.17,15.28 -17.24,31.16 -25.89,46.74 -8.6,15.46 -17.76,30.64 -26.68,45.94 -9.13,15.62 -17.83,31.51 -26.88,47.18 -5.51,9.51 -10.97,19.04 -16.38,28.58 1.21,1.71 1.33,4.41 0.8,6.35 -0.58,2.08 -1.97,3.88 -3.85,5 -1.28,0.74 -2.75,1.12 -4.23,1.12 -0.75,0 -1.49,-0.09 -2.21,-0.29 -2.28,-0.62 -3.64,-2.02 -4.98,-3.84 -2.47,-3.27 -4.95,-6.51 -7.43,-9.75 -3.5,-4.41 -6.99,-8.84 -10.57,-13.16 -4.17,-5.05 -8.7,-9.7 -13.4,-14.25 -4.03,-3.96 -8.32,-7.64 -12.55,-11.41 -4.17,-3.71 -8.03,-7.8 -12.33,-11.35 -2.86,-2.16 -5.74,-4.3 -8.58,-6.5 0.69,0.54 1.38,1.07 2.04,1.59 -2.58,-1.89 -5.39,-3.48 -8.29,-4.85 -0.38,-0.12 -0.77,-0.22 -1.16,-0.31 -0.56,-0.08 -1.11,-0.18 -1.67,-0.3 -6.14,-1.35 -9.65,-8.35 -8.04,-14.15 1.63,-5.97 7.79,-9.29 13.51,-8.11 2.51,-1.47 5.01,-2.97 7.46,-4.56 3.82,-2.49 7.68,-4.9 11.54,-7.33 3.06,-1.92 6.31,-3.62 9.51,-5.26 3.79,-1.92 7.59,-3.84 11.31,-5.9 7.19,-3.94 14.05,-8.35 20.92,-12.78 6.81,-4.39 13.7,-8.66 20.18,-13.54 1.76,-1.33 3.54,-2.68 5.33,-4.01 4.42,-3.47 8.82,-7 13.36,-10.29 4.52,-3.29 9.14,-6.51 13.66,-9.83 4.27,-3.49 8.38,-7.13 12.39,-10.92 4.3,-4.1 8.7,-8.01 13.3,-11.74 4.47,-3.63 8.64,-7.49 12.67,-11.55 3.12,-3.15 6.14,-6.26 9.68,-8.96 2.61,-2.01 5.35,-3.85 8.02,-5.76 3.02,-2.42 5.98,-4.9 8.9,-7.42 1.64,-1.45 3.32,-2.85 4.86,-4.39 0.65,-0.61 1.24,-1.3 1.83,-1.97 0.33,-0.38 0.65,-0.78 0.95,-1.18 0.81,-1.02 1.85,-1.76 2.92,-2.52 2.84,-2.02 7.8,-1.33 10.05,1.29 0.03,0.04 0.07,0.09 0.09,0.11 0.33,0.37 0.53,0.79 0.79,1.19 1.17,0.87 2.08,1.6 2.94,3.06 0.99,1.71 1.34,3.56 1.29,5.53 -0.06,2.54 -1.06,4.91 -2.41,7.01 -1.07,1.69 -2.21,3.3 -3.32,4.94" style="fill:yellow;fill-opacity:1;fill-rule:nonzero;stroke:none" id="path512" transform="matrix(0.133333, 0, 0, -0.133333, 0, 1122.52002)"/>
  <path d="m 5381.97,7000.18 c -2.49,3.51 -5.16,6.9 -7.73,10.39 -2.32,3.15 -4.57,6.37 -6.95,9.5 -5.41,7.12 -11.02,14.04 -16.98,20.7 -3.03,3.37 -6.09,6.69 -9.33,9.87 -0.53,0.52 -1.07,1.03 -1.61,1.54 0.35,0.14 0.69,0.28 1.04,0.43 2.2,0.9 4.47,1.58 6.71,2.41 3.03,1.12 5.99,2.49 8.84,3.99 6.68,3.53 13.18,7.35 19.59,11.34 0.1,-2.33 0.47,-4.66 0.81,-6.95 0.41,-2.9 0.91,-5.78 1.43,-8.66 0.51,-4.88 0.67,-9.82 1.1,-14.73 0.49,-5.67 1.33,-11.32 2.14,-16.96 0.85,-7.45 1.43,-14.91 1.99,-22.37 0.06,-0.76 0.11,-1.53 0.18,-2.28 -0.41,0.59 -0.81,1.19 -1.23,1.78 z m 19.78,-9.46 c -0.64,6.21 -1.26,12.4 -1.83,18.61 -1.03,11.45 -3.49,22.66 -5.14,34.02 0.02,-0.08 0.03,-0.15 0.04,-0.23 -0.66,4.91 -1.09,9.84 -1.82,14.73 -0.61,3.95 -1.57,7.85 -2.27,11.78 -0.27,3.21 -0.11,6.38 -0.17,9.61 -0.02,1.68 -0.15,3.36 -0.07,5.05 0.05,0.66 0.11,1.3 0.13,1.96 0.2,2.9 -1.27,5.34 -3.62,6.88 -1.02,0.68 -2.19,0.99 -3.36,0.99 -1.29,0 -2.57,-0.37 -3.69,-1.02 -0.01,0.01 -0.01,0.02 -0.02,0.03 -0.11,-0.08 -0.21,-0.16 -0.32,-0.24 -0.16,-0.1 -0.31,-0.22 -0.46,-0.33 -0.6,-0.2 -1.16,-0.47 -1.71,-0.83 -6.4,-4.22 -12.9,-8.25 -19.63,-11.95 -3.05,-1.68 -6.14,-3.32 -9.18,-5.07 -2.76,-1.62 -5.41,-3.34 -8.3,-4.7 -1.55,-0.6 -3.12,-1.12 -4.67,-1.71 -1.96,-0.74 -3.82,-1.68 -5.73,-2.55 -1.74,-0.61 -3.5,-1.03 -5.22,-1.69 -2.63,-1.02 -5.05,-1.95 -6.48,-4.65 -1.84,-3.46 -1.08,-6.83 0.45,-10.12 1.48,-3.16 3.85,-5.67 6.29,-8.09 1.99,-2.02 4,-4.01 5.9,-6.12 7.37,-8.12 14.62,-16.36 21.41,-24.97 4.92,-6.42 9.93,-12.76 14.97,-19.09 3.35,-4.53 6.37,-9.28 9.56,-13.92 1.54,-2.22 3.1,-4.45 4.6,-6.71 1.89,-2.84 4.17,-5.66 6.99,-7.61 2.42,-1.66 6.33,-1.56 8.75,0 1.66,1.07 2.56,2.14 3.72,3.7 0.45,1 0.86,2.02 1.24,3.04 0.23,1.11 0.4,2.23 0.52,3.36 0.35,3.16 0.28,6.34 -0.05,9.49 -0.29,2.78 -0.57,5.57 -0.83,8.35" style="fill:yellow;fill-opacity:1;fill-rule:nonzero;stroke:none" id="path514" transform="matrix(0.133333, 0, 0, -0.133333, 0, 1122.52002)"/>
  <path d="m 5183.68,6969.62 c -0.1,0.23 -0.18,0.47 -0.28,0.7 -0.15,0.33 -0.29,0.67 -0.43,1.01 0.23,-0.57 0.48,-1.14 0.71,-1.71" style="fill:yellow;fill-opacity:1;fill-rule:nonzero;stroke:none" id="path516" transform="matrix(0.133333, 0, 0, -0.133333, 0, 1122.52002)"/>
  <path d="m 5187.61,6960.35 v -0.01 c 0,-0.01 0.01,-0.02 0.01,-0.03 v 0.01 c 0,0.01 -0.01,0.02 -0.01,0.03" style="fill:yellow;fill-opacity:1;fill-rule:nonzero;stroke:none" id="path518" transform="matrix(0.133333, 0, 0, -0.133333, 0, 1122.52002)"/>
  <path d="m 5184.63,6967.39 c 0.01,-0.02 0.02,-0.04 0.03,-0.07 0,0.01 -0.01,0.03 -0.01,0.04 -0.01,0.01 -0.01,0.02 -0.02,0.03" style="fill:yellow;fill-opacity:1;fill-rule:nonzero;stroke:none" id="path520" transform="matrix(0.133333, 0, 0, -0.133333, 0, 1122.52002)"/>
  <path d="m 5271.65,7017.12 c -0.5,-8.35 -1,-16.7 -1.47,-25.05 -0.44,-8.03 -0.44,-16.07 -0.42,-24.11 0,-0.38 0,-0.75 0,-1.13 -0.27,-4 -0.55,-8.01 -0.88,-12.01 -0.69,-8.39 -1.33,-16.78 -1.73,-25.2 -0.35,-7.83 -0.55,-15.63 -0.9,-23.43 -0.38,-7.71 -0.66,-15.41 -0.71,-23.12 -0.05,-7.99 -0.15,-15.96 -0.55,-23.93 -0.62,-12.04 -1.11,-24.09 -1.56,-36.16 -0.03,-0.84 -0.07,-1.69 -0.1,-2.53 -0.99,2.62 -2,5.22 -3.06,7.82 -0.15,0.38 -0.29,0.77 -0.45,1.16 -0.01,0.07 0.01,0.13 -0.01,0.2 -1.99,6.34 -4.44,12.43 -7.05,18.5 0.13,-0.26 0.25,-0.54 0.36,-0.81 -1.16,2.78 -2.25,5.6 -3.1,8.47 -0.88,3.04 -1.69,6.07 -2.52,9.08 -1.68,6.21 -3.32,12.4 -4.82,18.64 -0.75,3.08 -1.56,6.17 -2.6,9.15 -1.16,3.46 -2.56,6.86 -4.17,10.13 -2.92,5.97 -6.33,11.71 -9.48,17.57 -2.97,5.45 -5.58,11.09 -8.54,16.57 -3.23,6 -6.6,11.91 -9.79,17.93 -3.04,5.67 -5.53,11.64 -8.17,17.53 -2.67,5.97 -5.57,11.85 -8.75,17.59 -1.18,2.16 -2.34,4.32 -3.6,6.4 -1.39,2.27 -2.76,4.52 -4.13,6.77 -0.67,1.31 -1.31,2.63 -1.98,3.94 2.03,-0.22 4.06,-0.43 6.08,-0.56 3.44,-0.18 6.95,0.57 10.29,1.21 2.76,0.52 5.48,1.05 8.21,1.55 5.56,0.67 11.12,1.32 16.6,2.58 6.14,1.42 12.32,2.7 18.37,4.51 5.62,1.66 10.98,4.12 16.55,5.9 4.93,1.57 9.82,3.23 14.71,4.88 0.03,-0.45 0.04,-0.89 0.07,-1.33 -0.27,-2.9 -0.51,-5.81 -0.7,-8.71 z m -42.81,-147.95 c -0.11,0.26 -0.22,0.52 -0.32,0.78 0.13,-0.3 0.25,-0.61 0.38,-0.91 -0.02,0.04 -0.04,0.08 -0.06,0.13 z m -41.13,90.92 c -0.03,0.08 -0.06,0.16 -0.1,0.25 -0.06,0.14 -0.13,0.29 -0.19,0.44 0.06,-0.14 0.11,-0.26 0.17,-0.4 0.01,-0.01 0.01,-0.02 0.02,-0.03 v 0 c 0,-0.01 0,-0.02 0.01,-0.03 0.14,-0.33 0.28,-0.66 0.43,-0.99 -0.16,0.33 -0.3,0.65 -0.43,0.98 0.03,-0.07 0.06,-0.15 0.09,-0.22 z m 100.78,88.68 c -1.43,0.98 -3.13,1.42 -4.85,1.42 -1.45,0 -2.91,-0.33 -4.24,-0.9 -0.9,0.28 -1.83,0.51 -2.78,0.51 -0.93,0 -1.86,-0.15 -2.78,-0.47 -6.76,-2.3 -13.52,-4.52 -20.32,-6.7 -5.15,-1.64 -10.15,-3.61 -15.2,-5.48 -5.15,-1.92 -10.46,-3.18 -15.82,-4.37 -5.2,-1.15 -10.4,-2.45 -15.67,-3.26 -3.79,-0.51 -7.48,-1.17 -11.22,-2.14 -3.48,-0.9 -6.89,-2.3 -10.46,-2.85 -2.33,-0.29 -4.69,-0.57 -7.03,-0.52 -0.87,0.18 -1.73,0.4 -2.61,0.59 -1.22,0.27 -2.51,0.35 -3.78,0.32 -2.22,1.71 -5.53,1.95 -7.94,0.54 -0.22,-0.12 -0.32,-0.32 -0.52,-0.46 -0.18,-0.08 -0.38,-0.13 -0.57,-0.24 -2.77,-1.61 -4,-5.54 -2.17,-8.32 0.75,-1.16 1.48,-2.34 2.23,-3.5 2.92,-5.74 5.91,-11.44 8.73,-17.24 1.76,-3.6 3.51,-7.23 5.27,-10.83 1.1,-2.22 2.29,-4.45 3.32,-6.7 0.27,-0.64 0.54,-1.28 0.82,-1.92 -0.12,0.27 -0.24,0.54 -0.34,0.81 0.36,-0.86 0.72,-1.72 1.09,-2.59 -0.09,0.2 -0.18,0.4 -0.26,0.6 0.43,-0.99 0.85,-2 1.28,-3.01 -0.09,0.19 -0.17,0.38 -0.25,0.57 0.33,-0.76 0.66,-1.54 0.98,-2.31 0.41,-0.99 0.83,-1.98 1.25,-2.96 0,-0.01 0,-0.01 0.01,-0.02 0,-0.01 0,-0.02 0.01,-0.03 l -0.01,0.01 c 0.01,-0.01 0.01,-0.02 0.02,-0.04 0.17,-0.42 0.35,-0.84 0.52,-1.26 -0.01,0.02 -0.02,0.05 -0.02,0.07 0.02,-0.08 0.06,-0.16 0.09,-0.24 0.03,-0.07 0.06,-0.14 0.09,-0.21 0.04,-0.07 0.07,-0.15 0.1,-0.22 0.25,-0.59 0.5,-1.19 0.75,-1.78 -0.03,0.06 -0.06,0.13 -0.09,0.19 0.09,-0.21 0.19,-0.41 0.28,-0.62 0.06,-0.17 0.14,-0.35 0.21,-0.52 0.33,-0.76 0.66,-1.53 0.98,-2.3 -0.2,0.47 -0.39,0.94 -0.61,1.41 0.12,-0.3 0.26,-0.6 0.38,-0.89 3.24,-8.18 6.67,-16.25 10.19,-24.3 3.23,-7.37 6.79,-14.63 10.13,-21.93 3.3,-7.26 6.47,-14.54 9.74,-21.8 3.22,-7.18 6.95,-14.15 10.25,-21.29 0.44,-0.97 0.92,-1.93 1.36,-2.9 0.05,-0.09 0.09,-0.19 0.13,-0.28 0.1,-0.24 0.19,-0.47 0.28,-0.71 -0.06,0.16 -0.11,0.31 -0.18,0.46 0.65,-1.53 1.3,-3.05 1.94,-4.58 -0.02,0.04 -0.03,0.08 -0.05,0.12 0.33,-0.8 0.67,-1.59 1,-2.37 3.62,-8.94 7.28,-17.85 11.03,-26.73 3.23,-7.6 6.82,-15.01 10.07,-22.61 1.93,-4.82 3.86,-9.65 5.79,-14.48 1.37,-3.46 2.83,-6.9 4.04,-10.42 0.07,-0.68 0.17,-1.37 0.32,-2.03 0.13,-2.51 2.48,-4.82 4.72,-5.42 1.14,-0.32 2.28,-0.32 3.41,0 1.76,0.47 2.81,1.54 3.85,2.94 2.11,2.84 2.06,6.97 2.49,10.38 0.23,1.99 0.4,3.99 0.62,5.98 0.42,4.19 0.68,8.39 1.01,12.59 0.57,7.44 0.9,14.87 1.26,22.31 0.4,8.59 0.97,17.15 1.47,25.7 0.45,8.02 0.52,16.03 0.57,24.05 0,0.77 0.01,1.55 0.02,2.32 0.66,6.06 1.43,12.12 1.71,18.19 0.4,8.28 0.78,16.55 1.28,24.83 0.48,7.68 1.18,15.34 1.73,23 0.57,7.61 0.95,15.25 1.33,22.86 0.33,7.11 0.9,14.18 1.49,21.27 0.45,5.19 0.74,10.41 1,15.63 0.52,2.46 1.07,4.95 1.57,7.42 0.59,2.92 0.92,5.89 1.29,8.86 0.36,2.58 0.67,5.11 0.57,7.74 -0.06,1.89 -0.35,3.86 -0.87,5.71 -0.87,3.18 -2.78,5.53 -5.43,7.35" style="fill:yellow;fill-opacity:1;fill-rule:nonzero;stroke:none" id="path522" transform="matrix(0.133333, 0, 0, -0.133333, 0, 1122.52002)"/>
  <path d="m 5243.43,6834.02 c -0.08,0.2 -0.16,0.39 -0.25,0.58 0,0.02 -0.01,0.03 -0.01,0.05 0.08,-0.21 0.17,-0.42 0.26,-0.63" style="fill:yellow;fill-opacity:1;fill-rule:nonzero;stroke:none" id="path524" transform="matrix(0.133333, 0, 0, -0.133333, 0, 1122.52002)"/>
  <path d="m 5106.28,6994.57 c -1.37,-3.08 -2.96,-6.02 -4.6,-8.98 -3.6,-6.5 -6.73,-13.26 -9.67,-20.06 -3.06,-7.09 -6.19,-14.16 -9.23,-21.25 -2.38,-5.57 -4.38,-11.3 -6.44,-16.98 -0.35,5.88 -1.04,11.71 -1.78,17.55 -0.88,7.07 -1.47,14.16 -2.42,21.2 -0.86,6.2 -1.79,12.39 -2.65,18.6 -0.47,4.56 -0.84,9.13 -1.34,13.7 -0.24,2.38 -0.54,4.74 -0.86,7.11 1.43,-0.47 2.88,-0.9 4.35,-1.31 2.18,-0.61 4.34,-1.3 6.52,-1.91 2.99,-0.81 6.07,-1.22 9.15,-1.55 4.6,-0.5 9.25,-0.78 13.87,-0.61 2.6,0.1 5.2,0.28 7.78,0.49 -0.87,-1.99 -1.78,-3.99 -2.68,-6 z m 11.03,27.49 c -4.46,-0.28 -8.89,-0.62 -13.36,-0.83 -3.72,-0.17 -7.39,-0.14 -11.11,-0.09 -1.28,0 -2.57,0 -3.82,-0.03 -2.65,-0.02 -5.31,-0.05 -7.97,0.19 -1.8,0.17 -3.55,0.52 -5.38,0.57 -0.81,0.02 -1.61,0 -2.42,-0.03 -1.01,-0.04 -2.02,-0.06 -3.04,0.02 -2.65,0.38 -5.28,0.69 -7.97,0.69 -0.36,0 -0.72,-0.01 -1.08,-0.02 -0.48,0 -0.95,-0.02 -1.42,-0.05 -2.14,-0.09 -4.98,-0.66 -6.41,-2.46 -1.05,-1.28 -1.73,-2.14 -2.25,-3.72 -0.41,-1.21 -0.47,-2.44 -0.52,-3.7 -0.07,-1.38 0.19,-2.8 0.31,-4.17 0.38,-4.13 0.92,-8.26 1.35,-12.38 0.48,-4.58 0.89,-9.21 1.61,-13.76 1.36,-8.63 2.87,-17.24 4.1,-25.89 1.16,-8.07 2.57,-16.08 3.8,-24.12 0.13,-0.92 0.28,-1.82 0.4,-2.75 -0.07,0.64 -0.17,1.26 -0.24,1.9 0.81,-6.4 1.64,-12.79 2.51,-19.19 -0.03,0.2 -0.05,0.39 -0.08,0.58 0.25,-2 0.51,-3.99 0.85,-5.96 0.44,-2.49 0.99,-5.17 2.92,-6.97 2.27,-2.18 5.89,-2.25 8.17,0 1.83,1.83 2.75,4.24 3.87,6.52 0.81,1.64 1.61,3.3 2.39,4.94 1.38,2.86 2.68,5.8 3.77,8.77 2.3,6.3 4.46,12.66 6.81,18.95 -0.02,-0.05 -0.04,-0.1 -0.06,-0.15 3.68,8.61 7.43,17.18 10.93,25.86 1.57,3.62 3.17,7.21 4.95,10.73 1.75,3.46 3.88,6.73 5.43,10.31 1.42,3.26 2.93,6.43 4.74,9.49 1.52,2.58 2.78,5.35 4.33,7.94 0.43,0.31 0.84,0.66 1.24,1.05 1.94,1.94 3.03,4.62 3.03,7.35 0,5.4 -4.71,10.77 -10.38,10.41" style="fill:yellow;fill-opacity:1;fill-rule:nonzero;stroke:none" id="path526" transform="matrix(0.133333, 0, 0, -0.133333, 0, 1122.52002)"/>
  <path d="m 4984.26,7012.03 c -4.7,-9.8 -11.72,-18.52 -18.33,-27.08 -3.13,-3.93 -6.11,-7.92 -8.89,-12.09 -2.72,-4.06 -5,-8.47 -7.44,-12.7 -4.91,-8.53 -10.49,-16.73 -15.96,-24.89 -2.63,-3.94 -5.48,-7.71 -8.16,-11.59 -2.87,-4.13 -5.33,-8.47 -7.8,-12.84 -2.4,-4.24 -4.51,-8.7 -6.81,-13.01 -2.11,-3.96 -4.5,-7.78 -6.78,-11.67 -4.05,-6.9 -8.04,-13.8 -12.07,-20.7 -3.6,-6.16 -7.46,-12.17 -11,-18.35 0.66,6.29 1.47,12.57 2.28,18.85 1.4,9.17 2.79,18.31 4.12,27.48 0.76,5.15 1.54,10.29 2.44,15.41 0.78,4.37 1.78,8.71 2.61,13.07 1.89,9.86 3.37,19.75 4.88,29.69 1.55,10.1 2.87,20.2 3.75,30.37 1.07,12.48 2.68,24.9 3.75,37.37 0.5,5.91 1.14,11.77 1.85,17.65 0.27,2.23 0.54,4.44 0.78,6.66 1.14,-0.65 2.29,-1.32 3.44,-1.94 2.38,-1.33 5.01,-2.06 7.55,-2.96 2.11,-1.02 4.11,-2.23 6.18,-3.35 3.22,-1.76 6.72,-3.07 10.15,-4.4 1.42,-0.7 2.77,-1.51 4.13,-2.33 2.82,-1.74 5.66,-3.11 8.79,-4.2 2.63,-0.9 5.36,-1.49 7.96,-2.45 5.68,-2.37 11.46,-4.09 17.46,-5.57 2.96,-0.73 5.98,-1.35 8.97,-2.06 0.95,-0.24 1.89,-0.48 2.84,-0.71 -0.24,-0.55 -0.47,-1.1 -0.69,-1.66 z m 17.08,18.26 c -0.16,0.01 -0.31,0.03 -0.47,0.04 -0.29,0.04 -0.59,0.07 -0.87,0.08 -0.9,0.09 -1.79,0.18 -2.68,0.28 -5.15,0.92 -10.12,2.46 -15.14,3.98 -4.12,1.27 -8.19,2.59 -12.19,4.14 -2.01,0.92 -3.96,1.91 -5.93,2.93 -3.28,1.69 -7,2.61 -10.52,3.83 -1.28,0.7 -2.51,1.49 -3.76,2.31 -2.72,1.78 -5.61,3.1 -8.7,4.22 -2,0.75 -3.99,1.45 -5.98,2.2 -2.99,1.5 -5.83,3.11 -8.96,4.37 -1.97,0.78 -4.03,1.23 -6.04,1.88 -1.03,0.5 -2.03,1.03 -3.09,1.48 -2.04,0.9 -4.11,1.48 -6.18,2.19 -0.48,0.26 -0.94,0.53 -1.4,0.83 -1.05,0.88 -2.11,1.77 -3.25,2.54 -1.5,1 -3.04,1.36 -4.66,1.36 -0.83,0 -1.69,-0.1 -2.57,-0.25 -3.44,-0.62 -5.6,-4.18 -6.17,-7.3 -0.66,-3.73 -0.64,-7.62 -0.86,-11.39 -0.12,-2.28 -0.43,-4.55 -0.66,-6.81 -1.22,-8.83 -2.43,-17.67 -3.72,-26.48 -0.76,-5.07 -1.54,-10.12 -2.51,-15.17 -0.91,-4.7 -2.02,-9.37 -2.77,-14.11 -1.5,-9.44 -3.14,-18.83 -4.7,-28.27 -1.64,-9.86 -3.06,-19.78 -4.58,-29.69 -1.4,-9.2 -2.79,-18.4 -3.94,-27.65 -1,-7.98 -1.68,-15.99 -2.7,-23.95 -1.91,-14.1 -3.34,-28.28 -3.96,-42.49 -0.26,-6.33 -0.56,-12.64 -1.06,-18.97 -0.22,-2.65 -0.43,-5.33 -0.5,-8.01 -0.1,-4.1 0.04,-9.23 4.29,-11.34 2.06,-1.02 4.17,-1.47 6.45,-0.83 2.28,0.62 3.61,2.02 4.97,3.84 0.81,1.07 1.17,2.66 1.66,3.94 0.48,1.22 0.91,2.44 1.38,3.64 1.65,3.66 3.56,7.15 5.36,10.73 2.31,4.55 4.46,9.15 6.79,13.68 4.29,8.4 9.53,16.2 14.31,24.31 5.32,8.96 10.61,17.9 16.25,26.68 5.29,8.17 9.84,16.78 14.94,25.08 2.37,3.84 5.29,7.45 8.03,11.03 2.76,3.53 5.51,7.06 7.88,10.91 4.98,8.11 9.79,16.26 14.09,24.78 2.17,4.31 4.4,8.58 6.8,12.78 2.16,3.79 4.52,7.47 6.81,11.19 2.32,3.72 4.78,7.35 7.21,11 2.57,3.9 5.06,7.87 7.78,11.66 1.46,1.79 3.03,3.45 4.52,5.2 0.35,0.41 0.71,0.83 1.08,1.25 3.54,0.87 6.48,3.59 7.75,7.24 1.12,1.61 1.75,3.54 1.75,5.53 0,2.53 -1.03,4.98 -2.81,6.75 -1.94,1.95 -4.15,2.56 -6.77,2.83" style="fill:yellow;fill-opacity:1;fill-rule:nonzero;stroke:none" id="path528" transform="matrix(0.133333, 0, 0, -0.133333, 0, 1122.52002)"/>
  <path d="m 4825.95,7075.4 c -3.16,-2.73 -6.31,-5.48 -9.47,-8.2 -5.71,-4.98 -11.42,-10.11 -16.43,-15.82 -3.39,-3.9 -6.51,-8.06 -9.46,-12.32 1.63,4.27 3.31,8.54 4.86,12.84 2.59,7.28 4.46,14.7 6.19,22.22 0.88,3.81 1.89,7.63 2.79,11.45 0.86,3.65 1.43,7.35 2.04,11.03 0.32,1.79 0.58,3.58 0.82,5.38 1.39,-1.08 2.78,-2.16 4.16,-3.23 3.73,-2.84 7.52,-5.54 11.25,-8.39 3.32,-2.54 6.61,-5.24 10.12,-7.51 0.55,-0.36 1.11,-0.68 1.67,-0.99 -3.04,-1.87 -5.87,-4.14 -8.54,-6.46 z m 33.57,10.58 c -0.99,1.72 -2.64,3.19 -4.41,4.05 -0.78,0.38 -1.6,0.72 -2.42,1.04 -2.72,1.2 -5.41,2.55 -8.28,3.3 -2.37,0.61 -4.7,1.11 -7.01,1.94 -3.88,1.79 -7.55,3.98 -11.1,6.34 -4.4,2.9 -8.66,5.93 -12.88,9.08 -2.1,1.67 -4.22,3.33 -6.33,5.01 -0.61,0.97 -1.4,1.75 -2.39,2.34 -1.05,0.6 -2.31,0.95 -3.56,0.95 -0.61,0 -1.22,-0.09 -1.8,-0.27 -5.24,-1.63 -6.33,-7.49 -7.16,-12.21 -0.6,-3.39 -1.26,-6.76 -1.88,-10.12 -1.46,-7.92 -2.72,-15.89 -4.15,-23.81 -0.68,-3.72 -1.41,-7.44 -2.37,-11.12 -1,-3.84 -2.16,-7.64 -3.31,-11.46 -1.08,-3.58 -2.33,-7.09 -3.4,-10.69 -1.11,-3.79 -2.11,-7.61 -3.11,-11.43 -0.89,-3.51 -1.84,-6.99 -2.67,-10.5 -0.36,-1.45 -0.73,-2.89 -1.09,-4.36 -0.29,-1.1 -0.57,-2.16 -0.81,-3.26 -0.24,-1.13 -0.33,-2.32 -0.45,-3.5 -0.09,-1.07 0.45,-1.99 0.85,-2.92 0.5,-1.16 1.9,-2.04 3.06,-2.37 1.9,-0.5 3.56,0.12 4.98,1.32 1.97,1.64 3.89,3.35 5.7,5.15 2.41,2.4 5.02,4.58 7.5,6.9 2.59,2.4 4.85,5.15 7.22,7.76 2.58,2.82 5.12,5.69 7.64,8.58 4.97,5.72 10.55,10.95 16.38,15.79 6.05,5.05 12.1,10.15 18.29,15.03 2.54,1.86 5.17,3.45 8.03,4.84 1.95,0.95 3.86,1.78 5.64,3.09 2.14,1.56 4.06,3.2 5.34,5.57 1.66,3.08 1.75,6.87 -0.05,9.94" style="fill:yellow;fill-opacity:1;fill-rule:nonzero;stroke:none" id="path530" transform="matrix(0.133333, 0, 0, -0.133333, 0, 1122.52002)"/>
  <path d="m 4734.12,7145.57 c -1.8,-1.04 -3.46,-2.34 -5.18,-3.53 -1.66,-1.14 -3.28,-2.4 -4.92,-3.58 -3.08,-2.28 -6.21,-4.48 -9.38,-6.62 -2.9,-1.92 -5.81,-3.77 -8.63,-5.78 -3.24,-2.3 -6.43,-4.67 -9.61,-7.05 -6.19,-4.57 -12.74,-8.63 -19.13,-12.87 -5.06,-3.34 -9.97,-6.85 -14.99,-10.15 -5.32,-3.49 -10.68,-6.9 -15.96,-10.41 -10.5,-6.96 -21.12,-13.77 -30.97,-21.64 -2.15,-1.64 -4.32,-3.3 -6.67,-4.66 -2.69,-1.56 -5.45,-3.01 -8.17,-4.53 -5.2,-2.93 -10.25,-6.14 -15.44,-9.13 -2.46,-1.42 -4.93,-2.84 -7.33,-4.38 -2.32,-1.47 -4.53,-2.99 -7,-4.25 -1.77,-0.93 -3.57,-1.8 -5.36,-2.7 1.82,2.54 3.35,5.2 4.84,7.94 3.34,6.11 6.98,12.09 10.41,18.16 1.73,3.03 3.49,6.04 5.39,8.96 2.09,3.15 4.26,6.26 6.39,9.39 1.99,2.89 3.78,5.9 5.72,8.8 2.18,3.2 4.44,6.31 6.76,9.39 4.46,5.88 8.3,12.12 12.52,18.16 4.29,6.12 8.68,12.19 12.87,18.4 8.59,12.69 17.86,24.85 26.75,37.3 5.81,8.11 11.49,16.34 17.36,24.4 4,5.5 7.85,11.1 11.67,16.7 4.18,-5.05 8.33,-10.13 12.61,-15.07 5.15,-5.93 10.34,-11.79 15.56,-17.6 5.03,-5.62 10.31,-10.98 15.42,-16.5 1.2,-1.31 2.44,-2.61 3.62,-3.94 1.26,-1.42 2.44,-2.94 3.8,-4.27 1.6,-1.56 3.33,-2.96 5.04,-4.39 -2.67,-1.5 -5.33,-3 -7.99,-4.55 z m 29.79,11.98 c -1.71,1.44 -3.51,2.65 -5.38,3.84 -1.45,0.92 -2.78,1.97 -4.2,2.92 -0.76,0.51 -1.51,1.01 -2.25,1.52 -2.17,1.91 -3.97,4.08 -5.86,6.3 -2.09,2.44 -4.3,4.81 -6.49,7.14 -5.01,5.26 -9.95,10.57 -14.81,15.96 -4.98,5.52 -9.91,11.07 -14.81,16.69 -5.7,6.52 -11.17,13.28 -16.7,19.97 -0.85,1.02 -2.14,1.72 -3.5,2.17 -0.16,0.11 -0.31,0.25 -0.49,0.35 -1.42,0.84 -3.06,1.28 -4.7,1.28 -0.82,0 -1.63,-0.11 -2.44,-0.33 -2.46,-0.69 -4.15,-2.23 -5.56,-4.27 -4.58,-6.71 -9.2,-13.37 -13.78,-20.11 -4.43,-6.51 -8.65,-13.13 -12.8,-19.84 -3.8,-6.15 -7.5,-12.33 -11.18,-18.54 -3.88,-6.58 -8.03,-12.98 -12.05,-19.5 -3.8,-6.19 -7.27,-12.54 -10.78,-18.92 -3.65,-6.64 -7.75,-13.02 -11.62,-19.51 -3.63,-6.1 -7.62,-11.93 -11.62,-17.77 -4.12,-6 -7.7,-12.3 -12.12,-18.09 0.15,0.19 0.3,0.37 0.45,0.57 -4.81,-6.21 -9.38,-12.59 -14.13,-18.85 0.21,0.28 0.44,0.55 0.65,0.83 -2.42,-3.11 -4.79,-6.26 -7.08,-9.49 -1.81,-2.55 -3.41,-5.27 -5.23,-7.79 -1.36,-1.54 -2.7,-3 -3.92,-4.65 -0.86,-1.15 -1.63,-2.36 -2.46,-3.51 -1.8,-2.26 -3.46,-4.57 -5.19,-6.86 -1.64,-1.98 -3.28,-3.98 -5.01,-5.89 -1.69,-0.96 -2.98,-2.71 -3.49,-4.52 -0.85,-3.15 0.53,-6.68 3.4,-8.32 2.68,-1.52 5.88,-1.61 8.55,-0.02 1.57,0.89 2.63,2.35 3.65,3.81 0.95,0.21 1.88,0.56 2.76,1.18 1.4,0.97 2.68,2.01 4.13,2.91 1.28,0.81 2.68,1.43 4.01,2.18 1.44,0.81 2.82,1.78 4.21,2.71 2.73,1.78 5.5,3.41 8.37,4.96 1.61,0.84 3.23,1.67 4.75,2.67 1.44,0.93 2.79,1.99 4.22,2.96 2.87,1.95 5.88,3.68 8.89,5.37 3.3,1.85 6.45,3.88 9.72,5.78 3.22,1.88 6.59,3.49 9.84,5.29 3.34,1.83 6.5,3.94 9.52,6.26 5.96,4.6 12.37,8.73 18.73,12.78 6.33,4.01 12.61,8.09 19.04,11.93 6.99,4.15 13.89,8.42 20.82,12.71 6.45,4.01 13.22,7.47 19.8,11.26 6.62,3.84 13.13,7.78 19.8,11.55 3.06,1.73 6.13,3.41 9.17,5.21 3.23,1.95 6.41,3.99 9.68,5.89 3.45,2.01 6.92,4.08 10.59,5.66 3.47,1.47 6.81,2.99 10.03,4.93 1.98,1.17 3.82,2.3 5.63,3.78 1.94,1.59 3.32,5 3.08,7.54 -0.19,2.06 -0.43,3.24 -1.45,5.07 -0.52,0.92 -1.52,2.09 -2.39,2.85" style="fill:yellow;fill-opacity:1;fill-rule:nonzero;stroke:none" id="path532" transform="matrix(0.133333, 0, 0, -0.133333, 0, 1122.52002)"/>
  <path d="m 4636.36,7284.5 c -2.92,-0.6 -5.75,-1.19 -8.57,-2.23 -2.11,-0.78 -4.15,-1.75 -6.28,-2.56 -3.37,-1.31 -6.75,-2.51 -10.19,-3.61 -3.11,-0.99 -6.33,-1.51 -9.45,-2.51 -3.27,-1.02 -6.46,-2.23 -9.66,-3.39 -3.27,-1.19 -6.6,-2.18 -9.85,-3.35 -0.99,-0.34 -1.98,-0.73 -2.95,-1.15 2.66,2.76 5.34,5.5 7.98,8.27 4.91,5.1 9.87,10.2 14.75,15.32 4.72,4.93 9.3,9.96 13.99,14.89 2.18,2.3 4.39,4.55 6.55,6.9 1.72,1.89 3.42,3.87 5.3,5.62 2.63,-6.47 5.44,-12.87 8.76,-19.04 1.01,-1.94 2.29,-3.75 3.5,-5.57 1.1,-1.64 2.11,-3.3 3.16,-4.98 0.18,-0.29 0.37,-0.59 0.56,-0.88 -2.53,-0.61 -5.06,-1.2 -7.6,-1.73 z m 17.17,-13.85 c 2.95,0.14 6.52,0.48 9.03,2.21 1.26,0.76 2.25,1.75 3.01,3.01 1.02,1.78 1.62,4.46 0.83,6.45 -0.62,1.58 -1.14,3.01 -2.51,4.12 -0.5,0.4 -0.98,0.81 -1.43,1.26 -0.76,0.77 -1.44,1.59 -2.11,2.45 -2.85,3.8 -5.44,7.81 -8.08,11.78 -2.99,4.49 -5.44,9.47 -7.59,14.44 -0.6,1.42 -1.18,2.84 -1.78,4.25 -1.26,3.22 -2.54,6.47 -3.79,9.72 -0.76,1.94 -1.69,3.51 -3.53,4.6 -1.2,0.7 -2.54,1.06 -3.91,1.06 -0.69,0 -1.39,-0.09 -2.07,-0.28 -1.92,-0.53 -3.6,-1.83 -4.6,-3.53 -0.5,-0.85 -0.88,-1.92 -1.04,-3 -0.3,-0.71 -0.55,-1.45 -0.83,-2.17 -0.56,-1.19 -1.25,-2.33 -2.01,-3.41 -3.98,-4.96 -8.53,-9.39 -13.05,-13.84 -2.33,-2.25 -4.49,-4.64 -6.73,-6.96 -2.28,-2.38 -4.8,-4.51 -7.17,-6.76 -5.07,-4.82 -9.88,-9.89 -14.84,-14.83 -5.1,-5.07 -10.41,-9.95 -15.63,-14.93 -2.42,-2.33 -4.83,-4.7 -7.19,-7.09 -1.25,-1.33 -2.53,-2.63 -3.81,-3.91 -0.59,-0.6 -1.17,-1.19 -1.78,-1.79 -1.02,-0.97 -2.16,-1.89 -2.8,-3.17 -1.04,-2.04 -1.21,-4.32 0,-6.38 0.55,-0.95 1.3,-1.68 2.25,-2.25 1,-0.57 2.07,-0.86 3.2,-0.86 1.98,-0.26 4.18,0.93 5.86,1.78 1.17,0.6 2.26,1.38 3.37,2.07 2.33,1.48 4.58,3.11 7.07,4.3 1.8,0.63 3.64,1.14 5.43,1.74 2.39,0.82 4.7,1.89 7.01,2.9 1.81,0.72 3.61,1.41 5.43,2.03 1.91,0.67 3.85,1.12 5.75,1.69 4.26,1.33 8.53,2.73 12.83,3.96 2.08,0.59 4.3,0.8 6.42,1.25 2.11,0.46 4.19,1 6.3,1.55 2.14,0.57 4.25,1.23 6.36,1.89 3.49,1.08 6.8,2.43 10.36,3.14 2.03,0.13 4.07,0.21 6.1,0.37 2.73,0.24 5.45,0.64 8.18,1.02 -0.73,-0.12 -1.48,-0.21 -2.21,-0.31 1.9,0.24 3.77,0.34 5.7,0.43" style="fill:yellow;fill-opacity:1;fill-rule:nonzero;stroke:none" id="path534" transform="matrix(0.133333, 0, 0, -0.133333, 0, 1122.52002)"/>
  <path d="m 4359.54,7371.18 c -0.09,0.01 -0.18,0.02 -0.25,0.03 -0.04,0.01 -0.07,0.01 -0.1,0.01 0.12,-0.02 0.23,-0.03 0.35,-0.04" style="fill:yellow;fill-opacity:1;fill-rule:nonzero;stroke:none" id="path536" transform="matrix(0.133333, 0, 0, -0.133333, 0, 1122.52002)"/>
  <path d="m 4538.82,7375.82 c -3.08,0.53 -6.13,1.31 -9.23,1.55 -1.94,0.14 -3.89,0.27 -5.83,0.33 -3.84,0.17 -7.71,0.15 -11.54,0.12 -3.7,0 -7.39,0.07 -11.08,0.07 -3.89,0 -7.75,-0.28 -11.65,-0.66 -3.81,-0.38 -7.63,-0.83 -11.44,-1.28 -4.49,-0.5 -9.09,-0.79 -13.6,-0.36 -2.2,0.22 -4.43,0.43 -6.64,0.64 -2.62,0.24 -5.21,0.58 -7.84,0.62 -1.31,0.02 -2.59,0 -3.87,-0.03 -1.94,-0.01 -3.88,-0.06 -5.83,-0.06 -4.13,-0.05 -8.28,-0.03 -12.4,0 -9.54,0.06 -19.07,0.83 -28.57,1.28 -4.19,0.19 -8.37,0.35 -12.55,0.56 4.15,1.6 8.19,3.53 12.26,5.34 3.69,1.66 7.38,3.32 11.1,4.95 7.54,3.14 15.09,6.21 22.48,9.68 7.42,3.47 14.72,7.21 22.19,10.55 4.09,1.63 8.21,3.19 12.26,4.87 10.27,4.27 20.36,8.92 30.59,13.31 7.56,3.09 15.07,6.27 22.43,9.76 7.33,3.46 14.59,7.09 21.81,10.76 13.33,6.75 26.54,13.74 39.79,20.64 0.22,-2.13 0.44,-4.25 0.73,-6.37 -0.02,0.14 -0.04,0.28 -0.07,0.41 1.02,-7.58 2.04,-15.16 3.29,-22.71 1.15,-6.74 2.4,-13.47 3.38,-20.24 0.05,-0.41 0.1,-0.81 0.16,-1.21 -0.02,0.11 -0.03,0.21 -0.05,0.32 0.03,-0.19 0.06,-0.39 0.08,-0.58 0.06,-0.46 0.13,-0.93 0.18,-1.39 -0.02,0.27 -0.06,0.54 -0.09,0.82 0.53,-3.73 1.31,-7.46 2.27,-11.11 0.98,-3.63 1.57,-7.33 2.36,-11.03 0.89,-4.15 2.7,-8.04 4.64,-11.81 0.79,-1.52 1.64,-3.01 2.49,-4.48 0.29,-0.53 0.58,-1.05 0.86,-1.58 -1.62,-0.08 -3.25,-0.12 -4.86,-0.22 -2.2,-0.14 -4.38,-0.49 -6.56,-0.81 -3.81,-0.4 -7.58,-0.56 -11.41,-0.48 -4.41,0.08 -8.83,0.24 -13.26,0.17 -4.22,-0.07 -8.42,-0.4 -12.64,-0.68 -4.78,-0.31 -9.58,-0.17 -14.34,0.34 z m 16.38,-16.02 c 2.73,0.29 5.45,0.35 8.19,0.48 5.21,0.21 10.43,0.47 15.67,0.64 2.61,0.06 5.24,0.05 7.84,0.23 2.53,0.16 5.01,0.45 7.5,0.77 3.3,0.41 6.65,0.61 9.96,1.08 2.68,0.41 5.28,1.19 7.96,1.69 0.01,0 0.03,0 0.05,0 1.39,-0.25 2.79,-0.43 4.15,0.11 1.98,0.81 3.37,1.64 4.53,3.49 0.39,0.61 0.62,1.33 0.85,1.99 0.37,1.28 0.37,2.57 0,3.84 -0.39,1.47 -1.21,2.51 -2.24,3.44 0,0.02 0.01,0.03 0.02,0.05 0.1,-0.08 0.2,-0.16 0.31,-0.24 -0.11,0.09 -0.21,0.16 -0.31,0.25 0.2,0.75 0.33,1.54 0.37,2.36 0.12,2.91 -1.23,5.24 -2.61,7.68 -0.83,1.49 -1.59,3.04 -2.39,4.53 -1.45,2.65 -2.9,5.27 -4.16,7.99 -0.79,2.08 -1.52,4.2 -2.27,6.31 -0.92,2.56 -2.02,5.05 -2.94,7.63 -1.9,5.22 -2.92,10.63 -4.23,16.01 -1.41,5.83 -2.82,11.67 -4.05,17.55 -1.2,5.76 -1.9,11.63 -2.69,17.46 0.07,-0.42 0.12,-0.84 0.18,-1.26 -0.39,3.66 -0.77,7.33 -1.14,11.01 3.73,2.59 4.74,8.09 2.48,11.97 -1.74,2.95 -4.74,4.45 -7.85,4.45 -1.58,0 -3.19,-0.39 -4.68,-1.16 -15.38,-8.02 -30.65,-16.22 -46.09,-24.11 -13.49,-6.88 -26.97,-13.88 -40.86,-19.92 -6.28,-2.71 -12.54,-5.43 -18.73,-8.35 -5.92,-2.79 -11.82,-5.64 -17.81,-8.32 -7.15,-2.94 -14.34,-5.83 -21.36,-9.11 -6.99,-3.3 -13.92,-6.71 -20.92,-9.96 -6.86,-3.18 -13.82,-6.05 -20.7,-9.18 -6.52,-3 -12.78,-6.55 -19.12,-9.88 -3.81,-1.49 -7.73,-2.74 -11.4,-4.53 -1.83,-0.9 -3.6,-1.85 -5.35,-2.85 -0.76,-0.43 -1.48,-0.86 -2.24,-1.26 -0.45,-0.25 -0.92,-0.49 -1.37,-0.78 -1.19,-0.66 -1.95,-1.52 -2.75,-2.61 -1.06,-1.44 -0.88,-3.79 0,-5.28 1.01,-1.72 2.45,-2.45 4.19,-2.79 0.03,0 0.06,-0.01 0.1,-0.01 0.35,-0.06 0.7,-0.12 1.08,-0.15 0.74,-0.1 1.49,-0.2 2.24,-0.29 3.22,-0.51 6.45,-1.08 9.69,-1.39 3.99,-0.4 7.97,-0.69 11.99,-0.92 6.89,-0.43 13.8,-0.57 20.69,-0.95 7.55,-0.38 15.11,-0.88 22.68,-1 3.74,-0.05 7.51,-0.11 11.29,-0.14 4.86,-0.02 9.76,0.07 14.6,-0.44 3.51,-0.48 7.02,-0.94 10.52,-1.36 4.98,-0.64 10.04,-0.47 15.04,-0.14 5.45,0.37 10.91,0.71 16.36,0.5 4.81,-0.2 9.58,-0.91 14.37,-1.22 5.35,-0.32 10.69,-0.63 16.02,-1.25 0.6,-0.09 1.22,-0.19 1.82,-0.34 2.2,-0.5 4.38,-1.06 6.59,-1.54 4.28,-0.94 8.8,-1.11 13.15,-1.23 2.61,-0.07 5.23,0.19 7.78,0.45" style="fill:yellow;fill-opacity:1;fill-rule:nonzero;stroke:none" id="path538" transform="matrix(0.133333, 0, 0, -0.133333, 0, 1122.52002)"/>
  <path d="m 4359.15,7371.23 c 0.01,0 0.03,0 0.04,-0.01 v 0 c -0.02,0.01 -0.03,0.01 -0.04,0.01" style="fill:yellow;fill-opacity:1;fill-rule:nonzero;stroke:none" id="path540" transform="matrix(0.133333, 0, 0, -0.133333, 0, 1122.52002)"/>
  <path d="m 4467.4,7414.13 c -0.12,-0.04 -0.24,-0.09 -0.36,-0.14 -0.18,-0.08 -0.38,-0.16 -0.57,-0.24 0.32,0.13 0.62,0.26 0.93,0.38" style="fill:yellow;fill-opacity:1;fill-rule:nonzero;stroke:none" id="path542" transform="matrix(0.133333, 0, 0, -0.133333, 0, 1122.52002)"/>
  <path d="m 4484.06,7563.9 c -0.33,0.14 -0.64,0.28 -0.95,0.42 -0.15,0.05 -0.3,0.11 -0.44,0.17 0.45,-0.2 0.92,-0.39 1.39,-0.59" style="fill:yellow;fill-opacity:1;fill-rule:nonzero;stroke:none" id="path544" transform="matrix(0.133333, 0, 0, -0.133333, 0, 1122.52002)"/>
  <path d="m 4498.12,7570.38 c 4.54,1.08 8.9,2.74 13.53,3.52 3.24,0.37 6.5,0.48 9.76,0.89 3.05,0.35 6.09,0.85 9.1,1.47 5.95,1.23 11.9,2.47 17.88,3.58 5.19,1 10.34,2.3 15.51,3.39 4.68,0.98 9.4,1.8 14.13,2.56 0.23,-8.5 0.46,-17 0.6,-25.5 0.07,-4.2 -0.07,-8.4 0.19,-12.59 0.01,-0.12 0.03,-0.24 0.04,-0.36 -0.36,0.11 -0.73,0.2 -1.09,0.32 -1.24,0.38 -2.44,0.83 -3.72,1.16 -1.54,0.38 -3.11,0.64 -4.69,0.95 -3.09,0.57 -6.05,1.47 -9.04,2.44 -2.9,0.93 -5.84,1.76 -8.78,2.47 -3.17,0.78 -6.37,1.44 -9.53,2.27 -3.1,0.83 -6.19,1.71 -9.27,2.64 -6.4,1.94 -12.85,3.65 -19.32,5.33 -3.64,0.97 -7.24,2.02 -10.81,3.21 -1.87,0.6 -3.69,1.29 -5.51,2.01 0.34,0.07 0.68,0.15 1.02,0.24 z m 49.74,24.18 c -0.04,-0.01 -0.08,-0.01 -0.13,-0.02 -0.02,0 -0.04,0 -0.06,0 0.06,0 0.13,0.01 0.19,0.02 z m 0.58,0.07 c -0.17,-0.02 -0.34,-0.04 -0.51,-0.06 0.14,0.02 0.28,0.04 0.42,0.06 0.03,0 0.06,0 0.09,0 z m 49.66,-50.6 c 0.02,-0.28 0.06,-0.56 0.09,-0.84 -0.06,0.44 -0.11,0.89 -0.17,1.34 0.03,-0.17 0.05,-0.33 0.08,-0.5 z m -116.19,20.78 c 0.35,-0.14 0.69,-0.28 1.04,-0.43 h 0.01 c 0.08,-0.04 0.15,-0.07 0.22,-0.1 -0.03,0.01 -0.05,0.02 -0.07,0.03 2.74,-1.16 5.43,-2.4 8.21,-3.44 3.17,-1.21 6.33,-2.35 9.58,-3.35 5.71,-1.75 11.57,-3.01 17.33,-4.6 6.05,-1.66 11.95,-3.67 17.97,-5.4 3.04,-0.88 6.12,-1.64 9.15,-2.54 2.85,-0.85 5.65,-1.78 8.42,-2.84 2.45,-1.06 4.87,-2.18 7.35,-3.14 2.21,-0.87 4.47,-1.52 6.79,-2.11 2.25,-0.57 4.4,-1.42 6.63,-2.08 1.8,-0.53 3.63,-0.92 5.4,-1.53 0.58,-0.28 1.13,-0.58 1.7,-0.87 0.68,-0.36 1.42,-0.66 2.15,-0.9 0.19,-0.14 0.36,-0.33 0.56,-0.46 3.55,-2.39 8.75,-1.42 11.67,1.49 0.58,0.59 1.08,1.25 1.5,1.96 l 0.01,-0.01 c 1.71,2.37 1.78,5.9 0.98,8.63 -0.18,0.64 -0.37,1.24 -0.51,1.86 -0.6,6.77 -0.21,13.63 -0.24,20.4 -0.05,9.75 -0.35,19.5 -0.68,29.25 -0.17,5.23 -4.25,9.62 -9.63,9.62 -3.11,0 -6.05,-1.62 -7.85,-4.07 -3.08,-0.54 -6.12,-1.09 -9.18,-1.7 -6.47,-1.28 -12.93,-2.51 -19.45,-3.5 -0.59,-0.08 -1.19,-0.16 -1.77,-0.24 0.16,0.02 0.31,0.04 0.47,0.06 -0.49,-0.07 -1,-0.13 -1.5,-0.2 -5.67,-0.72 -11.34,-1.37 -17.04,-1.86 -6.26,-0.55 -12.48,-1.71 -18.57,-3.35 -2.78,-0.73 -5.52,-1.54 -8.27,-2.34 -2.66,-0.79 -5.32,-1.5 -7.92,-2.4 -2.42,-0.83 -4.84,-1.59 -7.31,-2.3 -0.14,-0.04 -0.3,-0.09 -0.45,-0.14 -1.21,0.22 -2.42,0.42 -3.65,0.45 -1.87,0.02 -3.75,-0.24 -5.55,-0.66 -0.86,-0.2 -1.71,-0.48 -2.55,-0.71 -1.41,-0.36 -2.83,-0.76 -4.07,-1.59 -2.24,-1.52 -3.9,-4.56 -2.77,-7.28 0.48,-1.17 0.88,-1.9 1.73,-2.83 0.9,-0.97 2.14,-1.5 3.34,-1.98 1.5,-0.65 3.04,-1.25 4.56,-1.86 -0.28,0.11 -0.53,0.23 -0.79,0.34 0.92,-0.39 1.84,-0.77 2.76,-1.14 -0.1,0.03 -0.18,0.07 -0.28,0.1 0.18,-0.07 0.37,-0.15 0.55,-0.23 0,0 -0.01,0 -0.02,0.01 0.01,-0.01 0.03,-0.01 0.04,-0.02" style="fill:yellow;fill-opacity:1;fill-rule:nonzero;stroke:none" id="path546" transform="matrix(0.133333, 0, 0, -0.133333, 0, 1122.52002)"/>
  <path d="m 4481.89,7564.82 c 0.26,-0.11 0.52,-0.22 0.78,-0.33 -0.26,0.11 -0.51,0.22 -0.76,0.32 l -0.02,0.01" style="fill:yellow;fill-opacity:1;fill-rule:nonzero;stroke:none" id="path548" transform="matrix(0.133333, 0, 0, -0.133333, 0, 1122.52002)"/>
  <path d="m 4483.07,7564.32 c 0.01,0 0.03,0 0.04,0 v -0.01 c -0.01,0.01 -0.02,0.01 -0.04,0.01" style="fill:yellow;fill-opacity:1;fill-rule:nonzero;stroke:none" id="path550" transform="matrix(0.133333, 0, 0, -0.133333, 0, 1122.52002)"/>
  <path d="m 4482.95,7564.38 c 0.04,-0.02 0.08,-0.04 0.12,-0.06 -0.03,0.02 -0.07,0.04 -0.11,0.06 h -0.01" style="fill:yellow;fill-opacity:1;fill-rule:nonzero;stroke:none" id="path552" transform="matrix(0.133333, 0, 0, -0.133333, 0, 1122.52002)"/>
  <path d="m 4445.59,7757.18 c 4.83,-0.88 9.72,-1.64 14.58,-2.45 9.58,-1.56 19.23,-2.17 28.88,-3.15 19.13,-1.89 38.29,-3.37 57.43,-5.33 9.11,-0.95 18.19,-2.21 27.32,-2.82 9.65,-0.64 19.34,-0.67 29.02,-0.57 5.49,0.05 10.98,0.32 16.47,0.66 -2.65,-7.32 -5.3,-14.65 -8.01,-21.96 -3.24,-8.72 -6.59,-17.4 -9.67,-26.18 -2.97,-8.44 -6.52,-16.64 -9.36,-25.11 -0.44,-1.25 -0.8,-2.52 -1.19,-3.79 -1.38,1.36 -2.8,2.7 -4.16,4.09 -6.14,6.28 -13.53,11 -20.79,15.91 -3.37,2.3 -6.75,4.69 -10.32,6.71 -4,2.25 -8.06,4.38 -12.02,6.73 -3.79,2.28 -7.61,4.51 -11.52,6.64 -3.63,1.97 -7.48,3.54 -11.3,5.1 -5.78,2.77 -11.02,6.52 -16.42,9.96 -3.6,2.3 -7.57,4.05 -11.41,5.88 -7.82,3.7 -15.29,8.2 -22.91,12.31 -7.63,4.12 -15.43,7.89 -23.26,11.62 -6.72,3.2 -13.29,6.66 -19.84,10.19 1.68,-0.46 3.37,-0.91 5.06,-1.36 4.43,-1.18 8.88,-2.3 13.42,-3.08 z m -70.15,15.7 c 2.33,-1.62 5.28,-1.65 8.04,-1.9 0.7,-0.12 1.38,-0.29 2.09,-0.41 3.8,-2.41 7.6,-4.81 11.45,-7.17 3.56,-2.2 7.23,-4.2 10.86,-6.24 7.87,-4.38 15.72,-8.77 23.68,-12.99 7.76,-4.1 15.77,-7.76 23.43,-12.07 7.71,-4.34 15.37,-8.8 23.03,-13.25 3.75,-2.19 7.54,-4.25 11.38,-6.27 4.06,-2.11 7.88,-4.5 11.69,-7.04 1.9,-1.25 3.72,-2.61 5.6,-3.93 3.32,-2.33 6.83,-4.2 10.43,-6.05 3.67,-1.9 7.3,-3.98 10.69,-6.36 3.72,-2.58 7.36,-5.29 11.11,-7.82 3.6,-2.45 7.3,-4.72 10.87,-7.18 3.59,-2.47 7.03,-5.08 10.53,-7.64 2.9,-2.1 5.86,-4.12 8.71,-6.3 2.92,-2.52 5.43,-5.4 8.11,-8.17 1.44,-1.49 2.92,-2.98 4.45,-4.41 1.54,-1.46 3.27,-2.72 4.98,-3.99 0.66,-0.53 1.29,-1.07 1.93,-1.6 0.06,-0.06 0.14,-0.1 0.21,-0.16 0.12,-0.2 0.17,-0.42 0.3,-0.61 1.64,-2.14 3.24,-3.8 5.91,-4.53 2.76,-0.76 5.15,-0.16 7.64,1 4.03,1.89 5.57,6.18 6.64,10.17 0.73,2.77 1.56,5.52 2.39,8.27 1.73,5.77 3.84,11.43 6.16,16.96 -0.07,-0.19 -0.15,-0.38 -0.24,-0.56 0.08,0.18 0.16,0.37 0.23,0.56 -0.05,-0.15 -0.12,-0.31 -0.18,-0.46 4.68,11.23 8.17,22.89 12.24,34.34 4.61,12.88 9.1,25.81 13.75,38.66 1.14,0.41 2.18,1.02 3.12,1.97 1.66,1.66 2.61,3.93 2.61,6.25 0,4.58 -4.06,9.25 -8.9,8.89 -9.88,-0.7 -19.77,-1.22 -29.71,-1.13 -9.48,0.07 -18.94,0.5 -28.43,0.95 -9.32,0.43 -18.57,1.45 -27.82,2.51 -9.31,1.09 -18.61,2.09 -27.93,2.99 -7.07,0.69 -14.13,1.23 -21.2,1.82 -6.28,0.53 -12.57,1.28 -18.87,1.74 -6.45,0.45 -12.92,0.76 -19.38,1.39 -6.41,0.65 -12.82,1.37 -19.24,2.13 -11.59,1.81 -23,4.63 -34.61,6.51 -5.74,0.92 -11.5,1.54 -17.14,3.01 -4.67,1.23 -9.34,2.75 -14.16,3.46 -0.73,0.2 -1.47,0.3 -2.21,0.3 -0.75,0 -1.5,-0.1 -2.25,-0.3 -2.08,-0.59 -3.9,-1.99 -5,-3.86 -1.13,-1.92 -1.44,-4.3 -0.85,-6.45 0.62,-2.23 2.01,-3.73 3.86,-5.03" style="fill:yellow;fill-opacity:1;fill-rule:nonzero;stroke:none" id="path554" transform="matrix(0.133333, 0, 0, -0.133333, 0, 1122.52002)"/>
  <path d="m 4634.92,7855.55 c 4.62,-0.71 9.22,-1.35 13.8,-2.2 4.2,-0.76 8.3,-2.16 12.42,-3.23 3.99,-1.04 8.02,-1.94 11.97,-3.08 2.33,-0.67 4.67,-1.24 7.03,-1.83 -2.81,-2.91 -5.51,-5.91 -8.04,-9.08 -3.42,-4.28 -6.58,-8.75 -9.8,-13.18 -2.76,3.42 -6.03,6.47 -9.36,9.3 -2.54,2.17 -5.41,3.96 -8.2,5.78 -1.6,1.04 -3.13,2.19 -4.65,3.33 -4.43,3.9 -8.56,8.17 -12.72,12.35 -1.3,1.3 -2.58,2.63 -3.84,3.97 3.77,-0.86 7.58,-1.56 11.39,-2.13 z m -45.02,10.46 c 3.68,-3.28 6.73,-7.13 10.16,-10.64 3.85,-3.96 7.95,-7.67 11.83,-11.58 3.94,-3.98 8.16,-7.66 12.24,-11.5 2.66,-2.49 5.45,-4.79 8.44,-6.9 2.57,-1.83 5.23,-3.57 7.8,-5.43 2.81,-2.38 5.44,-5.09 7.77,-7.93 1.26,-1.82 2.29,-3.77 3.31,-5.73 0.99,-1.92 1.77,-4.03 3.33,-5.59 1.86,-1.85 4.16,-2.97 6.79,-2.97 2.39,0 5.15,0.95 6.76,2.75 0.83,0.92 1.61,1.88 2.14,2.99 0.32,0.72 0.62,1.45 0.93,2.19 1.76,3.68 4.12,6.96 6.28,10.43 2.52,4.06 5.01,8.12 7.75,12.04 2.18,2.64 4.36,5.15 6.71,7.64 2.84,3.03 5.93,5.9 8.91,8.82 2.96,2.86 2.9,7.82 0,10.72 -2.11,2.12 -5.18,2.68 -7.84,1.77 -1.05,0.26 -2.11,0.46 -3.11,0.74 -7.78,2.21 -15.41,4.91 -23.2,7.11 -3.9,1.12 -7.8,2.37 -11.78,3.25 -4.34,1 -8.72,1.56 -13.11,2.23 -8.7,1.33 -17.45,3.06 -25.75,6.03 -7.18,2.54 -14.38,5.16 -21.46,8 -0.73,0.34 -1.48,0.66 -2.21,0.98 -1.92,0.85 -3.95,2.08 -6.1,2.08 -0.13,0 -0.26,-0.01 -0.4,-0.01 -2.25,-0.17 -4.22,-0.79 -5.83,-2.43 -1.49,-1.49 -2.54,-3.72 -2.42,-5.83 0.3,-6.71 7.08,-9.81 12.06,-13.23" style="fill:yellow;fill-opacity:1;fill-rule:nonzero;stroke:none" id="path556" transform="matrix(0.133333, 0, 0, -0.133333, 0, 1122.52002)"/>
  <path d="m 4753.5,7936.13 c -6.4,-6.29 -13.02,-12.29 -19.35,-18.62 -2.6,-2.57 -5,-5.3 -7.5,-7.96 -1.91,3.29 -3.7,6.66 -5.5,10.02 -4.86,9.11 -10.21,17.95 -15.27,26.96 -4.9,8.8 -8.89,18.02 -13.99,26.72 -2.87,4.84 -5.64,9.7 -8.16,14.75 -2.32,4.63 -4.43,9.39 -7.21,13.78 -5.48,8.73 -11.95,16.93 -16.72,26.08 -2.44,4.68 -4.66,9.54 -7.25,14.14 -2.61,4.66 -5.4,9.17 -8.27,13.68 -4.89,7.67 -9.6,15.44 -14.33,23.2 1.57,-1.24 3.16,-2.47 4.75,-3.68 -0.57,0.42 -1.12,0.85 -1.66,1.25 2.42,-1.88 4.88,-3.7 7.3,-5.55 -0.55,0.45 -1.11,0.88 -1.69,1.33 1.15,-0.89 2.29,-1.78 3.43,-2.66 -0.34,0.26 -0.68,0.54 -1.03,0.81 1.11,-0.85 2.2,-1.7 3.3,-2.55 -0.21,0.16 -0.41,0.32 -0.62,0.49 0.73,-0.57 1.47,-1.14 2.21,-1.71 -0.57,0.43 -1.16,0.87 -1.73,1.33 8.89,-7.21 17.66,-14.51 26.75,-21.49 8.58,-6.61 17.58,-12.68 26.36,-19.04 8.89,-6.43 18.05,-12.57 27.1,-18.8 8.82,-6.1 17.41,-12.5 26.07,-18.83 12.48,-9.17 25.98,-16.8 39.55,-24.24 -0.73,-0.47 -1.51,-0.9 -2.23,-1.38 -4.38,-2.99 -8.65,-6.03 -12.9,-9.25 -7.61,-5.79 -14.61,-12.1 -21.41,-18.78 z m 43.51,10.67 c 4.5,3.06 9.32,5.71 14.04,8.46 3.59,2.09 5.31,6.26 4.63,10.17 0.84,3.95 -0.78,8.34 -4.44,10.39 -10.72,5.92 -21.35,11.94 -31.89,18.16 -4.47,2.63 -8.75,5.69 -12.95,8.7 -4.22,3.01 -8.32,6.14 -12.47,9.25 -17.74,13.37 -36.31,25.53 -54.64,38.08 -7.78,5.31 -15.65,10.53 -23.4,15.91 -7.37,5.12 -14.43,10.7 -21.82,15.79 -7.7,5.32 -15.54,10.49 -23.14,15.94 -3.49,2.47 -7.14,4.72 -10.84,6.85 -3.26,1.89 -6.85,3.43 -9.92,5.61 -1.88,1.63 -3.93,3.88 -6.25,4.33 -0.75,0.14 -1.47,0.22 -2.19,0.22 -1.33,0 -2.62,-0.29 -3.88,-1.03 -2.21,-1.28 -4.15,-4.1 -3.9,-6.78 0.1,-1.02 0.15,-2.06 0.53,-3.01 0.57,-1.52 1.28,-2.92 1.99,-4.34 0.62,-1.21 1.35,-2.35 2.02,-3.54 1.16,-2.06 2.44,-4.1 3.7,-6.14 2.84,-4.6 5.76,-9.19 8.42,-13.92 5.33,-9.43 10.55,-18.92 16.07,-28.22 2.82,-4.76 5.58,-9.5 8.04,-14.46 2.37,-4.79 4.41,-9.77 6.69,-14.61 4.46,-9.48 10.69,-17.97 16.03,-26.98 2.39,-4.05 4.43,-8.33 6.5,-12.54 2.01,-4.08 4.24,-8.07 6.61,-11.93 2.42,-3.94 4.93,-7.82 7.09,-11.88 2.25,-4.17 4.26,-8.46 6.4,-12.69 1.99,-3.98 4.32,-7.82 6.57,-11.66 2.35,-4.08 4.62,-8.23 6.93,-12.33 2.06,-3.7 4.38,-7.31 6.14,-11.17 1.49,-3.33 3.14,-6.57 4.65,-9.87 0.45,-1.31 0.84,-2.63 1.14,-3.98 0.01,-0.22 0.02,-0.44 0.04,-0.67 0.27,-3.84 1.33,-6.7 4.01,-9.64 2.13,-2.35 5.59,-3.61 8.7,-3.61 1.87,0 3.88,0.54 5.7,1.43 0.07,0 0.12,-0.02 0.19,-0.03 3.45,-0.04 6.92,1.46 9.36,3.9 1.21,1.2 1.97,2.53 2.82,3.91 1.1,1.8 2.46,3.46 3.63,5.21 2.54,3.79 5.02,7.6 7.72,11.28 5.11,6.19 11,11.62 16.63,17.34 5.74,5.84 11.69,11.3 18.05,16.44 3.48,2.65 7.03,5.18 10.69,7.66" style="fill:yellow;fill-opacity:1;fill-rule:nonzero;stroke:none" id="path558" transform="matrix(0.133333, 0, 0, -0.133333, 0, 1122.52002)"/>
  <path d="m 4865.35,8050.42 c 3.39,-3.06 6.71,-6.17 10.25,-9.08 3.43,-2.82 6.89,-5.63 10.09,-8.7 1.72,-1.66 3.46,-3.28 5.22,-4.9 -5.97,-3.65 -11.97,-7.27 -18,-10.88 -2.09,-1.24 -4.19,-2.5 -6.3,-3.77 -1.08,4.52 -2.36,9 -3.53,13.5 -2.41,9.15 -4.94,18.18 -8.19,27.1 -1.11,3.08 -2.26,6.13 -3.42,9.19 4.62,-4.17 9.25,-8.3 13.88,-12.46 z m -49.71,41.21 c 0.65,-2.23 1.45,-4.43 2.21,-6.61 1.59,-4.56 3.16,-9.02 4.32,-13.69 2.42,-9.67 6.02,-18.89 9.58,-28.22 1.73,-4.57 3.34,-9.22 4.91,-13.84 1.75,-5.15 3.69,-10.22 5.43,-15.39 1.51,-4.5 2.79,-9.08 4.05,-13.68 0.29,-1.07 0.5,-2.18 0.72,-3.28 0.38,-2.01 0.94,-3.74 1.89,-5.62 2.23,-4.43 8.04,-6.35 12.64,-5.09 2.94,0.8 4.75,2.6 6.43,4.81 1.44,1.59 3.12,2.98 4.82,4.32 8.16,5.89 16.93,10.98 25.59,16.18 2.53,0.13 5.04,0.14 7.57,0.41 3.98,0.46 8.8,0.86 11.74,3.94 1.28,1.35 2.23,2.78 2.72,4.6 0.6,2.28 0.43,3.44 0.05,5.72 -0.38,2.29 -2.06,4.52 -3.6,6.18 -1.78,1.95 -3.87,3.65 -5.73,5.48 -3.4,3.32 -6.39,7 -9.61,10.46 -3.42,3.68 -7.69,6.54 -11.58,9.65 -8.3,6.59 -16.14,13.75 -24.14,20.73 -4.15,3.6 -8.32,7.2 -12.54,10.74 -5.88,4.95 -11.66,9.8 -16.63,15.7 -3.01,4.13 -6.25,8.51 -11.89,8.51 -0.1,0 -0.2,0 -0.28,0 -2.79,-0.07 -5.39,-1.07 -7.39,-3.06 -2.06,-2.06 -2.82,-4.53 -3.02,-7.38 -0.13,-1.39 0.13,-2.79 0.4,-4.18 0.27,-2.5 0.62,-4.98 1.34,-7.39" style="fill:yellow;fill-opacity:1;fill-rule:nonzero;stroke:none" id="path560" transform="matrix(0.133333, 0, 0, -0.133333, 0, 1122.52002)"/>
</svg>