<?xml version="1.0" encoding="utf-8"?>
<svg viewBox="616.508 652.484 163.756 163.368" width="163.756" height="163.368" xmlns="http://www.w3.org/2000/svg">
  <path d="m 5558.97,3300.61 c -0.01,0.01 -0.02,0.02 -0.03,0.03 -0.01,0.02 -0.04,0.03 -0.06,0.05 0.04,-0.03 0.06,-0.05 0.09,-0.08" style="fill:#00a344;fill-opacity:1;fill-rule:nonzero;stroke:none" id="path3670" transform="matrix(0.133333, 0, 0, -0.133333, 0, 1122.52002)"/>
  <path d="m 5561.83,3298.42 c -0.15,0.12 -0.29,0.23 -0.43,0.33 -0.09,0.07 -0.18,0.14 -0.27,0.21 0.24,-0.18 0.46,-0.36 0.7,-0.54" style="fill:#00a344;fill-opacity:1;fill-rule:nonzero;stroke:none" id="path3672" transform="matrix(0.133333, 0, 0, -0.133333, 0, 1122.52002)"/>
  <path d="m 5560.83,3299.19 c 0.02,-0.02 0.05,-0.05 0.08,-0.07 -0.05,0.04 -0.1,0.08 -0.15,0.12 0.13,-0.1 0.25,-0.19 0.37,-0.28 -0.1,0.08 -0.2,0.15 -0.3,0.23" style="fill:#00a344;fill-opacity:1;fill-rule:nonzero;stroke:none" id="path3674" transform="matrix(0.133333, 0, 0, -0.133333, 0, 1122.52002)"/>
  <path d="m 5308.16,3439.73 c -0.05,0.01 -0.1,0.02 -0.15,0.02 0.02,0 0.03,0 0.04,0 0.04,-0.01 0.07,-0.01 0.11,-0.02" style="fill:#00a344;fill-opacity:1;fill-rule:nonzero;stroke:none" id="path3676" transform="matrix(0.133333, 0, 0, -0.133333, 0, 1122.52002)"/>
  <path d="m 5307.16,3439.86 c 0.26,-0.03 0.52,-0.06 0.78,-0.1 0.02,0 0.05,0 0.07,-0.01 -0.29,0.04 -0.57,0.08 -0.85,0.11" style="fill:#00a344;fill-opacity:1;fill-rule:nonzero;stroke:none" id="path3678" transform="matrix(0.133333, 0, 0, -0.133333, 0, 1122.52002)"/>
  <path d="m 5820.87,2929.97 c -6.52,0.56 -12.97,1.24 -19.55,0.76 -6.87,-0.49 -13.71,-1.31 -20.61,-1.67 -6.64,-0.34 -13.25,-0.4 -19.89,-0.14 -0.03,0.47 -0.05,0.94 -0.08,1.4 -0.13,2 -0.33,4 -0.48,6.01 2.21,-1.33 4.89,-0.8 7.23,-0.16 1.96,0.53 3.92,0.92 5.93,1.21 -0.45,-0.05 -0.89,-0.12 -1.32,-0.17 3.38,0.44 6.75,0.97 10.12,1.46 -0.2,-0.02 -0.39,-0.05 -0.58,-0.07 0.21,0.03 0.44,0.06 0.65,0.09 0.19,0.01 0.39,0.04 0.57,0.07 -0.16,-0.03 -0.32,-0.05 -0.48,-0.07 4.3,0.54 8.64,0.84 12.95,1.11 1.1,0.09 2.23,0.14 3.33,0.14 2.56,0 5.34,0.18 7.25,2.15 0.97,1.01 1.52,2.03 1.94,3.35 0.25,0.82 0.26,1.73 0.37,2.56 0.1,0.94 0.15,1.88 0.25,2.81 0.22,2.15 0.11,4.29 0.06,6.45 -0.04,2.26 -0.16,4.5 -0.38,6.77 -0.23,2.47 -0.68,4.9 -1.17,7.32 -0.23,1.16 -0.42,2.34 -0.87,3.44 -0.18,0.42 -0.35,0.83 -0.53,1.27 -0.47,0.79 -1.11,1.42 -1.92,1.89 -0.47,0.36 -1.05,0.54 -1.62,0.74 -0.42,0.15 -0.88,0.23 -1.36,0.23 -1.06,0 -2.18,-0.38 -3.01,-1.02 -0.34,-0.03 -0.66,-0.03 -0.99,-0.04 -0.34,0.06 -0.66,0.16 -1.01,0.21 -1.89,0.32 -3.82,0.51 -5.74,0.68 -3.52,0.36 -7.06,0.59 -10.61,0.68 -0.57,0.01 -1.16,0.02 -1.72,0.02 -1.29,0 -2.57,-0.02 -3.87,-0.04 -1.39,-0.01 -2.78,-0.05 -4.17,-0.03 -1.5,0.02 -3.01,-0.12 -4.52,-0.27 -0.07,0 -0.15,-0.01 -0.22,-0.02 -0.16,3.49 -0.34,7 -0.63,10.49 3.87,0.45 7.7,1.51 11.5,2.21 4.34,0.79 8.61,1.88 12.89,2.88 7.83,1.84 15.74,3.37 23.66,4.62 4.23,0.41 8.52,0.84 12.77,0.63 0.84,-2.91 1.4,-5.94 1.99,-8.88 0.71,-3.58 1.28,-7.19 1.81,-10.81 0.54,-4.38 1.04,-8.73 1.62,-13.12 0.59,-4.55 1.22,-9.12 1.54,-13.7 0.33,-4.77 0.62,-9.56 1.02,-14.33 0.21,-2.58 0.44,-5.16 0.62,-7.73 0.05,-0.76 0.11,-1.53 0.16,-2.29 -4.31,0.08 -8.63,0.55 -12.9,0.91 z m -30.59,-110.23 c 6.4,-0.61 12.82,-0.72 19.24,-0.84 2.54,-0.05 5.11,0 7.67,0.04 2.98,0.06 5.95,0.11 8.92,0.03 -0.43,-1.49 -0.88,-2.96 -1.29,-4.42 -1,-3.55 -2.1,-7.07 -3.15,-10.59 -2.12,-7.17 -4.85,-14.17 -6.74,-21.4 -1.94,-7.31 -3.46,-14.74 -5.5,-22.03 -0.98,-3.5 -1.99,-6.99 -3,-10.48 -0.88,-2.99 -1.72,-6.02 -2.68,-9 -4.08,1 -8.12,2.26 -12.01,3.74 -4.17,1.8 -8.33,3.66 -12.57,5.28 -4.34,1.66 -8.72,3.08 -13.15,4.39 -4,1.17 -8.16,1.92 -12.2,2.91 -2.72,0.65 -5.41,1.32 -8.13,1.98 -2.76,0.68 -5.47,1.45 -8.26,1.99 -0.65,0.13 -1.33,0.19 -1.99,0.28 0.1,0.4 0.19,0.78 0.3,1.17 1.54,5.12 3.06,10.26 4.55,15.4 1.97,-1.16 4.38,-1.55 6.52,-2.23 1.26,-0.38 2.48,-0.8 3.75,-1.12 1.53,-0.36 3.12,-0.44 4.6,-0.96 2.19,-0.94 4.38,-1.82 6.71,-2.35 1.37,-0.31 2.77,-0.58 4.14,-0.86 1.35,-0.29 2.68,-0.71 4,-1.13 1.1,-0.34 2.21,-0.73 3.31,-1.03 1.03,-0.26 2.03,-0.47 3.09,-0.54 0.73,-0.05 1.5,0.11 2.18,0.29 1.15,0.3 1.85,0.88 2.74,1.61 1.53,1.22 1.7,3.42 2.25,5.18 0.29,0.93 0.59,1.85 0.93,2.75 0.42,0.94 0.85,1.91 1.13,2.9 0.29,1.03 0.5,2.09 0.73,3.14 0.48,2.43 0.93,4.85 1.46,7.29 0.53,2.34 0.94,4.7 1.35,7.08 0.24,1.52 0.57,2.89 0.15,4.41 -0.39,1.36 -1.41,2.23 -2.68,2.69 -0.49,0.16 -1.11,0.15 -1.67,0.18 -1.62,0.26 -3.21,0.61 -4.82,0.9 -0.52,0.14 -1.04,0.27 -1.53,0.45 -1.38,0.51 -2.79,0.86 -4.24,1.14 -1.25,0.24 -2.49,0.49 -3.75,0.71 -1.47,0.26 -2.97,0.44 -4.47,0.61 -2.95,0.45 -5.72,1.55 -8.61,2.25 -1.71,0.42 -3.4,0.8 -5.13,1.1 -0.79,0.15 -1.59,0.26 -2.38,0.39 1.25,5.01 2.38,10.05 3.45,15.11 4.92,-2.16 10.14,-3.52 15.33,-4.99 6.98,-1.98 14.26,-2.74 21.45,-3.42 z m -81.09,-152.09 c 4.5,-2.04 9.19,-3.6 13.81,-5.35 3.56,-1.63 7.06,-3.43 10.54,-5.21 3.92,-2.01 7.57,-4.47 11.27,-6.86 7.33,-4.74 15.27,-8.51 22.43,-13.56 -1.17,-1.79 -2.41,-3.54 -3.62,-5.32 -2.11,-3.13 -4.31,-6.21 -6.52,-9.26 -4.47,-6.16 -8.58,-12.54 -12.77,-18.86 -4.02,-6.1 -8.23,-12.08 -12.03,-18.35 -2.02,-3.33 -4.04,-6.67 -6,-10.06 -1.11,-1.91 -2.19,-3.8 -3.3,-5.71 -0.21,-0.36 -0.41,-0.73 -0.63,-1.1 -1.44,1 -2.86,2.06 -4.25,3.12 -0.21,0.16 -0.42,0.33 -0.63,0.49 0.08,-0.05 0.16,-0.12 0.23,-0.18 -7.95,6.36 -15.76,12.91 -23.71,19.29 -7.88,6.31 -16.19,12.07 -24.26,18.13 -1.18,1.04 -2.34,2.09 -3.52,3.14 1.2,1.92 2.4,3.85 3.62,5.77 1.62,2.56 3.22,5.13 4.83,7.7 1,-0.74 2.04,-1.44 3.14,-2.06 1.48,-0.8 2.84,-1.76 4.29,-2.63 1.63,-0.98 3.38,-1.74 5.16,-2.46 3.24,-1.54 6.23,-3.73 9.14,-5.79 1.64,-1.34 3.18,-2.76 4.8,-4.14 1.37,-1.13 3.06,-2.25 4.91,-2.23 1.36,0.01 2.64,0.47 3.61,1.45 0.6,0.62 0.82,1.19 1.19,1.9 0.35,0.66 0.8,1.25 1.22,1.85 0.49,0.72 0.96,1.44 1.45,2.14 1.09,1.56 2.19,3.11 3.24,4.71 2.49,3.86 4.36,8.01 6.49,12.07 1.08,2.09 2.14,4.18 3.23,6.26 0.57,1.08 1.18,2.17 1.39,3.4 0.23,1.4 0.07,2.77 -0.99,3.81 -0.62,0.62 -1.41,0.95 -2.26,1.05 -1.65,0.78 -3.26,1.67 -4.89,2.46 -2.88,1.4 -5.76,2.71 -8.53,4.31 -2.45,1.4 -4.83,2.95 -7.25,4.4 -3.03,1.78 -6.05,3.59 -9.07,5.42 1.81,3.6 3.57,7.23 5.26,10.89 2.82,-1.83 5.91,-3.23 8.98,-4.63 z m 10.24,17.39 c -0.02,0.01 -0.04,0.02 -0.06,0.02 -0.06,0.03 -0.13,0.06 -0.2,0.1 0.09,-0.04 0.18,-0.08 0.26,-0.12 z m -94.51,-167.01 c 2.2,-2.51 4.59,-4.87 6.92,-7.26 5.01,-5.17 10.12,-10.2 15.31,-15.18 2.56,-2.46 4.92,-5.1 7.25,-7.76 -0.55,-0.54 -1.1,-1.08 -1.66,-1.61 -3.43,-3.25 -6.96,-6.37 -10.58,-9.39 -0.57,-0.44 -1.14,-0.87 -1.69,-1.31 -6.1,-4.47 -12.35,-8.79 -18.2,-13.58 -5.49,-4.48 -10.94,-8.99 -16.47,-13.4 -3.67,-2.79 -7.35,-5.67 -11.18,-8.29 -1.88,2.89 -3.68,5.83 -5.55,8.7 -3.4,5.2 -6.35,10.7 -9.71,15.92 -6.59,10.23 -13.82,19.95 -21.17,29.64 1.63,1.24 3.24,2.51 4.86,3.76 0.05,-0.03 0.08,-0.09 0.13,-0.13 0.89,-0.7 1.8,-1.37 2.72,-2.03 1.74,-1.39 3.44,-2.82 5.14,-4.21 2.27,-1.85 4.14,-3.99 6.14,-6.1 2.16,-2.31 4.45,-4.47 6.69,-6.69 1.04,-1.02 2.03,-2.08 3.01,-3.15 1.69,-1.81 3.25,-3.82 5.73,-4.57 3.07,-0.94 5.6,1.14 7.73,3.03 1.09,0.97 2.19,1.92 3.3,2.86 0.97,0.82 1.94,1.59 2.87,2.43 1.06,0.94 2.03,2.01 3,3.05 2.09,2.22 4.05,4.57 6.18,6.76 1.96,2.04 4.15,3.83 6.29,5.67 0.74,0.63 1.48,1.38 1.93,2.23 1,1.87 0.63,3.75 -0.69,5.34 -0.67,0.81 -1.61,1 -2.52,1.28 -1.06,0.62 -2.05,1.4 -3.02,2.15 -1.69,1.34 -3.43,2.61 -5,4.07 -1.93,1.78 -3.74,3.68 -5.58,5.53 -3.66,3.72 -7.72,7.05 -11.63,10.47 3.45,3.11 6.91,6.19 10.32,9.34 0.46,0.42 0.88,0.87 1.34,1.29 1.22,-1.5 2.62,-2.87 3.96,-4.13 2.27,-2.09 4.66,-4.04 6.67,-6.36 2.4,-2.79 4.74,-5.61 7.16,-8.37 z m -127.6,-121.84 c 1.82,-4.41 3.78,-8.94 4.82,-13.61 v -0.01 c -2.26,-0.73 -4.56,-1.22 -6.84,-1.91 -2.98,-0.88 -5.93,-1.93 -8.86,-2.98 -3.05,-1.08 -6.16,-2 -9.32,-2.76 -3.26,-0.79 -6.5,-1.58 -9.64,-2.71 -6.14,-2.23 -12.05,-5.04 -18.26,-7.12 -3.23,-1.06 -6.46,-2.16 -9.68,-3.31 -2.01,-0.72 -4.02,-1.45 -6.05,-2.12 -0.07,0.48 -0.14,0.96 -0.22,1.44 -0.46,2.69 -1.04,5.35 -1.64,8.01 -1.28,5.59 -2.74,11.1 -4.4,16.59 -3.12,10.27 -6.41,20.49 -9.73,30.68 1.43,0.47 2.88,0.89 4.29,1.4 1.78,0.65 3.54,1.38 5.29,2.13 1.75,-5.01 3.46,-10.03 5.14,-15.07 1.59,-4.85 3.31,-9.64 5.82,-14.08 0.81,-1.39 1.77,-2.49 3.13,-3.38 1.89,-1.25 4.17,-0.94 6.16,-0.2 2.09,0.76 4.16,1.6 6.27,2.33 2.22,0.75 4.43,1.33 6.7,1.82 0.68,0.13 1.34,0.27 2.01,0.4 1.19,0.24 2.41,0.82 3.52,1.29 0.97,0.41 1.93,0.85 2.9,1.28 0.64,0.24 1.29,0.49 1.93,0.72 0.92,0.35 1.88,0.73 2.73,1.23 1.73,1.04 2.46,2.8 3.04,4.62 0.14,0.75 0.26,1.53 0.35,2.29 0.11,1.12 0.14,2.21 0.16,3.34 0.01,1.88 -0.28,3.76 -0.55,5.61 -0.26,1.94 -0.78,3.81 -1.24,5.7 -1.17,4.83 -2.58,9.63 -3.5,14.54 -0.05,0.78 -0.06,1.56 -0.09,2.36 -0.03,1.35 -0.34,2.72 -0.86,3.98 1.57,0.76 3.13,1.54 4.7,2.27 0.74,0.35 1.5,0.65 2.25,1 0.63,-1.76 1.48,-3.45 2.3,-5.14 1.06,-2.15 2.06,-4.33 3.02,-6.52 3.59,-8.86 7.4,-17.63 11.14,-26.42 -0.18,0.45 -0.38,0.91 -0.57,1.37 1.26,-3.01 2.52,-6.04 3.78,-9.06 z m 6.35,-12.61 c -0.11,-0.16 -0.22,-0.31 -0.34,-0.46 -0.01,0 -0.02,0 -0.02,0 0.12,0.15 0.24,0.3 0.36,0.46 z m -176.76,-57.46 c -1.67,-0.35 -3.37,-0.62 -5.06,-0.86 -5.25,-0.63 -10.47,-0.84 -15.76,-1.12 -6.24,-0.31 -12.47,-1.14 -18.66,-1.85 -6.26,-0.74 -12.5,-1.38 -18.78,-1.8 -6.8,-0.45 -13.78,-0.99 -20.61,-0.48 0.1,1.42 0.25,2.83 0.37,4.23 0.27,3.02 0.47,6.03 0.65,9.04 0.37,5.98 0.63,11.96 0.74,17.93 0.23,12.95 -0.09,25.87 -0.59,38.81 2.31,0.02 4.63,0.03 6.93,0.07 1.08,0.02 2.15,0.11 3.22,0.17 0.12,-5.7 0.22,-11.38 0.32,-17.07 0.06,-2.91 0.11,-5.82 0.25,-8.74 0.12,-2.82 0.19,-5.82 0.98,-8.54 0.33,-1.14 0.94,-2.29 1.83,-3.11 1.39,-1.29 2.95,-1.58 4.81,-1.64 1.42,-0.05 2.9,-0.13 4.31,-0.08 2.86,0.11 5.68,0.47 8.51,0.59 3.31,0.16 6.56,0.31 9.84,0.81 2.63,0.42 5.23,0.97 7.84,1.46 1.52,0.3 2.95,0.94 4.42,1.37 0.38,0.11 0.76,0.18 1.15,0.28 1.57,0.34 2.58,1.61 3.47,2.85 0.55,0.78 0.78,2.04 0.95,2.98 0.16,1.03 0.27,2.08 0.32,3.11 0.21,4.22 0.15,8.42 -0.09,12.64 -0.21,3.95 -0.9,7.87 -1.22,11.82 -0.14,1.76 -0.19,3.51 -0.17,5.27 0,0.45 0.05,0.91 0.07,1.36 2.6,0.4 5.19,0.87 7.78,1.24 0.72,0.1 1.43,0.2 2.13,0.3 -0.07,-0.01 -0.16,-0.02 -0.26,-0.04 2.05,0.27 4.1,0.48 6.14,0.72 0.21,-2.25 0.41,-4.48 0.63,-6.72 0.63,-6.35 1.39,-12.69 2.02,-19.04 0.63,-6.44 0.82,-12.94 1.05,-19.41 0.36,-8.79 1.21,-17.76 0.47,-26.55 z m -180.72,71.19 c -0.47,-3.02 -0.99,-6.03 -1.45,-9.04 -1.02,-6.32 -1.59,-12.73 -2.32,-19.11 -1.31,-9.27 -2.5,-18.56 -3.66,-27.86 -0.49,-3.09 -0.96,-6.28 -1.64,-9.39 -1.81,0.44 -3.61,0.9 -5.43,1.33 -5.91,1.39 -11.91,2.52 -17.62,4.66 -4.67,2.06 -9.3,4.31 -14.18,5.82 -4.7,1.46 -9.42,2.62 -14.2,3.75 -7.47,1.81 -14.96,3.97 -22.21,6.61 0.02,0.34 0.05,0.67 0.08,1.01 1.77,10.44 5.81,20.29 8.39,30.54 2.19,8.67 4.03,17.42 5.75,26.2 4.12,-1.09 8.28,-2.07 12.46,-2.94 -0.87,-5.47 -1.75,-10.93 -2.74,-16.38 -0.45,-2.54 -0.92,-5.08 -1.42,-7.6 -0.22,-1.13 -0.47,-2.23 -0.82,-3.3 -0.13,-0.47 -0.3,-0.91 -0.45,-1.36 -0.1,-0.29 -0.17,-0.57 -0.22,-0.85 -0.14,-0.51 -0.18,-1.03 -0.16,-1.53 0.01,-0.86 0.21,-1.68 0.65,-2.41 0.97,-2.27 3.71,-2.78 5.84,-3.38 1.3,-0.37 2.63,-0.72 3.96,-0.92 2.73,-0.4 5.44,-0.77 8.14,-1.39 4.92,-1.12 9.8,-2.46 14.73,-3.57 1.71,-0.38 3.44,-0.45 5.18,-0.63 0.56,-0.09 1.13,-0.17 1.72,-0.23 1.13,-0.09 1.95,0.23 2.96,0.68 2.49,1.09 3.47,3.91 3.96,6.37 0.49,2.37 0.75,4.83 1.08,7.24 0.54,4.23 1.03,8.49 1.56,12.73 0.22,1.44 0.44,2.89 0.69,4.32 0.24,1.39 0.49,2.78 0.71,4.17 3.06,-0.59 6.13,-1.18 9.23,-1.64 0.56,-0.08 1.13,-0.14 1.7,-0.22 -0.08,-0.56 -0.19,-1.12 -0.27,-1.68 z m -162.85,38.81 c -2.84,-5.67 -5.59,-11.36 -8.28,-17.08 -2.35,-4.99 -4.45,-10.06 -6.79,-15.03 -1.82,-3.88 -3.56,-7.89 -5.57,-11.74 -0.02,0.02 -0.03,0.03 -0.04,0.04 -3.23,2.71 -6.72,5.02 -10.25,7.28 -6.62,4.21 -13.54,7.85 -20.41,11.63 -6.28,3.48 -12.15,7.57 -18.24,11.32 -3.47,2.12 -6.93,4.18 -10.45,6.2 -0.61,0.37 -1.25,0.7 -1.88,1.03 0.85,1.28 1.7,2.56 2.55,3.85 3.1,4.72 6.13,9.51 9.13,14.29 3.11,5.02 6.35,9.95 9.57,14.92 3.55,5.48 7.06,10.99 10.85,16.31 1.98,-1.48 4.05,-2.88 6.1,-4.29 -2.79,-5.38 -5.58,-10.77 -8.51,-16.08 -1.42,-2.59 -2.85,-5.19 -4.59,-7.58 -0.47,-0.67 -1.07,-1.3 -1.42,-2.07 -0.57,-1.23 -0.9,-1.97 -0.9,-3.37 0,-1.81 0.72,-3.33 1.9,-4.67 1.18,-1.33 2.82,-1.8 4.5,-2.02 1.49,-0.33 2.93,-0.92 4.38,-1.43 1.04,-0.39 2.1,-0.78 3.14,-1.19 3.1,-1.44 6.07,-3.07 9.15,-4.55 2.77,-1.36 5.62,-2.65 8.49,-3.82 1.06,-0.42 2.1,-0.77 3.21,-1.01 1.5,-0.31 2.53,-0.3 4.01,-0.07 2.11,0.33 3.55,2.3 4.42,4.03 1.69,3.37 2.99,6.95 4.43,10.43 1.17,2.77 2.31,5.56 3.46,8.35 0.54,1.11 1.24,2.29 1.72,3.52 3.48,-1.91 6.94,-3.84 10.45,-5.7 0.52,-0.26 1.04,-0.51 1.55,-0.76 -2.29,-3.33 -3.91,-7.25 -5.68,-10.74 z M 4852.63,2542 c -4.5,-3.66 -8.9,-7.42 -13.27,-11.23 -4.7,-4.15 -9.23,-8.46 -13.75,-12.8 -3.47,-3.32 -6.73,-6.91 -10.2,-10.26 -0.62,0.74 -1.23,1.47 -1.86,2.2 -2.37,2.78 -4.77,5.54 -7.19,8.29 -4.97,5.62 -10.22,10.97 -15.15,16.63 -4.79,5.44 -9.33,11.1 -14.3,16.37 -2.66,2.83 -5.39,5.61 -7.98,8.5 -0.62,0.69 -1.23,1.39 -1.83,2.09 0.01,0.01 0.03,0.02 0.04,0.02 2.88,1.59 5.91,3.04 8.67,4.84 6.31,4.11 11.91,9.11 17.52,14.1 8.77,7.79 17.33,15.82 25.94,23.79 2.27,-3.03 4.56,-6.06 6.8,-9.11 -2.89,-3.44 -5.78,-6.88 -8.75,-10.26 -3.03,-3.47 -6.23,-6.77 -9.3,-10.19 -1.31,-1.43 -2.57,-2.91 -3.82,-4.38 -0.8,-0.95 -1.86,-2 -2.06,-3.29 -0.21,-0.77 -0.21,-1.56 0,-2.34 0.25,-0.89 0.75,-1.57 1.34,-2.25 0.38,-0.45 0.75,-0.92 1.17,-1.36 0.73,-0.75 1.64,-1.39 2.44,-2.06 0.94,-0.76 1.86,-1.55 2.78,-2.32 1.74,-1.46 3.26,-3.05 4.7,-4.81 -0.05,0.07 -0.1,0.14 -0.15,0.21 1.12,-1.44 2.24,-2.86 3.4,-4.26 1.34,-1.55 2.79,-2.77 4.46,-3.99 1.15,-0.83 2.25,-1.62 3.54,-2.21 0.61,-0.3 1.29,-0.56 1.92,-0.79 1.43,-0.5 3.11,-0.22 4.5,0.28 2.11,0.75 3.86,2.18 5.6,3.56 1.43,1.16 2.79,2.35 4.13,3.61 1.31,1.22 2.46,2.59 3.67,3.91 2.14,2.36 4.43,4.66 6.87,6.75 0.23,0 0.47,0.07 0.7,0.1 2.4,-2.99 4.82,-5.97 7.29,-8.91 0.4,-0.48 0.81,-0.96 1.22,-1.43 -3.21,-2.11 -6.19,-4.64 -9.09,-7 z m -105.45,143.3 c -3.42,-1.73 -6.79,-3.52 -10.12,-5.36 -5.74,-3.18 -11.38,-6.56 -17.02,-9.91 -6.32,-3.73 -12.52,-7.95 -19.15,-11.13 -1.39,3.79 -2.58,7.66 -3.95,11.45 -1.45,4.05 -2.98,8.06 -4.47,12.1 -3.31,8.97 -7.55,17.52 -11.4,26.26 0.07,-0.18 0.15,-0.37 0.23,-0.55 -1.77,4.27 -3.54,8.52 -5.36,12.76 2.13,0.5 4.26,0.97 6.35,1.57 5.84,1.65 11.38,4.1 16.86,6.69 5.19,2.46 10.41,4.9 15.52,7.52 5.55,2.85 10.97,6.06 16.64,8.7 2.41,0.86 4.86,1.36 7.38,1.77 1.06,-2.62 2.11,-5.22 3.19,-7.82 -4.29,-1.74 -8.54,-3.6 -12.71,-5.59 -2.28,-1.09 -4.41,-2.41 -6.66,-3.58 -1.09,-0.59 -2.18,-1.14 -3.26,-1.73 -0.84,-0.44 -1.58,-1.01 -2.33,-1.59 -0.33,-0.25 -0.65,-0.51 -0.97,-0.78 -0.74,-0.64 -1.08,-1.53 -1.43,-2.39 -0.63,-1.57 -0.15,-3.42 0.56,-4.84 0.6,-1.23 1.13,-2.48 1.69,-3.74 1.17,-2.65 2.55,-5.2 3.71,-7.83 1.12,-2.49 2.15,-4.99 3.44,-7.39 0.97,-1.8 1.91,-3.56 2.74,-5.41 0.15,-0.37 0.29,-0.72 0.45,-1.08 0.32,-0.68 0.65,-1.12 1.16,-1.78 0.67,-0.83 1.89,-1.5 2.91,-1.69 2.35,-0.51 4.32,0.31 6.41,1.31 2.41,1.16 4.72,2.58 7.1,3.78 2.24,1.17 4.52,2.23 6.79,3.32 1.91,0.89 3.89,1.6 5.78,2.53 0.32,0.16 0.57,0.4 0.86,0.59 0.56,-1.2 1.12,-2.4 1.67,-3.6 0.94,-2 1.88,-4 2.82,-6 -1.79,-0.7 -3.55,-1.46 -5.26,-2.16 -3.4,-1.43 -6.88,-2.76 -10.17,-4.4 z m -42.08,162.84 c -6.05,-0.32 -12.05,-1.11 -18.08,-1.69 -6.53,-0.65 -13.06,-1.07 -19.59,-1.75 -7.88,-0.82 -15.71,-2.07 -23.65,-1.55 0.06,1.88 0.21,3.77 0.39,5.63 0.31,3.7 0.63,7.41 0.89,11.11 0.48,6.54 1.03,13.12 1.3,19.68 0.3,6.93 0.39,13.84 0.21,20.79 -0.08,3.25 -0.16,6.5 -0.34,9.76 2.02,-0.36 4.05,-0.66 6.07,-0.99 4.32,-0.72 8.66,-1.35 13,-1.77 2.43,-0.24 4.9,-0.19 7.34,-0.14 1.26,0.04 2.51,0.05 3.77,0.05 3.71,-0.03 7.43,-0.1 11.14,-0.05 3.34,0.05 6.67,0.54 9.96,0.98 3.17,0.42 6.35,0.69 9.52,0.94 0.04,-4.59 0.17,-9.18 0.33,-13.76 -1.61,-0.03 -3.21,-0.02 -4.81,0.15 -1.15,0.12 -2.35,0.3 -3.52,0.3 -1.36,-0.02 -2.72,-0.06 -4.11,-0.16 -2.31,-0.18 -4.64,-0.37 -6.95,-0.14 -1.65,0.17 -3.22,-0.02 -4.85,-0.25 -0.59,-0.05 -1.2,-0.1 -1.79,-0.22 -1.27,-0.27 -2.35,-1.36 -2.95,-2.44 -0.89,-1.59 -0.89,-3.53 -1.08,-5.31 -0.21,-1.95 -0.36,-3.9 -0.46,-5.86 -0.2,-3.92 -0.1,-7.83 0.02,-11.75 0.03,-1.47 -0.14,-2.96 0,-4.41 0.06,-0.65 0.11,-1.28 0.15,-1.94 0.08,-1.22 0.25,-2.37 0.88,-3.44 1,-1.69 2.73,-2.66 4.59,-3.05 3.02,-0.6 6.14,-0.13 9.14,0.34 1.91,0.3 3.78,0.71 5.67,1.04 1.18,0.06 2.36,-0.04 3.54,-0.1 1.05,-0.07 2.09,-0.11 3.14,-0.16 0.64,-0.03 1.29,-0.03 1.95,-0.03 0.89,0 1.78,0 2.64,-0.06 0.61,-0.11 1.21,-0.2 1.81,-0.29 0.34,-3.05 0.7,-6.08 1.13,-9.12 -2.14,-0.07 -4.28,-0.22 -6.4,-0.34 z m 6.58,165.32 c -6.47,1.88 -13.06,3.2 -19.52,5.04 -7.21,2.04 -14.29,4.54 -21.55,6.38 -3.47,0.89 -6.9,1.57 -10.41,2.24 -2.12,0.41 -4.32,0.68 -6.51,0.99 0.99,3.23 2.04,6.44 3.02,9.68 1.87,6.12 4.12,12.15 6.26,18.21 3.97,11.29 7.5,22.73 10.98,34.19 6.35,-3.21 12.69,-6.44 19.07,-9.59 7.49,-3.71 15.39,-6.49 23.12,-9.66 2.88,-1.27 5.75,-2.58 8.58,-3.96 0.35,-0.17 0.7,-0.36 1.05,-0.53 -0.33,-1.2 -0.67,-2.4 -0.99,-3.61 -1.37,0.27 -2.76,0.47 -4.13,0.79 -1.57,0.35 -3.12,0.76 -4.69,1.07 -1.6,0.32 -3.24,0.5 -4.86,0.69 -1.45,0.25 -2.81,0.65 -4.22,1.19 -1.64,0.62 -3.22,0.92 -4.92,1.15 -0.61,0.1 -1.23,0.19 -1.83,0.19 -1,0 -1.98,-0.19 -2.85,-0.84 -0.33,-0.25 -0.66,-0.5 -0.98,-0.76 -0.4,-0.47 -0.77,-0.95 -1.07,-1.46 -0.42,-0.68 -0.65,-1.5 -0.93,-2.23 -0.24,-0.58 -0.46,-1.16 -0.66,-1.75 -0.89,-2.49 -1.84,-4.97 -2.81,-7.43 -0.87,-2.23 -1.59,-4.53 -2.21,-6.85 -0.3,-1.18 -0.53,-2.35 -0.92,-3.51 -0.16,-0.49 -0.34,-0.98 -0.52,-1.46 -0.37,-0.77 -0.82,-1.56 -1.02,-2.39 -0.51,-1.99 0.12,-3.94 1.46,-5.46 1.06,-1.18 2.62,-1.74 4.15,-2.07 2.44,-0.57 4.92,-1.02 7.39,-1.45 2.29,-0.4 4.57,-0.93 6.86,-1.38 2.35,-0.46 4.77,-0.69 7.15,-0.98 1.31,-0.22 2.61,-0.49 3.92,-0.77 -0.84,-4.82 -1.61,-9.67 -2.31,-14.52 -1.03,0.29 -2.07,0.55 -3.1,0.85 z m 36.61,164.52 c -6.4,3.22 -12.99,6.03 -19.34,9.36 -3.26,1.71 -6.51,3.47 -9.84,5.04 -1.67,0.76 -3.33,1.57 -5.02,2.32 -1.09,0.49 -2.2,0.96 -3.3,1.46 2.72,5.4 5.96,10.52 9.16,15.65 4.05,6.49 8.07,12.99 12.02,19.53 4.18,6.93 8.4,13.83 12.41,20.86 3.02,5.27 5.7,10.74 8.28,16.26 4.73,-4.58 9.48,-9.16 14.32,-13.61 5.37,-4.94 10.85,-9.76 16.24,-14.68 4.89,-4.45 9.52,-9.21 14.18,-13.9 2.24,-2.23 4.42,-4.53 6.61,-6.8 0.61,-0.64 1.24,-1.3 1.88,-1.97 -0.12,-0.16 -0.25,-0.33 -0.36,-0.49 -1.25,-1.8 -2.47,-3.62 -3.7,-5.42 -1.73,0.76 -3.45,1.52 -5.17,2.28 -2.24,0.99 -4.41,2.18 -6.61,3.28 -2.06,1.06 -4.15,2.01 -6.19,3.1 -2.01,1.07 -4.08,1.95 -6.15,2.82 -1.73,0.84 -3.54,2.07 -5.48,2.07 -0.39,0 -0.78,-0.05 -1.18,-0.16 -1.99,-0.54 -3.39,-2.54 -4.55,-4.11 -0.81,-1.07 -1.45,-2.26 -2.14,-3.39 -1.34,-2.23 -2.61,-4.52 -4.07,-6.69 -1.45,-2.19 -2.97,-4.35 -4.49,-6.49 -1.46,-2.08 -2.68,-4.62 -3.41,-7.05 -0.33,-1.08 -0.51,-2.28 -0.49,-3.4 0.05,-3.09 1.58,-5.56 4.36,-6.94 2.32,-1.17 4.58,-2.46 6.94,-3.52 2.51,-1.1 5,-2.18 7.41,-3.49 1.48,-0.81 2.95,-1.62 4.41,-2.44 1.19,-0.67 2.46,-1.2 3.69,-1.78 -2.36,-3.78 -4.69,-7.59 -6.98,-11.41 -1.89,1.14 -3.8,2.25 -5.67,3.36 -2.81,1.68 -5.53,3.47 -8.32,5.2 -3.04,1.9 -6.24,3.52 -9.45,5.15 z m 90.24,158.5 c -2.81,2.23 -5.6,4.5 -8.37,6.76 -1.2,0.98 -2.39,1.96 -3.57,2.95 -0.36,0.3 -0.72,0.59 -1.08,0.88 0.13,0.12 0.26,0.24 0.39,0.36 1.98,1.75 3.9,3.56 5.76,5.45 3.85,3.9 7.6,7.9 11.6,11.66 8.2,7.73 16.93,14.95 25.74,21.95 5.32,4 10.67,7.97 16.18,11.68 7.67,-10.49 15.31,-21 23.24,-31.3 0.05,-0.06 0.1,-0.12 0.13,-0.18 0.47,-0.61 0.95,-1.22 1.42,-1.83 -0.12,0.14 -0.23,0.29 -0.34,0.45 1.72,-2.24 3.44,-4.49 5.01,-6.83 2.2,-3.25 4.32,-6.54 6.51,-9.8 2.03,-3.04 4.12,-6.02 6.14,-9.03 0.08,-0.12 0.15,-0.24 0.24,-0.36 -2.26,-1.8 -4.51,-3.59 -6.77,-5.4 -0.26,-0.2 -0.53,-0.41 -0.79,-0.62 -1.05,1.67 -2.19,3.28 -3.28,4.93 -0.52,0.79 -1.27,1.36 -2.1,1.66 -1.03,1.42 -2.03,2.84 -3,4.29 -1.59,2.37 -3.15,4.78 -4.94,7.02 -0.86,1.07 -1.73,2.1 -2.63,3.16 -1.38,1.61 -3.04,3.56 -5.2,3.96 -0.35,0.07 -0.71,0.1 -1.07,0.1 -1.53,0 -3.09,-0.6 -3.82,-2.09 -0.02,-0.04 -0.04,-0.09 -0.07,-0.13 -0.13,-0.1 -0.25,-0.21 -0.37,-0.31 -0.94,-0.72 -1.87,-1.46 -2.8,-2.18 -1.37,-0.99 -2.84,-1.78 -4.36,-2.49 -0.89,-0.42 -1.78,-0.83 -2.61,-1.32 -1.09,-0.65 -2.04,-1.48 -3.05,-2.25 -3.53,-2.74 -6.28,-6.56 -8.94,-10.13 -0.19,-0.25 -0.33,-0.55 -0.44,-0.87 -0.33,-0.24 -0.67,-0.47 -0.99,-0.74 -0.96,-0.79 -1.37,-1.87 -1.12,-3.09 0.3,-1.41 1.41,-2.44 2.29,-3.54 0.66,-0.82 1.31,-1.65 1.97,-2.47 2.33,-3.03 4.91,-5.84 7.34,-8.8 0.09,-0.12 0.18,-0.23 0.26,-0.34 -0.07,0.11 -0.15,0.21 -0.23,0.31 0,-0.01 0.01,-0.02 0.02,-0.03 0.38,-0.48 0.75,-0.97 1.14,-1.47 -0.2,0.25 -0.39,0.5 -0.58,0.75 1.18,-1.64 2.35,-3.31 3.58,-4.95 0.71,-0.99 1.47,-1.96 2.24,-2.95 0.3,-0.38 0.62,-0.75 0.95,-1.12 0.05,-0.05 0.12,-0.09 0.17,-0.14 -1.26,-1.06 -2.55,-2.11 -3.79,-3.18 -1.08,-0.95 -2.12,-1.95 -3.18,-2.9 -0.09,0.08 -0.17,0.17 -0.26,0.25 -1.7,1.64 -3.49,3.2 -5.32,4.73 -3.9,3.26 -7.76,6.52 -11.56,9.89 -8.06,7.16 -17.06,13.18 -25.69,19.65 z m 150.44,99.57 c -1.85,2.97 -3.73,5.92 -5.62,8.86 -1.1,1.7 -2.23,3.41 -3.29,5.14 4.43,1.49 8.91,2.81 13.42,4.11 6.93,1.98 13.68,4.53 20.47,6.92 7.02,2.44 13.91,5.18 20.9,7.64 7.06,2.5 14.22,4.59 21.41,6.61 0.19,-0.89 0.38,-1.78 0.58,-2.66 0.66,-3.14 1.48,-6.23 2.32,-9.33 1.67,-6.23 3.47,-12.43 5.19,-18.66 1.74,-6.24 3.56,-12.45 5.43,-18.66 0.83,-2.77 1.75,-5.48 2.8,-8.17 -2.06,-0.63 -4.12,-1.24 -6.17,-1.89 -1.81,-0.58 -3.6,-1.2 -5.38,-1.85 -1.17,4.17 -2.15,8.42 -3.18,12.64 -0.72,2.88 -1.47,5.75 -2.24,8.61 -0.45,1.65 -1.16,3.28 -1.93,4.78 -0.73,1.46 -1.55,3.1 -3.03,3.95 -0.75,0.43 -1.85,0.81 -2.74,0.81 -0.8,0 -1.49,-0.26 -2.19,-0.56 -0.72,-0.24 -1.48,-0.42 -2.21,-0.65 -0.97,-0.31 -1.96,-0.52 -2.95,-0.74 -2.23,-0.45 -4.49,-0.82 -6.73,-1.26 -5.46,-1.05 -10.88,-2.32 -16.3,-3.52 -3.02,-0.68 -4.74,-4.1 -3.96,-6.97 0.29,-1 0.86,-1.77 1.54,-2.43 0.02,-0.08 -0.01,-0.18 0.02,-0.27 1.61,-5 3.19,-10.01 4.77,-15.03 1.37,-4.42 2.91,-8.77 4.37,-13.15 0.14,-0.47 0.3,-0.94 0.45,-1.4 0.06,-0.22 0.15,-0.42 0.22,-0.62 0.05,-0.13 0.1,-0.2 0.15,-0.32 -1.2,-0.57 -2.4,-1.17 -3.62,-1.74 -2.22,-1.04 -4.41,-2.15 -6.63,-3.22 -0.54,1.01 -1.11,2 -1.65,2.98 -1.46,2.69 -2.99,5.35 -4.6,7.98 -3.33,5.51 -6.12,11.29 -9.61,16.69 -3.31,5.15 -6.75,10.19 -10.01,15.38 z m 172.76,69.86 c 3.11,-0.55 6.21,-1.12 9.3,-1.66 7.25,-1.27 14.73,-1.55 22.08,-1.5 3.48,0.02 6.97,0.28 10.44,0.5 3.24,0.2 6.51,0.39 9.73,0.67 7.27,0.65 14.4,1.91 21.6,3.01 0.16,0.02 0.31,0.03 0.47,0.05 -0.02,-0.34 -0.04,-0.67 -0.06,-1 -0.16,-3.2 -0.33,-6.38 -0.5,-9.56 -0.32,-6.26 -0.55,-12.52 -0.67,-18.78 -0.2,-10.96 -0.36,-21.9 -0.53,-32.86 -0.43,0 -0.86,0.02 -1.28,0.02 -2.45,0 -4.89,-0.07 -7.33,-0.15 -0.07,0.29 -0.14,0.59 -0.21,0.88 -0.18,2.06 -0.16,4.15 -0.16,6.22 0,2.68 0.09,5.33 0.11,8.02 0.01,2.49 0.05,5 -0.11,7.49 -0.05,0.7 -0.08,1.41 -0.13,2.1 -0.11,1.55 -0.27,3.57 -1.14,4.92 -0.89,1.39 -1.95,2.35 -3.54,2.84 -0.87,0.27 -1.67,0.19 -2.53,0.29 -0.73,0.08 -1.45,0.02 -2.18,0.02 -1.09,-0.02 -2.2,0.02 -3.28,0.09 -2.65,0.14 -5.31,0.29 -7.95,0.42 -5.86,0.29 -11.72,0.68 -17.58,1.06 -0.11,0.01 -0.22,0.01 -0.33,0.01 -3.43,0 -6.23,-3.28 -6.23,-6.57 0,-1.72 0.7,-3.4 1.92,-4.62 0.05,-0.05 0.1,-0.07 0.15,-0.12 0.24,-3.69 0.5,-7.39 0.71,-11.09 0.21,-3.97 0.3,-8.05 -0.15,-12.02 -0.07,-0.49 -0.14,-1 -0.2,-1.5 -0.19,-1.32 0.2,-2.51 0.88,-3.57 -2.88,-0.52 -5.76,-1.05 -8.64,-1.61 -0.31,0.9 -0.61,1.81 -0.87,2.74 -0.47,1.83 -0.87,3.7 -1.23,5.57 -1.57,8.24 -2.43,16.59 -4.1,24.81 -1.79,8.65 -3.53,17.24 -6.25,25.65 -1.01,3.13 -1.98,6.25 -2.66,9.47 -0.01,0.08 -0.03,0.17 -0.04,0.26 0.83,-0.18 1.66,-0.34 2.49,-0.5 z m 176.53,-56.49 c 1.1,5.29 2.36,10.54 3.3,15.85 2.07,11.71 2.9,23.49 4.03,35.32 0.12,0.9 0.26,1.79 0.4,2.68 2.58,-0.93 5.22,-1.67 7.8,-2.62 2.58,-1.13 5.14,-2.28 7.77,-3.29 2.58,-0.99 5.2,-1.83 7.77,-2.84 3.99,-1.78 7.94,-3.73 12.07,-5.14 5.24,-1.81 10.52,-3.2 16.05,-3.87 4.47,-0.56 8.93,-0.87 13.43,-0.96 2.46,-0.04 4.93,-0.12 7.39,-0.25 -0.09,-0.3 -0.17,-0.61 -0.24,-0.92 -0.86,-3.23 -1.71,-6.44 -2.5,-9.69 -0.8,-3.3 -1.48,-6.61 -2.3,-9.89 -0.78,-3.21 -1.88,-6.37 -2.94,-9.51 -4.13,-12.22 -8.1,-24.48 -11.99,-36.79 -0.91,0.3 -1.83,0.54 -2.72,0.86 -1.72,0.61 -3.44,1.24 -5.16,1.88 0.23,0.73 0.47,1.46 0.68,2.2 0.76,2.67 1.47,5.33 2.42,7.92 1.01,2.7 2.16,5.36 3.03,8.1 0.91,2.81 1.75,5.65 2.53,8.49 0.32,1.14 0.66,2.28 0.96,3.43 0.08,0.31 0.16,0.62 0.25,0.94 0.2,0.75 0.53,2.13 0.47,2.82 -0.2,1.8 -0.52,3.77 -2.01,5.01 -1.69,1.41 -3.65,1.93 -5.76,2.37 -2,0.4 -4.02,0.83 -5.99,1.41 -2.69,0.81 -5.38,1.66 -8.1,2.39 -2.37,0.61 -4.83,0.93 -7.23,1.31 -1.82,0.29 -3.61,0.61 -5.42,0.92 -0.59,1.1 -1.57,1.97 -2.87,2.34 -0.4,0.1 -0.81,0.15 -1.21,0.15 -2.08,0 -4.1,-1.37 -4.63,-3.47 -1.8,-7.2 -3.63,-14.36 -5.66,-21.51 -0.79,-2.78 -1.52,-5.57 -2.36,-8.34 -0.4,-1.31 -0.79,-2.61 -1.12,-3.93 -0.01,-0.05 -0.02,-0.09 -0.03,-0.14 -2.93,0.33 -5.88,0.56 -8.83,0.81 -1.44,0.12 -2.86,0.25 -4.29,0.37 0.1,0.74 0.23,1.48 0.33,2.22 0.68,4.49 1.75,8.92 2.68,13.37 z m 161.55,-48.41 c 2.9,5.77 5.88,11.51 8.68,17.33 3.22,6.73 6.07,13.63 8.95,20.49 0.16,0.33 0.3,0.68 0.46,1 0.94,-0.85 1.87,-1.72 2.8,-2.55 3.05,-2.74 6.57,-4.85 9.8,-7.34 0.51,-0.4 1,-0.78 1.5,-1.17 -0.45,0.35 -0.89,0.7 -1.34,1.04 -0.06,0.06 -0.13,0.11 -0.2,0.16 2.72,-2.11 5.44,-4.2 8.27,-6.13 2.53,-1.75 5.09,-3.42 7.6,-5.17 2.6,-1.83 5.09,-3.8 7.78,-5.46 2.95,-1.82 6.11,-3.19 9.29,-4.52 -0.33,0.13 -0.66,0.27 -0.99,0.4 0.9,-0.38 1.79,-0.75 2.69,-1.13 5.55,-2.35 11.1,-4.71 16.74,-6.91 0.2,-0.09 0.4,-0.19 0.6,-0.28 -2.55,-3.26 -5.06,-6.53 -7.55,-9.83 -5.55,-7.1 -11.57,-13.81 -17.33,-20.75 -6.96,-8.39 -13.87,-16.79 -20.67,-25.31 -0.33,-0.4 -0.62,-0.8 -0.88,-1.2 -0.5,0.43 -1.01,0.83 -1.5,1.26 -1.71,1.51 -3.37,3.05 -5.03,4.6 0.27,0.56 0.52,1.13 0.69,1.71 0.14,0.49 0.26,0.96 0.42,1.43 0.99,2.24 2.04,4.52 3.32,6.59 1.55,2.51 3.47,4.79 5.18,7.2 1.94,2.73 3.68,5.57 5.48,8.41 0.93,1.51 1.82,3.09 2.59,4.69 0.94,1.93 1.03,4.22 -0.57,5.84 -0.61,0.61 -1.36,0.9 -2.11,1.19 -1.46,0.74 -2.74,1.74 -4.15,2.6 -1.94,1.18 -3.84,2.42 -5.69,3.73 -4.86,3.41 -9.84,6.59 -14.86,9.74 -0.35,0.8 -0.87,1.53 -1.7,2.02 -0.69,0.4 -1.47,0.59 -2.24,0.59 -1.55,0 -3.11,-0.76 -3.87,-2.19 -2.85,-5.24 -5.88,-10.38 -8.62,-15.68 -1.36,-2.64 -2.7,-5.28 -4.08,-7.89 -0.73,-1.36 -1.43,-2.7 -2.16,-4.02 -0.26,-0.44 -0.51,-0.89 -0.76,-1.34 -2.54,1.34 -5.1,2.63 -7.69,3.88 1.07,2.14 2.09,4.31 3.11,6.48 2.56,5.55 5.3,11.03 8.04,16.49 z m 18.06,38.85 v 0 c -0.03,-0.07 -0.06,-0.14 -0.09,-0.21 0.03,0.07 0.06,0.14 0.09,0.21 z m 68.26,-34.41 c 0.11,0.14 0.22,0.28 0.32,0.41 -0.1,-0.13 -0.21,-0.27 -0.32,-0.41 z m 42.16,-115.13 c 4.73,5.06 9.29,10.27 13.85,15.51 4.34,5.03 8.93,9.79 13.7,14.45 3.61,3.5 7.25,7.01 11.06,10.28 0.52,-0.56 1.04,-1.11 1.57,-1.67 1.87,-1.93 4.08,-3.57 6.07,-5.4 2.06,-1.88 3.9,-4.02 5.89,-6 2.17,-2.13 4.35,-4.22 6.51,-6.39 4.29,-4.3 8.41,-8.75 12.8,-12.97 4.22,-4.04 8.32,-8.16 11.98,-12.73 1.06,-1.36 2.13,-2.74 3.19,-4.13 -0.48,0.62 -0.95,1.24 -1.43,1.86 1.67,-2.22 3.34,-4.44 4.84,-6.76 -0.9,-0.73 -1.8,-1.44 -2.66,-2.2 -2.18,-1.9 -4.41,-3.78 -6.64,-5.63 -4.33,-3.59 -8.87,-6.91 -13.27,-10.4 -9.87,-7.84 -19.48,-15.98 -29.08,-24.13 -1.68,2.25 -3.4,4.48 -5.1,6.72 0.07,0.04 0.15,0.08 0.22,0.13 2.01,1.43 3.73,3.09 5.52,4.74 3.06,2.83 6.05,5.69 8.66,8.95 1.57,1.99 3.23,3.89 4.76,5.9 0.7,0.9 1.36,1.81 2.03,2.75 1.17,1.62 2.06,3.33 1.56,5.4 -0.29,1.21 -1.44,2.46 -2.7,2.69 -0.06,0.01 -0.11,0.02 -0.17,0.03 -0.64,0.58 -1.24,1.21 -1.78,1.88 -0.79,1.05 -1.53,2.15 -2.22,3.27 -0.93,1.54 -1.99,2.97 -3.1,4.36 -0.91,1.24 -1.74,2.56 -2.67,3.8 -1.33,1.76 -2.7,3.47 -4.06,5.18 -2.14,3.04 -4.12,7.94 -8.2,7.94 -0.47,0 -0.96,-0.07 -1.5,-0.21 -0.76,-0.2 -1.41,-0.71 -1.96,-1.31 -0.18,-0.12 -0.38,-0.2 -0.54,-0.36 -2.77,-2.89 -5.67,-5.69 -8.56,-8.5 -0.73,-0.72 -1.47,-1.41 -2.21,-2.11 -0.53,-0.44 -1.04,-0.9 -1.56,-1.33 -2.31,-1.66 -4.7,-3.2 -7.02,-4.85 -1.95,-1.38 -3.81,-2.91 -5.66,-4.47 -3.18,2.65 -6.48,5.17 -9.8,7.65 0.25,0.23 0.5,0.45 0.74,0.68 2.34,2.43 4.65,4.9 6.94,7.38 z m 116.35,-124.16 c 4.8,2.7 9.79,5.14 14.7,7.67 3.76,1.94 7.58,3.81 11.43,5.6 0.11,-0.65 0.24,-1.28 0.38,-1.92 0.55,-2.47 1.46,-4.83 2.37,-7.19 2.25,-5.76 4.24,-11.6 6.94,-17.19 2.69,-5.58 5.47,-11.11 8.44,-16.55 2.74,-5.05 5.38,-10.04 7.73,-15.28 1.34,-3.28 2.7,-6.58 3.94,-9.91 -1.89,-0.63 -3.74,-1.36 -5.6,-2.07 -5.46,-2.07 -10.95,-4.06 -16.44,-6.1 -5.19,-1.93 -10.34,-3.96 -15.56,-5.78 -6.42,-2.24 -12.84,-4.49 -19.2,-6.88 -0.92,-0.34 -1.76,-0.75 -2.51,-1.27 -1.39,3.15 -2.8,6.29 -4.26,9.41 0.47,0.01 0.94,0.07 1.46,0.24 0.89,0.29 1.8,0.75 2.69,1.13 0.8,0.37 1.58,0.77 2.39,1.13 1.63,0.68 3.25,1.37 4.86,2.07 2,0.79 4.05,1.41 6.05,2.19 2.46,0.97 4.83,2.11 7.19,3.3 2.11,1.09 4.22,2.19 6.27,3.4 1.68,0.97 3.33,1.91 3.91,3.97 0.36,1.35 -0.03,2.67 -0.27,4.01 -0.1,0.95 -0.2,1.91 -0.53,2.81 -0.53,1.5 -1.25,2.95 -1.92,4.38 -0.83,1.78 -1.65,3.55 -2.43,5.35 -0.78,1.97 -1.53,3.96 -2.51,5.84 -0.97,1.91 -2.02,3.74 -3.13,5.56 -1.07,1.75 -2.1,3.53 -3.13,5.32 -0.7,1.23 -1.64,2.28 -2.82,3.04 -0.92,0.61 -2.07,0.99 -3.21,0.99 -0.8,0 -1.58,-0.18 -2.25,-0.63 -0.64,-0.42 -1.24,-1.02 -1.64,-1.71 -0.59,-0.32 -1.18,-0.63 -1.74,-0.99 -0.82,-0.48 -1.61,-0.99 -2.48,-1.39 0.26,0.12 0.54,0.24 0.8,0.34 -3.24,-1.34 -6.46,-2.76 -9.71,-4.14 -2.82,-1.1 -5.62,-2.19 -8.39,-3.37 -2.43,-1.04 -4.81,-2.18 -7.18,-3.31 -2.01,3.79 -3.86,7.65 -5.75,11.5 0.42,0.14 0.85,0.21 1.26,0.39 10.53,4.07 20.03,10.55 29.85,16.04 z m -1.06,-376.71 c 1.66,5.54 3.21,11.13 4.68,16.73 1.36,-0.22 2.72,-0.43 4.07,-0.66 2,-0.33 3.96,-0.85 5.91,-1.31 2.36,-0.53 4.71,-1.03 7.12,-1.24 1.75,-0.14 3.5,-0.24 5.24,-0.44 0.47,-0.07 0.96,-0.17 1.45,-0.24 0.55,-0.11 1.09,-0.24 1.64,-0.31 0.56,-0.1 1.11,-0.2 1.68,-0.29 0.64,-0.16 1.27,-0.35 1.9,-0.55 0.91,-0.28 1.88,-0.37 2.83,-0.45 0.37,-0.08 0.75,-0.16 1.12,-0.24 -0.4,-1 -0.71,-2.02 -1.04,-3.03 -0.8,-2.47 -1.57,-4.91 -2.25,-7.4 -0.59,-2.13 -1.17,-4.26 -1.75,-6.41 -0.37,-1.38 -0.71,-2.76 -1.13,-4.11 -0.27,0.1 -0.53,0.2 -0.79,0.29 -1.51,0.54 -2.99,1.05 -4.53,1.49 -1.46,0.44 -3.02,0.64 -4.53,0.96 -1.45,0.3 -2.9,0.66 -4.31,1.08 -1.57,0.47 -3.05,1.1 -4.69,1.32 -1.38,0.23 -2.73,0.42 -4.07,0.83 -1.25,0.36 -2.44,0.9 -3.69,1.3 -0.86,0.27 -1.72,0.47 -2.56,0.75 -0.62,0.32 -1.23,0.62 -1.92,0.73 -0.23,0.05 -0.46,0.05 -0.7,0.09 0.11,0.36 0.22,0.74 0.32,1.11 z m -59.02,-147.54 c 2.61,4.55 5.1,9.17 7.51,13.83 2.8,-1.72 5.61,-3.43 8.42,-5.13 2.53,-1.52 4.94,-3.21 7.48,-4.69 2.76,-1.62 5.64,-2.94 8.53,-4.3 0.94,-0.43 1.87,-0.85 2.82,-1.25 -0.15,-0.2 -0.3,-0.42 -0.43,-0.62 -0.91,-1.34 -1.82,-2.68 -2.74,-4 -1.97,-2.89 -3.82,-5.84 -5.6,-8.86 -1.43,-2.42 -2.77,-4.9 -4.13,-7.37 -0.37,-0.64 -0.71,-1.29 -1.06,-1.95 -0.4,0.39 -0.8,0.78 -1.22,1.15 -1.58,1.41 -3.2,2.75 -4.82,4.11 -1.39,1.15 -2.77,2.36 -4.15,3.53 -0.94,0.8 -1.9,1.6 -2.95,2.24 -0.71,0.41 -1.39,0.86 -2.05,1.34 -1.28,1.04 -2.53,2.12 -3.94,2.99 -1.16,0.72 -2.35,1.38 -3.48,2.15 -0.49,0.42 -1,0.82 -1.5,1.24 1.1,1.87 2.24,3.7 3.31,5.59 z m 47.43,493.3 c 1.22,0.52 2.46,1.03 3.7,1.57 -0.32,-0.14 -0.63,-0.26 -0.95,-0.4 3.91,1.64 7.53,3.77 11.2,5.89 0.85,0.49 1.72,0.96 2.6,1.41 0.37,-1.01 0.77,-2.02 1.23,-2.98 1.28,-2.82 2.86,-5.49 4.28,-8.24 1.39,-2.64 2.51,-5.44 3.8,-8.13 0.66,-1.36 1.39,-2.68 2.16,-3.98 0.19,-0.34 0.4,-0.66 0.61,-0.98 -0.7,-0.33 -1.39,-0.68 -2.1,-1 -1.91,-0.89 -3.81,-1.76 -5.75,-2.6 -1.82,-0.76 -3.69,-1.39 -5.53,-2.12 -2.11,-0.84 -4.11,-1.88 -6.19,-2.83 -0.98,-0.36 -1.99,-0.65 -2.98,-0.97 -1.66,-0.54 -3.46,-0.98 -4.82,-2.11 -0.97,2.24 -1.94,4.48 -2.9,6.72 -0.17,0.41 -0.32,0.78 -0.48,1.12 -0.2,0.48 -0.41,0.96 -0.6,1.44 -0.54,1.25 -1.05,2.51 -1.59,3.75 -0.91,2.09 -1.81,4.18 -2.77,6.26 -0.62,1.35 -1.29,2.68 -1.94,4.01 3.3,1.57 6.61,3.14 9.98,4.57 -0.32,-0.14 -0.64,-0.26 -0.96,-0.4 z m -109.72,-553.4 c -6.52,-7.15 -13.48,-13.81 -20.49,-20.45 -6.49,-6.18 -13.34,-11.82 -20.31,-17.44 -3.24,-2.61 -6.49,-5.16 -9.77,-7.69 -0.02,-0.02 -0.05,-0.03 -0.07,-0.04 -0.19,-0.15 -0.37,-0.29 -0.56,-0.43 -0.16,-0.13 -0.32,-0.26 -0.48,-0.38 -0.05,-0.04 -0.11,-0.08 -0.17,-0.13 -0.97,-0.68 -1.88,-1.46 -2.86,-2.21 -0.92,-0.72 -1.84,-1.43 -2.77,-2.15 -1.83,-1.43 -3.66,-2.89 -5.46,-4.38 -3.12,-2.53 -6.07,-5.29 -9.12,-7.9 -3.18,-2.72 -6.37,-5.41 -9.61,-8.07 -6.67,-4.94 -13.71,-9.35 -20.68,-13.88 -3.82,-2.48 -7.87,-4.6 -11.79,-6.93 -3.96,-2.35 -7.96,-4.56 -12.14,-6.52 -3.84,-1.79 -7.71,-3.49 -11.52,-5.3 -4.14,-1.97 -8.08,-4.16 -12.02,-6.5 -3.19,-1.91 -6.38,-3.86 -9.54,-5.81 -0.62,-0.28 -1.22,-0.57 -1.84,-0.85 -3.33,-1.56 -6.66,-3.12 -9.92,-4.82 -3.12,-1.65 -6.19,-3.35 -9.29,-5.04 -12.8,-7 -25.54,-14.21 -38.95,-19.98 -4.1,-1.66 -8.18,-3.21 -12.47,-4.36 -4.93,-1.33 -9.96,-2.41 -14.94,-3.49 -5.11,-1.06 -10.22,-2.17 -15.39,-2.94 -4.55,-0.66 -9.09,-1.43 -13.64,-2.16 -6.37,-0.75 -12.74,-1.45 -19.11,-2.29 -3.46,-0.37 -6.93,-0.63 -10.4,-1.04 -4.73,-0.57 -9.48,-1.23 -14.22,-1.91 0.58,0.08 1.16,0.15 1.72,0.23 -6.45,-0.85 -12.91,-1.72 -19.34,-2.69 -3.67,-0.42 -7.36,-0.71 -11.03,-1.07 -4.03,-0.38 -8.06,-0.94 -12.1,-1.34 -7.97,-0.82 -16.07,-0.3 -24.07,-0.25 -8.17,0.05 -16.32,0.06 -24.49,0.32 -8.33,0.26 -16.6,0.85 -24.91,1.61 -11.99,1.05 -24.02,1.89 -35.99,3.21 -7.8,1.19 -15.54,2.74 -23.31,4.15 -3.19,0.58 -6.37,1.12 -9.55,1.67 -0.44,0.11 -0.88,0.22 -1.32,0.32 -3.75,0.91 -7.51,1.64 -11.28,2.42 -6.81,1.4 -13.62,2.69 -20.37,4.35 -6.83,1.7 -13.53,3.74 -20.07,6.32 -3.05,1.3 -6.09,2.62 -9.07,4.05 -3.52,1.71 -7,3.51 -10.52,5.21 -6.97,3.39 -14.02,6.67 -21.08,9.86 -7.32,3.31 -14.6,6.7 -21.76,10.33 -3.28,1.65 -6.44,3.58 -9.66,5.33 -3.51,1.87 -7.07,3.68 -10.54,5.65 -6.61,3.77 -13.11,7.7 -19.6,11.67 -3.07,1.87 -5.98,4.05 -8.9,6.17 -3.05,2.23 -6.07,4.48 -9.05,6.78 0.36,-0.27 0.72,-0.56 1.07,-0.83 -5.27,4.09 -10.59,8.12 -15.89,12.16 -5.26,4.11 -10.49,8.32 -15.59,12.66 -2.63,2.26 -5.23,4.55 -7.72,6.97 -2.43,2.34 -4.67,4.85 -6.83,7.45 -2.9,3.84 -5.71,7.76 -8.66,11.57 -3.14,4.07 -6.39,8.06 -9.61,12.07 -5.58,6.98 -11.62,13.59 -17.19,20.59 -5.31,7.16 -10.49,14.42 -15.91,21.49 -5.37,7.03 -11.12,13.76 -16.56,20.73 -9.42,12.37 -18.49,24.99 -27.58,37.59 -2.33,3.21 -4.64,6.43 -6.8,9.76 -2.34,3.6 -4.53,7.26 -6.7,10.99 -1.99,3.46 -4.03,6.87 -6.12,10.25 -0.15,0.25 -0.32,0.49 -0.47,0.74 -0.61,1.69 -1.39,3.33 -2.11,4.97 -1.08,2.48 -2.26,4.92 -3.46,7.33 -2.36,4.76 -4.72,9.5 -7.08,14.23 -2.53,5.04 -5.04,10.08 -7.3,15.24 -1.92,4.34 -3.74,8.72 -5.62,13.06 -2.56,6.24 -5.02,12.54 -7.35,18.87 -2.39,6.56 -4.13,13.36 -6.16,20.04 -2.16,7.08 -4.53,14.14 -6.34,21.32 -1.81,7.04 -3.29,14.12 -4.48,21.29 -2.04,17.15 -1.99,34.49 -1.96,51.76 0.04,18.23 -0.09,36.44 0.58,54.65 0.35,9.61 1.42,19.21 2.65,28.75 1.19,8.31 2.52,16.6 4.11,24.85 1.77,9.19 3.38,18.37 4.9,27.61 1.44,8.71 3.63,17.28 5.44,25.92 1.84,8.89 3.9,17.71 5.99,26.54 1.91,8.02 4.02,16.03 6.66,23.86 2.61,7.75 5.49,15.4 8.59,22.98 3.56,8.08 7.37,16.04 11.57,23.82 4.36,8.02 8.67,16.05 13.32,23.89 9.18,15.42 19.02,30.4 29.9,44.63 0.69,0.92 1.38,1.83 2.07,2.73 5.58,7.02 11.31,13.91 16.95,20.92 5.55,6.92 11.06,13.9 16.92,20.58 12.13,13.84 24.87,27.27 38.95,39.15 4.83,4.08 9.77,8.05 14.78,11.96 0.62,0.46 1.23,0.94 1.84,1.41 -0.12,-0.09 -0.25,-0.18 -0.36,-0.28 7.48,5.78 14.71,11.87 22.12,17.75 6.43,4.95 12.88,9.94 19.73,14.26 7.79,4.88 15.82,9.19 23.99,13.37 16.24,8.32 31.8,17.91 48.39,25.56 4.12,1.9 8.25,3.72 12.41,5.49 8.58,3.44 17.23,6.54 26.06,9.27 4.35,1.34 8.77,2.46 13.14,3.68 4.45,1.24 8.87,2.62 13.29,3.96 9.09,2.72 18.3,4.85 27.52,7.08 3.72,0.89 7.43,1.8 11.15,2.64 0.2,0.02 0.41,0.05 0.61,0.08 0.79,0.02 1.59,0.13 2.39,0.34 h 0.01 c 1.99,0.28 3.99,0.54 5.98,0.81 -0.88,-0.12 -1.73,-0.24 -2.58,-0.36 8.8,1.18 17.62,2.25 26.43,3.38 4.09,0.53 8.19,0.98 12.3,1.44 1.63,0.07 3.27,0.13 4.91,0.2 9.13,0.44 18.26,1.04 27.41,1.18 10.01,0.11 20.04,0.02 30.07,-0.08 8.02,-0.09 16.04,-0.18 24.08,-0.12 5.32,0.01 10.66,0.13 15.99,0.17 4.86,0.03 9.68,-0.34 14.51,-0.88 3.84,-0.72 7.63,-1.48 11.3,-2.84 1.18,-0.61 2.29,-1.27 3.39,-2.03 0.56,-0.45 1.12,-0.91 1.68,-1.39 2.59,-2.21 6.23,-2.63 8.91,-0.37 0.95,-0.82 2,-1.1 3.28,-1.23 7.56,-0.87 15.14,-1.79 22.7,-2.66 7.44,-1.03 14.87,-2.15 22.29,-3.39 3.62,-0.58 7.22,-1.22 10.83,-1.82 2.28,-0.39 4.52,-0.87 6.77,-1.34 4.89,-1.84 9.79,-3.68 14.67,-5.55 7.03,-3.11 13.82,-6.72 20.77,-10 7.55,-3.58 14.79,-7.77 22.31,-11.39 7.28,-3.51 14.58,-7.01 21.9,-10.48 3.83,-1.8 7.73,-3.49 11.51,-5.4 3.49,-1.75 6.8,-3.81 10.13,-5.81 6.51,-3.93 13.15,-7.65 19.34,-12.12 2.41,-1.75 4.8,-3.58 7.26,-5.28 3.33,-2.97 6.67,-5.92 10.11,-8.77 9.94,-8.24 20.37,-15.92 30.64,-23.74 -0.23,0.19 -0.47,0.36 -0.69,0.55 0.34,-0.27 0.69,-0.54 1.04,-0.81 0.04,-0.04 0.09,-0.07 0.13,-0.1 0.57,-0.44 1.12,-0.87 1.69,-1.3 -0.19,0.15 -0.39,0.29 -0.58,0.45 0.05,-0.04 0.1,-0.09 0.16,-0.13 0.16,-0.12 0.32,-0.25 0.49,-0.37 -0.1,0.07 -0.21,0.15 -0.3,0.23 0.29,-0.22 0.57,-0.44 0.87,-0.67 4.51,-3.46 9.04,-6.84 13.77,-10.02 4.28,-2.86 8.51,-5.8 12.64,-8.86 3.71,-2.96 7.34,-6.02 11.04,-8.98 4.22,-3.35 8.56,-6.57 12.85,-9.82 6.19,-4.9 12.13,-10.15 17.65,-15.77 3.68,-5.01 7.23,-10.11 10.84,-15.18 2.37,-3.28 4.9,-6.45 7.32,-9.69 2.6,-3.46 4.9,-7.15 7.26,-10.76 4.46,-6.81 9.12,-13.46 13.45,-20.34 4.35,-6.92 9.13,-13.62 13.22,-20.7 3.32,-5.72 6.6,-11.46 9.98,-17.13 0.15,-0.26 0.28,-0.51 0.43,-0.77 1.75,-4.24 3.54,-8.47 5.44,-12.64 2.8,-6.13 5.82,-12.14 8.75,-18.21 2.77,-5.72 5.38,-11.49 8.14,-17.21 2.78,-5.75 5.57,-11.48 8.14,-17.33 0.81,-1.96 1.56,-3.94 2.31,-5.91 0.52,-1.8 1.01,-3.59 1.54,-5.37 2.19,-7.52 4.56,-14.98 6.78,-22.5 0.38,-1.33 0.76,-2.66 1.15,-3.99 0.01,-0.05 0.02,-0.1 0.03,-0.14 1.76,-7.24 3.17,-14.56 4.41,-21.91 -1.35,-1.28 -2.06,-3.23 -1.51,-5.12 1.55,-5.46 2.96,-10.94 4.4,-16.42 0.17,-0.63 0.28,-1.29 0.41,-1.94 1.06,-10.14 1.88,-20.3 2.7,-30.45 0.36,-9.56 0.68,-19.1 0.83,-28.64 0.25,-15.55 -0.28,-31.04 -2.14,-46.5 -1.39,-10.1 -2.63,-20.21 -3.88,-30.33 -2.55,-18.15 -5.28,-36.31 -8.59,-54.33 -1.69,-9.18 -4.33,-18.13 -6.68,-27.16 -0.69,-2.68 -1.37,-5.39 -2.05,-8.08 -2.34,-7.7 -4.74,-15.36 -7.36,-22.96 -2.99,-8.68 -6.26,-17.24 -9.75,-25.73 -6.35,-14.67 -12.54,-29.37 -19.23,-43.87 -3.3,-7.11 -6.68,-14.18 -10.38,-21.09 -3.8,-7.12 -8.08,-13.91 -12.32,-20.78 -6.01,-9.75 -11.9,-19.58 -18.24,-29.15 -5.66,-8.55 -11.58,-16.96 -17.8,-25.11 -0.11,-0.18 -0.24,-0.34 -0.37,-0.5 -0.17,-0.23 -0.35,-0.45 -0.53,-0.68 0.14,0.18 0.28,0.36 0.41,0.54 -1.33,-1.72 -2.66,-3.45 -3.99,-5.18 -0.07,-0.07 -0.14,-0.15 -0.2,-0.23 z m -527.3,-198.58 c 0.42,2.62 0.87,5.24 1.34,7.85 0.95,5.36 1.83,10.73 2.68,16.1 6.97,-1.21 13.94,-2.38 20.92,-3.54 1.21,-0.21 2.41,-0.43 3.62,-0.65 -0.18,-1.87 -0.17,-3.77 -0.24,-5.67 -0.1,-2.39 -0.31,-4.79 -0.54,-7.18 -0.41,-4.56 -0.91,-9.1 -1.49,-13.64 -0.66,0.14 -1.32,0.3 -1.98,0.45 -2.35,0.52 -4.71,1 -7.06,1.49 -2.58,0.5 -5.16,1.01 -7.74,1.48 -2.54,0.45 -5.13,0.69 -7.71,0.95 -0.71,0.11 -1.41,0.23 -2.11,0.36 0.12,0.67 0.2,1.33 0.31,2 z m -152.17,71.8 c 2.36,4.39 4.6,8.81 6.88,13.24 1.46,-0.91 2.9,-1.86 4.37,-2.74 4.28,-2.55 8.72,-4.79 13.18,-7.06 -0.66,-0.91 -1.15,-1.97 -1.45,-3.1 -0.17,-0.7 -0.31,-1.44 -0.48,-2.15 -0.14,-0.66 -0.37,-1.29 -0.62,-1.92 -1.21,-2.65 -2.43,-5.27 -3.57,-7.97 -0.71,-1.72 -1.4,-3.45 -2.11,-5.19 -0.74,0.34 -1.47,0.7 -2.18,1.08 -1.75,0.9 -3.37,2.06 -4.95,3.24 -2.53,2.03 -5.1,4.08 -8.06,5.46 -1.29,0.61 -2.59,1.19 -3.91,1.73 0.98,1.8 1.95,3.6 2.9,5.38 z m -99.11,116.58 c 0.98,-1.31 1.99,-2.58 2.98,-3.88 -2.38,-2.7 -5.2,-5.03 -7.79,-7.52 -2.65,-2.56 -5.36,-4.97 -8.24,-7.27 -0.17,-0.13 -0.36,-0.27 -0.54,-0.41 -0.17,0.21 -0.33,0.4 -0.51,0.6 -0.75,0.87 -1.71,1.55 -2.6,2.27 -2,1.62 -3.8,3.43 -5.67,5.18 -2.06,1.93 -4.35,3.57 -6.66,5.2 -0.71,0.49 -1.42,0.96 -2.14,1.43 0.86,0.92 1.74,1.83 2.63,2.73 1.95,1.99 3.84,4.03 5.68,6.14 3.56,4.04 7.02,8.17 10.48,12.3 4.11,-5.6 8.21,-11.22 12.38,-16.77 z m -124.89,464.94 c -1.5,0.63 -2.99,1.24 -4.59,1.62 -2.17,0.53 -4.42,0.84 -6.61,1.31 -2.24,0.48 -4.5,0.88 -6.76,1.26 -0.95,0.13 -1.9,0.27 -2.87,0.42 0.59,1.92 0.93,3.93 1.51,5.86 0.72,2.4 1.57,4.74 2.39,7.1 0.41,1.2 0.78,2.41 1.14,3.62 1.57,-0.69 3.14,-1.38 4.75,-1.96 1.95,-0.69 3.99,-1.09 5.98,-1.63 2.78,-0.76 5.6,-1.38 8.43,-1.91 -1.21,-5.22 -2.36,-10.44 -3.37,-15.69 z m 176.74,277.46 c -0.63,0.89 -1.23,1.79 -1.89,2.65 -2.28,2.93 -4.78,5.68 -7.23,8.45 -2.11,2.36 -4.22,4.72 -6.35,7.05 0.09,0.11 0.18,0.18 0.26,0.29 0.39,0.51 0.77,1.01 1.14,1.52 2.39,2.97 4.94,5.83 7.89,8.26 2.09,1.46 4.11,3.01 5.96,4.79 0.35,0.34 0.71,0.69 1.07,1.03 0.31,-0.49 0.65,-0.96 0.97,-1.44 0.99,-1.45 1.98,-2.9 2.91,-4.36 1.95,-3.07 3.95,-6.03 6.12,-8.93 0.89,-1.2 1.83,-2.39 2.7,-3.65 0.72,-1.04 1.41,-2.19 2.2,-3.23 -5.27,-4.11 -10.55,-8.23 -15.75,-12.43 z m 317.81,133.57 c -0.1,-1.13 -0.25,-2.35 -0.31,-3.55 -7.02,-0.59 -13.98,-1.74 -20.92,-2.91 0.26,1.08 0.08,2.21 -0.1,3.31 -0.38,3.92 -0.41,7.89 -0.63,11.81 -0.19,3.15 -0.42,6.28 -0.65,9.42 4.55,-0.26 9.1,-0.45 13.66,-0.3 2.55,0.08 5.11,0.16 7.64,0.39 0.54,0.03 1.08,0.07 1.62,0.12 0.01,-0.89 0.02,-1.77 0.04,-2.65 0.05,-2.65 0.08,-5.28 0.05,-7.92 -0.04,-2.58 -0.19,-5.16 -0.4,-7.72 z m -76.2,-37.15 c 0,0 0.01,0 0.02,0 -0.07,-0.01 -0.13,-0.01 -0.19,-0.02 0.01,0 0.02,0 0.03,0 0.04,0.01 0.09,0.02 0.14,0.02 z m 516.78,-160.02 c -5.26,6.43 -10.87,12.56 -16.91,18.28 0.97,0.92 1.97,1.83 2.97,2.75 2.26,2.02 4.7,3.85 6.94,5.91 2.13,1.93 4.02,4.11 6.07,6.15 1.13,1.13 2.25,2.28 3.4,3.42 0.41,-0.85 0.86,-1.68 1.38,-2.45 1.28,-1.86 2.87,-3.5 4.43,-5.11 1.05,-1.11 2.11,-2.23 3.23,-3.27 1.01,-0.96 2.07,-1.9 3.06,-2.9 0.95,-0.96 1.81,-2.04 2.68,-3.07 0.91,-1.06 1.97,-1.99 3.14,-2.79 -1.29,-1.18 -2.53,-2.41 -3.81,-3.62 -2.16,-2.02 -4.31,-4.07 -6.61,-5.91 -1.05,-0.76 -2.11,-1.47 -3.22,-2.12 -1.21,-0.74 -2.35,-1.6 -3.47,-2.48 -1.15,-0.89 -2.23,-1.81 -3.28,-2.79 z m -116.73,130.27 v 0 c -0.01,-0.01 -0.01,-0.02 -0.02,-0.03 0.01,0.01 0.01,0.02 0.02,0.03 z m -20.52,12.54 c 4.44,-2.73 8.92,-5.42 13.25,-8.32 1,-0.66 1.94,-1.32 2.92,-2 1.17,-0.82 2.37,-1.41 3.71,-1.97 0.22,-0.09 0.42,-0.17 0.64,-0.25 -3.03,-3.84 -6.22,-7.51 -9.38,-11.23 -1.64,-1.95 -3.31,-3.83 -4.72,-5.96 -1.07,-1.61 -2.12,-3.25 -3.26,-4.82 -0.07,-0.1 -0.15,-0.19 -0.23,-0.29 -2.67,2.25 -5.39,4.44 -8.23,6.47 -2.42,1.72 -4.91,3.35 -7.42,4.92 0.16,0.33 0.32,0.66 0.47,0.98 0.68,1.37 1.38,2.72 2.1,4.08 1.39,2.62 2.8,5.24 4.21,7.83 1.94,3.54 3.95,7.04 5.94,10.56 z m -158.6,41.46 c 1.08,2.72 2.02,5.49 2.89,8.27 1.46,4.64 2.71,9.33 3.92,14.03 3.87,-0.63 7.76,-1.21 11.59,-2.04 2.45,-0.52 4.9,-1.13 7.37,-1.55 1.47,-0.23 2.97,-0.43 4.44,-0.52 0.07,0 0.14,-0.01 0.2,-0.01 -0.79,-1.77 -1.51,-3.58 -2.18,-5.39 -1.18,-3.27 -2.42,-6.53 -3.57,-9.81 -1.15,-3.33 -2.05,-6.69 -2.87,-10.13 -0.27,-1.09 -0.53,-2.18 -0.81,-3.28 -7.37,2.56 -14.7,5.24 -22.32,7 0.44,1.17 0.89,2.3 1.34,3.43 z m -326.1,-32.06 c -0.42,1.12 -0.82,2.25 -1.22,3.37 -1.54,4.34 -2.81,8.75 -4.12,13.15 -0.87,2.95 -1.82,5.9 -2.74,8.85 4.16,0.91 8.34,1.83 12.41,3.03 2.21,0.63 4.4,1.31 6.54,2.16 0.88,0.35 1.74,0.74 2.58,1.15 1.09,-3.83 1.86,-7.77 2.71,-11.63 0.57,-2.56 1.06,-5.11 1.51,-7.69 0.3,-1.7 0.58,-3.42 1,-5.11 -2.53,-1.11 -5.05,-2.23 -7.56,-3.36 -3.6,-1.62 -7.15,-3.32 -10.71,-5.04 -0.12,0.37 -0.25,0.74 -0.4,1.12 z m -151.26,-84.56 c -0.01,0.01 -0.02,0.02 -0.03,0.03 -0.03,0.04 -0.05,0.08 -0.08,0.12 -0.02,0.03 -0.04,0.06 -0.07,0.08 0.04,-0.04 0.07,-0.09 0.11,-0.15 -0.05,0.08 -0.11,0.15 -0.17,0.23 0.02,-0.03 0.04,-0.05 0.06,-0.08 -0.09,0.13 -0.19,0.25 -0.28,0.37 0.12,-0.15 0.24,-0.31 0.35,-0.45 0.07,-0.09 0.13,-0.18 0.2,-0.26 -0.03,0.04 -0.06,0.08 -0.09,0.11 z m -96.42,-132.91 c -0.75,0.48 -1.5,0.94 -2.25,1.41 -0.84,0.53 -1.61,1.2 -2.44,1.75 -1.71,1.16 -3.49,2.16 -5.32,3.1 -1.96,1.01 -4.03,1.8 -6.08,2.64 -1.11,0.48 -2.19,0.97 -3.3,1.49 -0.31,0.15 -0.63,0.28 -0.96,0.42 0.17,0.45 0.36,0.91 0.55,1.36 1.57,3.44 3.61,6.64 5.25,10.06 1.19,2.45 2.19,5.06 3.42,7.54 0.56,-0.37 1.14,-0.72 1.71,-1.07 2.39,-1.43 4.64,-3.14 7.15,-4.33 2.57,-1.23 5.11,-2.47 7.69,-3.65 2.12,-0.97 4.26,-1.88 6.4,-2.8 -1.25,-1.89 -2.51,-3.78 -3.73,-5.69 -2.61,-4.14 -5.23,-8.27 -7.85,-12.41 -0.08,0.06 -0.17,0.12 -0.24,0.18 z m -96.68,-307.62 c -0.19,2.03 -0.34,4.08 -0.54,6.1 -0.06,0.74 -0.13,1.47 -0.2,2.2 0.24,-0.02 0.47,-0.05 0.71,-0.06 1.1,-0.08 2.23,0.13 3.33,0.37 1.57,0.35 3.11,0.84 4.67,1.26 1.53,0.41 3.06,0.72 4.62,1.01 2.48,0.31 4.95,0.6 7.43,0.87 0.06,-1.2 0.08,-2.39 0.15,-3.58 0.35,-6.03 0.9,-12.06 1.5,-18.08 -0.19,-0.01 -0.37,-0.01 -0.56,-0.03 -1.79,-0.18 -3.55,-0.1 -5.34,0.09 -0.68,0.1 -1.34,0.2 -2.01,0.33 -0.52,0.09 -1.02,0.19 -1.54,0.28 -1.61,0.33 -3.11,0.4 -4.74,0.22 -2.27,-0.25 -4.52,-0.6 -6.78,-0.95 -0.16,-0.01 -0.31,-0.03 -0.47,-0.04 0.14,1.27 0.22,2.53 0.21,3.84 -0.02,2.06 -0.28,4.11 -0.44,6.17 z m 42.58,-166.17 c -1.01,2.39 -2.11,4.69 -3.26,7.02 -0.19,0.4 -0.4,0.82 -0.59,1.23 h 0.01 c 2.41,0.89 4.73,1.97 7.01,3.14 4.18,2.14 8.33,4.3 12.57,6.32 0.08,0.04 0.15,0.06 0.24,0.09 0.02,-0.05 0.04,-0.09 0.06,-0.14 1.16,-2.7 2.41,-5.35 3.69,-7.98 1.22,-3.42 2.56,-6.79 3.99,-10.13 -0.44,-0.16 -0.87,-0.35 -1.3,-0.5 -2.05,-0.77 -4.11,-1.63 -6.16,-2.46 -2.64,-1.07 -5.32,-2.22 -7.85,-3.55 -1.6,-0.84 -3.11,-1.86 -4.66,-2.81 -0.44,1.08 -0.89,2.15 -1.31,3.23 -0.87,2.16 -1.55,4.4 -2.44,6.54 z m 122.25,-151.63 v 0 h -0.01 z m 442.17,-166.39 c 0.41,-1.82 0.8,-3.65 1.11,-5.49 0.69,-3.77 1.37,-7.53 1.96,-11.32 0.25,-2.08 0.47,-4.16 0.64,-6.25 0.19,-2.13 0.4,-4.32 0.44,-6.48 -3.35,-0.12 -6.7,-0.07 -10.03,-0.39 -2.46,-0.23 -4.9,-0.28 -7.36,-0.44 -2.89,-0.17 -5.76,-0.6 -8.61,-1.03 -0.82,-0.1 -1.64,-0.19 -2.46,-0.29 -0.02,1.09 -0.03,2.17 -0.05,3.26 -0.05,2.84 -0.07,5.7 -0.08,8.54 -0.03,5.82 -0.16,11.63 -0.3,17.46 3.02,0.17 6.03,0.31 9.05,0.56 4.28,0.35 8.53,0.98 12.75,1.73 0.96,0.15 1.91,0.29 2.87,0.45 0.02,-0.1 0.04,-0.21 0.07,-0.31 z m 163.08,35.18 c 0.75,-1.65 1.62,-3.24 2.39,-4.88 0.87,-2.36 1.68,-4.72 2.52,-7.07 1.41,-3.89 2.64,-7.75 3.32,-11.82 0.04,-0.38 0.07,-0.76 0.09,-1.14 -1.05,-0.29 -2.11,-0.55 -3.14,-0.9 -1.43,-0.49 -2.81,-0.97 -4.31,-1.29 -1.01,-0.23 -2.04,-0.49 -3.04,-0.75 -2.17,-0.59 -4.27,-1.38 -6.34,-2.23 -0.98,-0.4 -1.94,-0.78 -2.91,-1.17 -0.28,-0.11 -0.56,-0.24 -0.84,-0.35 -0.87,1.51 -1.62,3.09 -2.34,4.68 -1.2,3.12 -2.25,6.29 -3.27,9.48 -1.33,4.03 -2.76,8.05 -4.18,12.06 5.14,2.01 10.26,4.05 15.37,6.15 1.79,0.81 3.56,1.7 5.35,2.54 0.4,-1.11 0.86,-2.22 1.33,-3.31 z m 10.08,-24.27 c -0.09,-0.08 -0.18,-0.14 -0.28,-0.21 h -0.01 c 0.1,0.07 0.19,0.13 0.29,0.21 z m 110.03,101.49 c -0.73,0.94 -1.49,1.84 -2.25,2.75 1.39,1.18 2.81,2.33 4.18,3.54 3.21,2.84 6.35,5.71 9.5,8.61 0.01,0.01 0.03,0.02 0.04,0.03 3.41,-2.99 6.92,-5.87 10.38,-8.84 3.39,-2.89 6.72,-5.84 10.24,-8.56 0.95,-0.78 1.87,-1.56 2.79,-2.35 0.14,-0.12 0.28,-0.23 0.41,-0.35 -0.62,-0.42 -1.24,-0.86 -1.83,-1.31 -2.75,-2.11 -5.53,-4.2 -8.1,-6.51 -2.22,-2.01 -4.42,-4.04 -6.79,-5.88 -0.69,-0.53 -1.36,-1.09 -2.02,-1.66 -0.54,0.67 -1.08,1.34 -1.64,2.01 -1.55,1.88 -3.16,3.7 -4.72,5.57 -1.82,2.47 -3.55,5.01 -5.49,7.39 -1.93,2.41 -4.01,4.69 -5.92,7.13 0.42,-0.52 0.82,-1.06 1.22,-1.57 z m 218.02,463.29 c 0.09,-1.78 0.22,-3.54 0.39,-5.3 0.34,-3.88 0.65,-7.77 1.16,-11.65 -0.03,0.24 -0.07,0.46 -0.1,0.7 0.11,-0.84 0.14,-1.68 0.13,-2.52 -0.89,-0.07 -1.77,-0.14 -2.64,-0.25 -2.09,-0.23 -4.13,-0.58 -6.19,-0.89 -3.37,-0.52 -6.71,-1.21 -10.07,-1.73 -1.33,-0.16 -2.66,-0.28 -4.02,-0.31 -0.56,-0.02 -1.09,0 -1.62,0.02 -0.98,0.01 -1.93,0.05 -2.9,-0.04 -1.55,-0.12 -3.1,-0.31 -4.67,-0.38 -0.53,-0.03 -1.06,-0.1 -1.6,-0.16 0.78,7.53 1.32,15.12 1.38,22.72 0.77,0.19 1.55,0.36 2.34,0.55 1.62,0.35 3.28,0.6 4.95,0.84 3.18,0.4 6.35,0.68 9.54,0.81 0.67,-0.01 1.32,-0.03 1.99,-0.03 1.04,-0.01 2.09,0.03 3.12,0.05 2.3,-0.08 4.58,-0.23 6.85,-0.46 0.64,-0.1 1.26,-0.27 1.88,-0.41 0.03,-0.52 0.05,-1.04 0.08,-1.56 z m 2.27,8.92 v 0 c 0.03,0.01 0.06,0.01 0.09,0.01 -0.03,0 -0.06,0 -0.09,-0.01 z m -781.44,-614.87 c 0,0.02 0.01,0.05 0.02,0.07 0.01,0.01 0.01,0.01 0.01,0.01 -0.01,-0.03 -0.02,-0.06 -0.03,-0.08 z m -330.58,771.04 c 0.06,-0.01 0.13,-0.04 0.19,-0.06 0.06,-0.03 0.12,-0.06 0.18,-0.08 -0.12,0.05 -0.24,0.1 -0.37,0.14 z m 1165.56,-199.13 c -0.39,5.06 -0.77,10.1 -1.17,15.15 -0.79,9.75 -2.5,19.36 -3.98,29.01 -1.23,8.19 -3.16,16.25 -5.21,24.26 -0.59,2.31 -1.43,4.6 -2.63,6.64 -1.51,2.56 -3.82,4.06 -6.49,5.12 -2.43,0.96 -5.15,1.11 -7.73,1.35 -1.44,0.11 -2.91,0.17 -4.38,0.17 -3.82,0 -7.69,-0.36 -11.42,-0.8 -8.99,-1.06 -17.96,-2.55 -26.92,-3.84 -3.42,-0.44 -6.82,-0.81 -10.26,-1.06 -3.11,-0.24 -6.45,-0.27 -9.6,-0.83 -1,6.7 -2.22,13.35 -3.41,20.01 0.45,0.13 0.91,0.24 1.35,0.37 3.53,0.65 7.03,1.5 10.48,2.44 6.01,1.6 12.07,2.99 18.06,4.64 4.43,1.2 8.83,2.51 13.24,3.8 3.52,0.9 7.03,1.81 10.57,2.68 2.52,0.61 5.12,1.12 7.63,1.87 1.47,0.45 2.9,1.1 4.25,1.84 0.8,0.46 1.51,1.05 2.36,1.44 2.15,1.04 3.46,3.73 3.46,6.05 0,2.49 -1.35,4.76 -3.46,6.03 -1.24,0.75 -2.55,1.01 -3.89,1.01 -2.17,0 -4.39,-0.68 -6.51,-1.07 -0.35,-0.04 -0.68,-0.1 -1.01,-0.15 0.32,0.05 0.63,0.08 0.96,0.12 0.58,0.08 1.16,0.16 1.73,0.23 -0.88,-0.12 -1.79,-0.24 -2.69,-0.35 -10.62,-1.38 -20.91,-4.15 -31.34,-6.48 -9.63,-2.17 -19.12,-4.85 -28.62,-7.49 -1.14,4.71 -2.4,9.4 -3.63,14.07 -1.24,4.66 -2.72,9.22 -4.33,13.74 0.32,0.06 0.63,0.1 0.95,0.22 11.12,4.15 22.4,7.88 33.6,11.8 5.22,1.82 10.51,3.44 15.8,5.08 4.4,1.37 8.81,2.75 13.36,3.5 0.23,0.03 0.44,0.05 0.67,0.07 0.96,0.07 1.92,0.22 2.86,0.42 1.82,0.39 3.04,1.57 4.43,2.66 1.15,1.16 1.94,2.53 2.39,4.11 0.05,0.3 0.09,0.59 0.14,0.88 0.45,1.67 0.45,3.33 0,4.99 -0.25,1.82 -0.65,3.55 -1.22,5.29 -1.14,3.49 -2.3,6.99 -3.59,10.44 -1.52,4.07 -3.12,8.1 -4.99,12.04 -1.55,3.31 -3.29,6.52 -5.04,9.73 -3.59,6.61 -7.15,13.22 -10.59,19.88 -1.44,2.76 -2.72,5.59 -4.11,8.35 -1.33,2.64 -2.72,5.24 -3.94,7.94 -0.95,2.57 -1.64,5.17 -2.32,7.83 -1.1,4.22 -4.63,7.9 -9.22,7.9 -0.09,0 -0.19,0 -0.27,0 -3.77,-0.12 -6.95,-1.46 -10.35,-2.88 -7.35,-3.1 -14.58,-6.45 -21.76,-9.92 -3.38,-1.64 -6.74,-3.28 -10.04,-5.06 -3.12,-1.67 -6.18,-3.48 -9.28,-5.21 -3.03,-1.71 -6.1,-3.31 -9.19,-4.9 -2.68,-1.4 -5.62,-2.59 -8.07,-4.37 -1.25,3.17 -2.53,6.32 -4,9.41 -1.86,3.91 -4.03,7.69 -6.13,11.46 -0.06,0.12 -0.13,0.23 -0.2,0.34 0.32,0.18 0.63,0.37 0.93,0.54 2.73,1.57 5.53,3.02 8.31,4.5 5.8,3.07 11.45,6.38 16.79,10.24 6.12,4.41 12.21,8.92 18.14,13.58 2.63,2.08 5.29,4.11 7.83,6.28 2.65,2.3 5.56,4.54 7.74,7.29 0.94,0.95 1.59,2.07 1.95,3.36 0.35,1.34 0.35,2.67 0,4.03 -0.7,2.55 -2.74,4.61 -5.3,5.31 -0.65,0.17 -1.31,0.26 -1.96,0.26 -1.37,0 -2.71,-0.36 -3.88,-1.04 v 0.01 c -3.05,-1.38 -5.84,-3.49 -8.65,-5.27 -2.9,-1.81 -5.83,-3.55 -8.74,-5.29 -5.88,-3.55 -11.67,-7.18 -17.4,-10.98 -5.46,-3.63 -11.06,-7.03 -16.68,-10.41 -2.7,-1.63 -5.38,-3.27 -8.1,-4.83 -0.37,-0.2 -0.73,-0.42 -1.09,-0.62 -3.75,6.22 -7.47,12.47 -11.6,18.45 -0.21,0.3 -0.45,0.6 -0.66,0.9 9.87,8.36 19.7,16.77 29.88,24.74 7.02,5.23 14.16,10.36 21.45,15.22 1.69,1.12 3.38,2.24 5.15,3.21 2.05,1.12 3.72,2.45 4.91,4.47 2.23,3.8 0.83,7.97 -0.75,11.65 -2.02,4.72 -5.3,8.91 -8.25,13.09 -2.86,4.07 -5.95,8.07 -9.4,11.69 -3.28,3.41 -6.59,6.79 -9.86,10.24 -2.99,3.18 -5.92,6.43 -9.08,9.47 -3.09,3.01 -6.19,6.06 -9.35,9.03 -2.19,2.07 -4.61,3.86 -7.03,5.66 -1.11,0.92 -2.19,1.89 -3.25,2.85 -1.84,1.71 -3.73,3.73 -6.02,4.79 -1.67,0.77 -3.63,1.43 -5.57,1.43 -0.79,0 -1.58,-0.1 -2.33,-0.38 -2.03,-0.7 -3.73,-1.6 -5.46,-2.82 -2.16,-1.54 -4.27,-3.14 -6.35,-4.78 -6.43,-5.08 -12.71,-10.32 -18.85,-15.78 -5.91,-5.29 -11.24,-11.31 -16.76,-17.01 -2.85,-2.92 -5.71,-5.86 -8.54,-8.8 -1.27,-1.32 -2.53,-2.66 -3.8,-4 -0.61,-0.63 -1.23,-1.29 -1.83,-1.96 -1.92,1.44 -3.84,2.87 -5.85,4.17 -2.08,1.36 -4.2,2.67 -6.33,3.96 -1.51,1.55 -3.03,3.08 -4.56,4.58 -1.84,1.81 -3.8,3.47 -5.81,5.07 0.86,1.31 1.82,2.57 2.79,3.82 3.36,4.17 7.08,8.06 10.68,12.03 3.85,4.23 7.88,8.3 11.87,12.43 4.33,4.5 8.5,9.12 12.63,13.81 1.9,2.18 3.79,4.36 5.72,6.49 1.05,1.18 2.11,2.37 3.16,3.54 1.25,1.39 2.68,2.86 3.59,4.48 1.78,3.32 0.83,7.52 -2.48,9.46 -1.09,0.63 -2.25,0.92 -3.4,0.92 -1.85,0 -3.64,-0.75 -4.95,-2.05 -0.01,0.01 -0.01,0.03 -0.02,0.04 -2.43,-2.09 -4.69,-4.4 -6.99,-6.62 -2.37,-2.3 -4.68,-4.63 -7.01,-6.95 -4.59,-4.62 -9.28,-9.14 -14.09,-13.56 -4.67,-4.27 -9.06,-8.79 -13.5,-13.29 -2.25,-2.31 -4.53,-4.61 -6.8,-6.89 -1.89,-1.86 -3.7,-3.7 -5.7,-5.41 -0.61,-0.44 -1.19,-0.91 -1.78,-1.36 -5.65,3.36 -11.28,6.74 -16.67,10.49 7.27,9.07 14.66,18 22.12,26.89 3.56,4.24 7.18,8.44 10.78,12.64 3.66,4.26 7.05,8.7 10.43,13.17 2.25,2.91 4.5,5.83 6.84,8.67 0.78,0.98 1.6,1.9 2.3,2.91 0.78,1.15 1.27,3.44 1.27,4.78 0,3.52 -2.37,6.64 -4.74,9 -2.93,2.91 -6.58,5.08 -10.26,6.87 -4.27,2.09 -8.5,4.27 -12.78,6.38 -4.27,2.11 -8.44,4.28 -12.31,7.11 -3.66,2.68 -7.38,5.24 -11.23,7.66 -3.45,2.18 -6.8,4.52 -10.26,6.67 -1.78,1.1 -3.59,2.16 -5.39,3.17 -1.83,1.06 -3.55,2.28 -5.36,3.35 -2.59,1.56 -5.12,3.26 -7.77,4.74 -1.64,0.92 -3.39,1.71 -5.3,1.71 -0.04,0 -0.08,0 -0.12,0 -2.76,-0.05 -5.86,-0.91 -7.83,-3 -3.37,-3.54 -5.32,-7.86 -7.18,-12.31 -1.51,-3.59 -3.04,-7.17 -4.52,-10.75 0.28,0.7 0.59,1.39 0.87,2.09 -4.54,-10.26 -9.66,-20.24 -14.63,-30.3 -2.38,-4.8 -4.6,-9.69 -6.95,-14.53 -0.86,-1.78 -1.77,-3.52 -2.75,-5.25 -3.4,1.73 -6.83,3.41 -10.21,5.18 -4.3,2.26 -8.57,4.62 -12.9,6.85 -2.03,1.02 -4.11,1.96 -6.17,2.95 3.22,7.61 6.34,15.28 9.48,22.95 1.75,3.89 3.62,7.66 5.65,11.44 2.37,4.37 4.39,8.89 6.45,13.42 2.06,4.49 4.1,8.96 5.91,13.56 0.72,1.83 1.3,3.67 1.93,5.52 0.21,0.68 0.52,1.33 0.75,1.99 0.83,2.39 0.7,4.93 -0.58,7.13 -0.98,1.73 -2.7,3.04 -4.61,3.58 -0.66,0.17 -1.27,0.25 -1.88,0.25 -1.41,0 -2.7,-0.44 -4.1,-1.04 -1.79,-0.79 -3.01,-2.88 -4.1,-4.39 -0.67,-0.96 -1.11,-2.09 -1.6,-3.13 -1.29,-2.7 -2.74,-5.33 -4.03,-8.02 -2.87,-6.05 -5.22,-12.31 -7.68,-18.53 -1.55,-3.5 -3.11,-7 -4.58,-10.52 -1.46,-3.5 -2.77,-7.08 -4.09,-10.64 -2.14,-5.8 -4.46,-11.53 -6.82,-17.25 -2.47,0.98 -4.97,1.89 -7.52,2.68 -4.37,1.36 -8.69,2.89 -13.09,4.15 -0.1,0.03 -0.22,0.06 -0.33,0.09 3.54,11 7.26,21.91 11.56,32.66 2.06,4.8 4.17,9.61 6.08,14.48 1.89,4.81 3.58,9.71 5.56,14.49 1.11,2.57 2.21,5.14 3.28,7.73 0.89,2.22 1.77,4.31 1.94,6.75 0.13,1.06 0.03,2.08 -0.27,3.12 -0.42,1.89 -1.25,3.2 -2.47,4.67 -1.75,2.11 -4.01,3.03 -6.45,4.05 -2.04,0.84 -4.42,1.1 -6.58,1.54 -2.19,0.47 -4.48,0.72 -6.7,0.99 -2.97,0.33 -5.93,0.65 -8.9,1 -3.5,0.6 -6.95,1.25 -10.4,2.23 -3.66,1.03 -7.22,2.25 -10.77,3.62 -3.38,1.44 -6.75,2.88 -10.2,4.12 -3.34,1.22 -6.86,1.95 -10.28,3 -2.78,0.87 -5.46,1.81 -8.32,2.4 -3.28,0.67 -6.45,1.66 -9.73,2.36 -1.78,0.38 -3.63,0.63 -5.44,0.84 -0.26,0.02 -0.5,0.04 -0.75,0.04 -1.83,0 -3.53,-0.7 -5.2,-1.42 -2.77,-1.2 -4.71,-4.5 -5.56,-7.27 -1.22,-4.06 -1.94,-8.18 -2.6,-12.33 -0.7,-4.4 -1.05,-8.87 -1.53,-13.29 -0.38,-3.53 -0.8,-7.07 -1.23,-10.59 -1.2,-7.7 -2.9,-15.29 -4.36,-22.95 -0.76,-3.92 -1.49,-7.84 -2.28,-11.73 -0.42,-2.07 -0.75,-4.16 -1.08,-6.25 -2.76,0.44 -5.52,0.8 -8.25,1.14 0.34,-0.04 0.67,-0.09 1.01,-0.14 -0.38,0.05 -0.75,0.11 -1.12,0.16 -0.04,0 -0.07,0.01 -0.11,0.01 -4.01,0.56 -8.02,1.05 -12.05,1.43 0.07,2.93 0.06,5.86 0.02,8.8 -0.1,8.85 -0.29,17.69 -0.08,26.53 0.12,5.13 0.19,10.28 0.24,15.42 0.04,2.01 -0.19,4.01 -0.33,6 -0.09,1.43 -0.19,2.84 -0.3,4.25 0.19,1.16 0.47,2.31 0.77,3.44 0.68,2.56 1.71,5.2 0.63,7.87 -0.44,1.55 -1.24,2.91 -2.37,4.06 -1.73,1.71 -4.08,2.7 -6.51,2.7 -2.42,0 -4.79,-0.99 -6.52,-2.7 -1.85,-1.87 -2.4,-3.98 -2.67,-6.51 -0.16,-1.38 0.19,-2.85 0.47,-4.27 0.23,-3.02 -0.12,-5.98 -0.35,-9 -0.29,-3.89 -0.61,-7.79 -0.85,-11.68 -0.54,-8.14 -1.52,-16.38 -0.91,-24.54 0.3,-4.15 0.74,-8.29 1.05,-12.45 0.17,-2.07 0.35,-4.13 0.44,-6.21 0.01,-0.2 0.02,-0.42 0.03,-0.63 -5.65,0.41 -11.29,0.96 -16.94,1.33 -2.78,0.17 -5.56,0.33 -8.34,0.48 0.23,15.89 0.4,31.78 0.74,47.67 0.08,4.13 0.14,8.27 0.12,12.4 -0.02,1.88 -0.05,3.75 -0.04,5.63 0.02,0.96 0.04,1.92 -0.03,2.89 -0.07,1.24 -0.28,2.46 -0.47,3.68 -0.17,1.21 -0.87,2.32 -1.34,3.42 -1.14,2.63 -4.1,4.19 -6.59,5.07 -0.95,0.34 -1.98,0.43 -3.02,0.43 -0.94,0 -1.89,-0.08 -2.79,-0.13 -2.11,-0.12 -4.2,-0.28 -6.31,-0.45 -4.37,-0.37 -8.72,-1.1 -13.06,-1.73 -4.65,-0.52 -9.3,-0.89 -13.98,-1.27 -5.32,-0.43 -10.67,-1.13 -16.03,-1.29 -5.14,-0.14 -10.37,-0.46 -15.5,-0.14 -4.43,0.27 -8.87,0.72 -13.27,1.25 -2.52,0.39 -5.01,0.83 -7.57,0.91 -1.48,0.02 -3.62,-0.44 -4.9,-1.2 -1.65,-0.94 -2.73,-2.34 -3.8,-3.86 -0.81,-1.16 -1.14,-2.64 -1.32,-4.11 -1.1,-1.74 -1.55,-3.84 -1.41,-6 0.11,-1.71 0.17,-3.43 0.23,-5.14 0.18,-3.82 0.89,-7.59 1.16,-11.39 0.3,-4.06 0.4,-8.11 0.92,-12.14 0.51,-4.01 1.28,-7.95 1.87,-11.95 0.9,-8.4 2.05,-16.74 3.2,-25.1 0.31,-2.63 0.59,-5.3 0.99,-7.94 -3.07,-0.49 -6.15,-0.98 -9.24,-1.43 -4.51,-0.65 -9.04,-1.24 -13.51,-2.1 -1.09,4.4 -2.4,8.74 -3.68,13.07 -1.06,4.62 -2.03,9.27 -3.17,13.87 -0.4,2.71 -0.69,5.44 -1.28,8.13 -0.72,3.26 -1.62,6.46 -2.51,9.69 -0.82,3.03 -1.21,6.09 -2.31,9.04 -0.38,1.06 -0.85,2.07 -1.26,3.12 -0.91,4.23 -1.78,8.49 -2.66,12.73 -0.65,3.13 -3.8,5.12 -6.84,5.12 -0.6,0 -1.19,-0.08 -1.76,-0.24 -2.18,-0.59 -3.7,-2.06 -4.48,-3.9 -1.56,-1.11 -2.67,-2.73 -3.3,-4.63 -1.06,-3.15 0.26,-5.95 1.6,-8.7 0.52,-1.58 0.84,-3.23 1.33,-4.81 0.8,-2.58 1.35,-5.18 1.79,-7.85 0.97,-5.93 3.03,-11.61 4.08,-17.54 0.57,-3.09 1.06,-6.19 1.69,-9.28 0.66,-3.18 1.74,-6.27 2.78,-9.35 0.99,-2.96 1.94,-5.95 2.85,-8.93 0.34,-1.14 0.67,-2.29 1,-3.44 -0.43,-0.07 -0.84,-0.14 -1.27,-0.2 -7.53,-1.05 -14.99,-2.18 -22.4,-3.79 -1,2.89 -2.02,5.79 -3.01,8.7 -2.09,6.15 -4.41,12.2 -6.63,18.31 -2.4,6.57 -4.89,13.08 -7.2,19.67 -0.99,2.84 -1.88,5.72 -2.75,8.62 -0.48,1.61 -0.94,3.24 -1.5,4.84 -0.19,0.55 -0.38,1.1 -0.57,1.65 0.26,1.37 0.26,2.79 -0.13,4.2 -1.17,4.2 -5.08,7 -9.25,7 -0.82,0 -1.65,-0.11 -2.47,-0.33 -10.9,-2.99 -21.64,-6.2 -32.26,-10.08 -8.96,-3.28 -17.94,-6.61 -26.86,-10.01 -4.57,-1.73 -9.22,-3.18 -13.83,-4.8 -4.33,-1.52 -8.62,-3.22 -12.95,-4.78 -3.23,-1.13 -6.47,-2.54 -8.29,-5.64 -1.89,-3.25 -1.81,-6.96 -0.65,-10.42 1.29,-3.79 3.41,-7.34 5.49,-10.74 2.56,-4.17 5.14,-8.32 7.6,-12.56 4.55,-7.83 9.37,-15.47 13.37,-23.61 2.03,-4.1 4.29,-8.04 6.48,-12.05 1.07,-1.97 2.14,-3.98 3.2,-5.98 0.03,-0.05 0.05,-0.09 0.07,-0.14 -5.38,-2.69 -10.75,-5.4 -15.96,-8.38 -2.27,-1.3 -4.49,-2.63 -6.74,-3.96 -0.25,0.57 -0.52,1.15 -0.79,1.68 -1.41,2.79 -2.79,5.58 -4.24,8.35 -2.61,5.02 -5.94,9.61 -9.19,14.23 -0.96,1.77 -1.89,3.55 -2.82,5.32 -1.5,2.9 -2.98,5.78 -4.66,8.58 -1.6,2.67 -3.26,5.34 -4.83,8.04 -1.53,2.62 -3.35,5.01 -5.16,7.45 -2.06,2.74 -4.19,5.68 -7.25,7.28 -0.04,0.08 -0.08,0.15 -0.13,0.23 -1.49,2.45 -4.13,3.86 -6.83,3.86 -1.32,0 -2.65,-0.34 -3.87,-1.05 -3.65,-2.13 -5.02,-7.05 -2.81,-10.71 3.59,-5.99 7.28,-11.9 11.16,-17.72 0.44,-0.95 0.89,-1.9 1.36,-2.84 2.61,-5.28 5.44,-10.51 8.18,-15.75 2.87,-5.47 6.05,-10.75 9.24,-16.02 2.21,-3.61 4.42,-7.26 6.71,-10.85 -5.34,-3.51 -10.53,-7.22 -15.62,-11.05 -1.23,1.95 -2.46,3.9 -3.67,5.88 -3.55,5.87 -6.25,12.2 -10.03,17.93 -4.05,6.11 -8.45,11.97 -12.7,17.92 -5.49,7.7 -11.08,15.32 -16.67,22.93 -1.74,2.35 -3.52,4.14 -6.45,4.95 -0.92,0.25 -1.88,0.38 -2.84,0.38 -1.9,0 -3.8,-0.5 -5.46,-1.48 -2.41,-1.4 -4.21,-3.73 -4.96,-6.42 -0.06,-0.25 -0.08,-0.52 -0.12,-0.78 -0.87,-0.63 -1.76,-1.24 -2.62,-1.87 -1.97,-1.47 -3.78,-3.15 -5.59,-4.82 -3.18,-2.93 -6.06,-6.19 -9.23,-9.16 -0.33,-0.32 -0.69,-0.62 -1.02,-0.94 -3.8,-2.79 -7.57,-5.61 -11.3,-8.49 -5.88,-4.53 -11.77,-9 -17.37,-13.86 -5.2,-4.48 -10.22,-9.13 -15.57,-13.42 -1.13,-0.86 -2.27,-1.71 -3.42,-2.54 -0.68,-0.52 -1.38,-1.01 -2.09,-1.5 -2.39,-1.64 -4.36,-3.36 -5.17,-6.28 -1.53,-5.51 2.95,-9.97 6.49,-13.48 1.63,-1.59 3.27,-3.19 4.89,-4.76 6.05,-5.84 12.52,-11.16 19.09,-16.41 3.04,-2.46 6.16,-4.88 9.07,-7.49 3.07,-2.78 6.02,-5.69 9.05,-8.5 3.05,-2.81 6.16,-5.55 9.11,-8.46 0.86,-0.86 1.67,-1.77 2.49,-2.67 -5.12,-5.22 -10.14,-10.54 -15.12,-15.89 -1.65,-1.76 -3.24,-3.57 -4.87,-5.34 -0.91,1.14 -2.02,2.14 -3.37,2.98 -0.71,0.44 -1.39,0.9 -2.08,1.38 -1.78,1.45 -3.54,2.91 -5.31,4.38 -0.46,0.41 -0.92,0.82 -1.38,1.22 -2.62,2.29 -5.27,4.59 -7.87,6.93 -2.46,2.25 -4.92,4.48 -7.46,6.64 -2.64,2.28 -5.57,4.15 -8.39,6.2 -2.26,1.88 -4.56,3.68 -6.92,5.42 -1.67,1.23 -3.44,2.28 -5.14,3.43 -1.49,1.34 -2.83,2.8 -4.26,4.24 -0.49,0.49 -0.95,1.03 -1.49,1.47 -2.04,1.59 -2.92,2.44 -5.47,3.19 -1.08,0.3 -2.13,0.44 -3.17,0.44 -1.1,0 -2.19,-0.16 -3.3,-0.44 -2.85,-0.76 -5.34,-2.74 -6.82,-5.25 -1.66,-2.84 -1.67,-5.64 -1.15,-8.79 0.78,-4.54 4.76,-6.72 8.16,-9.15 1.82,-1.43 3.65,-2.84 5.63,-4.05 2.13,-1.31 4.38,-2.36 6.49,-3.7 2.18,-1.39 4.2,-2.96 6.31,-4.43 2.06,-1.41 4.17,-2.69 6.22,-4.11 3.67,-3.01 7.22,-6.17 10.96,-9.12 2.98,-2.36 6,-4.68 9.02,-7.02 2.59,-1.98 5.34,-4.24 8.41,-5.54 -4.87,-5.51 -9.69,-11.08 -14.38,-16.73 -0.52,-0.64 -1,-1.32 -1.51,-1.97 -1.97,2.01 -3.95,4 -5.97,5.96 -4.82,4.65 -9.81,9.13 -14.76,13.63 -5.08,4.63 -10.34,9.03 -15.42,13.67 -6.52,5.95 -12.83,12.09 -19.18,18.23 -1.88,1.8 -4.33,2.72 -6.77,2.72 -1.93,0 -3.86,-0.6 -5.49,-1.78 -0.51,0.09 -1.03,0.19 -1.55,0.2 -0.7,0 -1.4,-0.1 -2.08,-0.28 -1.79,-0.48 -3.9,-1.84 -4.68,-3.6 -4.24,-9.39 -8.79,-18.66 -14.2,-27.44 -5.25,-8.51 -10.5,-17.03 -15.85,-25.51 -4.94,-7.83 -10.48,-15.38 -14.81,-23.56 -1.46,-2.73 -2.95,-5.56 -4.01,-8.47 -0.53,-1.49 -1,-3.11 -1,-4.72 0,-1.53 0.53,-4.34 1.46,-5.59 0.83,-1.12 1.63,-2.25 2.64,-3.2 1.34,-1.29 3.14,-2.42 4.76,-3.29 4.59,-2.5 9.14,-5.01 13.66,-7.62 3.94,-2.3 7.86,-4.71 11.95,-6.78 4.72,-2.4 9.45,-4.72 14.09,-7.23 4.06,-2.19 7.86,-4.71 11.7,-7.27 2.92,-1.95 5.93,-3.78 8.87,-5.69 -1.74,-3.14 -3.46,-6.28 -5.17,-9.43 -1.34,-2.46 -2.58,-4.97 -3.83,-7.49 -0.57,0.3 -1.14,0.58 -1.67,0.85 -1.06,0.56 -2.09,1.12 -3.16,1.69 -2.45,1.35 -4.85,2.8 -7.36,4.04 -3.26,1.61 -6.54,3.18 -9.95,4.42 -2.57,0.94 -5.2,1.66 -7.78,2.51 -2.46,0.84 -4.88,1.73 -7.34,2.51 -2.43,0.79 -4.94,1.19 -7.42,1.8 -2.31,0.61 -4.48,1.55 -6.73,2.35 -1.92,0.69 -3.86,1.3 -5.76,2.02 -2.78,1.27 -5.43,2.72 -8.33,3.79 -0.88,0.33 -1.88,0.48 -2.89,0.48 -2,0 -4.1,-0.58 -5.65,-1.49 -3.49,-2.03 -5.25,-5.81 -4.97,-9.68 -0.07,-0.2 -0.12,-0.4 -0.18,-0.61 -1.11,-4.01 1.31,-8.75 5.5,-9.71 4.37,-1 8.73,-2.01 13.01,-3.28 2.29,-0.68 4.53,-1.43 6.77,-2.24 2.12,-1.13 4.38,-1.97 6.63,-2.81 4.12,-1.93 8.12,-4.22 12.51,-5.52 2.43,-0.73 4.85,-1.36 7.3,-2.04 2.09,-0.57 4.11,-1.36 6.14,-2.16 2.78,-1.23 5.57,-2.5 8.41,-3.59 1.37,-0.52 2.74,-1.06 4.13,-1.52 -2.52,-5.28 -5.02,-10.59 -7.35,-15.98 -1.26,-2.92 -2.52,-5.85 -3.73,-8.81 -1.33,0.6 -2.66,1.19 -4,1.76 -6.63,2.86 -13.44,5.24 -20.18,7.82 -10.75,4.81 -21.2,10.24 -31.68,15.57 -1.69,0.85 -3.41,1.37 -5.21,1.37 -0.84,0 -1.69,-0.11 -2.55,-0.35 -1.74,-0.49 -3.28,-1.46 -4.53,-2.74 -3.58,-0.77 -6.6,-3.48 -7.73,-7.2 -3.77,-12.38 -7.54,-24.75 -11.73,-36.98 -1.76,-5.19 -3.6,-10.33 -5.31,-15.52 -1.71,-5.15 -3.13,-10.38 -4.62,-15.58 -0.6,-2.15 -1.24,-4.27 -1.82,-6.43 -0.26,-0.94 -0.45,-1.86 -0.61,-2.83 -0.12,-0.89 -0.23,-1.76 -0.35,-2.65 0.14,-1.29 0.32,-2.55 0.56,-3.82 0.4,-2.18 2.11,-3.84 3.44,-5.48 1.29,-1.57 4.36,-2.93 6.23,-3.5 3.17,-0.98 6.43,-1.56 9.67,-2.21 2.97,-0.6 5.91,-1.28 8.88,-1.94 5.16,-1.15 10.22,-3.07 15.21,-4.78 5.59,-1.95 11.21,-3.66 16.91,-5.2 5.29,-1.44 10.53,-2.93 15.73,-4.7 1.1,-0.38 2.21,-0.77 3.31,-1.15 -0.39,-3.81 -0.73,-7.62 -1.06,-11.43 -0.6,0.25 -1.21,0.44 -1.86,0.56 -2.34,0.44 -4.5,0.54 -6.84,0.61 -4.01,0.13 -8.01,0.54 -12,1.03 -3.56,0.57 -7.13,1.12 -10.74,1.48 -2.87,0.27 -5.79,0.23 -8.66,0.3 -2.98,0.09 -5.95,0.16 -8.91,0.25 -1.59,0.04 -3.17,0.07 -4.75,0.07 -4.53,0 -9.02,-0.21 -13.56,-0.81 -1.09,-0.15 -2.19,-0.29 -3.3,-0.45 -2.09,-0.58 -3.93,-1.64 -5.48,-3.18 -2.32,-2.33 -3.63,-5.5 -3.63,-8.78 0,-3.28 1.31,-6.47 3.63,-8.78 2.08,-2.07 5.74,-4.03 8.78,-3.64 5.31,0.68 10.54,0.93 15.88,0.66 2.33,-0.12 4.64,-0.23 6.96,-0.35 4.83,-0.22 9.65,-0.33 14.45,-0.76 5.09,-0.76 10.16,-1.51 15.3,-1.75 3.95,-0.2 8.64,-0.85 12.68,0.14 -0.64,-7.6 -1.19,-15.2 -1.51,-22.81 -0.03,-0.82 -0.04,-1.64 -0.07,-2.45 -0.2,-0.01 -0.41,-0.02 -0.61,-0.03 -4.92,-0.16 -9.84,-0.49 -14.77,-0.63 -4.02,-0.09 -8.05,0.5 -12.05,0.77 -4.54,0.29 -9.07,0.42 -13.61,0.8 -4.67,0.76 -9.32,1.69 -13.98,2.55 -2.32,0.43 -4.61,0.97 -6.93,1.55 -2.84,0.73 -5.83,1.6 -8.78,1.6 -1.34,0 -2.66,-0.17 -3.97,-0.63 -4.42,-1.5 -7.6,-4.86 -8.42,-9.54 -0.44,-2.42 -0.44,-4.65 -0.28,-7.08 0.2,-2.98 0.38,-5.97 0.56,-8.97 0.35,-5.72 0.49,-11.48 0.61,-17.22 0.2,-10.64 -0.27,-21.26 -0.42,-31.88 -0.09,-5.4 -0.09,-10.83 0.09,-16.22 0.03,-1.2 0.07,-2.39 0.19,-3.57 0.14,-1.48 0.37,-2.91 0.61,-4.38 0.21,-1.32 0.93,-3.51 1.64,-4.55 1.2,-1.78 2.27,-3.12 4.05,-4.38 1.62,-1.16 3,-1.86 4.88,-2.56 3.77,-1.43 7.76,-1.85 11.74,-2.25 6.48,-0.66 13.11,0.02 19.58,0.3 5.58,0.24 11.15,0.29 16.71,0.74 5.52,0.44 11.03,1.17 16.57,1.42 2.68,0.12 5.35,0.05 8.03,-0.02 1.72,-0.05 3.45,-0.09 5.17,-0.08 0.03,-0.01 0.04,-0.02 0.07,-0.03 0.75,-0.2 1.48,-0.29 2.21,-0.34 0.29,-0.97 0.59,-1.95 0.89,-2.93 0.69,-4.64 1.55,-9.28 2.61,-13.87 0.11,-0.47 0.26,-0.93 0.37,-1.41 -0.8,-0.1 -1.59,-0.22 -2.37,-0.38 -1.39,-0.28 -2.73,-0.91 -4.04,-1.41 -2.03,-0.77 -4.04,-1.63 -6.04,-2.5 -3.62,-1.41 -7.25,-2.45 -11.08,-3.21 -4.07,-0.8 -8.13,-1.59 -12.2,-2.47 -4.22,-0.91 -8.47,-1.76 -12.65,-2.83 -2.32,-0.61 -4.59,-1.26 -6.87,-1.96 -1.07,-0.32 -2.12,-0.72 -3.18,-1.09 -1.97,-0.68 -4.13,-1.34 -5.86,-2.55 -2.44,-1.72 -4.29,-3.68 -5.11,-6.64 -0.71,-2.62 -0.54,-6.28 1.13,-8.57 1.35,-1.86 2.06,-2.93 4.07,-4.11 1.9,-1.11 3.78,-1.48 5.96,-1.53 1.43,-0.02 3.21,0.42 4.68,0.73 2.18,0.44 4.29,1.36 6.36,2.11 1.52,0.56 3.07,1.07 4.61,1.57 4.07,0.92 8.19,1.69 12.27,2.51 3.51,0.7 7.03,1.47 10.54,2.14 3.75,0.73 7.53,1.47 11.1,2.86 3.32,1.31 6.53,2.58 9.96,3.51 1.64,0.44 3.23,1.08 4.75,1.82 0.32,-1.08 0.64,-2.18 0.95,-3.27 1.32,-4.66 2.63,-9.33 4.01,-13.95 0.35,-1.13 0.76,-2.24 1.14,-3.37 -0.81,-0.13 -1.61,-0.28 -2.41,-0.47 -2.78,-0.63 -5.38,-1.85 -7.96,-2.99 -2.3,-1.02 -4.48,-2.28 -6.68,-3.45 -3.61,-1.89 -7.17,-3.81 -10.77,-5.67 -6.51,-3.33 -13.16,-6.51 -19.86,-9.51 -5.08,-1.94 -10.28,-3.4 -15.51,-4.89 -1.26,-0.35 -2.51,-0.7 -3.77,-0.99 -2.51,-0.58 -5.48,-1.15 -7.26,-3.23 -1.2,-1.4 -2.23,-2.64 -2.75,-4.48 -0.66,-2.48 -0.26,-4.9 0.4,-7.31 0.35,-1.23 0.93,-2.44 1.4,-3.61 2.14,-5.51 4.03,-11.12 6.31,-16.58 2.37,-5.67 4.86,-11.29 7.31,-16.92 2.84,-7.07 5.44,-14.23 7.93,-21.43 1.5,-4.31 2.79,-8.64 4.61,-12.82 0.83,-1.93 1.81,-3.78 2.96,-5.56 1.76,-2.73 4.43,-5.09 7.62,-5.98 3.25,-0.88 6.78,-0.37 9.96,0.42 2.23,0.55 4.41,1.63 6.51,2.53 1.64,0.71 3.27,1.44 4.84,2.29 1.92,1.07 3.87,2.13 5.77,3.2 3.75,2.07 7.52,4.11 11.3,6.13 7.51,3.97 14.92,8.12 22.61,11.72 3.87,1.51 7.84,2.71 11.82,3.91 2.21,0.65 4.46,1.15 6.7,1.66 0.29,0.06 0.57,0.17 0.85,0.24 2.86,-4.68 5.81,-9.3 8.84,-13.88 -0.2,-0.09 -0.39,-0.17 -0.57,-0.26 -0.48,-0.23 -0.93,-0.63 -1.35,-0.94 -1.2,-0.91 -2.37,-1.85 -3.52,-2.79 -2.88,-2.35 -5.78,-4.71 -8.69,-7.04 -3.39,-2.47 -6.91,-4.59 -10.5,-6.75 -4.06,-2.43 -8.03,-4.97 -11.87,-7.75 -3.91,-2.83 -7.85,-5.62 -11.81,-8.4 -1.76,-1.23 -3.59,-2.4 -5.37,-3.6 -3.55,-2.39 -7.43,-4.72 -8.7,-9.09 -0.89,-3.1 0.07,-6.57 2.34,-8.84 2.12,-2.12 5.87,-3.43 8.82,-2.33 6.24,2.33 11.55,6.8 16.99,10.52 2.59,1.77 5.26,3.43 7.83,5.26 2.37,1.69 4.7,3.42 7.02,5.17 3.72,2.32 7.52,4.52 11.04,7.09 2.13,1.55 4.17,3.19 6.19,4.85 0.06,0.04 0.12,0.08 0.18,0.12 4.21,2.92 8.41,5.86 12.65,8.76 1.62,-2.4 3.24,-4.81 4.82,-7.25 2.4,-3.72 4.82,-7.42 7.45,-10.98 1.02,-1.41 2.11,-2.78 3.16,-4.17 -11.49,-10.54 -22.94,-21.13 -35.08,-30.92 -6.81,-5.05 -14.22,-9.37 -21.98,-12.8 -0.6,-0.24 -1.21,-0.45 -1.81,-0.68 -0.81,-0.35 -1.61,-0.68 -2.42,-1.03 -1.5,-0.89 -2.7,-2.09 -3.61,-3.61 -1.17,-1.58 -1.72,-3.66 -1.72,-5.61 0,-4.44 2.53,-8.2 4.99,-11.67 3.45,-4.9 7.23,-9.51 11.14,-14.01 3.77,-4.3 7.44,-8.67 11.05,-13.09 3.04,-3.68 6.02,-7.43 9.24,-10.95 7.03,-7.64 14.1,-15.26 21.04,-22.99 1.66,-1.86 3.28,-3.8 5.19,-5.43 1.94,-1.63 3.75,-2.61 6.21,-3.23 2.51,-0.63 4.73,-0.37 7.19,0.31 3.98,1.06 7.26,4.13 10.17,6.9 4.16,3.99 7.81,8.58 11.85,12.71 5.57,5.69 11.23,11.28 16.87,16.91 4.59,4.59 9.25,9.12 14.34,13.18 0.83,0.63 1.64,1.27 2.47,1.91 0.73,-0.93 1.46,-1.86 2.22,-2.78 3.63,-4.43 7.41,-8.72 11.28,-12.94 -1.19,-1.6 -2.37,-3.21 -3.54,-4.82 -0.7,-0.71 -1.37,-1.45 -2.05,-2.15 -1.42,-1.5 -2.8,-3.04 -4.2,-4.59 -2.63,-2.94 -5.16,-5.96 -7.63,-9.03 -3.9,-4.82 -7.77,-9.66 -11.55,-14.55 -1.99,-2.58 -4,-5.16 -5.91,-7.79 -2.11,-2.93 -4.59,-5.95 -5.99,-9.28 -0.9,-1.57 -1.36,-3.25 -1.37,-5.06 0.01,-1.81 0.47,-3.5 1.37,-5.05 0.88,-1.5 2.09,-2.69 3.58,-3.6 2.49,-1.44 4.97,-1.49 7.71,-1.01 3.68,0.66 5.68,3.91 7.59,6.72 0.69,1.04 1.39,2.06 2.09,3.08 1.51,2.22 3.03,4.45 4.6,6.65 3.25,4.48 6.6,8.89 9.85,13.39 5.94,8.25 11.66,16.64 17.62,24.86 3.82,-3.5 7.74,-6.9 11.8,-10.16 2.63,-2.12 5.31,-4.17 8,-6.23 -1.19,-1.52 -2.45,-2.99 -3.61,-4.54 -2.05,-2.81 -3.89,-5.8 -5.86,-8.66 -4.35,-6.4 -8.87,-12.71 -13.5,-18.91 -5.48,-7.05 -11.1,-14.03 -17.12,-20.62 -1.56,-1.69 -3.02,-3.49 -4.34,-5.37 -1.07,-1.58 -1.77,-4.62 -1.77,-6.47 0,-2.2 0.79,-4.87 1.89,-6.76 1.83,-3.11 4.97,-5.34 8.07,-7.07 4.68,-2.58 9.33,-5.25 13.89,-8.09 5,-3.16 9.99,-6.3 15.05,-9.37 4.72,-2.84 9.78,-5.18 14.78,-7.46 5.13,-2.32 10.28,-4.62 15.42,-6.89 4.55,-2.01 8.75,-4.22 12.73,-7.24 1.56,-1.18 3.31,-2.52 5.26,-2.98 3.06,-0.7 5.36,-0.56 8.2,0.77 2.38,1.13 4.08,3.05 5.53,5.19 2.41,3.58 4.1,7.66 5.91,11.55 2.76,5.93 5.27,11.97 7.9,17.96 2.83,6.47 5.82,12.84 9,19.14 1.52,2.99 3.13,5.94 4.87,8.8 0.89,1.49 1.91,2.9 2.84,4.36 0.39,0.59 0.68,1.26 0.98,1.91 1.36,-0.64 2.72,-1.26 4.06,-1.92 3.47,-1.71 6.92,-3.52 10.46,-5.08 -0.83,-1.58 -1.44,-3.28 -2.07,-5 -0.92,-2.56 -1.93,-5.11 -2.84,-7.69 -1.76,-5.03 -3.05,-10.18 -4.52,-15.31 -1.55,-5.42 -3.17,-10.83 -4.67,-16.27 -0.84,-3.07 -1.66,-6.12 -2.46,-9.21 -0.28,-1.13 -0.57,-2.27 -0.84,-3.41 -0.62,-2.76 -1.42,-5.64 -1.25,-8.47 0.02,-1.42 0.37,-2.75 1.08,-3.99 1.11,-1.88 2.74,-2.89 4.73,-3.63 0.05,-0.01 0.1,-0.03 0.15,-0.05 1.89,-0.7 4.35,-0.19 6.02,0.79 1.54,0.89 2.62,2.24 3.29,3.83 0.55,0.78 0.77,1.32 1.33,2.75 0.28,0.74 0.51,1.52 0.72,2.29 0.62,2.26 1.32,4.5 1.88,6.8 1.15,4.82 2.19,9.67 3.31,14.51 2.78,11.93 6.68,23.53 10.36,35.2 0.11,0.35 0.11,0.71 0.16,1.06 3.81,-1.46 7.63,-2.89 11.43,-4.38 5.35,-2.07 10.81,-3.83 16.29,-5.51 -1.5,-7.65 -3.14,-15.28 -5.25,-22.77 -2.79,-9.89 -6.52,-19.48 -9.4,-29.35 -1.45,-5.03 -3.04,-10.29 -3.41,-15.52 -0.45,-6.21 4.77,-10.36 9.64,-12.93 2.8,-1.46 5.75,-2.61 8.64,-3.83 4.4,-1.83 8.88,-3.68 13.44,-5.02 5.07,-1.49 10.19,-2.78 15.22,-4.42 2.66,-0.87 5.26,-1.86 7.86,-2.88 2.27,-0.99 4.54,-1.97 6.82,-2.93 3.63,-1.54 7.38,-2.54 11.21,-3.43 4.1,-0.96 8.22,-1.85 12.3,-2.83 1.97,-0.48 3.94,-0.97 5.91,-1.44 1.14,-0.27 2.29,-0.52 3.45,-0.75 2.13,-0.42 5.24,-0.79 7.35,-0.04 2.21,0.81 4.57,1.51 6.17,3.35 1.01,1.1 1.93,2.27 2.8,3.47 0.76,1.64 1.49,3.3 2.03,5.04 0.51,1.68 0.75,3.47 1.03,5.23 0.37,2.25 0.71,4.49 1.03,6.75 1.25,8.79 1.57,17.67 2.62,26.48 1.01,8.42 1.67,16.85 2.66,25.27 0.65,4.39 1.35,8.78 2.13,13.15 1.35,-0.13 2.7,-0.25 4.06,-0.38 1.5,-0.28 2.98,-0.57 4.47,-0.84 3.6,-0.67 7.16,-1.41 10.74,-2.17 -0.05,-0.37 -0.12,-0.72 -0.14,-1.09 -0.63,-11.96 -0.96,-23.89 -0.84,-35.85 0.05,-5.67 0.28,-11.32 0.61,-16.96 0.14,-2.66 0.31,-5.35 0.47,-8 0.09,-1.31 0.21,-2.62 0.31,-3.94 0.04,-1.23 0.09,-2.47 0.17,-3.7 0.17,-2.46 0.87,-4.62 2.66,-6.41 1.69,-1.69 4,-2.64 6.4,-2.64 2.39,0 4.71,0.95 6.4,2.64 1.78,1.79 2.48,3.95 2.65,6.41 0.35,5.16 0.86,10.28 1.03,15.45 0.19,5.66 0.23,11.36 0.35,17.01 0.26,11.44 0.52,22.85 1.11,34.29 4.91,-0.32 9.83,-0.52 14.75,-0.6 3.18,-0.06 6.35,-0.02 9.53,-0.03 0.4,-11.03 0.6,-22.05 0.46,-33.08 -0.12,-9.9 -0.96,-19.75 -1.25,-29.63 -0.08,-2.39 -0.11,-4.79 -0.25,-7.18 -0.05,-1 -0.14,-2.01 -0.21,-3.02 -0.36,-3.63 0.43,-7.79 3.31,-10.36 1.08,-0.96 2.24,-1.85 3.46,-2.65 1.37,-0.91 3.05,-1.41 4.58,-2 1.66,-0.65 3.53,-0.87 5.28,-1.12 2.01,-0.28 4,-0.49 6.03,-0.65 2.54,-0.2 5.12,-0.24 7.68,-0.27 5.83,-0.09 11.6,0.03 17.43,0.37 5.49,0.3 10.98,1.07 16.44,1.72 4.83,0.59 9.65,1.31 14.51,1.69 5,0.4 10.01,0.92 15,1.46 2.02,0.22 4.04,0.39 6.07,0.55 1.86,0.15 3.71,0.43 5.58,0.73 1.62,0.24 3.12,0.73 4.6,1.53 1.15,0.56 2.19,1.29 3.12,2.2 0.94,1.05 1.82,2.15 2.65,3.31 1.66,3.37 2.6,6.56 3.09,10.26 0.54,3.95 0.8,7.76 0.75,11.75 -0.04,3.44 -0.23,6.88 -0.34,10.33 -0.2,5.3 -0.5,10.63 -0.87,15.94 -0.43,6.17 -1.29,12.29 -2.19,18.43 -0.72,4.76 -1.61,9.5 -2.35,14.27 -0.29,1.87 -0.54,3.74 -0.81,5.62 7.14,0.89 14.3,1.57 21.37,2.87 0.02,-0.69 0.08,-1.4 0.22,-2.12 1.13,-5.85 2.29,-11.67 3.65,-17.46 1.18,-5.09 2.52,-10.13 3.78,-15.21 1.2,-4.88 2.46,-9.77 3.88,-14.6 1.34,-4.59 2.89,-9.16 4.35,-13.72 0.72,-2.23 2.03,-4.11 4.08,-5.32 2.55,-1.47 6.47,-1.8 8.98,0 2.01,1.46 3.55,2.95 4.23,5.43 0.55,2.04 0.27,3.69 -0.04,5.72 -0.23,1.48 -0.64,2.9 -1.05,4.34 -0.7,2.68 -1.4,5.33 -2.05,8.02 -1.29,5.3 -2.36,10.67 -3.96,15.9 -1.64,5.39 -3.53,10.66 -5.43,15.96 -0.82,2.3 -1.43,4.64 -2.03,7.01 -0.29,1.06 -0.55,2.11 -0.9,3.17 -0.05,0.17 -0.12,0.33 -0.18,0.5 -0.32,1.59 -0.63,3.18 -0.95,4.77 -0.07,0.37 -0.19,0.72 -0.32,1.06 2.73,0.61 5.47,1.24 8.21,1.85 4.33,0.98 8.63,2.1 12.9,3.28 2.12,-6.68 4.2,-13.38 6.22,-20.09 2.27,-7.48 4.31,-15.03 5.96,-22.68 0.84,-3.85 1.68,-7.7 2.41,-11.57 0.34,-1.67 0.63,-3.36 0.94,-5.05 0.16,-0.89 0.33,-1.78 0.51,-2.67 0.61,-3.18 2.35,-5.75 5.18,-7.39 4.34,-2.52 9.76,-0.69 14.15,0.8 2.27,0.77 4.52,1.6 6.76,2.46 3.68,1.37 7.41,2.68 11.05,4.18 3.68,1.53 7.31,3.12 10.92,4.81 2.53,1.21 5.05,2.41 7.61,3.56 3.19,1.17 6.38,2.22 9.59,3.28 3.28,1.08 6.45,2.45 9.64,3.74 2.93,1.16 5.88,2.33 8.93,3.16 1.53,0.41 3.05,0.84 4.55,1.35 0.66,0.23 1.32,0.44 1.99,0.66 1.1,0.35 2.54,0.73 3.5,1.34 0.26,0.16 0.51,0.34 0.77,0.48 1.1,0.66 1.99,1.55 2.64,2.65 1.04,1.41 1.64,3.1 1.98,4.81 0.53,2.67 0.23,5.1 -0.17,7.76 -0.47,3.23 -1.75,6.35 -2.88,9.39 -1.24,3.33 -2.55,6.64 -3.89,9.95 -2.67,6.56 -5.5,13.05 -8.3,19.57 -1.58,3.91 -3,7.88 -4.4,11.86 -0.71,1.99 -1.48,3.95 -2.12,5.94 -0.8,2.5 -1.63,4.95 -3.09,7.06 2.7,2.02 5.39,4.03 8.21,5.94 3.04,2.08 6.16,4.07 9.23,6.11 0.42,0.27 0.84,0.54 1.26,0.81 0.02,-0.09 0.01,-0.18 0.03,-0.25 0.88,-2.7 2.05,-5.01 3.63,-7.34 1.24,-1.82 2.42,-3.68 3.58,-5.57 1.1,-1.81 2.17,-3.62 3.28,-5.42 1.3,-2.1 2.88,-4.05 4.43,-6.01 1.55,-2.09 3.03,-4.2 4.39,-6.42 1.6,-2.64 3.1,-5.34 4.65,-7.99 1.59,-2.75 3.25,-5.46 5.08,-8.06 0.24,-0.34 0.48,-0.69 0.73,-1.04 0.75,-1.24 1.5,-2.48 2.25,-3.71 0.65,-1.04 1.28,-2.08 1.94,-3.11 1.1,-1.8 2.16,-3.68 3.64,-5.2 1.56,-1.57 3.72,-2.44 5.91,-2.44 3.07,0 5.58,1.62 7.22,4.14 4,6.11 -1.93,12.48 -5.46,17.36 -1.23,2.03 -2.48,4.05 -3.76,6.04 -3.24,5.04 -6.35,10.16 -9.68,15.13 -3.43,5.13 -7.03,10.13 -10.56,15.19 -2.11,3.52 -4.26,7 -6.89,10.13 -0.6,0.87 -1.2,1.74 -1.8,2.61 2.26,1.39 4.49,2.8 6.78,4.15 5.03,2.99 10.1,5.88 14.97,9.1 4.8,-6.34 9.55,-12.73 13.88,-19.4 2.81,-4.34 5.48,-8.73 7.98,-13.25 2.16,-3.87 4.16,-7.84 6.42,-11.68 2.31,-3.93 4.67,-7.83 7.06,-11.73 1.31,-2.1 2.68,-4.54 4.57,-6.16 2.14,-1.84 4.67,-3.11 7.57,-2.93 3.11,0.22 5.63,1.65 8.14,3.38 8.37,5.76 16.44,12.02 24.13,18.66 5.69,4.94 11.35,9.85 17.21,14.59 4.51,3.48 9.02,6.94 13.38,10.61 3.71,3.11 7.36,6.31 11.1,9.37 0.77,0.55 1.55,1.06 2.36,1.52 2.55,0.78 4.15,2.08 5.66,4.3 2.73,4.04 0.57,8.73 -1.92,12.15 -2.67,3.68 -5.51,7.17 -8.39,10.67 -2.28,2.74 -4.87,5.27 -7.36,7.83 -2.7,2.78 -5.35,5.6 -7.92,8.48 -4.99,5.62 -9.99,11.21 -14.65,17.13 -2.18,2.77 -4.53,5.25 -7.09,7.64 -1.26,1.17 -2.5,2.35 -3.67,3.61 -0.69,0.73 -1.39,1.37 -2.1,2.01 0.38,0.44 0.77,0.88 1.15,1.31 2.46,2.84 4.74,5.86 7.05,8.81 0.16,0.21 0.31,0.42 0.48,0.63 1.96,2.22 3.91,4.44 5.8,6.74 0.52,-0.43 1.06,-0.82 1.67,-1.09 0.32,-0.13 0.64,-0.27 0.97,-0.41 1.25,-0.6 2.51,-1.3 3.67,-2.08 1.47,-1.27 2.85,-2.68 4.27,-4.02 1.9,-1.81 3.91,-3.54 5.74,-5.42 1.87,-1.94 3.64,-3.98 5.55,-5.86 1.93,-1.88 3.95,-3.61 5.99,-5.36 4.27,-3.66 8.17,-7.79 12.21,-11.73 1.74,-1.71 3.51,-3.38 5.28,-5.04 1.03,-0.96 2.03,-1.89 3.04,-2.85 1.34,-1.24 2.74,-2.45 4.01,-3.77 0.43,-0.52 0.82,-1.05 1.29,-1.53 2.25,-2.28 5.67,-3.15 8.75,-2.31 1.52,0.43 2.85,1.2 3.98,2.31 1.57,1.57 2.81,4.08 2.64,6.37 -0.15,1.8 -0.27,3.54 -1.29,5.11 -0.74,1.14 -1.59,2.19 -2.45,3.23 -0.78,0.94 -1.69,1.79 -2.58,2.63 -1.27,1.22 -2.56,2.42 -3.84,3.61 -2.25,2.06 -4.48,4.12 -6.68,6.21 -2.38,2.23 -4.72,4.49 -7.16,6.65 -2.49,2.2 -5.1,4.23 -7.75,6.24 -2.74,2.16 -5.38,4.42 -7.97,6.75 -2.84,2.51 -5.89,4.74 -8.74,7.21 -1.27,1.1 -2.48,2.27 -3.72,3.4 -1.12,1.05 -2.29,2.06 -3.35,3.2 -0.46,0.5 -0.91,1.02 -1.38,1.51 -0.37,0.37 -0.8,0.71 -1.24,1.02 2.79,3.76 5.52,7.57 8.14,11.46 1.46,2.14 2.82,4.35 4.22,6.53 1.73,-1.48 3.47,-2.95 5.26,-4.37 3.28,-2.59 6.59,-5.12 9.9,-7.67 3.27,-2.72 6.58,-5.4 9.64,-8.35 3.3,-3.17 6.54,-6.38 9.77,-9.61 6.07,-6.07 12,-12.31 18.54,-17.91 1.76,-1.52 3.59,-2.99 5.47,-4.39 1.25,-0.93 2.66,-1.64 4.19,-1.99 3.35,-0.78 6.09,0.04 9.1,1.41 2.6,1.17 4.4,3.97 5.92,6.21 0.57,0.84 1.06,1.73 1.56,2.58 1.37,2.32 2.74,4.67 4.12,7.01 4.53,7.77 9.28,15.4 14.19,22.95 4.82,7.37 9.32,14.97 14.26,22.24 2.51,3.69 5.05,7.32 7.51,11.02 2.23,3.37 4.38,6.8 6.8,10.01 1.33,1.74 2.39,3.54 2.8,5.72 0.12,0.91 0.24,1.81 0.37,2.7 -0.08,1.34 -0.32,2.66 -0.69,3.95 -0.37,1.53 -1.19,2.86 -2.11,4.09 -1.78,2.41 -3.75,4.38 -6.05,6.25 -1.59,1.31 -3.28,2.51 -4.94,3.75 -3.37,2.51 -7.1,4.69 -10.75,6.75 -3.88,2.19 -7.82,4.34 -11.67,6.58 -3.53,2.08 -7.11,4 -10.85,5.71 -4.15,1.87 -8.25,3.96 -12.53,5.49 -3.11,1.11 -6.27,2.08 -9.34,3.28 -2.14,1 -4.24,2.11 -6.37,3.16 -1.72,0.84 -3.48,1.74 -5.32,2.4 0.24,0.56 0.48,1.12 0.71,1.67 2.94,6.5 5.95,12.98 8.87,19.51 1.03,-0.77 2.11,-1.4 3.3,-1.95 1.52,-0.69 3.03,-1.39 4.55,-2.11 3.03,-1.42 6.05,-2.9 9.07,-4.31 6.15,-2.92 12.19,-6.04 17.88,-9.75 2.87,-1.87 5.62,-3.95 8.62,-5.6 3.8,-2.11 7.73,-3.8 11.81,-5.27 3.17,-1.11 6.42,-2.05 9.63,-3.04 1.74,-0.53 3.47,-1.07 5.23,-1.54 4.08,-1.09 9.31,-2.5 13.06,0.22 1.92,1.38 3.37,2.86 4.01,5.22 0.87,3.13 -0.14,6.14 -2.25,8.51 -1.71,1.91 -4.48,2.65 -6.94,3.55 -2.45,1.13 -4.84,2.36 -7.4,3.37 -1.93,0.76 -3.88,1.48 -5.8,2.25 -2.73,1.2 -5.42,2.45 -8.11,3.71 -2.88,1.36 -5.69,2.88 -8.58,4.22 -6.14,2.79 -12.51,4.86 -18.76,7.36 -7.29,3.33 -14.54,6.69 -21.86,9.96 -0.37,0.17 -0.74,0.27 -1.11,0.41 2.23,5.77 4.36,11.59 6.23,17.5 0.25,0.81 0.47,1.63 0.72,2.45 0.5,-0.05 1,-0.07 1.49,-0.12 5.01,-0.86 9.97,-2.43 14.9,-3.71 2.97,-0.76 5.93,-1.5 8.87,-2.23 5.57,-1.4 10.91,-3.32 16.22,-5.46 3.44,-1.53 6.83,-3.19 10.25,-4.83 4.34,-2.09 8.77,-3.8 13.39,-5.16 1.65,-0.49 3.33,-0.91 5,-1.29 0.75,-0.17 1.51,-0.3 2.27,-0.44 1.33,-0.23 2.67,-0.4 4.03,-0.5 2.09,-0.15 3.89,0.69 5.72,1.53 1.38,0.65 3.13,2.74 3.85,4.03 0.67,1.17 1.17,2.34 1.69,3.61 0.6,1.51 1.11,3.02 1.59,4.57 0.68,2.26 1.34,4.52 1.97,6.78 2.29,8.11 4.38,16.27 5.97,24.54 0.78,4.08 1.45,8.23 2.51,12.27 1.06,4.02 2.34,7.95 3.52,11.93 1.99,6.67 3.89,13.36 5.63,20.09 0.39,1.45 0.72,2.93 1.05,4.38 0.68,2.98 1.5,6.21 0.68,9.23 -2.11,7.65 -11.52,7.81 -18.01,8.25 -6.55,0.43 -13.12,0.69 -19.66,1.16 -6.47,0.47 -12.93,1.06 -19.37,1.85 -4.78,0.74 -9.43,1.74 -14.09,3.09 -4.62,1.33 -9.34,2.77 -14.12,3.46 0.87,4.86 1.7,9.72 2.39,14.61 0.35,2.52 0.7,5.04 1.02,7.57 1.89,-0.2 3.81,-0.29 5.66,-0.39 3.52,-0.2 7.04,-0.42 10.54,-0.74 3.28,-0.29 6.55,-0.73 9.85,-0.99 3.3,-0.24 6.63,-0.19 9.94,-0.16 6.56,0.08 13.12,0.4 19.68,0.48 3.32,0.03 6.66,0.03 9.95,0.24 1.86,0.12 3.7,0.26 5.55,0.5 3.57,0.46 6.91,0.81 9.68,3.43 3.73,3.52 3.55,9.76 0,13.3 -1.15,1.17 -2.6,1.99 -4.15,2.42 v 0 c -0.01,0.01 -0.03,0.01 -0.04,0.01 -0.71,0.19 -1.45,0.3 -2.2,0.32 -0.12,0.01 -0.25,0.03 -0.37,0.04 -0.11,-0.02 -0.22,-0.03 -0.33,-0.05 -0.34,-0.01 -0.66,-0.05 -0.98,-0.1 -0.43,0.03 -0.85,0.07 -1.26,0.1 -0.66,0.04 -1.31,0.06 -1.98,0.06 -0.56,0 -1.13,-0.01 -1.7,-0.03 -2.79,-0.08 -5.58,-0.31 -8.37,-0.5 -5.5,-0.37 -11.06,-0.37 -16.58,-0.37 -6.2,0 -12.39,0.23 -18.6,0.18 -7.65,-0.03 -15.45,-0.11 -23.02,-1.43 0.04,0.61 0.09,1.23 0.12,1.85 0.42,7.41 0.72,14.86 0.47,22.27 -0.06,2.1 -0.15,4.21 -0.23,6.31 9.08,-0.35 18.17,-0.07 27.23,0.74 4.82,0.44 9.64,0.98 14.48,1.43 4.3,0.4 8.65,0.2 12.95,-0.2 4.52,-0.42 9.02,-0.91 13.54,-1.24 2.05,-0.16 4.09,-0.32 6.13,-0.49 1.02,-0.09 2.06,-0.23 3.08,-0.35 2.59,-0.3 5.39,0.05 7.69,1.39 5.09,3 5.3,9.11 5.3,14.34 0.02,2.23 -0.14,4.48 -0.33,6.68" style="fill:#00a344;fill-opacity:1;fill-rule:nonzero;stroke:none" id="path3680" transform="matrix(0.133333, 0, 0, -0.133333, 0, 1122.52002)"/>
  <path d="m 4909.63,3365.31 c -0.36,0.46 -0.71,0.91 -1.08,1.38 -0.03,0.05 -0.06,0.09 -0.1,0.14 0.39,-0.51 0.78,-1.02 1.18,-1.52" style="fill:#00a344;fill-opacity:1;fill-rule:nonzero;stroke:none" id="path3682" transform="matrix(0.133333, 0, 0, -0.133333, 0, 1122.52002)"/>
  <path d="m 4908.45,3366.83 c -0.01,0.01 -0.02,0.03 -0.03,0.04 -0.03,0.04 -0.06,0.08 -0.09,0.12 0.04,-0.05 0.08,-0.11 0.12,-0.16" style="fill:#00a344;fill-opacity:1;fill-rule:nonzero;stroke:none" id="path3684" transform="matrix(0.133333, 0, 0, -0.133333, 0, 1122.52002)"/>
  <path d="m 5814.96,3061.12 h 0.01 v 0 c 0,0 0,0 -0.01,0" style="fill:#00a344;fill-opacity:1;fill-rule:nonzero;stroke:none" id="path3686" transform="matrix(0.133333, 0, 0, -0.133333, 0, 1122.52002)"/>
  <path d="m 4701.33,3067.84 c 0.21,-0.03 0.42,-0.08 0.63,-0.11 0.21,-0.03 0.41,-0.03 0.62,-0.06 -0.42,0.06 -0.84,0.12 -1.25,0.17" style="fill:#00a344;fill-opacity:1;fill-rule:nonzero;stroke:none" id="path3688" transform="matrix(0.133333, 0, 0, -0.133333, 0, 1122.52002)"/>
  <path d="m 4893.51,3316.85 c 0.04,-0.06 0.09,-0.13 0.14,-0.19 0.07,-0.08 0.14,-0.18 0.21,-0.27 -0.11,0.16 -0.24,0.3 -0.35,0.46" style="fill:#00a344;fill-opacity:1;fill-rule:nonzero;stroke:none" id="path3690" transform="matrix(0.133333, 0, 0, -0.133333, 0, 1122.52002)"/>
  <path d="m 5656.02,3252.28 c 0.39,0.3 0.79,0.61 1.19,0.92 0.02,0.03 0.05,0.05 0.07,0.07 -0.43,-0.34 -0.85,-0.67 -1.26,-0.99" style="fill:#00a344;fill-opacity:1;fill-rule:nonzero;stroke:none" id="path3692" transform="matrix(0.133333, 0, 0, -0.133333, 0, 1122.52002)"/>
  <path d="m 5782.29,2938.69 c -0.02,-0.01 -0.04,-0.01 -0.07,-0.02 0.05,0.01 0.1,0.02 0.16,0.02 -0.03,0 -0.06,0 -0.09,0" style="fill:#00a344;fill-opacity:1;fill-rule:nonzero;stroke:none" id="path3694" transform="matrix(0.133333, 0, 0, -0.133333, 0, 1122.52002)"/>
</svg>