<?xml version="1.0" encoding="utf-8"?>
<svg viewBox="217.595 227.89 162.824 163.968" width="162.824" height="163.968" xmlns="http://www.w3.org/2000/svg">
  <path d="m 1884.83,6481.18 c 8.06,-3.52 15.96,-7.25 23.79,-11.23 8.17,-4.18 16.36,-8.36 24.63,-12.35 8.35,-4.04 16.79,-7.97 24.78,-12.68 3.66,-2.16 7.2,-4.6 10.69,-7.02 3.55,-2.46 7.1,-4.94 10.57,-7.54 1.2,-0.98 2.42,-1.94 3.63,-2.92 -5.99,-3.88 -11.94,-7.82 -17.72,-11.98 -4.6,-3.31 -8.84,-6.93 -12.97,-10.76 -3.67,-3.39 -6.93,-7.2 -10.32,-10.83 -3.14,-3.37 -6.57,-6.46 -9.79,-9.77 -3.21,-3.29 -6.15,-6.8 -9.06,-10.36 -2.31,-2.82 -4.53,-5.71 -6.65,-8.67 -2.25,3.78 -4.77,7.34 -7.42,10.9 -7.32,9.78 -12.7,20.82 -19.15,31.18 -2.92,4.68 -5.86,9.29 -8.6,14.09 -2.93,5.21 -5.72,10.52 -8.69,15.7 -6.27,10.95 -13.47,21.37 -19.52,32.48 -5.74,10.52 -11.36,21.09 -16.93,31.68 5.68,-2.48 11.41,-4.9 17.12,-7.31 10.46,-4.38 21.08,-8.41 31.61,-12.61 z m -39.03,-42.12 c 5.86,-10.92 11.19,-22.05 16.42,-33.28 2.34,-5.03 5.08,-9.86 7.77,-14.72 2.99,-5.38 5.73,-10.91 8.54,-16.36 1.99,-3.87 4.06,-7.65 6.43,-11.31 2.14,-3.29 4.45,-6.48 6.55,-9.82 2.19,-3.43 4.06,-7.1 6.02,-10.66 0.98,-1.77 2.07,-3.41 3.22,-5.05 2.66,-3.74 5.97,-8.1 10.88,-8.77 2.27,-0.6 4.51,-0.6 6.75,0 2.15,0.6 4.01,1.69 5.61,3.26 2.4,2.4 3.8,6.02 3.73,9.53 0.73,2.17 1.4,4.35 2.17,6.47 1.77,3.65 4.03,6.94 6.44,10.18 2.52,3.26 5.05,6.51 7.85,9.51 2.94,3.16 6.3,5.9 9.34,8.94 3.21,3.21 6.2,6.7 9.27,10.01 3.02,3.27 6.39,6.17 9.76,9.05 10.4,7.79 21.57,14.64 32.53,21.59 4.66,2.94 6.5,8.94 3.64,13.84 -1.12,1.89 -2.89,3.26 -4.87,4.1 -1.01,0.82 -2.07,1.55 -3.2,2.23 -1.7,0.99 -3.36,2.02 -5.03,3.06 -3.61,2.2 -6.92,4.78 -10.36,7.22 -7.37,5.21 -14.72,10.69 -22.62,15.05 -8.22,4.53 -16.69,8.57 -25.08,12.7 -8.57,4.24 -17.06,8.67 -25.63,12.95 -9.96,4.96 -20.23,9.22 -30.59,13.25 -10.02,3.92 -20.06,7.87 -30.01,12.01 -8.95,3.87 -17.78,7.97 -26.6,12.11 -1.24,0.58 -2.46,0.92 -3.7,1.08 -1.66,1.03 -3.6,1.62 -5.58,1.62 -1.8,0 -3.59,-0.44 -5.14,-1.35 -4.98,-2.89 -6.2,-8.99 -3.66,-13.92 12.85,-24.96 25.9,-49.77 39.15,-74.52" style="fill:#282727;fill-opacity:1;fill-rule:nonzero;stroke:none" id="path612" transform="matrix(0.133333, 0, 0, -0.133333, 0, 1122.52002)"/>
  <path d="m 1933.92,6601.95 c 3.71,2.57 7.6,5.06 11.61,7.1 2.76,1.42 5.64,2.67 8.5,3.9 7.83,3.15 15.74,6.06 23.55,9.25 4.93,2.02 9.89,4.01 14.77,6.15 3.42,1.48 6.73,3.13 10.1,4.66 4.27,1.63 8.6,2.71 13.04,3.83 5.34,1.33 10.08,4.18 15.01,6.53 4.15,1.5 8.38,2.32 12.72,3.1 -0.52,-6.91 -0.93,-13.84 -1.05,-20.73 -0.2,-11.34 0.45,-22.69 0.92,-34.03 0.23,-5.13 0.45,-10.26 0.65,-15.39 0.22,-5.21 0.84,-10.39 1.39,-15.57 1.08,-10.26 1.45,-20.55 1.95,-30.83 0.42,-8.25 1.22,-16.47 1.69,-24.71 0.25,-3.99 0.35,-8 0.62,-12.01 0.03,-0.42 0.1,-0.83 0.13,-1.25 -2.32,1.96 -4.68,3.86 -7.05,5.74 -4.4,3.51 -8.85,6.96 -13.31,10.4 0.17,-0.13 0.33,-0.25 0.5,-0.38 -0.51,0.4 -1.02,0.79 -1.54,1.19 0.26,-0.21 0.53,-0.41 0.79,-0.62 -0.37,0.28 -0.73,0.57 -1.09,0.84 -6.89,5.23 -14.1,10.03 -21.08,15.11 -3.46,2.75 -6.88,5.52 -10.23,8.39 -4.21,3.56 -8.37,7.24 -12.78,10.51 -3.86,2.84 -7.65,5.7 -11.68,8.27 -4.91,3.09 -9.84,6.03 -14.87,8.94 -8.62,5.01 -17.31,9.99 -25.98,14.94 -6.38,3.65 -12.87,7.1 -19.37,10.51 0.58,0.49 1.11,1.02 1.71,1.49 6.66,5.05 13.51,9.87 20.38,14.67 z m -38.3,-29.83 c 11.46,-6.09 22.89,-12.25 34.01,-18.98 5.61,-3.39 11.19,-6.77 16.77,-10.21 6.02,-3.71 11.85,-7.57 17.7,-11.53 3.66,-2.9 7.29,-5.8 10.79,-8.9 3.96,-3.51 7.8,-7.19 11.83,-10.61 8.9,-7.53 18.25,-14.44 27.53,-21.46 7.68,-6.11 15.37,-12.26 22.91,-18.56 3.59,-3.02 7.17,-6.01 10.76,-9.02 1.97,-1.65 3.74,-3.46 5.45,-5.36 0.8,-0.91 1.67,-1.74 2.59,-2.51 0.92,-0.8 1.97,-1.54 2.97,-2.27 1.84,-1.34 4.13,-1.54 6.3,-1.76 4.56,-0.48 8.94,3.53 10.06,7.64 0.76,2.79 0.3,5.67 -1.09,8.03 0.02,0.01 0.03,0.01 0.05,0.01 -0.55,1.05 -1.3,2.07 -2.1,3.07 -0.44,4.58 -0.84,9.15 -1.66,13.66 -0.81,4.36 -1.94,8.61 -2.63,12.95 -1.06,8.06 -2.09,16.1 -3.18,24.14 0.13,-0.77 0.23,-1.52 0.33,-2.29 -1.27,10.44 -1.67,20.95 -2.42,31.43 -0.37,5.16 -0.94,10.29 -1.52,15.44 -0.57,5.01 -0.94,9.92 -1.14,14.95 -0.43,10.61 -1.02,21.22 -1.25,31.83 -0.12,5.61 -0.22,11.21 0.03,16.81 0.22,5.16 0.49,10.31 0.87,15.47 0.22,2.95 0.38,5.92 0.63,8.88 0.14,0.19 0.27,0.4 0.39,0.61 0.02,0.06 0.05,0.11 0.07,0.16 0.41,0.71 0.74,1.46 0.95,2.23 0.9,3.27 -0.07,6.65 -2.39,9.07 -3.24,3.39 -8.62,3.59 -12.98,3.64 -0.09,0 -0.18,0 -0.27,0 -2.95,0 -5.95,-0.39 -8.87,-0.68 -4.11,-0.42 -8.16,-1.02 -12.15,-2.11 -3.67,-1.02 -7.19,-2.54 -10.65,-4.11 -3.7,-1.36 -7.52,-2.04 -11.32,-3.07 -5.48,-1.47 -10.81,-3.71 -15.84,-6.3 -9.32,-4.75 -18.81,-9.16 -28.25,-13.68 -4.55,-2.19 -9.19,-4.2 -13.7,-6.52 -2.09,-1.09 -4.18,-2.22 -6.27,-3.34 -3.92,-2.06 -7.57,-4.4 -11.16,-7.05 -4.34,-3.18 -8.64,-6.42 -12.95,-9.68 -2.82,-2.15 -5.63,-4.27 -8.45,-6.4 -2.94,-2.25 -5.85,-4.49 -8.69,-6.88 -3.26,-2.74 -6.27,-5.8 -9.34,-8.74 -0.8,-0.8 -1.62,-1.57 -2.42,-2.37 -3.71,-3.64 -3.63,-9.81 0,-13.45 2.61,-2.62 6.38,-3.26 9.7,-2.18" style="fill:#282727;fill-opacity:1;fill-rule:nonzero;stroke:none" id="path614" transform="matrix(0.133333, 0, 0, -0.133333, 0, 1122.52002)"/>
  <path d="m 2027.82,6509.12 c 0.09,-0.07 0.2,-0.15 0.3,-0.22 -0.27,0.21 -0.55,0.42 -0.83,0.63 0.18,-0.14 0.35,-0.27 0.53,-0.41" style="fill:#282727;fill-opacity:1;fill-rule:nonzero;stroke:none" id="path616" transform="matrix(0.133333, 0, 0, -0.133333, 0, 1122.52002)"/>
  <path d="m 2126.32,6582.93 c 0.01,0.05 0.02,0.1 0.02,0.14 0,-0.04 -0.01,-0.09 -0.02,-0.14 z m 12.1,-45.24 c 1.4,8.37 2.82,16.74 4.21,25.14 1.41,8.37 2.64,16.77 3.75,25.19 1.28,8.38 2.91,16.72 4.3,25.07 1.52,8.99 2.69,18.11 3.69,27.17 0.92,8.18 0.86,16.42 1.39,24.61 0.13,2.04 0.26,4.08 0.4,6.12 0.94,-2.14 1.87,-4.29 2.8,-6.41 0.95,-2.25 1.91,-4.5 2.89,-6.76 3.83,-9.04 7.98,-17.92 12.22,-26.8 4.05,-8.49 8.04,-17.03 12.17,-25.5 2.12,-4.36 4.19,-8.74 6.58,-12.98 2.44,-4.38 4.93,-8.77 7.32,-13.2 4.39,-8.1 8.55,-16.31 12.96,-24.41 1.69,-3.1 3.1,-6.35 4.55,-9.57 2.89,-6.95 5.79,-13.93 8.15,-21.09 1.9,-5.71 3.37,-11.57 4.73,-17.45 -4.12,0.64 -8.24,1.29 -12.39,1.86 -3.36,0.45 -6.73,0.53 -10.12,0.53 -0.87,0 -1.74,-0.01 -2.61,-0.01 -4.95,0 -9.93,-0.03 -14.89,-0.15 -10.93,-0.25 -21.97,-1.3 -32.8,-2.82 -8.46,-1.15 -16.83,-2.7 -25.19,-4.34 1.96,11.94 3.91,23.87 5.89,35.8 z m -27.68,-51.66 c 0.07,-0.25 0.2,-0.48 0.29,-0.72 -0.03,-1.62 0.25,-3.18 1.17,-4.75 1.22,-2.09 3.26,-3.66 5.63,-4.31 2.41,-0.68 5.05,-0.32 7.24,0.95 0.93,0.54 1.87,1.34 2.64,2.27 8.95,1.83 17.89,3.63 26.88,5.22 2.1,0.28 4.2,0.57 6.3,0.85 0.11,0.02 0.22,0.03 0.34,0.04 -0.04,0 -0.08,-0.01 -0.12,-0.01 0.09,0.01 0.17,0.02 0.26,0.03 0.32,0.05 0.64,0.09 0.95,0.13 -0.01,0 -0.03,0 -0.04,0 0.09,0.01 0.18,0.02 0.27,0.03 -0.09,-0.01 -0.19,-0.02 -0.28,-0.03 -0.08,-0.02 -0.16,-0.03 -0.24,-0.04 12.57,1.61 25.33,2.09 37.98,1.97 5.68,-0.08 11.48,0.12 17.14,-0.53 4.3,-0.48 8.64,-0.71 12.95,-1.19 3.69,-0.65 7.78,-1.78 11.38,-0.58 -0.01,0.01 -0.01,0.01 -0.02,0.02 1.56,0.41 3.01,1.23 4.21,2.43 0.17,0.17 0.26,0.37 0.42,0.55 1.6,0.2 3.14,0.61 4.56,1.44 4.76,2.79 6.9,8.39 5.56,13.68 -0.45,1.84 -1.29,3.53 -2.42,5.02 -0.46,0.66 -0.86,1.33 -1.22,2.04 -2.38,6.09 -4.33,12.33 -6.62,18.44 -3.26,8.71 -7.02,17.23 -10.64,25.8 0.32,-0.8 0.68,-1.59 1,-2.39 -1.99,4.73 -4.06,9.42 -6.5,13.95 -2.19,4.08 -4.28,8.24 -6.38,12.4 -4.3,8.67 -8.79,17.22 -13.6,25.63 -4.88,8.62 -9.31,17.51 -14,26.23 -4.58,8.5 -9.46,16.84 -14.22,25.2 -4.71,8.28 -8.96,16.8 -13.9,24.89 -2.51,4.13 -5.25,8 -8.56,11.51 -1.79,1.89 -3.71,3.34 -6.19,3.34 -0.46,0 -0.93,-0.05 -1.44,-0.16 -1.96,-0.4 -3.53,-1.84 -4.41,-3.58 -1.11,-2.32 -1.31,-4.91 -1.81,-7.37 -1.65,-8.4 -3.44,-16.79 -4.91,-25.21 -0.8,-4.46 -1.54,-8.94 -2.36,-13.38 -0.85,-4.43 -1.87,-8.81 -2.82,-13.22 -1.79,-8.32 -3.36,-16.66 -5.11,-25.01 -1.82,-8.67 -2.91,-17.46 -4,-26.28 -2.18,-15.77 -4.88,-31.49 -7.36,-47.22 -2.03,-13.04 -4.17,-26.05 -6.32,-39.09 -1.78,-2.6 -2.5,-5.99 -1.68,-8.99" style="fill:#282727;fill-opacity:1;fill-rule:nonzero;stroke:none" id="path618" transform="matrix(0.133333, 0, 0, -0.133333, 0, 1122.52002)"/>
  <path d="m 2161.37,6485.6 c -0.05,0 -0.1,-0.01 -0.14,-0.02 0.35,0.05 0.69,0.1 1.04,0.15 h 0.01 c -0.3,-0.04 -0.61,-0.09 -0.91,-0.13" style="fill:#282727;fill-opacity:1;fill-rule:nonzero;stroke:none" id="path620" transform="matrix(0.133333, 0, 0, -0.133333, 0, 1122.52002)"/>
  <path d="m 2278.9,6687.27 c 5.34,-0.29 10.65,-0.86 15.99,-1.3 3.16,-0.43 6.32,-0.85 9.48,-1.25 7.3,-1.05 14.55,-2.59 21.78,-3.87 7.55,-1.34 15.14,-2.41 22.61,-4.11 3.47,-0.8 6.88,-1.69 10.34,-2.49 3.79,-0.87 7.57,-1.59 11.36,-2.46 6.71,-1.58 13.1,-4.03 19.47,-6.59 5,-2.32 9.67,-5.38 14.13,-8.63 -2.95,-3.57 -5.75,-7.27 -8.37,-11.11 -4.81,-7 -9.26,-14.27 -13.77,-21.47 -4.31,-6.93 -8.37,-14 -12.58,-20.97 -4.22,-7.01 -9.14,-13.63 -14.11,-20.1 -4.43,-5.62 -8.89,-11.2 -12.99,-17.07 -4.48,-6.42 -9.12,-12.75 -13.65,-19.15 -4.28,-6.11 -8.44,-12.31 -12.68,-18.46 -2.14,-3.06 -4.5,-6 -6.6,-9.12 -0.91,-1.36 -1.78,-2.75 -2.66,-4.13 -0.59,3.07 -1.23,6.13 -1.82,9.19 -1.62,8.52 -3.41,17.04 -5.86,25.36 -2.66,9.09 -5.4,18.13 -7.96,27.25 -1.2,4.2 -2.22,8.44 -3.37,12.65 -1.17,4.28 -2.41,8.54 -3.58,12.83 -2.47,8.87 -3.57,17.93 -5.13,26.97 -1.47,8.42 -3.47,16.76 -5.28,25.11 -0.85,3.93 -1.97,7.8 -3.12,11.63 -1.07,3.61 -1.97,7.27 -3.04,10.88 -1.11,3.78 -2.36,7.51 -3.66,11.21 5.02,-0.26 10.05,-0.54 15.07,-0.8 z m -31.23,-2.44 c 1.42,-3.88 2.71,-7.77 3.91,-11.73 1.07,-3.58 2.04,-7.24 3.11,-10.86 1.17,-3.91 2.29,-7.82 3.19,-11.8 0.92,-4.09 1.74,-8.2 2.67,-12.31 0.94,-4.13 1.94,-8.29 2.71,-12.48 1.72,-8.96 2.69,-18.05 4.9,-26.9 1.1,-4.3 2.22,-8.61 3.32,-12.9 1.07,-4.25 1.97,-8.54 2.91,-12.85 1.07,-4.86 2.22,-9.72 3.39,-14.57 1.05,-4.38 2.34,-8.69 3.36,-13.07 2.04,-8.65 3.22,-17.49 4.69,-26.24 0.74,-4.4 1.54,-8.81 2.29,-13.19 0.37,-2.07 0.67,-4.11 0.97,-6.16 0.42,-2.56 0.79,-5.55 2.24,-7.74 1.52,-2.34 3.51,-4.46 6.37,-5.16 2.87,-0.72 5.66,-0.4 8.2,1.12 2.17,1.32 3.71,3.46 5.31,5.38 2.69,3.26 4.98,6.68 7.05,10.34 3.96,7.07 8.34,13.85 12.65,20.72 4.36,6.93 8.71,13.83 13.32,20.57 2.24,3.29 4.53,6.53 6.78,9.82 2.17,3.21 4.31,6.48 6.63,9.61 6.72,8.59 13.78,16.89 20.02,25.83 6,8.57 11.16,17.66 17.51,25.98 -0.4,-0.52 -0.8,-1.05 -1.2,-1.54 5.55,7.16 11.05,14.38 16.4,21.71 1.45,1.79 2.94,3.51 4.5,5.19 1.53,1.63 3.06,3.28 4.67,4.85 1.06,-0.07 2.09,-0.01 3.37,0.35 3.64,1 5.98,3.77 7.18,7.23 0.85,2.49 0.27,5.6 -1.02,7.81 -0.93,1.55 -2.15,2.77 -3.66,3.67 -0.49,0.28 -0.99,0.51 -1.49,0.71 -0.54,0.3 -1.06,0.63 -1.58,0.98 -3.03,2.44 -5.96,4.97 -9.11,7.28 -3.24,2.36 -6.48,4.73 -9.89,6.82 -4.29,2.59 -9.24,4.21 -13.9,6.05 -3.79,1.5 -7.59,2.89 -11.56,3.96 -4.31,1.14 -8.64,2.09 -12.97,3.09 -4.21,0.95 -8.37,2.07 -12.58,3.06 -8.55,2.02 -17.31,3.27 -25.98,4.81 -4.83,0.87 -9.67,1.72 -14.49,2.51 -4.74,0.77 -9.49,1.34 -14.23,1.93 -5.86,0.77 -11.8,1.27 -17.66,1.59 -9.12,0.47 -18.21,0.97 -27.29,1.42 -0.16,0.01 -0.32,0.01 -0.47,0.01 -5.55,0 -10.07,-5.17 -10.07,-10.55 0,-2.8 1.07,-5.25 2.8,-7.07 0.73,-2.46 1.85,-4.87 2.73,-7.28" style="fill:#282727;fill-opacity:1;fill-rule:nonzero;stroke:none" id="path622" transform="matrix(0.133333, 0, 0, -0.133333, 0, 1122.52002)"/>
  <path d="m 2295.09,6707.05 c 0.85,-0.1 1.69,-0.23 2.54,-0.34 0.09,-0.01 0.18,-0.02 0.28,-0.03 -0.95,0.13 -1.9,0.25 -2.82,0.37" style="fill:#282727;fill-opacity:1;fill-rule:nonzero;stroke:none" id="path624" transform="matrix(0.133333, 0, 0, -0.133333, 0, 1122.52002)"/>
  <path d="m 2400.15,6484.09 c -4.13,1.01 -8.27,1.9 -12.45,2.67 0.61,0.65 1.2,1.31 1.8,1.95 2.86,3.07 5.65,6.23 8.62,9.22 6.52,6.6 13.12,13.1 19.53,19.83 7.09,7.49 14.09,15.07 21.04,22.71 5.81,6.38 11.58,12.78 17.31,19.18 4.99,5.55 9.84,11.23 14.67,16.94 4.68,5.54 9.14,11.55 14.71,16.24 2.49,1.79 5.02,3.48 7.33,5.48 1.85,1.57 3.32,3.78 4.76,5.7 0.71,0.94 1.41,1.87 2.12,2.81 0.31,0.38 0.62,0.77 0.94,1.15 -0.3,-1.7 -0.6,-3.41 -0.89,-5.11 -1.62,-9.36 -2.86,-18.8 -4.26,-28.19 -2.67,-18.13 -6.08,-36.17 -8.94,-54.25 -2.82,-17.63 -4.31,-35.44 -6.53,-53.18 -0.9,-7.17 -1.6,-14.38 -2.27,-21.59 -0.92,0.72 -1.81,1.46 -2.77,2.13 -3.21,2.19 -6.35,4.48 -9.59,6.65 -3.71,2.49 -7.77,4.26 -11.85,6.02 -2.35,1 -4.66,2.07 -6.88,3.27 -2.37,1.27 -4.58,2.91 -6.8,4.43 -3.56,2.47 -7.12,4.86 -11.11,6.6 -4.63,2.02 -9.39,3.86 -14.17,5.48 -4.68,1.59 -9.51,2.72 -14.32,3.86 z m 40.57,-38.6 c 3.91,-2.25 7.88,-4.38 11.57,-6.95 2.25,-2 4.36,-4.14 6.52,-6.23 1.73,-1.68 3.51,-3.26 5.12,-5.03 0.91,-1.4 1.8,-2.83 2.73,-4.26 2.89,-4.6 6.65,-7.89 11.97,-8.68 1.09,-1.03 2.42,-1.82 3.83,-2.22 2.86,-0.77 6.72,-0.07 8.71,2.32 1.54,1.87 2.12,2.81 2.99,5.06 0.27,0.67 0.47,1.34 0.65,2.07 0.55,2.16 0.6,4.67 0.75,6.92 0.22,3.56 0.22,7.09 0.39,10.63 0.35,7.1 1.02,14.17 1.92,21.2 -0.12,-0.85 -0.22,-1.67 -0.35,-2.49 2.31,16.5 3.87,33.08 5.74,49.63 0.34,2.47 0.65,4.95 0.98,7.42 1.2,8.17 2.63,16.29 3.89,24.44 1.61,10.33 3.06,20.68 4.39,31.06 1.3,9.8 2.43,19.65 3.7,29.47 0.96,6.42 2.06,12.84 2.77,19.28 0.35,2.96 0.5,5.9 0.58,8.92 0.04,1.37 0.02,2.86 -0.45,4.18 -0.92,2.44 -2.72,4.96 -5.51,5.53 -0.77,0.16 -1.52,0.26 -2.24,0.26 -1.24,0 -2.43,-0.28 -3.66,-0.96 -1,-0.52 -1.87,-1.37 -2.72,-2.11 -2.21,-1.92 -4.45,-3.59 -6.37,-5.84 -1.67,-1.99 -3.34,-3.95 -5.13,-5.84 -2.09,-2.22 -4.31,-4.32 -6.33,-6.58 -2.13,-2.43 -4.04,-5 -6.43,-7.17 -3.33,-2.44 -6.73,-4.74 -9.61,-7.72 -3.09,-3.19 -5.88,-6.7 -8.77,-10.09 -6.02,-7.08 -12.17,-14.05 -18.55,-20.85 -12.93,-13.83 -25.83,-27.65 -38.96,-41.27 -6.25,-6.53 -12.7,-12.88 -19.08,-19.31 -2.96,-2.99 -5.75,-6.15 -8.62,-9.21 -3.84,-4.11 -7.63,-8.26 -11.42,-12.42 -0.54,0.01 -1.07,0.04 -1.61,0.05 -0.06,0 -0.11,0 -0.17,0 -3.98,0 -7.28,-3.52 -7.28,-7.47 0,-3.88 3.01,-6.86 6.72,-7.32 0.03,-0.02 0.04,-0.06 0.07,-0.09 3.03,-3.04 8.39,-3.36 11.68,-0.48 1.64,-0.09 3.29,-0.16 4.91,-0.34 7.03,-1.08 13.84,-2.89 20.71,-4.75 3.24,-0.88 6.44,-1.95 9.57,-3.19 5.45,-2.42 10.73,-4.98 15.62,-8.42 4.84,-3.86 9.42,-8.1 14.78,-11.15" style="fill:#282727;fill-opacity:1;fill-rule:nonzero;stroke:none" id="path626" transform="matrix(0.133333, 0, 0, -0.133333, 0, 1122.52002)"/>
  <path d="m 2512.57,6570.71 c -0.02,-0.11 -0.04,-0.22 -0.05,-0.33 -0.09,-0.67 -0.16,-1.34 -0.25,-2.01 0.1,0.77 0.2,1.57 0.3,2.34" style="fill:#282727;fill-opacity:1;fill-rule:nonzero;stroke:none" id="path628" transform="matrix(0.133333, 0, 0, -0.133333, 0, 1122.52002)"/>
  <path d="m 2547.76,6408.94 c 2.49,6.62 5.23,13.15 7.92,19.7 5.01,12.23 9.49,24.67 14.46,36.93 0.2,0.47 0.4,0.94 0.6,1.42 0.05,0.13 0.1,0.25 0.16,0.38 -0.06,-0.13 -0.11,-0.25 -0.16,-0.37 0.34,0.82 0.7,1.65 1.05,2.47 0.38,0.89 0.75,1.76 1.13,2.66 -0.28,-0.6 -0.53,-1.22 -0.8,-1.85 1.25,2.94 2.46,5.88 3.71,8.82 -0.27,-0.62 -0.52,-1.24 -0.8,-1.86 3.54,8.36 6.93,16.78 10.19,25.25 3.14,8.14 5.85,16.36 8.57,24.63 3.97,12.08 7.4,24.3 10.59,36.6 0.94,-0.48 1.9,-0.91 2.84,-1.4 5.33,-2.79 10.34,-6.15 15.27,-9.56 3.21,-2.2 6.29,-4.6 9.41,-6.93 5.26,-4.23 10.54,-8.46 15.55,-13 2.49,-2.29 4.93,-4.55 7.27,-7 2.54,-2.66 4.9,-5.5 7.32,-8.24 4.54,-5.14 8.79,-10.46 13.18,-15.69 3.93,-4.67 8.32,-8.98 12.16,-13.73 0.26,-0.33 0.52,-0.66 0.77,-0.99 5.53,-7.36 10.24,-15.28 15.76,-22.65 2.56,-3.41 5.21,-6.77 7.74,-10.18 0.51,-0.66 0.98,-1.35 1.46,-2.03 -0.94,-0.35 -1.87,-0.64 -2.86,-0.83 -1.25,-0.13 -2.5,-0.23 -3.75,-0.26 -1.6,-0.03 -3.21,0.18 -4.79,0.27 -3.75,0.19 -7.58,-0.53 -11.29,-1.1 -3,-0.37 -6,-0.73 -8.93,-1.44 -2.55,-0.65 -5.06,-1.26 -7.64,-1.68 -2.41,-0.33 -4.8,-0.68 -7.18,-1.23 -1.99,-0.45 -3.91,-1.1 -5.85,-1.74 -4.24,-1.43 -8.37,-3.09 -12.68,-4.36 -4.23,-1.27 -8.59,-2.17 -12.88,-3.36 -4.46,-1.23 -8.67,-3.12 -12.93,-4.89 -4.03,-1.69 -8.07,-3.01 -12.25,-4.23 -4.36,-1.27 -8.67,-2.67 -12.95,-4.21 -8.89,-3.24 -17.56,-7.12 -26.51,-10.17 -5.1,-1.71 -10.01,-3.63 -14.86,-5.92 -3.64,-1.73 -7.22,-3.6 -10.76,-5.48 0.94,2.41 1.85,4.82 2.76,7.25 z m 22.59,57.14 c 0.1,0.25 0.2,0.5 0.3,0.74 -0.08,-0.21 -0.16,-0.41 -0.25,-0.62 0.1,0.23 0.2,0.46 0.3,0.69 -0.19,-0.45 -0.37,-0.89 -0.55,-1.32 0.03,0.07 0.05,0.15 0.08,0.23 -0.11,-0.28 -0.23,-0.55 -0.35,-0.82 0.16,0.37 0.32,0.73 0.47,1.1 z m -52.05,-80.93 c 0.01,0 0.03,0 0.04,0 -0.83,-1.43 -1.31,-3.05 -1.31,-4.71 0,-5.15 4.23,-9.31 9.34,-9.36 3.78,-0.03 7.49,2.01 10.88,3.46 2.76,1.2 5.53,2.42 8.3,3.66 5.44,2.51 10.85,5.04 16.33,7.4 2.15,0.89 4.31,1.75 6.48,2.56 3.31,1.27 6.85,2.17 10.21,3.24 3.31,1.05 6.58,2.42 9.79,3.74 3.39,1.39 6.78,2.74 10.16,4.13 6.4,2.59 12.93,4.93 19.53,7.03 6.79,2.12 13.11,5.3 19.53,8.26 4.13,1.52 8.31,2.8 12.6,3.96 4.71,1.3 9.32,2.87 13.92,4.52 4.29,1.51 8.57,2.66 13.03,3.58 4.77,1 8.98,3.24 13.36,5.2 2.94,1.01 5.97,1.8 9.04,2.33 1.83,0.13 3.66,0.04 5.52,0.02 2.64,-0.05 5.26,0.42 7.86,0.82 1.09,0.13 2.2,0.25 3.28,0.42 1.81,0.3 3.23,0.82 4.93,1.6 1.79,0.8 3.44,1.91 4.85,3.31 0.27,0.25 0.46,0.57 0.7,0.84 2.56,0.32 5.4,1.75 6.43,4.12 0.78,1.79 1.25,2.54 1.25,4.56 0,1.92 -0.7,3.48 -1.57,5.13 -0.45,0.82 -1.07,1.54 -1.62,2.29 -1.3,1.77 -2.59,3.56 -3.86,5.38 -2.37,3.34 -4.63,6.73 -6.9,10.14 -5.2,7.79 -9.57,16.12 -15.04,23.74 -5.71,7.97 -12.73,14.82 -18.73,22.54 -5.63,7.27 -11.41,14.54 -17.74,21.27 -6.5,6.9 -13.92,12.97 -21.27,18.93 -4.49,3.63 -9.17,7.07 -13.8,10.51 -4.18,3.11 -8.64,5.95 -13.13,8.62 -3.75,2.2 -7.66,4.13 -11.6,6.01 -0.21,3.33 -2.29,6.35 -5.71,7.31 -0.67,0.18 -1.35,0.27 -2.04,0.27 -2.6,0 -5.13,-1.27 -6.65,-3.36 -0.04,-0.01 -0.08,-0.01 -0.12,-0.02 -2.59,-0.7 -4.81,-2.44 -6.16,-4.73 -1.39,-2.37 -1.76,-5.28 -1.04,-7.95 0.43,-1.52 1.33,-3.11 2.5,-4.38 -1.58,-6.16 -3.22,-12.31 -4.97,-18.44 -2.62,-9.09 -5.31,-18.13 -8.2,-27.15 -5.88,-18.3 -13.22,-36.09 -20.45,-53.87 -9.1,-22.48 -16.74,-45.51 -25.92,-67.96 -1.28,-2.84 -2.7,-5.56 -4.19,-8.31 -1.24,-2.28 -2.46,-4.5 -3.87,-6.62 -0.63,-0.47 -1.24,-0.97 -1.81,-1.51 -0.68,-0.58 -1.28,-1.25 -1.77,-1.98 -0.14,-0.18 -0.27,-0.36 -0.39,-0.55" style="fill:#282727;fill-opacity:1;fill-rule:nonzero;stroke:none" id="path630" transform="matrix(0.133333, 0, 0, -0.133333, 0, 1122.52002)"/>
  <path d="m 2570.4,6466.2 c -0.01,-0.04 -0.03,-0.08 -0.05,-0.12 -0.04,-0.09 -0.08,-0.19 -0.12,-0.28 0.06,0.13 0.12,0.27 0.17,0.4" style="fill:#282727;fill-opacity:1;fill-rule:nonzero;stroke:none" id="path632" transform="matrix(0.133333, 0, 0, -0.133333, 0, 1122.52002)"/>
  <path d="m 2740.92,6353.78 c 2.91,0.8 5.82,1.57 8.75,2.21 -1.3,-1.6 -2.6,-3.19 -3.9,-4.78 -7.12,-8.69 -14.49,-17.23 -22.44,-25.2 -3.86,-3.91 -7.84,-7.7 -11.61,-11.73 -4.03,-4.33 -7.87,-8.9 -11.8,-13.3 -7.67,-8.62 -16.52,-16.09 -24.63,-24.26 -5.65,-5.69 -11.15,-11.6 -17.27,-16.79 -3.6,-2.46 -7.57,-4.18 -11.23,-6.55 -4.26,-2.77 -7.95,-6.26 -11.8,-9.53 -0.03,-0.02 -0.06,-0.03 -0.09,-0.05 -0.3,1.13 -0.62,2.25 -0.89,3.38 -0.99,4.21 -2.18,8.37 -3.48,12.48 -3.04,9.68 -7.18,18.93 -11.54,28.07 -2.16,4.53 -5.03,8.71 -7.86,12.83 -3.39,4.85 -7.05,9.46 -10.84,13.99 -3.13,3.73 -6.49,7.24 -9.92,10.66 2.5,0.64 5.01,1.27 7.5,1.92 4.82,1.2 9.59,2.47 14.46,3.37 4,0.48 7.99,0.86 11.97,1.74 2.41,0.54 4.83,1.22 7.25,1.79 6.1,1.44 12.2,2.57 18.41,3.48 5.6,0.85 11.18,2.05 16.71,3.29 5.53,1.26 11.08,2.3 16.66,3.25 6.91,0.79 13.93,1.27 20.75,2.6 6.84,1.33 13.58,2.97 20.42,4.13 2.68,0.35 5.36,0.69 8.05,1.05 2.84,0.41 5.6,1.2 8.37,1.95 z m -30.37,14.2 c -5.67,-1.21 -11.28,-2.71 -17.05,-3.62 -5.73,-0.75 -11.46,-1.49 -17.14,-2.51 -6.98,-1.25 -13.9,-2.89 -20.83,-4.46 -6.15,-1.4 -12.45,-1.97 -18.68,-3.01 -7.28,-1.2 -14.37,-3.23 -21.61,-4.5 -3.28,-0.32 -6.56,-0.49 -9.84,-1.13 -3.37,-0.68 -6.68,-1.45 -10.02,-2.24 -7.27,-1.75 -14.52,-3.64 -21.77,-5.48 -0.19,-0.05 -0.35,-0.14 -0.53,-0.2 -1.48,0.82 -3.07,1.4 -4.7,1.4 -2.31,0 -4.59,-0.85 -6.4,-2.67 -3.46,-3.44 -3.73,-9.71 0,-13.13 3.07,-2.78 6.11,-5.63 9.14,-8.46 2.17,-2.05 4.46,-4.02 6.51,-6.23 2.24,-2.44 4.45,-4.91 6.7,-7.35 1.83,-1.98 3.41,-4.25 5.06,-6.41 -0.26,0.33 -0.52,0.67 -0.78,1 3.74,-5.54 7.13,-11.13 9.99,-17.18 1.61,-4.23 2.84,-8.58 4.21,-12.9 1.47,-4.79 2.79,-9.49 3.71,-14.42 0.89,-4.71 1.59,-9.5 2.36,-14.23 1.15,-7.32 1.67,-16.54 9.15,-20.47 0.39,-0.21 0.79,-0.34 1.19,-0.52 0.28,-0.35 0.47,-0.73 0.82,-1.08 2.14,-2.14 6.1,-4.01 9.27,-3.71 1.69,0.18 3.43,0.2 5.05,0.77 1.69,0.6 3.32,1.35 4.96,2.05 3.74,1.59 6.95,3.83 10.14,6.35 4.25,3.36 7.72,7.56 11.79,11.12 1.68,1.15 3.41,2.22 5.12,3.37 2.86,1.97 5.48,4.21 7.99,6.63 3.81,3.69 7.25,7.77 10.86,11.65 4.31,4.61 8.67,9.17 13.18,13.61 3.76,3.73 7.77,7.2 11.43,11.05 8.02,8.5 15.5,17.57 23.74,25.86 7.72,7.77 15.42,15.74 22.24,24.31 4.78,5.98 9.39,12.1 14.22,18.03 2.39,2.97 4.83,5.86 7.23,8.8 2.61,3.21 5.8,6.77 5.78,11.2 0,4.29 -2.87,7.87 -6.93,9.12 -0.83,0.25 -1.67,0.34 -2.5,0.34 -1.79,0 -3.58,-0.44 -5.34,-0.74 -1.72,-0.28 -3.44,-0.62 -5.16,-0.9 -5.77,-0.72 -11.56,-1.37 -17.31,-2.39 -6.02,-1.06 -11.9,-2.81 -17.92,-3.91 -5.81,-0.78 -11.57,-1.61 -17.33,-2.81" style="fill:#282727;fill-opacity:1;fill-rule:nonzero;stroke:none" id="path634" transform="matrix(0.133333, 0, 0, -0.133333, 0, 1122.52002)"/>
  <path d="m 2825.7,6125.25 c -0.9,0.28 -1.79,0.56 -2.68,0.85 -3.53,1.2 -6.95,2.84 -10.46,4.16 -6.72,2.5 -13.73,2.99 -20.78,3.77 -4.57,0.86 -8.9,2.31 -13.26,4.01 -5.29,2.04 -10.72,3.56 -16.22,4.87 -12.21,2.97 -24.48,5.58 -36.64,8.67 -20.34,5.21 -40.61,10.66 -61.11,15.17 2.91,1.07 5.81,2.15 8.55,3.7 1.65,0.95 3.16,2.17 4.73,3.26 1.55,1.12 3.21,2.07 4.93,2.94 3.84,1.92 7.73,3.76 11.49,5.88 4.03,2.27 8.02,4.69 12.08,6.95 8.76,4.91 17.85,9.17 26.47,14.4 4.34,2.61 8.5,5.58 12.71,8.42 3.71,2.49 7.67,4.58 11.45,6.95 7.7,4.78 15.32,9.64 22.67,14.94 8.04,5.82 16,11.77 23.86,17.83 4.45,3.44 8.86,6.95 13.29,10.44 0.09,-0.18 0.19,-0.36 0.28,-0.54 1.25,-2.43 2.28,-5.03 3.34,-7.6 2.32,-6.46 4.55,-12.91 6.45,-19.52 1.73,-5.99 2.72,-12.19 3.66,-18.34 0.94,-7.57 1.51,-15.2 2.17,-22.81 0.67,-7.95 1.22,-15.92 1.31,-23.89 0.13,-8.56 0.28,-17.13 0.25,-25.7 -0.02,-6.75 -0.16,-13.52 -0.72,-20.26 -0.81,0.4 -1.61,0.8 -2.5,1.06 -1.74,0.48 -3.55,0.6 -5.32,0.39 z m 27.33,7.7 c -0.15,10.36 -0.2,20.72 -0.25,31.11 -0.06,9.86 0.14,19.72 -0.63,29.59 -0.84,10.81 -2.19,21.59 -4.05,32.23 -1.63,9.16 -3.89,18.13 -6.93,26.9 -1.05,3.06 -2.04,6.13 -3.31,9.09 -1.12,2.64 -2.25,5.28 -3.37,7.89 -0.9,2.14 -1.96,4.22 -3.02,6.3 0.16,0.67 0.27,1.34 0.27,1.94 0,2.12 -0.85,4.14 -2.35,5.63 -0.86,0.86 -1.91,1.43 -3.04,1.82 -1.76,2.67 -4.8,4.14 -7.91,4.14 -1.69,0 -3.37,-0.41 -4.84,-1.27 -4.08,-2.4 -5.41,-7.15 -4.04,-11.4 -2.29,-1.79 -4.57,-3.59 -6.86,-5.38 -15.86,-11.84 -31.91,-23.39 -48.73,-33.87 -3.85,-2.41 -7.54,-5.1 -11.38,-7.54 -4.21,-2.67 -8.26,-5.53 -12.35,-8.37 -8.12,-5.65 -16.51,-10.76 -25.41,-15.07 -7.72,-3.73 -15.06,-8.27 -22.92,-11.74 -3.52,-1.39 -7.06,-2.67 -10.5,-4.27 -2.72,-1.27 -5.22,-2.95 -7.9,-4.3 -2.39,-0.83 -4.83,-1.31 -7.29,-1.96 -3.31,-0.89 -6.32,-2.5 -9.38,-4.01 -1.3,-0.47 -2.61,-0.9 -3.9,-1.39 -1.52,-0.6 -3.04,-1.3 -4.54,-1.94 -1.66,-0.72 -2.81,-1.67 -4.28,-2.82 -2.06,-1.61 -3.09,-4.93 -3.09,-7.42 0,-3.34 1.84,-7.07 4.82,-8.78 1.07,-2.43 3.05,-4.42 5.72,-4.93 11.16,-2.12 22.27,-4.48 33.25,-7.37 11.34,-2.97 22.62,-6.08 33.88,-9.35 9.64,-2.81 19.18,-5.9 28.89,-8.46 9.86,-2.61 19.74,-5.24 29.21,-8.96 5.65,-2.68 11,-5.97 16.99,-7.85 5.46,-1.74 11.15,-2.32 16.56,-4.18 3.67,-1.7 7.24,-3.61 10.84,-5.44 1.87,-0.92 3.79,-1.77 5.61,-2.79 4.7,-2.67 9.39,-4.53 14.94,-2.94 0.4,0.11 0.77,0.3 1.16,0.45 0.32,-0.27 0.64,-0.54 1,-0.8 1.96,-1.45 4.33,-2.17 6.8,-1.99 1.94,0.02 3.78,0.49 5.45,1.49 2.52,1.45 4.14,3.74 4.98,6.47 0.95,2.97 0.85,6.28 1.1,9.37 0.2,2.49 0.49,4.96 0.69,7.45 0.4,4.88 0.16,9.81 0.11,14.72" style="fill:#282727;fill-opacity:1;fill-rule:nonzero;stroke:none" id="path636" transform="matrix(0.133333, 0, 0, -0.133333, 0, 1122.52002)"/>
  <path d="m 2804.01,6252.42 c -0.17,-0.14 -0.35,-0.27 -0.52,-0.4 -0.38,-0.29 -0.75,-0.58 -1.12,-0.87 0.55,0.43 1.1,0.85 1.64,1.27" style="fill:#282727;fill-opacity:1;fill-rule:nonzero;stroke:none" id="path638" transform="matrix(0.133333, 0, 0, -0.133333, 0, 1122.52002)"/>
  <path d="m 2794.43,6010.4 c -3.58,-1.01 -7.15,-1.7 -10.82,-2.23 -5.35,-0.69 -10.67,-1.41 -15.95,-2.35 -4.88,-0.88 -9.72,-1.94 -14.61,-2.8 -8.39,-0.94 -16.72,-2.22 -25.05,-3.47 -6.6,-0.64 -13.25,-0.8 -19.87,-1.3 -6.43,-0.47 -12.8,-1.14 -19.2,-1.79 -6.65,-0.68 -13.28,-1.5 -19.93,-2.17 -8.08,-0.8 -16.37,-1.52 -24.39,-3.2 1.08,3.01 2.09,6.04 3.2,9.05 0.67,1.79 1.37,3.56 2.02,5.38 0.77,2.11 1.12,4.45 1.54,6.67 0.9,4.88 1.64,9.76 2.52,14.64 0.87,5.06 1.79,10.09 2.69,15.12 0.42,2.37 0.77,4.74 1.14,7.1 0.48,3.26 1.15,6.58 1.44,9.86 0.41,4.81 1.1,9.67 1.15,14.48 0.06,3.93 0.09,7.86 0.13,11.8 0.27,-0.21 0.45,-0.5 0.76,-0.67 10.38,-5.78 20.77,-11.53 31.15,-17.28 7.98,-4.41 16.12,-8.53 24.46,-12.21 17.36,-7.62 34.85,-14.92 52.04,-22.92 4.85,-2.24 9.66,-4.58 14.39,-7.02 4.66,-2.42 9.52,-4.46 14.2,-6.85 2.92,-1.49 5.7,-3.15 8.45,-4.89 -3.84,-0.88 -7.68,-1.88 -11.46,-2.95 z m 45.69,4.37 c -0.81,1.25 -1.84,2.35 -3.1,3.16 -2.12,1.37 -4.38,1.89 -6.66,1.89 -1.36,0 -2.72,-0.23 -4.08,-0.52 -1.69,0.72 -3.37,1.47 -5.07,2.16 -3.43,1.6 -6.65,3.58 -10,5.35 -4.06,2.14 -8.29,3.96 -12.45,5.85 -4.21,1.92 -8.35,3.81 -12.41,6.03 -3.83,2.07 -7.74,4.01 -11.65,5.95 -8.69,4.34 -17.46,8.52 -26.23,12.65 -8.79,4.14 -17.73,7.98 -26.6,11.96 -7.87,3.54 -15.54,7.62 -23.07,11.81 -9.96,5.55 -19.92,11.08 -29.91,16.63 -1.2,0.67 -2.52,1 -3.82,1 -1.66,0 -3.27,-0.59 -4.61,-1.59 -0.48,5.18 -4.92,9.36 -10.21,9.36 -5.61,0 -10.26,-4.68 -10.28,-10.28 -0.03,-7.6 -0.16,-15.19 -0.25,-22.79 -0.05,-4.54 -0.71,-9.11 -1.12,-13.64 -1.37,-8.43 -2.87,-16.8 -4.59,-25.17 -0.8,-3.96 -1.69,-7.92 -2.56,-11.86 -0.82,-3.54 -1.63,-7.08 -2.86,-10.5 -1.87,-4.13 -3.74,-8.25 -5.69,-12.33 -1.07,-2.27 -2.22,-4.54 -3.36,-6.78 -2.44,-4.68 -5.06,-9.66 -3.01,-15.09 0.97,-2.61 2.25,-4.71 4.57,-6.22 0.24,-0.87 0.55,-1.72 1.02,-2.51 3.11,-5.34 9.94,-6.96 15.27,-4.02 0.44,0.26 0.88,0.5 1.32,0.73 2.84,1.11 5.69,2.08 8.64,2.89 3.2,0.85 6.47,1.35 9.74,1.8 7.04,0.91 14.09,1.48 21.12,2.28 7.1,0.82 14.2,1.69 21.33,2.29 7.07,0.6 14.12,1.15 21.22,1.4 7.17,0.21 14.31,1.41 21.42,2.42 6.6,0.8 13.35,1.23 19.8,2.66 6.69,1.46 13.37,2.83 20.12,3.84 4.17,0.52 8.37,0.97 12.48,1.84 3.84,0.82 7.57,2.09 11.33,3.11 4.09,1.12 8.12,2.09 12.28,2.87 2.98,0.56 5.81,1.81 8.6,3.13 1.91,-1.58 4.3,-2.57 6.92,-2.52 1.16,0 2.36,0.19 3.51,0.44 3.71,0.83 6.82,4.19 7.77,7.78 0.02,0.04 0.02,0.09 0.05,0.14 1.24,4.75 -0.73,9.82 -4.92,12.4" style="fill:#282727;fill-opacity:1;fill-rule:nonzero;stroke:none" id="path640" transform="matrix(0.133333, 0, 0, -0.133333, 0, 1122.52002)"/>
  <path d="m 2789.36,5872.66 c -3.5,-7.58 -7.29,-15 -11.18,-22.37 -4.18,-7.99 -9.02,-15.61 -12.9,-23.76 -1.79,-3.71 -3.46,-7.5 -5.35,-11.18 -2.17,-4.24 -4.59,-8.22 -7.28,-12.16 -2.26,-3.31 -4.6,-6.57 -6.72,-9.98 -1.93,-3.11 -3.61,-6.38 -5.66,-9.43 -2.12,-2.41 -4.52,-4.54 -6.57,-7.01 -0.28,-0.34 -0.55,-0.67 -0.81,-1 -0.49,0.77 -0.99,1.54 -1.48,2.31 -3.27,5.06 -6.68,10.04 -10.12,15 -4.45,6.47 -9.09,12.78 -13.95,18.98 -3.64,4.63 -7.36,9.23 -11.03,13.84 -6.56,8.87 -13.08,17.72 -20.35,26.01 -3.21,3.69 -6.82,6.98 -10.38,10.32 -3.47,3.26 -6.53,6.97 -9.74,10.45 -3.09,3.37 -6.41,6.56 -9.49,9.92 -2.87,3.11 -5.95,5.95 -8.94,8.94 -3.37,3.34 -6.45,6.97 -9.74,10.39 -0.26,0.26 -0.51,0.53 -0.77,0.8 3.12,0.05 6.23,0.13 9.36,0.22 11.06,0.3 22.09,0.39 33.15,0.89 5.23,0.25 10.49,0.92 15.69,1.47 5.31,0.58 10.64,1.08 15.97,1.45 10.99,0.79 21.99,1.07 32.98,1.99 14.96,1.29 29.93,2.17 44.95,2.46 6.69,0.15 13.43,0.18 20.1,-0.2 -2.31,-12.99 -5.16,-25.94 -9.74,-38.35 z m 24.94,55.09 c -0.03,-0.02 -0.06,-0.03 -0.09,-0.05 -0.49,-0.15 -0.97,-0.29 -1.47,-0.4 -3.87,-0.27 -7.75,0.01 -11.64,0.26 -5.01,0.27 -10.04,0.44 -15.05,0.69 -10.26,0.47 -20.55,0.78 -30.83,1.07 -4.14,0.12 -8.3,0.2 -12.45,0.2 -1.1,0 -2.2,-0.01 -3.29,-0.02 -5.33,-0.05 -10.72,-0.33 -16.07,-0.18 -11.31,0.3 -22.57,0.15 -33.87,-0.64 -6.9,-0.5 -13.75,-1.4 -20.65,-1.75 -7.85,-0.4 -15.67,-0.65 -23.51,-0.94 -7.28,-0.25 -14.53,-0.83 -21.77,-1.07 -3.57,-0.13 -7.13,-0.18 -10.69,-0.2 -2.79,-0.03 -5.83,-0.05 -8.49,-0.93 -2.87,-0.92 -4.86,-2.49 -6.63,-4.95 -1.49,-2.09 -2.09,-5.56 -1.14,-8.02 0.47,-1.6 1.27,-3.02 2.46,-4.19 1.21,-1.23 2.82,-2.14 4.53,-2.55 0.76,-0.46 1.48,-1 2.18,-1.53 1.41,-1.07 2.83,-2.13 4.13,-3.29 1.69,-1.52 3.16,-3.27 4.73,-4.88 1.87,-1.92 3.88,-3.69 5.73,-5.61 1.77,-1.89 3.44,-3.91 5.18,-5.82 3.29,-3.57 6.72,-6.96 9.89,-10.64 3.07,-3.62 6.21,-7.19 9.16,-10.91 2.32,-3.02 4.61,-6.06 7.03,-9.01 2.3,-2.86 4.72,-5.62 7.01,-8.47 5.6,-7.6 10.5,-15.66 15.46,-23.69 2.78,-4.51 5.55,-9.04 8.56,-13.4 3.16,-4.61 6.48,-9.14 9.44,-13.88 5.61,-8.89 11.01,-17.95 16.49,-26.92 2.74,-4.46 5.43,-8.94 8.07,-13.45 0.55,-0.99 1.17,-1.94 1.77,-2.89 2.27,-3.49 4.93,-6.1 9.04,-7.27 4.34,-1.22 9.81,0.1 12.83,3.58 1.84,2.15 2.41,3.14 3.36,5.83 0.12,0.35 0.24,0.7 0.35,1.06 1.49,2.93 3.4,5.76 5.32,8.41 3.09,3.69 6.57,6.93 9.42,10.86 2.69,3.71 4.69,7.87 7.23,11.68 2.86,4.28 6.05,8.34 9.04,12.56 2.82,3.98 5.13,8.38 7.27,12.77 2.39,4.91 4.76,9.84 7.45,14.57 2.39,4.18 4.88,8.32 7.15,12.58 5.4,10.19 11.18,20.45 15.04,31.36 2.07,5.78 3.62,11.81 4.96,17.78 1.69,7.65 3.24,15.27 4.53,22.99 0.11,0.63 0.2,1.25 0.25,1.85 0.76,0.25 1.48,0.59 2.17,1.07 4.25,2.91 6.15,8.27 3.41,12.97 -2.52,4.31 -8.67,6.25 -13,3.41" style="fill:#282727;fill-opacity:1;fill-rule:nonzero;stroke:none" id="path642" transform="matrix(0.133333, 0, 0, -0.133333, 0, 1122.52002)"/>
  <path d="m 2624.61,5706.54 c -4.7,3.58 -9.59,6.9 -14.37,10.41 -9.99,7.29 -20.15,14.12 -30.64,20.67 -5.25,3.29 -10.78,6.35 -16.24,9.29 -5.87,3.14 -11.75,6.23 -17.75,9.09 -11.17,5.32 -22.25,10.77 -33.24,16.43 2.03,1.27 4.08,2.52 6.19,3.72 4.58,2.64 8.62,6.2 12.58,9.69 3.61,3.14 7.32,6.15 10.93,9.32 8.37,7.27 15.07,16.44 21.22,25.58 3.06,4.53 6.03,9.11 8.94,13.75 1.01,1.61 1.98,3.24 2.93,4.89 0.18,-0.31 0.36,-0.62 0.54,-0.93 2.26,-4.09 4.23,-8.37 6.3,-12.56 2.1,-4.3 4.2,-8.57 6.09,-12.99 1.66,-3.96 3.36,-7.9 5.05,-11.85 8.46,-20.26 15.38,-41.11 23.25,-61.59 4.29,-11.18 8.65,-22.34 12.93,-33.52 0.56,-1.45 1.11,-2.9 1.66,-4.36 -2.11,1.67 -4.23,3.32 -6.37,4.96 z m 34.23,-9.4 c -4.49,12.11 -9.02,24.19 -13.9,36.12 -5.11,12.46 -9.99,24.96 -14.8,37.53 -4.48,11.64 -9.44,23.12 -14.57,34.48 -4.46,9.89 -9.54,19.55 -14.57,29.16 -2.67,5.06 -5.25,10.19 -8.05,15.2 -2.25,4.03 -4.97,7.8 -6.96,11.99 -0.58,1.44 -1.14,2.86 -1.75,4.27 -0.77,1.84 -1.77,3.12 -3.06,4.73 -1.66,2.13 -4.42,3.08 -7.17,3.08 -2.02,0 -4.03,-0.5 -5.61,-1.43 -1.57,-0.92 -2.84,-2.19 -3.79,-3.76 -0.86,-1.49 -1.51,-3.57 -1.52,-5.52 -0.34,-0.44 -0.65,-0.91 -0.92,-1.41 -3.79,-7.02 -7.72,-13.9 -12,-20.62 -2.93,-4.6 -6.16,-9 -9.45,-13.34 -4.01,-4.72 -8.21,-9.31 -12.94,-13.33 -4.44,-3.15 -8.96,-6.19 -13.41,-9.3 -4.4,-3.06 -8.96,-5.6 -13.67,-8.12 -2.47,-1.31 -4.78,-2.84 -7.1,-4.36 -2.41,-1.54 -4.98,-2.61 -7.57,-3.81 -8.05,-3.71 -16.64,-10.23 -14.1,-20.4 0.35,-1.4 0.93,-2.67 1.67,-3.78 2.09,-3.65 6.45,-5.79 10.78,-6.11 4.74,-2.35 9.3,-5.06 13.95,-7.57 6.21,-3.33 12.46,-6.52 18.78,-9.64 5.46,-2.71 11.11,-5 16.69,-7.39 5.83,-2.52 11.56,-5.21 17.26,-7.95 21.13,-10.06 41.48,-21.75 60.38,-35.56 4.09,-3.23 8.1,-6.51 12,-9.97 4.63,-4.06 9.8,-7.28 14.73,-10.93 2.5,-2.1 4.95,-4.52 7.76,-6.08 3.04,-1.64 7.23,-2.52 10.54,-1.2 3.01,1.2 5.43,2.57 7.12,5.49 1.52,2.56 1.97,5.57 1.65,8.51 -0.77,7.25 -3.89,14.23 -6.4,21.02" style="fill:#282727;fill-opacity:1;fill-rule:nonzero;stroke:none" id="path644" transform="matrix(0.133333, 0, 0, -0.133333, 0, 1122.52002)"/>
  <path d="m 2560.82,5603.45 c -3.74,-3.02 -7.52,-5.96 -11.21,-9.02 -3.11,-2.58 -5.95,-5.44 -8.99,-8.09 -1.99,-1.38 -4.13,-2.52 -6.27,-3.62 -2.77,-1.42 -5.41,-2.99 -7.97,-4.71 -2.62,-1.77 -5.21,-3.56 -7.9,-5.2 -1.99,-1.23 -4.1,-2.26 -6.22,-3.21 -2.78,-1.11 -5.56,-2.22 -8.25,-3.49 -2.32,-1.1 -4.56,-2.32 -6.8,-3.51 -4.22,-2.26 -8.33,-4.62 -12.64,-6.64 -2.94,-1.15 -5.91,-2.14 -8.93,-3.1 -3.76,-1.21 -7.38,-2.78 -11.01,-4.34 -2.83,-1.12 -5.7,-2.09 -8.57,-3.16 -2.78,-1.04 -5.51,-2.23 -8.23,-3.42 0.05,0.95 0.1,1.91 0.14,2.87 0.2,4.88 0.3,9.79 0.37,14.67 0.18,10.11 0.35,20.23 0.05,30.34 -0.27,10.26 -0.42,20.55 -1.19,30.78 -0.81,10.74 -2.44,21.36 -4.02,32 -1.6,12.52 -3.1,25.03 -5.25,37.47 -1.44,8.36 -3.02,16.67 -4.6,24.99 1.25,-1.17 2.5,-2.34 3.75,-3.49 3.79,-3.51 7.75,-6.88 11.64,-10.29 8.09,-7.07 16.18,-14.17 24.36,-21.17 4.35,-3.76 8.81,-7.45 13.69,-10.56 4.51,-2.84 8.97,-5.78 13.38,-8.79 8.77,-6.06 17.23,-12.53 26.03,-18.56 10.06,-6.9 20.05,-13.9 29.74,-21.35 -0.09,0.07 -0.17,0.13 -0.26,0.2 1.68,-1.3 3.36,-2.6 5.04,-3.91 -0.08,0.07 -0.17,0.13 -0.25,0.2 3.01,-2.34 6.05,-4.65 9.1,-6.95 -2.91,-2.31 -5.82,-4.62 -8.73,-6.94 z m -20.74,-17.58 c -0.34,-0.26 -0.69,-0.52 -1.03,-0.78 0.36,0.27 0.72,0.55 1.08,0.83 -0.02,-0.02 -0.03,-0.03 -0.05,-0.05 z m 57.36,38.89 c -2.88,0.8 -6.62,0.74 -9.46,-0.64 -1.52,1.1 -3.03,2.2 -4.57,3.24 -4.29,2.84 -8.44,5.84 -12.55,8.95 -6.37,5.01 -12.62,10.17 -19,15.15 -7.28,5.74 -14.9,10.91 -22.6,16.07 -7.27,4.88 -14.69,9.54 -22.09,14.2 -3.84,2.41 -7.75,4.7 -11.65,7.02 -2.9,1.71 -5.6,3.76 -8.28,5.8 -10.73,8.33 -21.17,17.03 -31.85,25.43 -5.56,4.39 -11.11,8.8 -16.64,13.26 -3.34,2.66 -7.05,6.15 -11.55,6.35 -0.14,0 -0.29,0.01 -0.43,0.01 -3.71,0 -7.36,-2.22 -8.39,-5.96 -0.7,-2.49 0.12,-4.56 0.99,-6.83 0.38,-1.03 0.58,-2.13 0.74,-3.23 0.84,-9.86 0.5,-19.8 1.21,-29.7 0.37,-5.28 0.75,-10.53 0.87,-15.84 0.15,-5.11 -0.1,-10.21 -0.05,-15.32 0.1,-10.98 0.92,-21.89 1.4,-32.85 0.41,-10.44 0.14,-20.92 0.02,-31.39 -0.13,-11.13 -0.18,-22.26 -0.3,-33.39 -0.1,-10.84 -0.4,-21.67 -0.53,-32.48 -0.02,-3.22 0.81,-6.83 2.3,-9.69 1.82,-3.46 4.73,-5.51 8.42,-6.75 3.91,-1.32 8.24,0.49 12.03,1.52 2.43,0.67 4.9,1.14 7.32,1.79 2.19,0.57 4.31,1.39 6.45,2.07 4.56,1.44 9.29,2.29 13.85,3.76 2.31,0.75 4.63,1.57 6.97,2.19 2.59,0.67 5.21,1.15 7.8,1.84 10.38,2.74 20.03,7.8 29.79,12.24 3.61,1.34 7.23,2.63 10.76,4.23 3.21,1.47 6.25,3.16 9.24,5.05 3.18,2.04 6.32,4.21 9.71,5.93 4.09,2.12 7.85,4.54 11.38,7.5 2.67,2.27 5.06,4.81 7.58,7.22 2.66,2.57 5.48,4.93 8.34,7.25 5.66,4.57 11.23,9.2 16.9,13.78 0.69,0.51 1.38,1.02 2.07,1.54 4.42,-0.18 9.09,1.97 11.12,5.93 1.01,1.94 1.57,3.4 1.64,5.53 0.3,0.65 0.57,1.34 0.77,2.09 1,3.61 0.48,7.52 -1.41,10.73 -1.82,3.12 -4.84,5.46 -8.32,6.4" style="fill:#282727;fill-opacity:1;fill-rule:nonzero;stroke:none" id="path646" transform="matrix(0.133333, 0, 0, -0.133333, 0, 1122.52002)"/>
  <path d="m 2359.56,5664.62 c -1.72,-10.27 -4.06,-20.43 -6.1,-30.61 -2.12,-10.67 -4.16,-21.35 -6.18,-32.03 -1.39,-7.48 -2.76,-14.95 -3.78,-22.5 -1.05,-7.62 -2.45,-15.14 -4.04,-22.66 -1.48,-7.01 -3.25,-13.93 -4.89,-20.88 -1.91,3.41 -3.83,6.81 -5.77,10.19 -5.46,9.59 -10.81,19.25 -16.27,28.84 -2.49,4.41 -4.93,8.97 -7.74,13.18 -3.04,4.49 -6.25,8.84 -9.09,13.45 -2.94,4.81 -5.71,9.69 -8.4,14.65 -2.44,4.46 -5.02,8.87 -7.51,13.32 -4.17,7.45 -7.5,15.32 -11.37,22.89 -3.16,6.19 -6.36,12.27 -9.2,18.61 -0.99,2.45 -1.91,4.93 -2.8,7.42 6.99,0.22 13.99,0.46 20.97,0.75 10.78,0.42 21.63,0.7 32.34,2.16 3.77,0.49 7.52,1 11.28,1.7 3.23,0.59 6.47,1.32 9.73,1.99 7.13,1.45 14.23,2.77 21.08,5.26 4.37,1.59 8.72,3.32 13.02,5.13 -2.11,-10.22 -3.57,-20.57 -5.28,-30.86 z m 28.55,61.35 c -1.44,1.02 -3.04,1.44 -4.66,1.44 -1.86,0 -3.73,-0.55 -5.41,-1.37 -1.04,-0.51 -1.89,-1.19 -2.64,-1.97 -1.81,-0.93 -3.68,-1.72 -5.4,-2.74 -2.77,-1.6 -5.38,-3.39 -8.25,-4.78 -8.5,-3.41 -17.35,-6.15 -26.3,-8.02 -5.3,-1.15 -10.71,-2.02 -16.04,-3.09 -4.34,-0.89 -8.68,-1.59 -13.06,-2.22 -21.04,-1.97 -42.25,-2.22 -63.38,-2.94 -6.05,-0.22 -11.11,-4.9 -11.11,-11.13 0,-3.32 1.61,-6.49 4.1,-8.59 0.17,-0.65 0.35,-1.29 0.51,-1.92 0.67,-2.64 1.15,-5.33 1.65,-8 0.77,-4.18 1.68,-8.24 2.96,-12.28 1.72,-5.52 4.23,-10.75 6.57,-16.01 2.12,-4.76 4.09,-9.59 6.23,-14.35 2.24,-4.95 4.63,-9.78 7.4,-14.47 2.61,-4.43 4.93,-9.01 7.45,-13.5 2.63,-4.75 5.25,-9.56 8.24,-14.12 2.91,-4.49 5.93,-8.87 8.59,-13.52 8.64,-15.05 16.99,-30.24 25.63,-45.29 4.03,-6.97 7.85,-14.07 11.91,-21.04 2.61,-4.46 6.15,-9.12 11.38,-10.56 1.17,-0.28 2.37,-0.43 3.56,-0.43 3.37,-0.1 5.91,1.45 8.37,3.46 2.74,2.24 3.44,5.56 3.81,8.85 0.22,1.89 -0.15,3.83 -0.23,5.72 -0.07,1.36 0.02,2.68 0.15,4.01 1.72,10.31 5.12,20.18 7.25,30.37 1.1,5.16 2.4,10.26 3.37,15.44 1.05,5.44 1.58,10.97 2.26,16.46 1.5,9.91 3.7,19.77 5.88,29.57 2.39,10.88 4.86,21.74 7.3,32.6 1.07,4.81 2.22,9.62 3.09,14.45 0.94,5.4 1.74,10.81 2.57,16.24 1.59,10.66 2.93,21.42 5.25,31.98 0.36,1.62 0.8,3.18 1.31,4.73 1.84,1.62 3.33,3.57 4.12,6.16 1.32,4.38 -0.95,8.39 -4.43,10.86" style="fill:#282727;fill-opacity:1;fill-rule:nonzero;stroke:none" id="path648" transform="matrix(0.133333, 0, 0, -0.133333, 0, 1122.52002)"/>
  <path d="m 2309.82,5681.4 c -0.03,0 -0.06,0 -0.09,0 -0.19,-0.03 -0.38,-0.07 -0.57,-0.09 0.22,0.03 0.44,0.06 0.66,0.09" style="fill:#282727;fill-opacity:1;fill-rule:nonzero;stroke:none" id="path650" transform="matrix(0.133333, 0, 0, -0.133333, 0, 1122.52002)"/>
  <path d="m 2200.11,5506 c -4.11,-0.12 -8.07,0.22 -12.13,0.72 -4.08,0.5 -8.19,0.7 -12.31,0.85 -8,0.35 -15.95,0.71 -23.92,1.64 -15.18,2.33 -30.32,5.12 -45.19,8.92 -13.35,3.41 -26.43,7.89 -39.49,12.32 0.28,0.48 0.53,0.97 0.84,1.43 1.23,1.45 2.53,2.84 3.76,4.29 2.04,2.39 3.87,4.95 5.73,7.47 1.84,2.26 3.86,4.26 6.01,6.25 2.54,2.37 4.73,4.99 6.72,7.82 3.7,5.19 7.21,10.5 11,15.62 4.05,4.92 8.31,9.66 12.22,14.71 4.81,6.25 9.45,12.69 14.07,19.09 4.86,6.73 9.64,13.55 13.87,20.65 4.63,7.79 9.12,15.64 13.7,23.46 3.68,6.26 7.5,12.45 11.26,18.68 2.24,-7.35 4.51,-14.69 6.93,-21.98 3.69,-11.08 7.6,-22.07 11.61,-33.02 3.98,-10.91 9.54,-21.25 14.62,-31.66 4.5,-9.27 9.04,-18.53 13.21,-27.96 2.04,-5.17 3.77,-10.39 5.32,-15.71 1.52,-5.18 3.04,-10.36 4.16,-15.64 0.57,-2.71 0.92,-5.45 1.49,-8.19 0.51,-2.43 1.07,-4.86 1.61,-7.29 -0.41,-0.03 -0.81,-0.01 -1.21,-0.05 -7.94,-0.82 -15.91,-2.2 -23.88,-2.42 z m 50.36,0.34 c -0.52,1.18 -1.02,2.37 -1.54,3.55 -3.35,8.17 -6.3,16.45 -9.17,24.77 -1.64,4.81 -3.19,9.66 -4.91,14.45 -1.91,5.41 -4.05,10.73 -6.28,16.01 -0.71,1.7 -1.44,3.38 -2.16,5.08 0.32,-0.74 0.65,-1.49 0.97,-2.24 -6.47,15.34 -13.13,30.59 -19.77,45.86 -9.67,25.29 -17.71,51.25 -25.39,77.18 -1.37,4.67 -5.66,7.86 -10.35,7.86 -0.91,0 -1.85,-0.13 -2.77,-0.38 -4.65,-1.28 -7.88,-5.76 -7.84,-10.46 -4.31,-7.34 -8.66,-14.67 -13.02,-21.96 -4.46,-7.42 -8.69,-14.97 -12.9,-22.52 -4.13,-7.39 -8.49,-14.62 -13.13,-21.72 -4.43,-6.74 -9.11,-13.34 -13.82,-19.89 -1.94,-2.68 -3.83,-5.37 -5.8,-8.03 -3.51,-4.34 -7.26,-8.49 -10.84,-12.77 -4.21,-5.06 -7.97,-10.54 -11.88,-15.82 0.35,0.43 0.67,0.85 1.02,1.3 -0.77,-1 -1.54,-2 -2.32,-2.99 0.33,0.42 0.68,0.87 1,1.29 -1.37,-1.66 -2.76,-3.21 -4.36,-4.68 -1.67,-1.52 -3.54,-2.86 -5.2,-4.41 -3.39,-3.12 -6.18,-6.81 -9.67,-9.83 -3.03,-2.28 -6.12,-4.47 -8.87,-7.13 -1.91,-1.87 -3.78,-3.99 -5.32,-6.18 -1.03,-1.42 -1.74,-2.94 -2.23,-4.53 -0.36,-0.67 -0.78,-1.32 -0.98,-2.05 -1.67,-6.13 2.05,-11.88 7.85,-13.8 22.04,-7.29 43.96,-15.29 66.68,-20.27 10.76,-2.37 21.57,-4.66 32.45,-6.45 10.66,-1.76 21.5,-2.16 32.22,-3.45 5.98,-0.92 11.89,-1.97 17.97,-2.13 5.3,-0.15 10.69,0.27 16.01,0.42 5.06,0.15 10.09,0.3 15.15,0.05 2.67,-0.1 5.33,-0.15 7.99,-0.07 6.28,0.17 12.33,1.99 15.65,7.79 2.86,5.04 2.46,12.41 -2.12,16.42 -0.77,0.67 -1.54,1.22 -2.32,1.73" style="fill:#282727;fill-opacity:1;fill-rule:nonzero;stroke:none" id="path652" transform="matrix(0.133333, 0, 0, -0.133333, 0, 1122.52002)"/>
  <path d="m 2113.64,5588.4 c -0.09,-0.13 -0.2,-0.24 -0.29,-0.36 -0.23,-0.29 -0.43,-0.6 -0.65,-0.88 0.32,0.42 0.62,0.82 0.94,1.24" style="fill:#282727;fill-opacity:1;fill-rule:nonzero;stroke:none" id="path654" transform="matrix(0.133333, 0, 0, -0.133333, 0, 1122.52002)"/>
  <path d="m 2048.65,5667.1 c 0.27,0.36 0.57,0.69 0.85,1.05 0.08,0.1 0.13,0.2 0.21,0.3 -0.35,-0.46 -0.7,-0.91 -1.06,-1.35" style="fill:#282727;fill-opacity:1;fill-rule:nonzero;stroke:none" id="path656" transform="matrix(0.133333, 0, 0, -0.133333, 0, 1122.52002)"/>
  <path d="m 2023.56,5635.07 c -4.65,-4.95 -9.24,-10.01 -14.09,-14.76 -4.71,-4.64 -9.42,-9.3 -14.13,-13.93 -4.23,-4.18 -8.36,-8.66 -13.02,-12.4 -0.08,-0.06 -0.16,-0.13 -0.25,-0.19 1.24,8.11 2.4,16.23 3.36,24.4 1.93,16.29 2.4,32.73 4.52,49.01 1.22,8.78 2.6,17.57 4.22,26.3 1.82,9.95 3.24,19.98 5.33,29.87 1.95,9.11 4.11,18.13 5.83,27.27 0.11,0.56 0.22,1.13 0.33,1.69 2.82,-2.38 5.8,-4.57 8.76,-6.74 3.17,-2.32 6.53,-4.41 9.82,-6.55 6,-3.91 12.22,-7.38 18.55,-10.71 2.94,-1.57 5.91,-3.14 8.87,-4.68 3.78,-1.97 7.77,-3.47 11.7,-5.06 5.82,-2.33 11.74,-4.46 17.55,-6.81 1.19,-0.54 2.35,-1.11 3.51,-1.69 -0.75,-0.72 -1.49,-1.43 -2.22,-2.16 -3.02,-2.99 -5.66,-6.5 -8.35,-9.79 -2.3,-2.83 -4.5,-5.73 -6.71,-8.63 -5.77,-7.22 -11.94,-14.1 -17.64,-21.36 -4.35,-5.74 -8.09,-11.95 -12.23,-17.85 -4.36,-5.27 -9,-10.24 -13.71,-15.23 z m 39.68,21.25 c 2.74,3.14 5.75,5.94 8.77,8.84 3.46,3.29 6.8,6.67 10.11,10.11 3.27,3.39 6.55,6.75 9.81,10.12 3.31,3.37 6.8,6.46 10.46,9.41 2.63,2.02 5.31,4.04 8.24,5.57 1.27,0.44 2.62,0.91 3.57,1.53 3.27,2.14 5.63,4.78 6.65,8.64 1.24,4.69 0,9.99 -3.54,13.4 -4.45,4.29 -10.88,5.38 -16.63,7.05 -3.64,1.05 -7.17,2.47 -10.79,3.61 -8.99,2.81 -18.19,4.6 -27,7.89 -14.22,6.47 -28.01,14.31 -40.51,23.68 -4.26,3.44 -8.17,7.28 -12.07,11.11 0,0.01 0,0.03 0,0.04 0.31,5.32 -4.74,9.23 -9.63,9.23 -2.24,0 -4.45,-0.83 -6.09,-2.73 -2.26,-2.62 -3.68,-5.45 -4.5,-8.84 -0.65,-2.72 -1.2,-5.45 -1.72,-8.19 -0.95,-4.89 -1.9,-9.77 -2.81,-14.68 -2.02,-10.86 -4.49,-21.59 -6.38,-32.48 -1.99,-11.6 -4.21,-23.16 -6.15,-34.77 -0.95,-5.6 -2.12,-11.16 -3.19,-16.76 -1.3,-6.75 -2.27,-13.55 -3.14,-20.37 -0.98,-7.94 -1.75,-15.91 -2.72,-23.85 -1.79,-12.53 -3.76,-25.04 -5.8,-37.55 -0.49,-3.04 -0.97,-6.08 -1.47,-9.11 -0.25,-1.55 -0.45,-3.07 -0.67,-4.59 -0.18,-1.29 -0.47,-2.79 -0.52,-3.98 -0.15,-2.42 0.02,-4.59 0.47,-6.98 0.94,-4.93 6.45,-8.54 11.18,-8.39 4.51,0.12 8.47,2.71 10.34,6.82 0.82,1.8 1.59,3.52 2.63,5.17 1.37,1.55 2.8,3.05 4.12,4.65 1.57,1.89 3.09,3.81 4.73,5.63 3.19,3.56 6.95,6.57 10.21,10.06 6.65,7.12 13.33,14.25 20.33,21.02 7.99,7.77 15.54,16.04 23.36,23.98 7.72,7.87 13.9,16.85 20.35,25.71" style="fill:#282727;fill-opacity:1;fill-rule:nonzero;stroke:none" id="path658" transform="matrix(0.133333, 0, 0, -0.133333, 0, 1122.52002)"/>
  <path d="m 1927.95,5776.95 c -2.3,-4.43 -5.04,-8.59 -7.7,-12.8 -2.84,-4.48 -5.3,-9.04 -7.55,-13.82 -2.16,-4.64 -4.16,-9.34 -6.17,-14.03 -4.26,-9.96 -8.95,-19.68 -13.5,-29.46 -3.57,-7.67 -7.23,-15.32 -10.36,-23.19 -1.5,-3.73 -2.99,-7.47 -4.49,-11.21 -1.42,-3.56 -2.52,-7.27 -3.76,-10.91 -1.2,-3.44 -1.97,-7.1 -2.94,-10.63 -0.94,-3.51 -1.49,-7.2 -2.22,-10.79 -0.21,-1.11 -0.42,-2.24 -0.6,-3.37 -1.52,1.98 -3.07,3.96 -4.75,5.81 -3.16,3.44 -6.78,6.26 -10.49,9.05 -6.31,4.71 -12.89,9.06 -19.29,13.66 -6.24,5.08 -12.31,10.33 -18.34,15.68 -6.11,5.44 -11.34,11.85 -16.63,18.06 -9.04,11.95 -17.5,24.26 -25.79,36.72 1.95,0.07 3.91,0.1 5.85,0.11 2.52,0.03 5.04,-0.12 7.58,-0.12 2.19,0.02 4.41,0.2 6.6,0.25 2.31,0.04 4.65,-0.08 6.95,0.24 3.26,0.43 6.37,0.95 9.51,2 4.94,1.63 9.68,3.79 14.82,4.72 4.74,0.63 9.37,1.38 14.02,2.63 4.99,1.31 9.89,3.03 14.77,4.7 9.59,3.22 19.13,6.6 28.5,10.39 16.35,6.61 32.58,13.52 48.37,21.35 -0.77,-1.69 -1.55,-3.38 -2.39,-5.04 z m 35.19,22.97 c 2.42,3.06 5.6,6.35 5.48,10.58 -0.12,3.62 -1.89,7.45 -5.26,9.2 -2.09,1.08 -4.05,1.52 -6.14,1.52 -1.04,0 -2.11,-0.11 -3.25,-0.3 -2.81,-0.5 -5.2,-2.15 -7.67,-3.49 -9.29,-5.06 -18.88,-9.62 -28.41,-14.2 -9.39,-4.51 -18.86,-8.79 -28.32,-13.15 -4.71,-2.17 -9.42,-4.33 -14.08,-6.6 -4.63,-2.24 -9.22,-4.66 -13.95,-6.65 -0.21,-0.09 -0.42,-0.18 -0.64,-0.27 0.21,0.09 0.41,0.18 0.62,0.27 -9.74,-4.11 -19.43,-8.47 -29.37,-11.98 -4.43,-1.57 -8.97,-2.34 -13.47,-3.59 -4.31,-1.18 -8.41,-3.24 -12.5,-5.05 -2.67,-1.05 -5.32,-1.97 -8.15,-2.51 -2.73,-0.28 -5.48,-0.45 -8.22,-0.76 -3.66,-0.42 -7.35,-0.4 -11.04,-0.54 -3.53,-0.18 -7.07,-0.36 -10.61,-0.6 -1.7,-0.13 -3.46,-0.24 -5.21,-0.48 -2.91,3.24 -7.6,4.38 -11.62,2.02 -4.16,-2.41 -6.05,-8.39 -3.29,-12.57 6.13,-9.4 12.2,-18.81 18.61,-28 5.65,-8.1 11.4,-16.04 17.38,-23.89 5.66,-7.37 11.88,-14.37 18.33,-21.04 2.99,-3.1 6.28,-5.93 9.47,-8.82 3.93,-3.57 7.92,-7.03 12.13,-10.27 0.65,-0.5 1.3,-1 1.97,-1.52 -0.14,0.11 -0.29,0.21 -0.42,0.32 0.73,-0.56 1.46,-1.13 2.19,-1.69 3.71,-2.84 7.45,-5.66 11.15,-8.48 3.61,-2.89 7.03,-5.86 9.98,-9.41 4.63,-6.32 8.65,-13.07 14.04,-18.85 1.76,-1.89 3.83,-3.48 5.92,-4.95 1.47,-1.05 3.11,-1.82 4.86,-2.27 4.9,-1.27 10.83,1 13.3,5.61 0.67,1.17 1.22,2.36 1.64,3.64 0.67,1.74 0.78,3.38 1.02,5.25 0.2,1.62 0.35,3.24 0.5,4.83 0.14,1.34 0.3,2.67 0.48,3.99 1.67,10.47 3.5,21 6.85,31.11 3.45,10.41 7.29,20.62 11.48,30.76 4.54,10.55 9.03,21.1 13.32,31.76 3.53,8.68 6.65,17.54 10.08,26.25 2.59,5.27 5.51,10.29 8.46,15.39 2.99,5.13 5.31,10.61 7.59,16.09 1.5,3.33 3.24,6.49 5.23,9.59 2.2,3.37 4.26,6.8 6.59,10.06 1,1.22 1.99,2.44 2.95,3.69" style="fill:#282727;fill-opacity:1;fill-rule:nonzero;stroke:none" id="path660" transform="matrix(0.133333, 0, 0, -0.133333, 0, 1122.52002)"/>
  <path d="m 1828.12,5645.54 c -0.14,0.11 -0.28,0.22 -0.42,0.32 -0.52,0.4 -1.05,0.8 -1.58,1.2 0.68,-0.5 1.33,-1.02 2,-1.52" style="fill:#282727;fill-opacity:1;fill-rule:nonzero;stroke:none" id="path662" transform="matrix(0.133333, 0, 0, -0.133333, 0, 1122.52002)"/>
  <path d="m 1735.03,5847 c -2.43,-0.51 -4.85,-1.05 -7.24,-1.69 1.69,1.62 3.37,3.25 5.05,4.87 7.84,7.65 15.27,15.67 23.12,23.32 3.88,3.76 7.92,7.4 12,10.96 3.89,3.39 7.47,7.05 11.16,10.61 7.92,7.7 16.31,14.89 24.06,22.79 6,6.13 12.78,11.38 19.18,17.06 3.41,3.04 6.65,6.15 9.78,9.44 2.85,2.99 5.86,5.79 9.12,8.32 2.77,2.05 5.75,3.98 8.22,6.4 0.7,0.68 1.38,1.37 2.06,2.05 0.95,-3.26 1.9,-6.51 2.85,-9.77 0.52,-1.84 1.2,-3.64 1.84,-5.45 0.8,-2.37 1.52,-4.81 2.47,-7.1 4.48,-10.69 8.94,-21.42 14.69,-31.49 2.29,-4.05 5.14,-7.82 7.87,-11.58 2.3,-3.18 4.77,-6.23 7.25,-9.29 -3.01,-0.35 -5.98,-0.88 -8.92,-1.69 -2.93,-0.83 -5.87,-1.67 -8.81,-2.49 -5.21,-1.47 -10.34,-3.16 -15.52,-4.71 -4.58,-1.37 -9.04,-3.14 -13.62,-4.56 -5.66,-1.74 -11.36,-3.26 -17.14,-4.63 -5.13,-1.22 -10.31,-2.32 -15.42,-3.69 -5.53,-1.49 -11.06,-3.21 -16.66,-4.48 -8.15,-1.84 -16.32,-3.51 -24.56,-4.86 -7.47,-1.19 -14.77,-2.86 -21.94,-5.2 -3.62,-1.15 -7.18,-2.34 -10.89,-3.14 z m 30.81,-6.96 c 7.54,0.99 15.08,1.89 22.59,3.05 7.87,1.22 15.7,2.91 23.52,4.4 3.53,0.68 7.09,1.38 10.66,1.87 4.05,0.58 8.17,1.05 12.22,1.8 4.09,0.72 8.1,1.57 12.14,2.52 3.41,0.77 6.7,1.81 10.15,2.39 5.29,0.67 10.6,1.23 15.87,1.96 4.77,0.67 9.48,1.74 14.21,2.58 3.64,0.24 7.32,-0.28 10.92,-0.66 2.58,-0.27 5.15,-0.54 7.71,-0.82 2.1,-0.43 4.13,-0.98 6.2,-1.65 2.83,-0.89 6.67,-1.44 9.51,-0.24 2.39,0.67 4.46,1.87 6.22,3.61 0.95,0.87 1.73,1.86 2.27,2.99 1.64,3.19 2.77,7.37 1.37,10.9 -0.99,2.54 -1.86,4.59 -3.93,6.48 -0.38,0.33 -0.75,0.7 -1.07,1.07 -0.93,1 -1.77,2.04 -2.67,3.07 -2.04,2.36 -4.09,4.73 -6.18,7.05 -7.21,7.95 -14.52,15.87 -21.29,24.19 -6.68,9.06 -11.51,19.31 -16.06,29.58 -1.42,3.88 -2.93,7.77 -4.12,11.73 -1.96,6.73 -3.93,13.45 -5.83,20.2 -0.4,1.44 -1.07,2.75 -1.94,3.87 -0.24,1.25 -0.68,2.45 -1.32,3.55 -2.05,3.51 -5.89,5.62 -9.86,5.62 -0.98,0 -1.98,-0.14 -2.97,-0.41 -4.7,-1.3 -7.87,-4.58 -10.83,-8.2 -1.99,-2.39 -3.86,-4.91 -5.74,-7.43 -3.2,-3.77 -6.98,-6.8 -10.57,-10.17 -4.04,-3.79 -7.58,-7.95 -11.31,-12.01 -7.42,-8.07 -16.07,-14.92 -23.84,-22.64 -1.82,-1.82 -3.58,-3.71 -5.43,-5.53 -1.79,-1.77 -3.71,-3.36 -5.61,-5.03 -4.17,-3.69 -8.31,-7.42 -12.32,-11.31 -4.01,-3.86 -7.9,-7.82 -12.06,-11.56 -4.08,-3.66 -8.02,-7.5 -11.93,-11.35 -7.6,-7.5 -14.57,-15.6 -21.94,-23.29 -7.85,-8.2 -15.57,-16.44 -23.86,-24.14 -1.92,-1.79 -3.39,-3.98 -3.39,-6.67 0,-3.17 2.24,-6.1 5.26,-6.98 3.23,-0.94 6.77,0.2 9.98,0.88 4.46,0.91 8.57,2.86 12.83,4.33 5.28,1.84 10.66,3.11 16.14,4.16 5.01,0.95 9.79,2.71 14.75,3.86 3.83,0.9 7.67,1.67 11.55,2.38" style="fill:#282727;fill-opacity:1;fill-rule:nonzero;stroke:none" id="path664" transform="matrix(0.133333, 0, 0, -0.133333, 0, 1122.52002)"/>
  <path d="m 1693.68,6093.61 c 0.2,-0.09 0.4,-0.17 0.6,-0.26 0.13,-0.05 0.26,-0.09 0.38,-0.15 -0.32,0.14 -0.65,0.28 -0.98,0.41" style="fill:#282727;fill-opacity:1;fill-rule:nonzero;stroke:none" id="path666" transform="matrix(0.133333, 0, 0, -0.133333, 0, 1122.52002)"/>
  <path d="m 1694.95,6093.07 c -0.1,0.05 -0.19,0.09 -0.29,0.13 0.09,-0.04 0.17,-0.07 0.26,-0.11 0.01,-0.01 0.02,-0.01 0.03,-0.02" style="fill:#282727;fill-opacity:1;fill-rule:nonzero;stroke:none" id="path668" transform="matrix(0.133333, 0, 0, -0.133333, 0, 1122.52002)"/>
  <path d="m 1686.01,5970.04 c -5.1,-4.37 -9.28,-9.82 -12.94,-15.41 -1.02,3.08 -2.08,6.15 -2.98,9.28 -1.32,4.58 -2.49,9.24 -3.84,13.83 -2.73,9.46 -6.2,18.65 -8.36,28.26 -1.18,5.26 -2.32,10.54 -3.44,15.82 -1.2,5.45 -2.8,10.82 -3.77,16.32 -0.59,5.32 -0.71,10.73 -0.91,16.04 -0.2,4.75 -0.48,9.51 -0.55,14.27 -0.05,4.93 -0.33,9.91 -0.15,14.84 0.13,3.84 0.27,7.66 0.42,11.48 1.33,-0.53 2.65,-1.09 3.99,-1.64 4.24,-1.69 8.53,-3.31 12.77,-5.04 4.46,-1.89 8.86,-3.93 13.23,-6.06 4.38,-2.15 8.57,-4.74 12.88,-7.06 8.96,-4.85 18.58,-8.49 27.3,-13.77 4.93,-3.01 9.96,-5.55 15.29,-7.74 4.73,-1.92 9.69,-3.27 14.57,-4.69 5.16,-1.52 10.34,-2.94 15.49,-4.36 5.43,-1.49 10.94,-2.24 16.49,-2.96 4.93,-0.63 9.85,-1.21 14.79,-1.72 -3.97,-1.94 -7.81,-4.21 -11.68,-6.32 -4.63,-2.52 -9.29,-4.99 -13.95,-7.48 -8.74,-4.68 -17.25,-9.81 -25.85,-14.79 -8.81,-5.14 -17.78,-10.04 -26.57,-15.22 -6.08,-3.61 -11.49,-8.07 -16.81,-12.7 -5.11,-4.44 -10.29,-8.77 -15.42,-13.18 z m 15.42,-17.43 c 2.29,2.26 4.92,4.16 7.39,6.22 4.64,3.91 9.25,7.86 14,11.65 7.61,5.52 16.15,9.81 24.33,14.38 8.82,4.88 17.49,10.07 26.06,15.34 8.64,5.31 17.63,9.99 26.3,15.22 4.26,2.57 8.49,5.11 12.95,7.32 4.39,2.2 8.75,4.46 13.2,6.53 1.39,0.65 2.77,1.27 4.16,1.87 2.81,1.17 5.63,2.3 8.37,3.66 1.24,0.6 2.42,1.27 3.56,2.02 1.87,1.24 4.08,3.06 5.18,5.08 1.4,2.64 2.57,6.17 1.37,9.16 -0.84,2.15 -1.42,3.84 -3.11,5.51 -1.74,1.74 -4.21,3.06 -6.53,3.81 -3.06,1 -6.32,1.09 -9.51,1.17 -3.29,0.1 -6.58,0.15 -9.84,0.2 -12.67,0.17 -25.19,1.78 -37.76,3.31 -3.24,0.48 -6.44,1.02 -9.64,1.79 -4.26,1.02 -8.52,2.05 -12.77,3.07 -4.24,1.02 -8.48,2.04 -12.71,3.06 -3.88,0.92 -7.55,2.1 -11.26,3.55 -6.82,2.96 -13.58,6.06 -20.52,8.73 -6.6,2.53 -13.17,5.1 -19.7,7.81 0.26,-0.11 0.52,-0.22 0.8,-0.34 -0.28,0.13 -0.55,0.24 -0.83,0.36 -0.21,0.09 -0.43,0.18 -0.64,0.26 -8.43,3.64 -16.89,7.12 -25.46,10.37 -4.24,1.64 -8.47,3.29 -12.68,5.03 -4.08,1.69 -8.17,3.51 -12.43,4.71 -0.68,0.19 -1.37,0.28 -2.06,0.28 -2.77,0 -5.46,-1.49 -6.88,-3.92 -0.69,-1.18 -1.03,-2.5 -1.06,-3.82 -0.45,-1.02 -0.72,-2.15 -0.78,-3.33 -0.35,-6.68 -0.63,-13.32 -0.9,-20 -0.17,-5.1 0.05,-10.23 0.05,-15.34 0,-5.03 0.25,-10.09 0.38,-15.12 0.09,-3.07 0.17,-6.15 0.24,-9.22 0.13,-5.62 0.9,-11.08 2.02,-16.58 2.07,-10.17 3.69,-20.38 5.41,-30.59 0.84,-5.03 2.12,-9.89 3.39,-14.82 1.31,-5.21 2.53,-10.41 3.6,-15.64 0.83,-4.04 1.47,-8.1 2.6,-12.06 1.17,-4.08 2.51,-8.16 3.41,-12.35 0.92,-4.26 1.62,-8.57 2.61,-12.83 0.45,-1.92 1,-3.81 1.55,-5.7 0.52,-1.75 1.25,-3.44 1.99,-5.08 1.5,-3.19 4.48,-5.09 7.7,-6.18 3.93,-1.37 8.74,0.2 11.58,3.06 1.49,1.5 2.51,3.24 3.09,5.26 0.35,1.35 0.47,2.7 0.38,4.04 0.1,0.41 0.22,0.8 0.35,1.2 2.27,4.62 5.1,9 7.83,13.34 1.8,2.87 3.58,5.69 5.53,8.43 1.83,2.1 3.71,4.16 5.69,6.12" style="fill:#282727;fill-opacity:1;fill-rule:nonzero;stroke:none" id="path670" transform="matrix(0.133333, 0, 0, -0.133333, 0, 1122.52002)"/>
  <path d="m 1650.48,6192.25 c -0.05,0.02 -0.09,0.04 -0.14,0.06 h -0.01 c 0.05,-0.02 0.1,-0.04 0.15,-0.06 z m 31.04,-5.72 c 8.72,1.46 17.41,3 26.13,4.4 5.64,0.66 11.28,1.26 16.91,1.8 5.56,0.5 11.11,0.9 16.64,1.55 5.66,0.65 11.21,1.84 16.81,2.76 5.4,0.9 10.79,1.8 16.21,2.58 8.86,1.17 17.7,2.39 26.56,3.7 4.63,0.7 9.21,1.62 13.77,2.74 4.11,1.02 8.16,2.14 12.34,2.81 2.98,0.29 5.95,0.46 8.91,0.83 0.25,0.03 0.51,0.05 0.77,0.08 -0.12,-0.47 -0.25,-0.95 -0.37,-1.43 -1.25,-4.81 -2.12,-9.71 -3.14,-14.55 -1.94,-9.36 -3.49,-18.8 -4.88,-28.27 -1.47,-10.14 -2.27,-20.35 -3.04,-30.56 -0.26,-3.68 -0.41,-7.37 -0.55,-11.06 -0.33,0.23 -0.66,0.45 -1,0.67 -4.03,2.67 -8.07,5.18 -12.23,7.65 -3.81,2.24 -7.72,4.29 -11.58,6.4 -4.11,2.27 -8.47,4.23 -12.8,6.06 -4.76,2.01 -9.49,3.93 -14.37,5.65 -3.71,1.29 -7.5,2.42 -11.21,3.69 -4.43,1.49 -8.79,3.13 -13.18,4.83 0.07,-0.03 0.14,-0.06 0.21,-0.09 -8.79,3.77 -17.49,7.65 -26.31,11.3 -4.03,1.67 -8.17,3.19 -12.33,4.46 -4.38,1.34 -8.84,2.46 -13.17,3.91 -4.12,1.34 -8.12,3.08 -12.28,4.23 -3.41,0.92 -6.85,1.65 -10.23,2.63 2.48,0.4 4.95,0.81 7.41,1.23 z m 81.43,-53.7 c -0.38,0.16 -0.76,0.33 -1.15,0.5 0.44,-0.19 0.88,-0.38 1.31,-0.57 -0.05,0.03 -0.11,0.05 -0.16,0.07 z m -120.11,47.53 c 0.87,-0.41 1.72,-0.81 2.67,-1.01 0.96,-0.19 2.01,-0.27 3.03,-0.37 1,-0.12 2,-0.25 2.99,-0.4 1.61,-0.19 3.2,-0.36 4.78,-0.56 2.02,-0.32 4.01,-0.67 6.01,-1.16 2.22,-0.52 4.31,-1.44 6.45,-2.18 5.15,-1.78 10.46,-2.89 15.52,-4.86 3.06,-1.34 6.09,-2.71 9.19,-3.96 3.31,-1.36 6.69,-2.54 10.05,-3.8 8.38,-3.67 16.4,-8.05 24.47,-12.39 8.97,-4.82 17.92,-9.58 27.27,-13.61 2.63,-1.1 5.24,-2.21 7.86,-3.32 4.16,-1.84 8.26,-3.73 12.32,-5.79 4.46,-2.26 8.74,-4.75 13.08,-7.22 7.91,-4.57 15.47,-9.83 22.88,-15.18 2.75,-2.28 5.52,-4.55 7.9,-7.24 1.07,-1.19 2.16,-2.41 3.29,-3.59 0.59,-0.62 1.24,-1.24 1.92,-1.79 1.07,-0.9 2.16,-1.79 3.36,-2.54 2.14,-1.34 3.96,-1.42 6.37,-1.67 2.17,0 4.19,0.55 6.06,1.62 2.59,1.52 4.8,4.18 5.5,7.15 0.55,2.39 0.63,4.31 -0.05,6.7 -0.2,0.72 -0.47,1.42 -0.67,2.14 -0.26,0.83 -0.41,1.7 -0.54,2.56 -0.9,7.99 -0.6,16.18 -0.14,24.19 0.56,9.07 1.49,18.08 2.52,27.12 1.38,9.14 2.79,18.31 4.69,27.36 1.09,5.2 1.99,10.5 3.33,15.66 1.8,6.98 3.57,13.95 5.46,20.9 1.39,5.16 -1.7,10.66 -6.87,12.08 -0.85,0.23 -1.71,0.34 -2.55,0.34 -3.64,0 -7.09,-2.04 -8.8,-5.25 -0.55,-0.24 -1.1,-0.52 -1.66,-0.82 -1.08,-0.57 -2.17,-1.15 -3.27,-1.68 -5.79,-2.03 -11.85,-2.71 -17.8,-4.07 -3.36,-0.8 -6.68,-1.69 -10.04,-2.47 -3.48,-0.8 -6.96,-1.4 -10.47,-1.94 -5.41,-0.69 -10.83,-1.42 -16.24,-2.17 -7.11,-0.86 -14.25,-1.58 -21.33,-2.71 -6.95,-1.08 -13.85,-2.38 -20.75,-3.64 -8.45,-1.04 -16.95,-1.68 -25.38,-2.76 -5.58,-0.73 -11.14,-1.47 -16.67,-2.45 -5.13,-0.89 -10.24,-1.87 -15.34,-2.86 -8.97,-1.74 -17.98,-3.24 -26.95,-5.01 -3.69,-0.74 -7.34,-1.51 -10.91,-2.78 -2.87,-1.03 -5.3,-2.97 -6.05,-6.06 -0.7,-2.96 0.47,-7.12 3.51,-8.51" style="fill:#282727;fill-opacity:1;fill-rule:nonzero;stroke:none" id="path672" transform="matrix(0.133333, 0, 0, -0.133333, 0, 1122.52002)"/>
  <path d="m 1755.29,6136.05 c 0,0 -0.01,0.01 -0.02,0.01 -0.07,0.03 -0.13,0.06 -0.2,0.08 0.08,-0.03 0.15,-0.06 0.22,-0.09" style="fill:#282727;fill-opacity:1;fill-rule:nonzero;stroke:none" id="path674" transform="matrix(0.133333, 0, 0, -0.133333, 0, 1122.52002)"/>
  <path d="m 1812.47,6374.22 c 0.04,-0.05 0.08,-0.1 0.12,-0.15 0.03,-0.04 0.06,-0.07 0.08,-0.11 -0.07,0.09 -0.13,0.17 -0.2,0.26" style="fill:#282727;fill-opacity:1;fill-rule:nonzero;stroke:none" id="path676" transform="matrix(0.133333, 0, 0, -0.133333, 0, 1122.52002)"/>
  <path d="m 1827.11,6354.64 c -0.23,0.3 -0.45,0.59 -0.69,0.88 0.09,-0.12 0.19,-0.23 0.27,-0.35 0.15,-0.18 0.28,-0.36 0.42,-0.53" style="fill:#282727;fill-opacity:1;fill-rule:nonzero;stroke:none" id="path678" transform="matrix(0.133333, 0, 0, -0.133333, 0, 1122.52002)"/>
  <path d="m 1694.04,6303.9 c 1.84,4.5 3.45,9.11 5.29,13.62 2.01,4.64 4.21,9.2 5.97,13.98 1.64,4.4 3.28,8.79 5.08,13.15 2.87,6.52 5.62,13.04 8.27,19.65 2.71,6.81 5.45,13.61 8.23,20.38 2.51,5.44 5,10.85 7.66,16.21 2.66,5.35 5.35,10.66 8.07,15.99 2.86,5.66 5.65,11.36 8.43,17.06 2.33,-4.17 5.08,-8.09 7.99,-11.91 -0.04,0.04 -0.07,0.08 -0.11,0.13 2.57,-3.51 4.79,-7.25 7.32,-10.78 1.45,-2 2.99,-3.94 4.64,-5.79 1.26,-1.44 2.64,-2.79 3.86,-4.29 3.74,-5.45 6.4,-11.58 10.08,-17.07 2.2,-3.24 4.41,-6.46 6.65,-9.67 2.45,-3.49 5.3,-6.74 8.04,-10.01 2.15,-2.87 4.19,-5.84 6.31,-8.72 2.67,-3.61 5.33,-7.17 8.05,-10.71 3.53,-4.58 7.1,-9.14 10.76,-13.62 2.84,-3.49 5.82,-6.83 8.69,-10.29 5.98,-7.2 11.61,-14.67 17.69,-21.77 4.83,-5.64 9.89,-11.15 14.75,-16.81 -2.03,0.2 -4.06,0.48 -6.06,0.74 0.72,-0.09 1.42,-0.19 2.14,-0.3 -4.01,0.57 -8.02,1 -12.04,1.5 -7.43,1.12 -14.75,2.72 -22.16,4.04 -7.94,1.44 -15.94,2.4 -23.96,3.32 -7.21,1.28 -14.33,2.92 -21.55,4.22 -8.34,1.52 -16.68,2.89 -25.05,4.11 -9.29,1.37 -18.61,2.67 -27.97,3.51 -11.02,0.99 -22.2,-0.91 -33.11,-2.42 -1.03,-0.14 -2.06,-0.28 -3.09,-0.41 0.36,1 0.73,1.98 1.13,2.96 z m 176.28,-26.28 c 0,-0.01 0,-0.01 0,-0.01 0,-0.01 0,-0.02 0,-0.03 0,0 0,0 0,0.01 0,0.01 0,0.02 0,0.03 z m -195.86,1.45 c 2.97,-1.77 6.3,-2.2 9.67,-2.42 1.76,-0.12 3.43,-0.07 5.2,0.07 3.44,0.25 6.85,0.68 10.29,1.08 7.97,0.87 16.01,2.19 24.06,2.14 5.63,-0.03 11.28,-0.85 16.86,-1.45 3.39,-0.37 6.77,-0.82 10.16,-1.22 5.67,-0.69 11.31,-1.44 16.95,-2.16 5.76,-0.81 11.51,-1.62 17.29,-2.39 -0.19,0.02 -0.37,0.05 -0.57,0.07 5.49,-0.75 10.94,-1.42 16.45,-1.84 4.58,-0.38 9.18,-0.33 13.79,-0.68 9.52,-0.67 19.03,-1.79 28.57,-2.29 4.39,-0.22 8.8,-0.2 13.18,-0.47 4.53,-0.27 9.09,-0.85 13.65,-0.65 3.69,0.17 6.95,1.07 10.31,2.52 2.54,1.09 4.24,3.61 5.18,6.05 0.92,2.39 0.77,5.23 -0.15,7.57 -1.52,3.89 -4.61,7 -7.24,10.19 -1.35,1.64 -2.77,3.23 -4.16,4.86 -3.92,4.5 -7.85,9.03 -11.69,13.62 -4.11,4.91 -8.07,9.94 -12.03,14.97 -3.78,4.8 -7.89,9.39 -11.9,14.02 -3.9,4.53 -7.55,9.26 -11.22,13.98 0.04,-0.06 0.09,-0.12 0.13,-0.18 -0.18,0.24 -0.37,0.48 -0.55,0.71 -0.24,0.32 -0.49,0.64 -0.74,0.96 0.15,-0.2 0.31,-0.4 0.47,-0.61 -0.04,0.06 -0.08,0.11 -0.13,0.17 0.16,-0.2 0.33,-0.4 0.48,-0.61 -4.84,6.27 -9.37,12.72 -14.18,18.99 -2.38,3.06 -4.91,6.02 -7.32,9.04 -2.28,3.2 -4.54,6.42 -6.77,9.66 -1.99,2.91 -3.73,6 -5.51,9.04 -1.94,3.26 -3.88,6.45 -6.3,9.39 -2.08,2.56 -4.46,4.86 -6.61,7.38 -2.09,2.81 -4.01,5.74 -6.07,8.56 -2.29,3.16 -4.97,5.92 -7.43,8.93 -2.39,3.24 -4.65,6.64 -6.37,10.29 -0.46,1.11 -0.92,2.23 -1.38,3.35 0.27,0.54 0.54,1.07 0.81,1.62 1.2,2.38 1.7,4.85 0.98,7.49 -0.68,2.42 -2.29,4.53 -4.46,5.81 -1.63,0.94 -3.56,1.36 -5.47,1.26 -0.29,0.14 -0.6,0.27 -0.93,0.38 -0.5,0.17 -1.07,0.25 -1.66,0.25 -1.67,0 -3.53,-0.66 -4.47,-1.87 -1.07,-1.37 -1.84,-2.64 -1.82,-4.43 0,-0.34 0.03,-0.69 0.06,-1.03 -4.44,-8.8 -8.8,-17.63 -13.13,-26.5 -3.87,-7.87 -7.85,-15.69 -11.66,-23.58 -4.11,-8.54 -7.82,-17.27 -11.24,-26.11 -3.05,-7.91 -5.85,-15.94 -8.99,-23.84 -1.9,-4.38 -3.96,-8.7 -5.73,-13.14 -1.83,-4.61 -3.34,-9.3 -5.17,-13.9 -1.53,-3.43 -3.08,-6.86 -4.51,-10.34 -1.4,-3.39 -2.6,-6.83 -3.99,-10.21 0.32,0.75 0.62,1.47 0.94,2.19 -1.46,-3.41 -2.93,-6.8 -4.13,-10.33 -0.82,-2.44 -1.53,-4.93 -2.41,-7.35 -0.42,-0.72 -0.94,-1.39 -1.27,-2.15 -1.3,-2.73 -1.95,-5.35 -1.1,-8.36 0.74,-2.74 2.57,-5.03 4.98,-6.5" style="fill:#282727;fill-opacity:1;fill-rule:nonzero;stroke:none" id="path680" transform="matrix(0.133333, 0, 0, -0.133333, 0, 1122.52002)"/>
  <path d="m 1754.59,6340.86 c 0.01,-0.01 0.02,-0.02 0.03,-0.03 -0.01,0 -0.02,0 -0.02,0 -0.01,0.01 -0.02,0.02 -0.02,0.03 z m -15.38,-8.52 c 2.37,-3.17 2.69,-3.46 5.85,-5.83 2.99,-2.27 6.56,-3.02 10.19,-3.37 6.35,-0.59 13.15,2.77 17.39,7.33 4.63,4.95 7.07,12.15 4.83,18.78 -1.07,3.19 -2.84,5.95 -5.28,8.24 -1.13,1.07 -2.69,2.15 -4.04,3.02 -2.52,1.56 -4.98,2.06 -7.82,2.41 -0.63,0.08 -1.25,0.12 -1.87,0.12 -3.02,0 -5.89,-0.89 -8.38,-2.43 -1.96,-0.47 -3.79,-1.26 -5.29,-2.27 -6.75,-4.58 -10.56,-13.1 -7.9,-21.12 0.58,-1.74 1.25,-3.41 2.32,-4.88" style="fill:#282727;fill-opacity:1;fill-rule:nonzero;stroke:none" id="path682" transform="matrix(0.133333, 0, 0, -0.133333, 0, 1122.52002)"/>
  <path d="m 1982.99,6575.92 c 0.77,-1.69 2.22,-3.22 3.54,-4.53 1.94,-2 4.29,-3.22 6.88,-4.14 1.66,-0.57 3.56,-0.82 5.3,-0.75 3.01,0.15 4.81,0.93 7.53,2.12 2.61,1.17 5.45,4.38 6.59,6.95 1.17,2.64 1.5,4.23 1.82,7.15 0.2,1.72 -0.3,3.59 -0.65,5.25 -0.12,0.64 -0.31,1.3 -0.54,1.96 -0.29,1.78 -0.89,3.51 -1.75,5.09 -2.12,3.94 -5.7,6.98 -9.96,8.32 -1.57,0.5 -3.35,0.77 -5.15,0.77 -2.9,0 -5.87,-0.69 -8.13,-2.21 -3.88,-2.57 -7.04,-6.11 -7.89,-10.84 -0.58,-3.26 -0.6,-5.75 0.1,-9.02 0.47,-2.14 1.4,-4.1 2.31,-6.12" style="fill:#282727;fill-opacity:1;fill-rule:nonzero;stroke:none" id="path684" transform="matrix(0.133333, 0, 0, -0.133333, 0, 1122.52002)"/>
  <path d="m 2313.09,6616.07 c 3.51,-2.36 8.36,-2.58 12.32,-1.56 1.71,0.45 3.22,1.24 4.52,2.26 3.42,0.95 6.42,3.3 8.37,6.48 5,8.14 -0.63,18.33 -8,22.61 -2.58,1.49 -5.98,2.54 -9.06,2.54 -0.37,0 -0.74,-0.01 -1.1,-0.05 -5.36,-0.49 -11.14,-2.94 -13.78,-7.99 -2.29,-4.31 -2.76,-8.57 -1.57,-13.3 1.17,-4.68 4.41,-8.35 8.3,-10.99" style="fill:#282727;fill-opacity:1;fill-rule:nonzero;stroke:none" id="path686" transform="matrix(0.133333, 0, 0, -0.133333, 0, 1122.52002)"/>
  <path d="m 2616.48,6478.32 c 3.72,-3.01 7.5,-4.75 12.36,-4.7 0.1,0 0.2,0 0.31,0 1.15,-0.36 2.33,-0.53 3.45,-0.4 3.01,0.37 5.51,0.62 8.09,2.39 3.62,2.46 5.51,5.48 7.13,9.41 2.21,5.43 0.94,11.26 -1.57,16.29 -2.89,5.81 -9.57,8.6 -15.67,9.07 -0.47,0.03 -0.95,0.05 -1.42,0.05 -6.71,0 -13.84,-3.57 -16.61,-9.89 -0.85,-1.34 -1.39,-2.79 -1.64,-4.34 -0.58,-3.06 -0.78,-5.62 0.02,-8.66 0.92,-3.44 2.77,-6.95 5.55,-9.22" style="fill:#282727;fill-opacity:1;fill-rule:nonzero;stroke:none" id="path688" transform="matrix(0.133333, 0, 0, -0.133333, 0, 1122.52002)"/>
  <path d="m 2786.37,6210.03 c -0.47,0 -0.95,-0.02 -1.42,-0.07 -2.74,-0.27 -4.94,-0.64 -7.35,-2.04 -2.54,-1.5 -4.24,-3.54 -5.85,-5.93 -1.5,-2.22 -1.8,-4.93 -2.1,-7.47 -0.25,-2.12 0.13,-4.36 0.75,-6.38 1.06,-3.39 3.17,-6.49 5.89,-8.85 1.55,-3.07 4.75,-5.22 8.38,-5.22 1.25,0 2.44,0.25 3.53,0.71 2.62,0.25 5.2,1.49 7.11,3.27 3.15,0.74 6.01,2.67 7.74,5.71 3.17,5.58 2.19,11.83 -1.32,16.96 -3.52,5.13 -8.94,9.31 -15.36,9.31" style="fill:#282727;fill-opacity:1;fill-rule:nonzero;stroke:none" id="path690" transform="matrix(0.133333, 0, 0, -0.133333, 0, 1122.52002)"/>
  <path d="m 2756.48,5877.03 c -1.42,0.8 -2.89,1.3 -4.37,1.55 -0.97,0.47 -2,0.87 -3.15,1.34 -1.49,0.27 -2.99,0.47 -4.48,0.54 -0.24,0.02 -0.47,0.03 -0.71,0.03 -2.69,0 -5.15,-1.14 -7.53,-2.2 -3.02,-1.34 -5.39,-4.16 -7.08,-6.89 -0.72,-1.45 -1.32,-2.92 -1.82,-4.44 -1.07,-3.14 -0.49,-6 -0.05,-9.14 0.47,-3.26 2.57,-6.75 4.86,-9.07 2.74,-2.76 5.31,-3.9 8.89,-5.3 2.79,-1.07 7.6,-0.92 10.36,0.17 1.52,0.4 2.92,1.03 4.19,1.9 2.91,1.92 3.76,3.01 5.8,5.78 5.78,7.81 3.69,20.87 -4.91,25.73" style="fill:#282727;fill-opacity:1;fill-rule:nonzero;stroke:none" id="path692" transform="matrix(0.133333, 0, 0, -0.133333, 0, 1122.52002)"/>
  <path d="m 2507.84,5624.54 c -2.89,1.23 -5.58,2.21 -8.7,2.21 -0.38,0 -0.75,-0.01 -1.14,-0.04 -8.34,-0.65 -15.41,-5.81 -17.7,-14.03 -1.17,-4.25 -0.4,-9.31 1.71,-13.15 1.9,-3.36 4.41,-5.63 7.57,-7.77 3.72,-2.49 8.6,-2.69 12.78,-1.72 0.14,0.04 0.29,0.07 0.42,0.11 5.32,0.13 9.93,3.17 12.78,7.56 3.64,5.68 3.77,14.8 -0.42,20.28 -2.02,2.66 -4.09,5.18 -7.3,6.55" style="fill:#282727;fill-opacity:1;fill-rule:nonzero;stroke:none" id="path694" transform="matrix(0.133333, 0, 0, -0.133333, 0, 1122.52002)"/>
  <path d="m 2166.56,5567.1 c -1.93,0.53 -3.84,0.77 -5.72,0.77 -3.91,0 -7.71,-1.04 -11.41,-2.68 -6.5,-2.94 -10.67,-10.31 -9.84,-17.35 -0.51,-2.38 -0.2,-4.95 1.04,-7.09 1.29,-2.18 3.26,-3.63 5.46,-4.3 2.34,-1.93 5.14,-3.3 8.17,-4 0.5,-0.39 0.99,-0.77 1.49,-1.16 2.37,-1.37 4.93,-2.04 7.68,-2.07 2.46,-0.3 6.1,0.67 8.19,2.04 2.81,1.84 4.01,3.14 5.95,5.8 2.29,3.09 2.77,6.81 3.14,10.49 0.37,3.59 -1.42,8.22 -3.46,11.06 -2.69,3.74 -6.1,7.25 -10.69,8.49" style="fill:#282727;fill-opacity:1;fill-rule:nonzero;stroke:none" id="path696" transform="matrix(0.133333, 0, 0, -0.133333, 0, 1122.52002)"/>
  <path d="m 1855.89,5709.06 c 0.05,-0.12 0.1,-0.22 0.14,-0.34 0.01,-0.02 0.01,-0.04 0.01,-0.07 -0.04,0.14 -0.1,0.27 -0.15,0.41 z m 4.03,10.28 c -3.61,3.76 -8.44,4.63 -13.35,5.18 -0.44,0.05 -0.88,0.08 -1.32,0.08 -3.57,0 -6.99,-1.52 -10.14,-2.92 -4.06,-1.81 -8.34,-7.15 -9.16,-11.48 -1.05,-5.46 -0.87,-11.21 2.51,-15.94 3.19,-4.41 6.95,-7.5 12.26,-8.97 2.01,-0.55 4,-0.71 5.94,-0.57 1.11,-0.23 2.23,-0.35 3.35,-0.35 2.99,0 6.23,0.92 8.82,2.45 3.36,1.96 7.29,6.25 7.94,10.36 0.65,4.13 0.97,8.06 -0.67,12.02 -1.65,3.99 -3.14,7 -6.18,10.14" style="fill:#282727;fill-opacity:1;fill-rule:nonzero;stroke:none" id="path698" transform="matrix(0.133333, 0, 0, -0.133333, 0, 1122.52002)"/>
  <path d="m 1715.9,6023.06 c 1.24,3.81 1.07,8.34 -0.05,12.15 -2.22,7.7 -8.22,13.78 -15.82,16.17 -1.69,0.53 -3.43,0.78 -5.18,0.78 -3.36,0 -6.73,-0.92 -9.76,-2.5 -2.39,-0.96 -4.48,-2.77 -6.4,-4.26 -1.52,-1.2 -2.55,-2.89 -3.57,-4.51 -2.69,-4.18 -3.66,-11.01 -1.97,-15.74 0.7,-1.99 1.38,-4.06 2.57,-5.83 2.49,-3.74 3.74,-4.83 7.4,-7.42 2.09,-1.47 4.63,-2.57 7.17,-2.99 4.64,-0.77 6.11,-1 10.71,0 1.99,0.42 3.81,1.4 5.66,2.27 4.56,2.19 7.77,7.27 9.24,11.88" style="fill:#282727;fill-opacity:1;fill-rule:nonzero;stroke:none" id="path700" transform="matrix(0.133333, 0, 0, -0.133333, 0, 1122.52002)"/>
</svg>