<svg xmlns="http://www.w3.org/2000/svg" viewBox="0 0 24 24">
    <path fill="#ff780a" d="M12 24a.501.501 0 0 1-.327-.122C11.339 23.59 3.5 16.718 3.5 8.5 3.5 3.813 7.313 0 12 0s8.5 3.813 8.5 8.5c0 8.218-7.839 15.09-8.173 15.378A.501.501 0 0 1 12 24zm0-23C7.864 1 4.5 4.364 4.5 8.5c0 6.842 6.016 12.926 7.5 14.322 1.483-1.397 7.5-7.488 7.5-14.322C19.5 4.364 16.136 1 12 1z"/>
    <path fill="#ff780a" d="M12 14c-3.032 0-5.5-2.467-5.5-5.5S8.968 3 12 3s5.5 2.467 5.5 5.5S15.032 14 12 14zm0-10C9.519 4 7.5 6.019 7.5 8.5S9.519 13 12 13s4.5-2.019 4.5-4.5S14.481 4 12 4z"/>
    <path fill="#ff780a" d="M14 11a.502.502 0 0 1-.354-.146l-4-4a.5.5 0 0 1 .707-.707l4 4A.5.5 0 0 1 14 11z"/>
    <path fill="#ff780a" d="M10 11a.5.5 0 0 1-.354-.853l4-4a.5.5 0 0 1 .707.707l-4 4A.498.498 0 0 1 10 11z"/>
</svg>