<svg xmlns="http://www.w3.org/2000/svg" viewBox="0 0 32 32" width="256" height="256"><path d="M14.984-.002a.5.5 0 0 0-.02.002c-2.11.138-4.172.692-6.068 1.63a.5.5 0 0 0-.21.7l2.529 4.379a.5.5 0 0 0 .64.205c1.009-.46 2.088-.75 3.192-.857a.5.5 0 0 0 .451-.498V.5a.5.5 0 0 0-.514-.502zm2 .018a.5.5 0 0 0-.482.5V5.55a.5.5 0 0 0 .451.498c1.105.108 2.183.4 3.192.863a.5.5 0 0 0 .642-.205L23.31 2.34a.5.5 0 0 0-.213-.697 16.028 16.028 0 0 0-6.06-1.625.5.5 0 0 0-.052 0V.016zm-2.486 1.07v4.096c-.896.125-1.767.36-2.605.7L9.846 2.339a14.985 14.985 0 0 1 4.652-1.252zm3.004.016c1.608.163 3.173.58 4.646 1.244L20.11 5.877a10.966 10.966 0 0 0-2.607-.705v-4.07zM7.359 2.58a.5.5 0 0 0-.25.084 16.043 16.043 0 0 0-4.443 4.441.5.5 0 0 0 .166.71l4.377 2.525a.5.5 0 0 0 .656-.143 9.998 9.998 0 0 1 2.338-2.332.5.5 0 0 0 .145-.658L7.82 2.832a.5.5 0 0 0-.46-.252zm17.25 0a.5.5 0 0 0-.427.25l-2.528 4.375a.5.5 0 0 0 .143.656 9.996 9.996 0 0 1 2.332 2.338.5.5 0 0 0 .658.145l4.377-2.528a.5.5 0 0 0 .166-.71 16.038 16.038 0 0 0-4.437-4.442.5.5 0 0 0-.284-.084zM7.246 3.838 9.293 7.38a10.969 10.969 0 0 0-1.91 1.904L3.84 7.24a14.986 14.986 0 0 1 3.406-3.402zm17.51 0a14.985 14.985 0 0 1 3.4 3.404L24.613 9.29a10.975 10.975 0 0 0-1.904-1.908l2.047-3.543zM16 8c-4.412 0-8 3.588-8 8s3.588 8 8 8 8-3.588 8-8-3.588-8-8-8zm13.926.615a.5.5 0 0 0-.256.067L25.29 11.21a.5.5 0 0 0-.205.643 9.997 9.997 0 0 1 .86 3.189.5.5 0 0 0 .497.451H31.5a.5.5 0 0 0 .498-.533 16.036 16.036 0 0 0-1.63-6.068.5.5 0 0 0-.442-.278zM2.05 8.627a.5.5 0 0 0-.41.28 16.035 16.035 0 0 0-1.623 6.062.5.5 0 0 0 .498.531H5.55a.5.5 0 0 0 .498-.451c.108-1.105.399-2.183.861-3.192a.5.5 0 0 0-.205-.642L2.34 8.693a.5.5 0 0 0-.238-.066.5.5 0 0 0-.051 0zM16 9c3.872 0 7 3.128 7 7s-3.128 7-7 7-7-3.128-7-7 3.128-7 7-7zm13.662.844a14.985 14.985 0 0 1 1.252 4.652H26.82a10.96 10.96 0 0 0-.703-2.605l3.545-2.047zm-27.312.01 3.529 2.039c-.342.838-.579 1.71-.705 2.607H1.102A14.987 14.987 0 0 1 2.35 9.854zM.5 16.504a.5.5 0 0 0-.498.533c.138 2.11.691 4.17 1.629 6.065a.5.5 0 0 0 .697.212l4.379-2.529a.5.5 0 0 0 .205-.64 10.007 10.007 0 0 1-.857-3.19.5.5 0 0 0-.498-.451H.5zm25.95 0a.5.5 0 0 0-.499.451 9.997 9.997 0 0 1-.861 3.19.5.5 0 0 0 .205.642l4.365 2.522a.5.5 0 0 0 .7-.213 16.026 16.026 0 0 0 1.622-6.059.5.5 0 0 0-.498-.533H26.45zm-25.364 1H5.18c.126.895.36 1.766.7 2.603l-3.544 2.047a14.985 14.985 0 0 1-1.25-4.65zm25.74 0h4.072a14.997 14.997 0 0 1-1.246 4.644l-3.529-2.039c.341-.837.577-1.71.703-2.605zM7.437 21.588a.5.5 0 0 0-.226.064L2.834 24.18a.5.5 0 0 0-.166.71 16.037 16.037 0 0 0 4.44 4.444.5.5 0 0 0 .71-.166l2.526-4.375a.5.5 0 0 0-.143-.654 9.998 9.998 0 0 1-2.332-2.34.5.5 0 0 0-.431-.211zm17.067 0a.5.5 0 0 0-.367.209 9.996 9.996 0 0 1-2.338 2.332.5.5 0 0 0-.145.658l2.526 4.375a.5.5 0 0 0 .71.166 16.038 16.038 0 0 0 4.444-4.437.5.5 0 0 0-.166-.711l-4.375-2.526a.5.5 0 0 0-.238-.066.5.5 0 0 0-.051 0zm-17.12 1.121a10.972 10.972 0 0 0 1.905 1.91l-2.045 3.543a14.986 14.986 0 0 1-3.402-3.406l3.543-2.047zm17.235 0 3.541 2.045a14.986 14.986 0 0 1-3.406 3.4l-2.045-3.54a10.97 10.97 0 0 0 1.91-1.905zm-13.008 2.33a.5.5 0 0 0-.398.25L8.69 29.656a.5.5 0 0 0 .213.698 16.026 16.026 0 0 0 6.06 1.625.5.5 0 0 0 .534-.499v-5.035a.5.5 0 0 0-.451-.498 9.996 9.996 0 0 1-3.192-.863.5.5 0 0 0-.193-.045.5.5 0 0 0-.05 0zm8.713 0a.5.5 0 0 0-.18.045c-1.008.46-2.087.75-3.19.857a.5.5 0 0 0-.452.498v5.059a.5.5 0 0 0 .533.498 16.036 16.036 0 0 0 6.069-1.63.5.5 0 0 0 .21-.698l-2.529-4.379a.5.5 0 0 0-.46-.25zm-8.433 1.076c.838.342 1.71.578 2.607.705v4.07a14.996 14.996 0 0 1-4.646-1.244l2.039-3.53zm8.216 0 2.047 3.545a14.985 14.985 0 0 1-4.652 1.252v-4.096c.896-.125 1.767-.36 2.605-.7z" color="#000" font-family="sans-serif" font-weight="400" overflow="visible" style="line-height:normal;text-indent:0;text-align:start;text-decoration-line:none;text-decoration-style:solid;text-decoration-color:#000;text-transform:none;block-progression:tb;white-space:normal;isolation:auto;mix-blend-mode:normal;solid-color:#000;solid-opacity:1" fill="#000000" class="color000 svgShape"></path></svg>