<svg xmlns="http://www.w3.org/2000/svg" viewBox="0 0 64 64">
    <path fill="#006778" d="m62.53 22.54-1 1.12c-1.06 1.15-2.31 2.5-3.76 3.93l2.82 2.67a2.5 2.5 0 1 1-3.43 3.63L54 31a41.34 41.34 0 0 1-6.47 4.44L49.3 39a2.5 2.5 0 1 1-4.49 2.18L43 37.49a31.51 31.51 0 0 1-8.52 1.9v3.78a2.5 2.5 0 0 1-5 0v-3.78a31.51 31.51 0 0 1-8.48-1.9l-1.79 3.68A2.5 2.5 0 1 1 14.7 39l1.74-3.59A41.34 41.34 0 0 1 10 31l-3.1 2.93a2.5 2.5 0 1 1-3.43-3.63l2.82-2.67c-1.45-1.43-2.7-2.78-3.76-3.94l-1-1.11a2.5 2.5 0 1 1 3.65-3.42l1.06 1.15C11.07 25.59 19.26 34.49 32 34.49s20.93-8.9 25.82-14.22l1.06-1.15a2.5 2.5 0 1 1 3.65 3.42Z"/>
</svg>