<svg xmlns="http://www.w3.org/2000/svg" fill="none" viewBox="0 0 24 24"><path fill="#EE4D4D" fill-rule="evenodd" d="M3.55208 6.99234L3.55298 6.99331L3.55954 7.00036L3.59009 7.03263C3.61809 7.06196 3.66119 7.10651 3.71856 7.16412C3.83335 7.27938 4.00495 7.44658 4.22676 7.64842C4.67111 8.05279 5.31288 8.59249 6.09921 9.13132C7.68824 10.2202 9.78696 11.25 12 11.25C14.213 11.25 16.3118 10.2202 17.9008 9.13132C18.6871 8.59249 19.3289 8.05279 19.7733 7.64842C19.9951 7.44658 20.1667 7.27938 20.2815 7.16412C20.3388 7.10651 20.3819 7.06196 20.4099 7.03263L20.4405 7.00036L20.447 6.99331C20.4471 6.99323 20.4479 6.99243 20.4479 6.99234C20.7282 6.68764 21.2025 6.66757 21.5074 6.94769C21.8124 7.22791 21.8325 7.70236 21.5523 8.00739L21 7.5C21.5523 8.00739 21.5525 8.0072 21.5523 8.00739L21.5504 8.00948L21.5469 8.01321L21.5355 8.02546C21.5259 8.03572 21.5123 8.05014 21.4949 8.06844C21.4599 8.10503 21.4095 8.15716 21.3443 8.2226C21.214 8.35343 21.0246 8.53779 20.7828 8.75783C20.3 9.19721 19.6041 9.78251 18.7487 10.3687C17.0542 11.5298 14.653 12.75 12 12.75C9.34706 12.75 6.94578 11.5298 5.25131 10.3687C4.39588 9.78251 3.70002 9.19721 3.21719 8.75783C2.9754 8.53779 2.78602 8.35343 2.65572 8.2226C2.59055 8.15716 2.54008 8.10503 2.50515 8.06844C2.48768 8.05014 2.47409 8.03572 2.46448 8.02546L2.45306 8.01321L2.44962 8.00948L2.44846 8.00823C2.44828 8.00804 2.44769 8.00739 3 7.5L2.44769 8.00739C2.16746 7.70236 2.18758 7.22791 2.49261 6.94769C2.79756 6.66754 3.27182 6.68756 3.55208 6.99234Z" clip-rule="evenodd"/><path fill="#EE4D4D" fill-rule="evenodd" d="M12 17.25C12.4142 17.25 12.75 16.9142 12.75 16.5V12C12.75 11.5858 12.4142 11.25 12 11.25 11.5858 11.25 11.25 11.5858 11.25 12V16.5C11.25 16.9142 11.5858 17.25 12 17.25zM3.96967 14.5303C4.26256 14.8232 4.73744 14.8232 5.03033 14.5303L8.03033 11.5303C8.32322 11.2374 8.32322 10.7626 8.03033 10.4697 7.73744 10.1768 7.26256 10.1768 6.96967 10.4697L3.96967 13.4697C3.67678 13.7626 3.67678 14.2374 3.96967 14.5303zM20.0303 14.5303C19.7374 14.8232 19.2626 14.8232 18.9697 14.5303L15.9697 11.5303C15.6768 11.2374 15.6768 10.7626 15.9697 10.4697 16.2626 10.1768 16.7374 10.1768 17.0303 10.4697L20.0303 13.4697C20.3232 13.7626 20.3232 14.2374 20.0303 14.5303z" clip-rule="evenodd"/><path fill="#000" fill-rule="evenodd" d="M3.55208 6.99234L3.55298 6.99331L3.55954 7.00036L3.59009 7.03263C3.61809 7.06196 3.66119 7.10651 3.71856 7.16412C3.83335 7.27938 4.00495 7.44658 4.22676 7.64842C4.67111 8.05279 5.31288 8.59249 6.09921 9.13132C7.68824 10.2202 9.78696 11.25 12 11.25C14.213 11.25 16.3118 10.2202 17.9008 9.13132C18.6871 8.59249 19.3289 8.05279 19.7733 7.64842C19.9951 7.44658 20.1667 7.27938 20.2815 7.16412C20.3388 7.10651 20.3819 7.06196 20.4099 7.03263L20.4405 7.00036L20.447 6.99331C20.4471 6.99323 20.4479 6.99243 20.4479 6.99234C20.7282 6.68764 21.2025 6.66757 21.5074 6.94769C21.8124 7.22791 21.8325 7.70236 21.5523 8.00739L21 7.5C21.5523 8.00739 21.5525 8.0072 21.5523 8.00739L21.5504 8.00948L21.5469 8.01321L21.5355 8.02546C21.5259 8.03572 21.5123 8.05014 21.4949 8.06844C21.4599 8.10503 21.4095 8.15716 21.3443 8.2226C21.214 8.35343 21.0246 8.53779 20.7828 8.75783C20.3 9.19721 19.6041 9.78251 18.7487 10.3687C17.0542 11.5298 14.653 12.75 12 12.75C9.34706 12.75 6.94578 11.5298 5.25131 10.3687C4.39588 9.78251 3.70002 9.19721 3.21719 8.75783C2.9754 8.53779 2.78602 8.35343 2.65572 8.2226C2.59055 8.15716 2.54008 8.10503 2.50515 8.06844C2.48768 8.05014 2.47409 8.03572 2.46448 8.02546L2.45306 8.01321L2.44962 8.00948L2.44846 8.00823C2.44828 8.00804 2.44769 8.00739 3 7.5L2.44769 8.00739C2.16746 7.70236 2.18758 7.22791 2.49261 6.94769C2.79756 6.66754 3.27182 6.68756 3.55208 6.99234Z" clip-rule="evenodd"/><path fill="#000" fill-rule="evenodd" d="M12 17.25C12.4142 17.25 12.75 16.9142 12.75 16.5V12C12.75 11.5858 12.4142 11.25 12 11.25 11.5858 11.25 11.25 11.5858 11.25 12V16.5C11.25 16.9142 11.5858 17.25 12 17.25zM3.96967 14.5303C4.26256 14.8232 4.73744 14.8232 5.03033 14.5303L8.03033 11.5303C8.32322 11.2374 8.32322 10.7626 8.03033 10.4697 7.73744 10.1768 7.26256 10.1768 6.96967 10.4697L3.96967 13.4697C3.67678 13.7626 3.67678 14.2374 3.96967 14.5303zM20.0303 14.5303C19.7374 14.8232 19.2626 14.8232 18.9697 14.5303L15.9697 11.5303C15.6768 11.2374 15.6768 10.7626 15.9697 10.4697 16.2626 10.1768 16.7374 10.1768 17.0303 10.4697L20.0303 13.4697C20.3232 13.7626 20.3232 14.2374 20.0303 14.5303z" clip-rule="evenodd"/></svg>