<?xml version="1.0" encoding="UTF-8" standalone="no"?>
<!DOCTYPE svg PUBLIC "-//W3C//DTD SVG 1.1//EN" "http://www.w3.org/Graphics/SVG/1.1/DTD/svg11.dtd">
<svg xmlns="http://www.w3.org/2000/svg" version="1.1" viewBox="0 0 360 360" width="360" height="360">
<path stroke="#ffffff"  vector-effect="non-scaling-stroke" d="
  M 149.81 53.07
  Q 149.70 129.41 149.89 205.75
  Q 149.90 209.27 149.91 205.50
  Q 150.14 129.28 149.81 53.07
  Q 149.81 52.56 149.81 53.07"
/>
<path fill="#ffffff" d="
  M 232.25 259.96
  Q 209.69 288.33 202.31 298.31
  Q 196.69 305.92 191.06 311.61
  Q 188.54 314.16 186.14 314.65
  Q 183.01 315.31 180.04 313.95
  Q 178.68 313.33 177.08 311.82
  Q 175.34 310.19 174.56 309.19
  Q 155.44 284.70 136.00 260.46
  Q 125.68 246.61 114.93 233.10
  Q 110.49 227.51 109.59 224.72
  Q 107.94 219.59 110.25 214.25
  Q 112.93 208.05 120.25 208.03
  Q 134.25 208.00 148.83 208.00
  A 0.67 0.67 45.0 0 0 149.50 207.33
  Q 149.50 128.50 149.50 49.75
  Q 149.50 38.64 154.31 30.06
  Q 155.13 28.60 156.92 27.79
  Q 158.10 27.26 160.17 27.22
  Q 183.84 26.82 207.50 27.07
  Q 214.03 27.14 215.46 32.55
  Q 216.52 36.56 216.58 36.73
  Q 218.75 42.89 218.75 48.25
  Q 218.80 127.84 218.69 207.45
  A 0.61 0.60 89.5 0 0 219.30 208.06
  Q 232.19 207.97 245.08 207.99
  Q 250.99 208.00 253.66 209.43
  Q 258.30 211.92 259.25 217.75
  Q 260.03 222.58 257.76 226.83
  Q 257.22 227.84 252.45 233.93
  Q 242.30 246.90 232.25 259.96
  Z
  M 155.21 52.00
  Q 154.84 131.12 155.00 210.25
  Q 155.00 211.78 155.46 212.25
  Q 155.62 212.70 155.50 213.08
  A 0.85 0.61 5.6 0 1 154.75 213.51
  Q 137.79 213.90 120.82 213.77
  Q 118.44 213.75 117.02 214.91
  Q 114.07 217.33 114.47 220.89
  Q 114.75 223.40 117.85 227.38
  Q 148.83 267.13 180.06 306.69
  Q 181.82 308.92 184.13 308.88
  Q 185.84 308.85 187.63 306.87
  Q 190.72 303.45 193.55 299.81
  Q 221.57 263.84 249.69 227.94
  Q 252.37 224.51 253.50 221.96
  Q 255.18 216.84 250.79 214.25
  Q 250.29 213.73 248.75 213.75
  Q 230.87 213.93 213.14 213.50
  A 0.46 0.46 0.6 0 1 212.69 213.04
  Q 212.94 129.26 212.51 45.82
  Q 212.50 43.17 211.54 40.36
  Q 210.41 37.10 209.61 33.74
  A 0.64 0.63 84.1 0 0 209.01 33.24
  Q 184.25 32.64 159.50 33.24
  A 0.79 0.77 11.2 0 0 158.80 33.70
  Q 155.03 42.42 155.21 52.00
  Z
  M 149.81 53.07
  Q 149.70 129.41 149.89 205.75
  Q 149.90 209.27 149.91 205.50
  Q 150.14 129.28 149.81 53.07
  Q 149.81 52.56 149.81 53.07
  Z"
/>
<g fill="#000000">
<path d="
  M 250.79 214.25
  Q 250.59 215.09 251.11 215.52
  Q 251.73 216.03 251.78 216.10
  Q 253.73 218.67 253.50 221.96
  Q 252.37 224.51 249.69 227.94
  Q 221.57 263.84 193.55 299.81
  Q 190.72 303.45 187.63 306.87
  Q 185.84 308.85 184.13 308.88
  Q 181.82 308.92 180.06 306.69
  Q 148.83 267.13 117.85 227.38
  Q 114.75 223.40 114.47 220.89
  Q 114.07 217.33 117.02 214.91
  Q 118.44 213.75 120.82 213.77
  Q 137.79 213.90 154.75 213.51
  A 0.85 0.61 5.6 0 0 155.50 213.08
  Q 155.62 212.70 155.46 212.25
  Q 155.40 188.28 155.49 164.31
  Q 155.64 127.15 155.34 89.99
  Q 155.31 87.10 155.58 71.01
  Q 155.74 61.50 155.21 52.00
  Q 155.03 42.42 158.80 33.70
  A 0.79 0.77 11.2 0 1 159.50 33.24
  Q 184.25 32.64 209.01 33.24
  A 0.64 0.63 84.1 0 1 209.61 33.74
  Q 210.41 37.10 211.54 40.36
  Q 212.50 43.17 212.51 45.82
  Q 212.94 129.26 212.69 213.04
  A 0.46 0.46 0.6 0 0 213.14 213.50
  Q 230.87 213.93 248.75 213.75
  Q 250.29 213.73 250.79 214.25
  Z"
/>
<path d="
  M 136.00 260.46
  Q 155.44 284.70 174.56 309.19
  Q 175.34 310.19 177.08 311.82
  Q 178.68 313.33 180.04 313.95
  Q 183.01 315.31 186.14 314.65
  Q 188.54 314.16 191.06 311.61
  Q 196.69 305.92 202.31 298.31
  Q 209.69 288.33 232.25 259.96
  Q 233.98 259.73 235.68 259.98
  Q 238.24 260.36 238.35 260.37
  Q 265.33 262.80 291.71 268.97
  Q 309.88 273.22 326.71 281.27
  Q 335.34 285.40 341.96 292.29
  Q 347.57 298.13 346.72 305.07
  Q 346.06 310.42 340.99 315.65
  Q 335.16 321.64 326.81 325.56
  Q 312.71 332.18 301.17 335.36
  Q 290.68 338.25 280.05 340.53
  Q 270.82 342.51 260.36 343.97
  Q 201.30 352.19 141.73 347.25
  Q 113.84 344.93 86.52 338.87
  Q 66.66 334.46 48.30 325.72
  Q 42.51 322.96 37.57 318.99
  Q 31.93 314.46 29.77 310.28
  Q 26.60 304.18 29.32 297.80
  Q 31.25 293.28 36.56 288.83
  Q 41.06 285.07 46.34 282.37
  Q 61.37 274.67 77.74 270.46
  Q 106.45 263.07 136.00 260.46
  Z"
/>
</g>

</svg>
