<svg xmlns="http://www.w3.org/2000/svg" viewBox="0 0 64 64" fill="#fff">
    <path d="M39.117 23.753c-1.32 1.464-2.974 2.997-5.04 4.572-.619.416-1.271.833-1.959 1.256h-.235c-.716-.43-1.382-.86-2.006-1.29-3.555-2.712-5.886-5.292-7.388-7.609-.84-1.294.53-2.887 1.937-2.251 3.689 1.667 8.845 3.404 13.327 2.751 1.43-.208 2.331 1.497 1.364 2.57z"/>
    <circle cx="31.988" cy="36.06" r="1.735"/>
    <circle cx="32" cy="42.395" r="2.777"/>
    <path d="M49.17 54.342c.889-4.268.698-12.984-11.074-22.59 12.932-10.555 11.888-20.035 10.79-23.72 2.173-.585 3.442-1.289 3.442-2.047 0-2.03-9.101-3.676-20.328-3.676S11.672 3.955 11.672 5.985c0 .758 1.269 1.463 3.443 2.048-1.1 3.685-2.145 13.162 10.789 23.719-11.773 9.605-11.963 18.322-11.074 22.59-1.997.57-3.158 1.244-3.158 1.968v1.705c0 2.03 9.101 3.676 20.328 3.676s20.328-1.646 20.328-3.676V56.31c0-.724-1.16-1.399-3.158-1.968zm-3.382-.734c-.883-.147-1.84-.28-2.856-.398-.818-1.01-2.828-2.48-7.283-5.154a7.86 7.86 0 0 0-4.927-1.088c-.375.043-.677.105-.834.187-5.533 3.26-7.906 4.941-8.816 6.055a56.85 56.85 0 0 0-2.857.398c-.712-3.465-.542-11.318 11.351-20.321.48-.363.766-.938.764-1.54a1.93 1.93 0 0 0-.763-1.53C16.425 20.268 17.597 11.724 18.451 8.96h1.597c3.355.442 7.483.703 11.952.703s8.597-.261 11.952-.703h1.59c.832 2.76 1.974 11.351-11.109 21.258a1.934 1.934 0 0 0-.763 1.535c0 .6.285 1.173.763 1.534 11.896 9.009 12.063 16.865 11.355 20.322z"/>
</svg>