<svg xmlns="http://www.w3.org/2000/svg" enable-background="new 0 0 32 32" viewBox="0 0 32 32">
    <path fill="#ff780a" d="M20.5,4h-3C17.224,4,17,3.776,17,3.5S17.224,3,17.5,3h3C20.776,3,21,3.224,21,3.5S20.776,4,20.5,4z"/>
    <path fill="#ff780a" d="M24.5,31h-11c-1.379,0-2.5-1.122-2.5-2.5v-4c0-0.276,0.224-0.5,0.5-0.5s0.5,0.224,0.5,0.5v4
							c0,0.827,0.673,1.5,1.5,1.5h11c0.827,0,1.5-0.673,1.5-1.5v-25C26,2.673,25.327,2,24.5,2h-11C12.673,2,12,2.673,12,3.5v5
							C12,8.777,11.776,9,11.5,9S11,8.777,11,8.5v-5C11,2.122,12.121,1,13.5,1h11C25.879,1,27,2.122,27,3.5v25
							C27,29.878,25.879,31,24.5,31z"/>
    <path fill="#ff780a" d="M15.5,23h-8C6.121,23,5,21.878,5,20.5v-8C5,11.122,6.121,10,7.5,10h8c1.379,0,2.5,1.122,2.5,2.5v8
						C18,21.878,16.879,23,15.5,23z M7.5,11C6.673,11,6,11.673,6,12.5v8C6,21.327,6.673,22,7.5,22h8c0.827,0,1.5-0.673,1.5-1.5v-8
						c0-0.827-0.673-1.5-1.5-1.5H7.5z"/>
    <path fill="#ff780a" d="M14.5 21h-6C8.224 21 8 20.776 8 20.5S8.224 20 8.5 20h6c.276 0 .5.224.5.5S14.776 21 14.5 21zM11.5 19c-.276 0-.5-.224-.5-.5v-5c0-.276.224-.5.5-.5s.5.224.5.5v5C12 18.776 11.776 19 11.5 19z"/>
    <path fill="#ff780a" d="M11.5,19c-0.128,0-0.256-0.049-0.354-0.146l-1.5-1.5c-0.195-0.195-0.195-0.512,0-0.707
							s0.512-0.195,0.707,0l1.146,1.146l1.146-1.146c0.195-0.195,0.512-0.195,0.707,0s0.195,0.512,0,0.707l-1.5,1.5
							C11.756,18.951,11.628,19,11.5,19z"/>
    <g>
        <path fill="#ff780a" d="M17 26h-.101c-.276 0-.5-.224-.5-.5s.224-.5.5-.5H17c.276 0 .5.224.5.5S17.276 26 17 26zM19 26h-.101c-.276 0-.5-.224-.5-.5s.224-.5.5-.5H19c.276 0 .5.224.5.5S19.276 26 19 26zM21 26h-.101c-.276 0-.5-.224-.5-.5s.224-.5.5-.5H21c.276 0 .5.224.5.5S21.276 26 21 26z"/>
    </g>
</svg>