<svg xmlns="http://www.w3.org/2000/svg" viewBox="0 0 64 64">
    <path d="M19.68 33.24H4a1 1 0 0 0-1 1v15.68a1 1 0 0 0 1 1h15.68a1 1 0 0 0 1-1V34.24a1 1 0 0 0-1-1zm-1 15.68H5V35.24h13.68v13.68zm21.16-15.68H24.16a1 1 0 0 0-1 1v15.68a1 1 0 0 0 1 1h15.68a1 1 0 0 0 1-1V34.24a1 1 0 0 0-1-1zm-1 15.68H25.16V35.24h13.68v13.68zM60 33.24H44.32a1 1 0 0 0-1 1v15.68a1 1 0 0 0 1 1H60a1 1 0 0 0 1-1V34.24a1 1 0 0 0-1-1zm-1 15.68H45.32V35.24H59v13.68zM39.84 13.08H24.16a1 1 0 0 0-1 1v15.68a1 1 0 0 0 1 1h15.68a1 1 0 0 0 1-1V14.08a1 1 0 0 0-1-1zm-1 15.68H25.16V15.08h13.68v13.68z"/>
    <path d="M28.925 25.122a1 1 0 0 0 1.873 0L32 21.917l1.201 3.205a1 1 0 0 0 1.873 0l2.139-5.702a1.001 1.001 0 0 0-1.873-.702l-1.202 3.205-1.201-3.205a1 1 0 0 0-1.874 0l-1.201 3.205-1.202-3.205a1 1 0 0 0-1.873.702l2.138 5.702zm-.063 19.81a1 1 0 0 0 1 1h4.276a1 1 0 0 0 1-1v-1.427a1 1 0 0 0-.446-.832l-3.666-2.444h3.112a1 1 0 1 0 0-2h-4.276a1 1 0 0 0-1 1v1.426a1 1 0 0 0 .445.832l3.667 2.444h-3.112a1 1 0 0 0-1 1zm-20.32.894a1 1 0 0 0 1.342-.447l1.956-3.914 1.956 3.913a1 1 0 1 0 1.79-.894l-2.852-5.702c-.338-.678-1.45-.678-1.789 0l-2.85 5.702a1 1 0 0 0 .447 1.342zm40.768.105h3.7c1.655 0 3-1.346 3-3V41.23c0-1.654-1.345-3-3-3h-3.7a1 1 0 0 0-1 1v5.702a1 1 0 0 0 1 1zm1-5.702h2.7c.552 0 1 .449 1 1v1.702c0 .551-.448 1-1 1h-2.7V40.23z"/>
</svg>