<svg xmlns="http://www.w3.org/2000/svg" viewBox="0 0 24 24">
    <path d="M19.9 23.4H4.1c-1.9 0-3.5-1.6-3.5-3.5V4.1C.6 2.2 2.2.6 4.1.6h15.8c1.9 0 3.5 1.6 3.5 3.5v15.8c0 1.9-1.6 3.5-3.5 3.5zM4.1 1.6c-1.4 0-2.5 1.1-2.5 2.5v15.8c0 1.4 1.1 2.5 2.5 2.5h15.8c1.4 0 2.5-1.1 2.5-2.5V4.1c0-1.4-1.1-2.5-2.5-2.5H4.1z"/>
    <path d="M18.6 16.3h-10c-.1 0-.3-.1-.4-.2L5 12.3c-.2-.2-.2-.5 0-.6l3.2-3.8c.1-.1.2-.2.4-.2h10c.3 0 .5.2.5.5v7.7c0 .2-.2.4-.5.4zm-9.7-1h9.2V8.7H8.9L6.1 12l2.8 3.3z"/>
    <path d="M13.5 14c-.1 0-.3 0-.4-.1L10 10.8c-.2-.2-.2-.5 0-.7.2-.2.5-.2.7 0l3.1 3.1c.2.2.2.5 0 .7 0 .1-.1.1-.3.1z"/>
    <path d="M10.5 14c-.1 0-.3 0-.4-.1-.2-.2-.2-.5 0-.7l3.1-3.1c.2-.2.5-.2.7 0 .2.2.2.5 0 .7l-3.1 3.1c-.1.1-.2.1-.3.1z"/>
</svg>