<svg xmlns="http://www.w3.org/2000/svg" viewBox="0 0 24 24">
    <path d="M19.9 23.4H4.1c-1.9 0-3.5-1.6-3.5-3.5V4.1C.6 2.2 2.2.6 4.1.6h15.8c1.9 0 3.5 1.6 3.5 3.5v15.8c0 1.9-1.6 3.5-3.5 3.5zM4.1 1.6c-1.4 0-2.5 1.1-2.5 2.5v15.8c0 1.4 1.1 2.5 2.5 2.5h15.8c1.4 0 2.5-1.1 2.5-2.5V4.1c0-1.4-1.1-2.5-2.5-2.5H4.1z"/>
    <path d="M9 11.2c-.1 0-.3 0-.4-.1-.2-.2-.2-.5 0-.7l3-2.9c.2-.2.5-.2.7 0l2.9 2.9c.2.2.2.5 0 .7s-.5.2-.7 0L12 8.5l-2.6 2.6c-.1.1-.2.1-.4.1z"/>
    <path d="M12 16.7c-.3 0-.5-.2-.5-.5V7.8c0-.3.2-.5.5-.5s.5.2.5.5v8.5c0 .2-.2.4-.5.4z"/>
</svg>