<svg xmlns="http://www.w3.org/2000/svg" viewBox="0 0 24 24">
    <path d="M19.9 23.4H4.1c-1.9 0-3.5-1.6-3.5-3.5V4.1C.6 2.2 2.2.6 4.1.6h15.8c1.9 0 3.5 1.6 3.5 3.5v15.8c0 1.9-1.6 3.5-3.5 3.5zM4.1 1.6c-1.4 0-2.5 1.1-2.5 2.5v15.8c0 1.4 1.1 2.5 2.5 2.5h15.8c1.4 0 2.5-1.1 2.5-2.5V4.1c0-1.4-1.1-2.5-2.5-2.5H4.1z"/>
    <path d="M8.3 18.4c-1.5 0-2.7-1.2-2.7-2.7 0-.3.2-.5.5-.5s.5.2.5.5c0 .9.7 1.7 1.7 1.7.9 0 1.7-.7 1.7-1.7V8.3c0-.9-.7-1.7-1.7-1.7-.9 0-1.7.7-1.7 1.7 0 .3-.2.5-.5.5s-.5-.2-.5-.5c0-1.5 1.2-2.7 2.7-2.7 1.5 0 2.7 1.2 2.7 2.7v7.4c-.1 1.5-1.2 2.7-2.7 2.7z"/>
    <path d="M15.7 10.9H8.3c-1.5 0-2.7-1.2-2.7-2.7 0-1.5 1.2-2.7 2.7-2.7.3 0 .5.2.5.5s-.2.6-.5.6c-.9 0-1.7.7-1.7 1.7 0 .9.7 1.7 1.7 1.7h7.4c.9 0 1.7-.7 1.7-1.7 0-.9-.7-1.7-1.7-1.7-.3 0-.5-.2-.5-.5s.2-.5.5-.5c1.5 0 2.7 1.2 2.7 2.7 0 1.5-1.2 2.6-2.7 2.6z"/>
    <path d="M15.7 18.4c-1.5 0-2.7-1.2-2.7-2.7V8.3c0-1.5 1.2-2.7 2.7-2.7 1.5 0 2.7 1.2 2.7 2.7 0 .3-.2.5-.5.5s-.5-.2-.5-.5c0-.9-.7-1.7-1.7-1.7-.9 0-1.7.7-1.7 1.7v7.4c0 .9.7 1.7 1.7 1.7.9 0 1.7-.7 1.7-1.7 0-.3.2-.5.5-.5s.5.2.5.5c0 1.5-1.2 2.7-2.7 2.7z"/>
    <path d="M15.7 18.4c-.3 0-.5-.2-.5-.5s.2-.5.5-.5c.9 0 1.7-.7 1.7-1.7 0-.9-.7-1.7-1.7-1.7H8.3c-.9 0-1.7.7-1.7 1.7 0 .9.7 1.7 1.7 1.7.3 0 .5.2.5.5s-.2.5-.5.5c-1.5 0-2.7-1.2-2.7-2.7S6.8 13 8.3 13h7.4c1.5 0 2.7 1.2 2.7 2.7 0 1.5-1.2 2.7-2.7 2.7z"/>
</svg>