<svg xmlns="http://www.w3.org/2000/svg" viewBox="0 0 24 24">
    <path d="M19.9 23.4H4.1c-1.9 0-3.5-1.6-3.5-3.5V4.1C.6 2.2 2.2.6 4.1.6h15.8c1.9 0 3.5 1.6 3.5 3.5v15.8c0 1.9-1.6 3.5-3.5 3.5zM4.1 1.6c-1.4 0-2.5 1.1-2.5 2.5v15.8c0 1.4 1.1 2.5 2.5 2.5h15.8c1.4 0 2.5-1.1 2.5-2.5V4.1c0-1.4-1.1-2.5-2.5-2.5H4.1z"/>
    <path d="M13.3 15.5c-.1 0-.3 0-.4-.1-.2-.2-.2-.5 0-.7l2.6-2.6-2.6-2.6c-.2-.2-.2-.5 0-.7.2-.2.5-.2.7 0l3 2.9c.1.1.1.2.1.4s-.1.3-.1.4l-3 3c-.1-.1-.2 0-.3 0z"/>
    <path d="M16.2 12.5H7.8c-.3 0-.5-.2-.5-.5s.2-.5.5-.5h8.5c.3 0 .5.2.5.5s-.3.5-.6.5z"/>
</svg>