<svg class="img-fluid" id="outputsvg" xmlns="http://www.w3.org/2000/svg" width="380" height="380" viewBox="0 0 3800 3800">
    <path fill="#ff780a" id="pRtagMTe5" d="M363 3510 c-88 -18 -169 -82 -211 -165 -33 -67 -47 -184 -33 -279 18 -119 36 -177 96 -296 64 -128 102 -184 273 -405 73 -93 132 -173 132 -176 0 -4 -17 -10 -37 -14 -47 -9 -172 -58 -246 -97 -165 -88 -246 -239 -213 -398 50 -240 243 -399 822 -681 l220 -108 22 -88 c31 -123 108 -275 182 -355 150 -164 384 -250 598 -218 301 43 526 257 604 574 l22 88 200 97 c372 180 566 298 687 420 89 89 134 169 154 275 31 162 -47 306 -212 394 -74 39 -199 88 -246 97 -20 4 -37 10 -37 13 0 7 99 139 171 228 127 156 250 362 293 489 10 27 24 94 32 150 26 171 -6 297 -98 381 -87 81 -73 79 -683 79 l-540 0 -73 -34 c-90 -42 -130 -85 -196 -212 -80 -155 -160 -299 -166 -299 -7 0 -75 119 -151 265 -85 163 -113 196 -206 242 l-77 38 -520 2 c-287 1 -540 -3 -563 -7z m1061 -204 c50 -21 70 -48 153 -206 96 -182 206 -360 260 -419 l41 -46 31 30 c48 45 159 221 256 405 48 90 95 176 106 191 41 58 53 59 592 59 529 0 521 0 561 -53 17 -24 21 -42 20 -110 0 -45 -6 -107 -13 -137 -29 -120 -138 -309 -280 -484 -86 -106 -237 -308 -298 -399 -38 -58 -50 -83 -41 -88 7 -3 40 -9 73 -13 85 -9 277 -60 362 -95 159 -65 214 -131 192 -230 -33 -155 -205 -283 -725 -541 -166 -82 -304 -156 -308 -165 -3 -9 -6 -29 -6 -44 0 -46 -38 -178 -69 -244 -60 -123 -163 -220 -286 -267 -86 -34 -244 -34 -330 0 -131 51 -224 137 -285 265 -32 68 -70 200 -70 246 0 15 -3 35 -6 44 -4 9 -142 83 -308 165 -506 250 -678 376 -722 527 -15 51 -15 58 1 100 22 56 80 101 195 146 96 39 266 83 355 93 33 4 66 10 72 13 17 9 -59 123 -221 334 -66 87 -156 204 -198 260 -97 127 -183 295 -204 397 -28 135 -7 235 57 267 37 19 997 18 1043 -1z"/>
</svg>