<?xml version="1.0" encoding="utf-8"?>
<svg width="512" height="512" viewBox="0 0 5120 5120" xmlns="http://www.w3.org/2000/svg">
  <g id="l5Z3VKgCgMVmlQoOiEzWV85" fill="rgb(0,0,0)" style="transform: none;">
    <g>
      <path fill="#ff780a" id="pSkvZPXe0" d="M 2355 456.754 C 2206 471.754 2076 495.754 1985 524.754 C 1958 533.754 1919 545.754 1900 551.754 C 1690 615.754 1416 765.754 1221 923.754 C 854 1222.754 583 1667.754 490 2125.754 C 465 2250.754 461 2279.754 449 2415.754 C 432 2626.754 460 2901.754 524 3134.754 C 533 3167.754 545 3199.754 551 3206.754 C 568 3227.754 611 3232.754 635 3216.754 C 676 3189.754 676 3178.754 637 3030.754 C 629 3000.754 618 2943.754 612 2905.754 C 606 2866.754 596 2805.754 591 2769.754 C 585 2732.754 580 2642.754 580 2569.754 C 580 2037.754 787 1533.754 1160 1160.754 C 1444 876.754 1804 688.754 2210 611.754 C 2489 559.754 2820 574.754 3085 651.754 C 3434 753.754 3718 918.754 3960 1160.754 C 4202 1402.754 4367 1686.754 4469 2035.754 C 4598 2479.754 4550 2994.754 4339 3427.754 C 4060 3999.754 3548 4386.754 2910 4509.754 C 2460 4595.754 1964 4505.754 1550 4264.754 C 1430 4194.754 1240 4048.754 1240 4026.754 C 1240 4020.754 1277 3978.754 1322 3933.754 C 1413 3841.754 1414 3833.754 1335 3818.754 C 1310 3814.754 1270 3806.754 1245 3800.754 C 1220 3795.754 1180 3786.754 1155 3780.754 C 1130 3775.754 1090 3765.754 1065 3760.754 C 1040 3754.754 1001 3746.754 978 3741.754 C 861 3715.754 845 3712.754 838 3718.754 C 832 3725.754 835 3741.754 861 3857.754 C 866 3881.754 875 3920.754 880 3945.754 C 886 3970.754 895 4010.754 900 4035.754 C 905 4060.754 914 4100.754 920 4125.754 C 925 4150.754 934 4190.754 938 4215.754 C 953 4294.754 961 4293.754 1053 4203.754 C 1135 4122.754 1135 4122.754 1205 4182.754 C 1393 4344.754 1662 4492.754 1914 4574.754 C 2165 4656.754 2460 4692.754 2703 4671.754 C 2781 4664.754 2865 4655.754 2890 4650.754 C 3160 4599.754 3314 4549.754 3525 4440.754 C 4050 4171.754 4439 3694.754 4598 3125.754 C 4616 3060.754 4624 3022.754 4649 2895.754 C 4674 2764.754 4684 2562.754 4671 2417.754 C 4664 2339.754 4655 2255.754 4650 2230.754 C 4645 2205.754 4636 2158.754 4629 2125.754 C 4555 1746.754 4341 1351.754 4055 1065.754 C 3796 806.754 3418 589.754 3090 512.754 C 2929 474.754 2920 473.754 2750 455.754 C 2583 438.754 2521 438.754 2355 456.754 Z" transform="matrix(-1, 0, 0, -1, 5120.826719, 5120.753827)"/>
      <path fill="#ff780a" id="pT30Rw7Xe" d="M 2689.805 4288.984 C 2689.805 4217.725 2632.038 4159.958 2560.778 4159.958 C 2489.519 4159.958 2431.752 4217.725 2431.752 4288.984 C 2431.752 4360.243 2489.519 4418.01 2560.778 4418.01 C 2632.038 4418.01 2689.805 4360.243 2689.805 4288.984 Z M 2494.73 4176.968" transform="matrix(-1, 0, 0, -1, 5121.556748, 8577.967762)"/>
      <path fill="#ff780a" id="ppTCvTKJC" d="M 3074.176 4229.407 C 3074.176 4192.854 3044.544 4163.222 3007.991 4163.222 C 2971.438 4163.222 2941.806 4192.854 2941.806 4229.407 C 2941.806 4265.96 2971.438 4295.592 3007.991 4295.592 C 3044.544 4295.592 3074.176 4265.96 3074.176 4229.407 Z M 2979.155 4170.813" transform="matrix(-1, 0, 0, -1, 6015.981865, 8458.814325)"/>
      <path fill="#ff780a" id="p13u429HLv" d="M 2179.798 4229.607 C 2179.798 4193.063 2150.173 4163.438 2113.629 4163.438 C 2077.084 4163.438 2047.46 4193.063 2047.46 4229.607 C 2047.46 4266.152 2077.084 4295.776 2113.629 4295.776 C 2150.173 4295.776 2179.798 4266.152 2179.798 4229.607 Z M 2072.43 4180.215" transform="matrix(-1, 0, 0, -1, 4227.257994, 8459.214374)"/>
      <path fill="#ff780a" id="pxDz99K66" d="M 3489.302 4056.731 C 3489.302 4021.187 3460.488 3992.373 3424.944 3992.373 C 3389.4 3992.373 3360.586 4021.187 3360.586 4056.731 C 3360.586 4092.275 3389.4 4121.089 3424.944 4121.089 C 3460.488 4121.089 3489.302 4092.275 3489.302 4056.731 Z M 3373.062 4018.461" transform="matrix(-1, 0, 0, -1, 6849.888233, 8113.462079)"/>
      <path fill="#ff780a" id="p1G4BerCMb" d="M 1761.222 4056.798 C 1761.222 4021.222 1732.382 3992.382 1696.806 3992.382 C 1661.23 3992.382 1632.391 4021.222 1632.391 4056.798 C 1632.391 4092.374 1661.23 4121.214 1696.806 4121.214 C 1732.382 4121.214 1761.222 4092.374 1761.222 4056.798 Z M 1648.786 4012.596" transform="matrix(-1, 0, 0, -1, 3393.613035, 8113.596227)"/>
      <path fill="#ff780a" id="pspO9fhS5" d="M 2625.137 3969.278 C 2625.137 3933.799 2596.376 3905.038 2560.897 3905.038 C 2525.418 3905.038 2496.657 3933.799 2496.657 3969.278 C 2496.657 4004.757 2525.418 4033.518 2560.897 4033.518 C 2596.376 4033.518 2625.137 4004.757 2625.137 3969.278 Z M 2527.967 3914.556" transform="matrix(-1, 0, 0, -1, 5121.793903, 7938.556342)"/>
      <path fill="#ff780a" id="pwArSTRrz" d="M 3846.468 3781.494 C 3846.468 3746.064 3817.746 3717.342 3782.317 3717.342 C 3746.887 3717.342 3718.165 3746.064 3718.165 3781.494 C 3718.165 3816.924 3746.887 3845.645 3782.317 3845.645 C 3817.746 3845.645 3846.468 3816.924 3846.468 3781.494 Z M 3738.807 3737.987" transform="matrix(-1, 0, 0, -1, 7564.63278, 7562.987241)"/>
      <path fill="#ff780a" id="pABvwNRjm" d="M 1402.682 3781.896 C 1402.682 3746.444 1373.943 3717.705 1338.492 3717.705 C 1303.04 3717.705 1274.301 3746.444 1274.301 3781.896 C 1274.301 3817.347 1303.04 3846.086 1338.492 3846.086 C 1373.943 3846.086 1402.682 3817.347 1402.682 3781.896 Z M 1306.157 3726.792" transform="matrix(-1, 0, 0, -1, 2676.983079, 7563.790932)"/>
      <path fill="#ff780a" id="p85fzTcvn" d="M 4121.86 3423.352 C 4121.86 3387.761 4093.007 3358.909 4057.416 3358.909 C 4021.825 3358.909 3992.973 3387.761 3992.973 3423.352 C 3992.973 3458.943 4021.825 3487.795 4057.416 3487.795 C 4093.007 3487.795 4121.86 3458.943 4121.86 3423.352 Z M 4017.006 3371.705" transform="matrix(-1, 0, 0, -1, 8114.832733, 6846.703584)"/>
      <path fill="#ff780a" id="p19egCCw0O" d="M 1129.172 3424.037 C 1129.172 3388.264 1100.173 3359.265 1064.401 3359.265 C 1028.629 3359.265 999.629 3388.264 999.629 3424.037 C 999.629 3459.809 1028.629 3488.808 1064.401 3488.808 C 1100.173 3488.808 1129.172 3459.809 1129.172 3424.037 Z M 1030.975 3368.074" transform="matrix(-1, 0, 0, -1, 2128.801036, 6848.073212)"/>
      <path fill="#ff780a" id="pIwvaoPWW" d="M 4295.831 3008.29 C 4295.831 2971.794 4266.245 2942.209 4229.75 2942.209 C 4193.254 2942.209 4163.669 2971.794 4163.669 3008.29 C 4163.669 3044.785 4193.254 3074.371 4229.75 3074.371 C 4266.245 3074.371 4295.831 3044.785 4295.831 3008.29 Z M 4201.673 2948.58" transform="matrix(-1, 0, 0, -1, 8459.499867, 6016.580312)"/>
      <path fill="#ff780a" id="piXUVZazW" d="M 958.267 3007.901 C 958.267 2971.424 928.697 2941.854 892.22 2941.854 C 855.744 2941.854 826.174 2971.424 826.174 3007.901 C 826.174 3044.377 855.744 3073.947 892.22 3073.947 C 928.697 3073.947 958.267 3044.377 958.267 3007.901 Z M 868.613 2947.801" transform="matrix(-1, 0, 0, -1, 1784.440976, 6015.801175)"/>
      <path fill="#ff780a" id="p1D6bF2eZ1" d="M 2492 2968 c -9 -9 -12 -120 -12 -440 0 -311 -3 -428 -11 -428 -6 0 -41 22 -78 49 -108 79 -174 120 -183 115 -4 -3 -8 -43 -8 -90 0 -84 0 -84 46 -117 26 -17 92 -65 148 -104 101 -73 101 -73 188 -73 48 0 89 4 93 9 4 7 8 750 5 1074 0 15 -11 17 -88 17 -55 0 -92 -4 -100 -12 z "/>
      <path fill="#ff780a" id="po04o0HIv" d="M 4418.512 2559.863 C 4418.512 2488.78 4360.887 2431.156 4289.804 2431.156 C 4218.721 2431.156 4161.096 2488.78 4161.096 2559.863 C 4161.096 2630.947 4218.721 2688.571 4289.804 2688.571 C 4360.887 2688.571 4418.512 2630.947 4418.512 2559.863 Z M 4229.782 2446.727" transform="matrix(-1, 0, 0, -1, 8579.608509, 5119.726756)"/>
      <path fill="#ff780a" id="pfelV8nVK" d="M 961.348 2560.424 C 961.348 2489.114 903.54 2431.306 832.231 2431.306 C 760.921 2431.306 703.113 2489.114 703.113 2560.424 C 703.113 2631.733 760.921 2689.541 832.231 2689.541 C 903.54 2689.541 961.348 2631.733 961.348 2560.424 Z M 786.635 2437.848" transform="matrix(-1, 0, 0, -1, 1664.460942, 5120.846653)"/>
      <path fill="#ff780a" id="pECzMTFe6" d="M 4033.941 2560.056 C 4033.941 2524.642 4005.232 2495.933 3969.817 2495.933 C 3934.403 2495.933 3905.694 2524.642 3905.694 2560.056 C 3905.694 2595.47 3934.403 2624.179 3969.817 2624.179 C 4005.232 2624.179 4033.941 2595.47 4033.941 2560.056 Z M 3913.808 2529.112" transform="matrix(-1, 0, 0, -1, 7939.634746, 5120.111833)"/>
      <path fill="#ff780a" id="p4zKL3RnP" d="M 4296.543 2112.77 C 4296.543 2076.211 4266.905 2046.574 4230.346 2046.574 C 4193.786 2046.574 4164.149 2076.211 4164.149 2112.77 C 4164.149 2149.33 4193.786 2178.967 4230.346 2178.967 C 4266.905 2178.967 4296.543 2149.33 4296.543 2112.77 Z M 4180.865 2071.541" transform="matrix(-1, 0, 0, -1, 8460.691629, 4225.541189)"/>
      <path fill="#ff780a" id="p9HFwG8P3" d="M 957.654 2112.701 C 957.654 2076.432 928.252 2047.03 891.983 2047.03 C 855.714 2047.03 826.311 2076.432 826.311 2112.701 C 826.311 2148.971 855.714 2178.373 891.983 2178.373 C 928.252 2178.373 957.654 2148.971 957.654 2112.701 Z M 845.139 2068.403" transform="matrix(-1, 0, 0, -1, 1783.965019, 4225.402849)"/>
      <path fill="#ff780a" id="pWQrV3xbP" d="M 1129.302 1696.73 C 1129.302 1661.186 1100.488 1632.372 1064.944 1632.372 C 1029.4 1632.372 1000.586 1661.186 1000.586 1696.73 C 1000.586 1732.274 1029.4 1761.088 1064.944 1761.088 C 1100.488 1761.088 1129.302 1732.274 1129.302 1696.73 Z M 1013.061 1658.46" transform="matrix(-1, 0, 0, -1, 2129.887994, 3393.460194)"/>
      <path fill="#ff780a" id="pTwR0wQQm" d="M 1403.359 1338.112 C 1403.359 1302.606 1374.576 1273.823 1339.07 1273.823 C 1303.564 1273.823 1274.781 1302.606 1274.781 1338.112 C 1274.781 1373.618 1303.564 1402.401 1339.07 1402.401 C 1374.576 1402.401 1403.359 1373.618 1403.359 1338.112 Z M 1289.313 1291.224" transform="matrix(-1, 0, 0, -1, 2678.139956, 2676.224025)"/>
      <path fill="#ff780a" id="pFrERO7zG" d="M 2625.545 1151.951 C 2625.545 1116.27 2596.619 1087.345 2560.938 1087.345 C 2525.257 1087.345 2496.332 1116.27 2496.332 1151.951 C 2496.332 1187.632 2525.257 1216.557 2560.938 1216.557 C 2596.619 1216.557 2625.545 1187.632 2625.545 1151.951 Z M 2523.05 1099.902" transform="matrix(-1, 0, 0, -1, 5121.876847, 2303.902026)"/>
      <path fill="#ff780a" id="plkBTmmzl" d="M 3489.171 1064.037 C 3489.171 1028.265 3460.172 999.266 3424.4 999.266 C 3388.628 999.266 3359.629 1028.265 3359.629 1064.037 C 3359.629 1099.81 3388.628 1128.809 3424.4 1128.809 C 3460.172 1128.809 3489.171 1099.81 3489.171 1064.037 Z M 3390.973 1008.075" transform="matrix(-1, 0, 0, -1, 6848.800076, 2128.07492)"/>
      <path fill="#ff780a" id="pRPRSwcJA" d="M 1761.975 1063.802 C 1761.975 1028.041 1732.985 999.051 1697.224 999.051 C 1661.462 999.051 1632.472 1028.041 1632.472 1063.802 C 1632.472 1099.563 1661.462 1128.554 1697.224 1128.554 C 1732.985 1128.554 1761.975 1099.563 1761.975 1063.802 Z M 1655.62 1013.604" transform="matrix(-1, 0, 0, -1, 3394.446969, 2127.605103)"/>
      <path fill="#ff780a" id="payF2dnue" d="M 3073.901 891.065 C 3073.901 854.791 3044.495 825.386 3008.221 825.386 C 2971.947 825.386 2942.541 854.791 2942.541 891.065 C 2942.541 927.339 2971.947 956.745 3008.221 956.745 C 3044.495 956.745 3073.901 927.339 3073.901 891.065 Z M 2974.616 835.13" transform="matrix(-1, 0, 0, -1, 6016.441801, 1782.130985)"/>
      <path fill="#ff780a" id="pTIwdkdAZ" d="M 2689.371 831.14 C 2689.371 760.007 2631.706 702.342 2560.573 702.342 C 2489.44 702.342 2431.775 760.007 2431.775 831.14 C 2431.775 902.274 2489.44 959.939 2560.573 959.939 C 2631.706 959.939 2689.371 902.274 2689.371 831.14 Z M 2478.319 732.281" transform="matrix(-1, 0, 0, -1, 5121.14592, 1662.281057)"/>
      <path fill="#ff780a" id="pDiiHlM1W" d="M 2178.894 890.989 C 2178.894 854.743 2149.511 825.36 2113.265 825.36 C 2077.019 825.36 2047.636 854.743 2047.636 890.989 C 2047.636 927.235 2077.019 956.618 2113.265 956.618 C 2149.511 956.618 2178.894 927.235 2178.894 890.989 Z M 2066.704 845.978" transform="matrix(-1, 0, 0, -1, 4226.530061, 1781.977972)"/>
      <path fill="#ff780a" id="path-1" d="M 1202.964 2567.049 C 1202.964 2531.635 1174.255 2502.926 1138.841 2502.926 C 1103.427 2502.926 1074.718 2531.635 1074.718 2567.049 C 1074.718 2602.463 1103.427 2631.172 1138.841 2631.172 C 1174.255 2631.172 1202.964 2602.463 1202.964 2567.049 Z M 1082.832 2536.105" transform="matrix(-1, 0, 0, -1, 2277.682045, 5134.097968)"/>
    </g>
  </g>
</svg>