<?xml version="1.0" encoding="utf-8"?>
<svg viewBox="0 0 24 24" xmlns="http://www.w3.org/2000/svg">
  <path d="M 18.499 6.499 C 18.36 6.499 18.228 6.557 18.133 6.659 L 14.883 10.159 C 14.705 10.351 14.705 10.648 14.883 10.84 L 18.133 14.34 C 18.395 14.622 18.865 14.515 18.978 14.147 C 19.03 13.976 18.988 13.79 18.866 13.659 L 15.932 10.499 L 18.866 7.339 C 19.128 7.057 18.986 6.597 18.611 6.512 C 18.574 6.503 18.537 6.499 18.499 6.499 Z" fill="#ff780a" transform="matrix(-1, 0, 0, -1, 33.749462, 20.999042)"/>
  <path d="M 14.499 6.499 C 14.36 6.499 14.228 6.557 14.133 6.659 L 10.883 10.159 C 10.705 10.351 10.705 10.648 10.883 10.84 L 14.133 14.34 C 14.395 14.622 14.865 14.515 14.978 14.147 C 15.03 13.976 14.988 13.79 14.866 13.659 L 11.932 10.499 L 14.866 7.339 C 15.128 7.057 14.986 6.597 14.611 6.512 C 14.574 6.503 14.537 6.499 14.499 6.499 Z" fill="#ff780a" transform="matrix(-1, 0, 0, -1, 25.749463, 20.999042)"/>
  <path d="M 15.543 10 C 15.158 10 14.917 10.417 15.109 10.75 C 15.199 10.905 15.364 11 15.543 11 C 16.623 11.001 17.499 11.877 17.501 12.958 C 17.501 14.122 16.623 15 15.543 15 L 5.501 15 C 5.116 15 4.875 15.417 5.067 15.75 C 5.157 15.905 5.322 16 5.501 16 L 15.543 16 C 17.175 15.998 18.499 14.675 18.501 13.042 C 18.501 11.327 17.174 10 15.543 10 Z" fill="#ff780a" transform="matrix(-1, 0, 0, -1, 23.500585, 26)"/>
  <path d="M12 24C5.383 24 0 18.617 0 12S5.383 0 12 0s12 5.383 12 12-5.383 12-12 12zm0-23C5.935 1 1 5.935 1 12c0 6.064 4.935 11 11 11 6.064 0 11-4.936 11-11 0-6.065-4.936-11-11-11z" fill="#ff780a"/>
</svg>