<svg xmlns="http://www.w3.org/2000/svg" width="128" height="128" viewBox="0 0 1280 1280">
    <g fill="#ff780a">
        <path d="M590 1167 l0 -54 -55 -12 c-174 -39 -317 -182 -356 -356 l-12 -55 -54 0 -53 0 0 -50 0 -50 53 0 54 0 12 -55 c39 -174 182 -317 356 -356 l55 -12 0 -54 0 -53 50 0 50 0 0 53 0 54 55 12 c174 39 317 182 356 356 l12 55 54 0 53 0 0 50 0 50 -53 0 -54 0 -12 58 c-38 170 -188 320 -355 354 l-56 11 0 53 0 54 -50 0 -50 0 0 -53z m204 -180 c78 -36 150 -107 188 -186 29 -59 32 -75 32 -156 0 -123 -26 -189 -108 -271 -70 -70 -142 -103 -242 -111 -120 -11 -253 52 -329 155 -41 56 -75 155 -75 222 0 110 65 236 158 307 99 75 261 93 376 40z"></path>
    </g>
</svg>