<svg class="img-fluid" xmlns="http://www.w3.org/2000/svg" style="transform:matrix(1.44804,0,0,1.44804,-32.5666,-5.77513);transform-origin:50% 50%;cursor:move;max-height:326.14px;transition:none 0s ease 0s" width="512" height="512" viewBox="0 0 5120 5120"><g fill="#ff780a" style="transform:none"><path d="M2355 4664c-149-15-279-39-370-68-27-9-66-21-85-27-210-64-484-214-679-372-367-299-638-744-731-1202-25-125-29-154-41-290-17-211 11-486 75-719 9-33 21-65 27-72 17-21 60-26 84-10 41 27 41 38 2 186-8 30-19 87-25 125-6 39-16 100-21 136-6 37-11 127-11 200 0 532 207 1036 580 1409 284 284 644 472 1050 549 279 52 610 37 875-40 349-102 633-267 875-509s407-526 509-875c129-444 81-959-130-1392-279-572-791-959-1429-1082-450-86-946 4-1360 245-120 70-310 216-310 238 0 6 37 48 82 93 91 92 92 100 13 115-25 4-65 12-90 18-25 5-65 14-90 20-25 5-65 15-90 20-25 6-64 14-87 19-117 26-133 29-140 23-6-7-3-23 23-139 5-24 14-63 19-88 6-25 15-65 20-90s14-65 20-90c5-25 14-65 18-90 15-79 23-78 115 12 82 81 82 81 152 21 188-162 457-310 709-392 251-82 546-118 789-97 78 7 162 16 187 21 270 51 424 101 635 210 525 269 914 746 1073 1315 18 65 26 103 51 230 25 131 35 333 22 478-7 78-16 162-21 187s-14 72-21 105c-74 379-288 774-574 1060-259 259-637 476-965 553-161 38-170 39-340 57-167 17-229 17-395-1z"/><path d="M2689.075 4288.984c0 71.26-57.767 129.026-129.027 129.026-71.26 0-129.026-57.767-129.026-129.026 0-71.26 57.767-129.027 129.026-129.027 71.26 0 129.027 57.768 129.027 129.027zM2179.02 4229.407c0 36.552-29.631 66.184-66.184 66.184s-66.185-29.632-66.185-66.184c0-36.553 29.632-66.185 66.185-66.185s66.185 29.632 66.185 66.185zM3073.367 4229.607c0 36.545-29.625 66.17-66.169 66.17s-66.169-29.625-66.169-66.17c0-36.544 29.625-66.169 66.17-66.169 36.543 0 66.168 29.625 66.168 66.17zM1760.24 4056.73c0 35.544-28.814 64.358-64.358 64.358-35.543 0-64.358-28.814-64.358-64.358 0-35.544 28.815-64.358 64.358-64.358 35.544 0 64.358 28.814 64.358 64.358zM3488.436 4056.798c0 35.576-28.84 64.416-64.415 64.416-35.576 0-64.416-28.84-64.416-64.416 0-35.576 28.84-64.415 64.416-64.415 35.575 0 64.415 28.84 64.415 64.415zM2624.17 3969.278c0 35.479-28.762 64.24-64.24 64.24-35.479 0-64.24-28.761-64.24-64.24s28.761-64.24 64.24-64.24c35.478 0 64.24 28.761 64.24 64.24zM1402.661 3781.494c0 35.43-28.721 64.151-64.151 64.151-35.43 0-64.152-28.721-64.152-64.151 0-35.43 28.722-64.152 64.152-64.152s64.151 28.722 64.151 64.152zM3846.525 3781.896c0 35.451-28.739 64.19-64.19 64.19-35.451 0-64.19-28.739-64.19-64.19 0-35.452 28.739-64.19 64.19-64.19 35.451 0 64.19 28.738 64.19 64.19zM1127.853 3423.352c0 35.591-28.852 64.443-64.443 64.443-35.59 0-64.443-28.852-64.443-64.443 0-35.59 28.852-64.443 64.443-64.443 35.591 0 64.443 28.852 64.443 64.443zM4121.197 3424.037c0 35.772-28.999 64.771-64.771 64.771-35.772 0-64.772-28.999-64.772-64.771 0-35.772 29-64.771 64.772-64.771 35.772 0 64.771 28.999 64.771 64.771zM957.158 3008.29c0 36.495-29.586 66.08-66.081 66.08-36.496 0-66.081-29.585-66.081-66.08 0-36.496 29.585-66.081 66.08-66.081 36.496 0 66.082 29.585 66.082 66.08zM4294.653 3007.9c0 36.477-29.57 66.047-66.046 66.047-36.477 0-66.047-29.57-66.047-66.046 0-36.477 29.57-66.047 66.047-66.047 36.476 0 66.046 29.57 66.046 66.047zM2492 2968c-9-9-12-120-12-440 0-311-3-428-11-428-6 0-41 22-78 49-108 79-174 120-183 115-4-3-8-43-8-90 0-84 0-84 46-117 26-17 92-65 148-104 101-73 101-73 188-73 48 0 89 4 93 9 4 7 8 750 5 1074 0 15-11 17-88 17-55 0-92-4-100-12zM959.73 2559.863c0 71.084-57.624 128.708-128.708 128.708-71.083 0-128.707-57.624-128.707-128.708 0-71.083 57.624-128.708 128.707-128.708 71.084 0 128.708 57.625 128.708 128.708zM4417.713 2560.424c0 71.31-57.807 129.117-129.117 129.117-71.31 0-129.117-57.808-129.117-129.117 0-71.31 57.807-129.118 129.117-129.118 71.31 0 129.117 57.808 129.117 129.118zM1215.132 2560.056c0 35.414-28.708 64.123-64.123 64.123-35.414 0-64.123-28.709-64.123-64.123s28.71-64.123 64.123-64.123c35.415 0 64.123 28.709 64.123 64.123zM3916 2598c-34-48-6-98 54-98 34 0 42 4 55 30 14 27 14 33 0 60-13 26-21 30-55 30-29 0-43-6-54-22zM956.678 2112.77c0 36.56-29.638 66.197-66.197 66.197-36.56 0-66.197-29.637-66.197-66.196 0-36.56 29.637-66.197 66.197-66.197s66.197 29.637 66.197 66.197zM4294.515 2112.701c0 36.27-29.402 65.672-65.671 65.672-36.27 0-65.672-29.402-65.672-65.672 0-36.269 29.402-65.671 65.672-65.671 36.27 0 65.671 29.402 65.671 65.671zM4120.24 1696.73c0 35.544-28.813 64.358-64.357 64.358s-64.358-28.814-64.358-64.358c0-35.544 28.814-64.358 64.358-64.358 35.544 0 64.358 28.814 64.358 64.358zM3846.045 1338.112c0 35.506-28.783 64.289-64.288 64.289-35.506 0-64.29-28.783-64.29-64.29 0-35.505 28.784-64.288 64.29-64.288 35.505 0 64.288 28.783 64.288 64.289zM2624.495 1151.951c0 35.681-28.926 64.606-64.607 64.606-35.68 0-64.606-28.925-64.606-64.606s28.925-64.606 64.606-64.606 64.607 28.925 64.607 64.606zM1761.198 1064.037c0 35.773-29 64.772-64.771 64.772-35.773 0-64.772-29-64.772-64.772 0-35.772 29-64.771 64.772-64.771 35.772 0 64.771 28.999 64.771 64.771zM3488.354 1063.802c0 35.761-28.99 64.752-64.75 64.752-35.762 0-64.752-28.99-64.752-64.752 0-35.76 28.99-64.751 64.751-64.751 35.761 0 64.751 28.99 64.751 64.751zM2178.285 891.065c0 36.274-29.406 65.68-65.68 65.68-36.273 0-65.68-29.406-65.68-65.68 0-36.274 29.407-65.68 65.68-65.68 36.274 0 65.68 29.406 65.68 65.68zM2689.052 831.14c0 71.134-57.665 128.799-128.798 128.799-71.133 0-128.798-57.665-128.798-128.799 0-71.133 57.665-128.798 128.798-128.798 71.133 0 128.798 57.665 128.798 128.798zM3073.19 890.99c0 36.245-29.383 65.628-65.628 65.628-36.246 0-65.63-29.383-65.63-65.629 0-36.246 29.384-65.629 65.63-65.629 36.245 0 65.628 29.383 65.628 65.63zM2961 936"/></g></svg>