<svg xmlns="http://www.w3.org/2000/svg" viewBox="0 0 24 24"><path d="M12 0C5.383 0 0 5.383 0 12s5.383 12 12 12 12-5.383 12-12S18.617 0 12 0zm4.042 16a.5.5 0 0 1 0-1A1.96 1.96 0 0 0 18 13.042C18 11.879 17.122 11 16.042 11h-5.396l2.47 2.66a.5.5 0 1 1-.732.68L9.282 11H6.646l2.47 2.66a.5.5 0 1 1-.732.68l-3.25-3.5a.5.5 0 0 1 0-.68l3.25-3.5a.499.499 0 1 1 .733.68L6.647 10h2.636l3.102-3.34c.187-.203.503-.215.707-.026s.215.505.026.706L10.648 10h5.396a2.961 2.961 0 0 1 2.958 2.958C19 14.673 17.673 16 16.042 16z"/></svg>