<svg xmlns="http://www.w3.org/2000/svg" width="512" height="512" viewBox="0 0 5120 5120"><g id="l5Z3VKgCgMVmlQoOiEzWV85" fill="rgb(0,0,0)" style="transform: none;"><g><path fill="#ff780a" id="pSkvZPXe0" d="M 2355 4664 c -149 -15 -279 -39 -370 -68 -27 -9 -66 -21 -85 -27 -210 -64 -484 -214 -679 -372 -367 -299 -638 -744 -731 -1202 -25 -125 -29 -154 -41 -290 -17 -211 11 -486 75 -719 9 -33 21 -65 27 -72 17 -21 60 -26 84 -10 41 27 41 38 2 186 -8 30 -19 87 -25 125 -6 39 -16 100 -21 136 -6 37 -11 127 -11 200 0 532 207 1036 580 1409 284 284 644 472 1050 549 279 52 610 37 875 -40 349 -102 633 -267 875 -509 242 -242 407 -526 509 -875 129 -444 81 -959 -130 -1392 -279 -572 -791 -959 -1429 -1082 -450 -86 -946 4 -1360 245 -120 70 -310 216 -310 238 0 6 37 48 82 93 91 92 92 100 13 115 -25 4 -65 12 -90 18 -25 5 -65 14 -90 20 -25 5 -65 15 -90 20 -25 6 -64 14 -87 19 -117 26 -133 29 -140 23 -6 -7 -3 -23 23 -139 5 -24 14 -63 19 -88 6 -25 15 -65 20 -90 5 -25 14 -65 20 -90 5 -25 14 -65 18 -90 15 -79 23 -78 115 12 82 81 82 81 152 21 188 -162 457 -310 709 -392 251 -82 546 -118 789 -97 78 7 162 16 187 21 270 51 424 101 635 210 525 269 914 746 1073 1315 18 65 26 103 51 230 25 131 35 333 22 478 -7 78 -16 162 -21 187 -5 25 -14 72 -21 105 -74 379 -288 774 -574 1060 -259 259 -637 476 -965 553 -161 38 -170 39 -340 57 -167 17 -229 17 -395 -1 z "></path><path fill="#ff780a" id="pT30Rw7Xe" d="M2689.07464227004 4288.9838602691807 C 2689.07464227004 4360.2431685351385 2631.3075591902953 4418.010251614883 2560.0482509243375 4418.010251614883 2488.7889426583797 4418.010251614883 2431.021859578635 4360.2431685351385 2431.021859578635 4288.9838602691807 2431.021859578635 4217.724552003223 2488.7889426583797 4159.9574689234782 2560.0482509243375 4159.9574689234782 2631.3075591902953 4159.9574689234782 2689.07464227004 4217.724552003223 2689.07464227004 4288.9838602691807 Z M2494.0 4401.0 "></path><path fill="#ff780a" id="ppTCvTKJC" d="M2179.0206382697615 4229.4065564890043 C 2179.0206382697615 4265.959445761928 2149.3886667727493 4295.59141725894 2112.8357774998258 4295.59141725894 2076.2828882269023 4295.59141725894 2046.65091672989 4265.959445761928 2046.65091672989 4229.4065564890043 2046.65091672989 4192.853667216081 2076.2828882269023 4163.2216957190685 2112.8357774998258 4163.2216957190685 2149.3886667727493 4163.2216957190685 2179.0206382697615 4192.853667216081 2179.0206382697615 4229.4065564890043 Z M2084.0 4288.0 "></path><path fill="#ff780a" id="p13u429HLv" d="M3073.3672042093776 4229.6074321753526 C 3073.3672042093776 4266.151579223014 3043.742319686198 4295.7764637461937 3007.1981726385366 4295.7764637461937 2970.6540255908753 4295.7764637461937 2941.0291410676955 4266.151579223014 2941.0291410676955 4229.6074321753526 2941.0291410676955 4193.0632851276914 2970.6540255908753 4163.4384006045116 3007.1981726385366 4163.4384006045116 3043.742319686198 4163.4384006045116 3073.3672042093776 4193.0632851276914 3073.3672042093776 4229.6074321753526 Z M2966.0 4279.0 "></path><path fill="#ff780a" id="pxDz99K66" d="M1760.2404477484345 4056.7303002309936 C 1760.2404477484345 4092.2742439906706 1731.4263881945064 4121.0883035445986 1695.8824444348295 4121.0883035445986 1660.3385006751525 4121.0883035445986 1631.5244411212245 4092.2742439906706 1631.5244411212245 4056.7303002309936 1631.5244411212245 4021.1863564713167 1660.3385006751525 3992.3722969173887 1695.8824444348295 3992.3722969173887 1731.4263881945064 3992.3722969173887 1760.2404477484345 4021.1863564713167 1760.2404477484345 4056.7303002309936 Z M1644.0 4095.0 "></path><path fill="#ff780a" id="p1G4BerCMb" d="M3488.436231188101 4056.7982893913654 C 3488.436231188101 4092.3740984211763 3459.5963397288124 4121.213989880465 3424.0205306990015 4121.213989880465 3388.4447216691906 4121.213989880465 3359.604830209902 4092.3740984211763 3359.604830209902 4056.7982893913654 3359.604830209902 4021.2224803615545 3388.4447216691906 3992.382588902266 3424.0205306990015 3992.382588902266 3459.5963397288124 3992.382588902266 3488.436231188101 4021.2224803615545 3488.436231188101 4056.7982893913654 Z M3376.0 4101.0 "></path><path fill="#ff780a" id="pspO9fhS5" d="M2624.1696505413292 3969.278211595984 C 2624.1696505413292 4004.7569439663216 2595.4084552634845 4033.5181392441664 2559.929722893147 4033.5181392441664 2524.450990522809 4033.5181392441664 2495.6897952449644 4004.7569439663216 2495.6897952449644 3969.278211595984 2495.6897952449644 3933.7994792256463 2524.450990522809 3905.0382839478016 2559.929722893147 3905.0382839478016 2595.4084552634845 3905.0382839478016 2624.1696505413292 3933.7994792256463 2624.1696505413292 3969.278211595984 Z M2527.0 4024.0 "></path><path fill="#ff780a" id="pwArSTRrz" d="M1402.6614770016101 3781.4935991448433 C 1402.6614770016101 3816.9235314657467 1373.939841980223 3845.645166487134 1338.5099096593194 3845.645166487134 1303.0799773384159 3845.645166487134 1274.3583423170288 3816.9235314657467 1274.3583423170288 3781.4935991448433 1274.3583423170288 3746.06366682394 1303.0799773384159 3717.342031802553 1338.5099096593194 3717.342031802553 1373.939841980223 3717.342031802553 1402.6614770016101 3746.06366682394 1402.6614770016101 3781.4935991448433 Z M1295.0 3825.0 "></path><path fill="#ff780a" id="pABvwNRjm" d="M3846.525449660157 3781.8956946731337 C 3846.525449660157 3817.3471138244313 3817.7863961211515 3846.0861673634367 3782.334976969854 3846.0861673634367 3746.8835578185563 3846.0861673634367 3718.144504279551 3817.3471138244313 3718.144504279551 3781.8956946731337 3718.144504279551 3746.444275521836 3746.8835578185563 3717.7052219828306 3782.334976969854 3717.7052219828306 3817.7863961211515 3717.7052219828306 3846.525449660157 3746.444275521836 3846.525449660157 3781.8956946731337 Z M3750.0 3837.0 "></path><path fill="#ff780a" id="p85fzTcvn" d="M1127.8534645072655 3423.3523210720546 C 1127.8534645072655 3458.943287515095 1099.0012855367645 3487.795466485596 1063.4103190937241 3487.795466485596 1027.8193526506836 3487.795466485596 998.9671736801827 3458.943287515095 998.9671736801827 3423.3523210720546 998.9671736801827 3387.761354629014 1027.8193526506836 3358.909175658513 1063.4103190937241 3358.909175658513 1099.0012855367645 3358.909175658513 1127.8534645072655 3387.761354629014 1127.8534645072655 3423.3523210720546 Z M1023.0 3475.0 "></path><path fill="#ff780a" id="p19egCCw0O" d="M4121.197226406797 3424.0369730045327 C 4121.197226406797 3459.8092536596546 4092.1980632259842 3488.8084168404675 4056.4257825708623 3488.8084168404675 4020.6535019157404 3488.8084168404675 3991.6543387349275 3459.8092536596546 3991.6543387349275 3424.0369730045327 3991.6543387349275 3388.264692349411 4020.6535019157404 3359.265529168598 4056.4257825708623 3359.265529168598 4092.1980632259842 3359.265529168598 4121.197226406797 3388.264692349411 4121.197226406797 3424.0369730045327 Z M4023.0 3480.0 "></path><path fill="#ff780a" id="pIwvaoPWW" d="M957.1576879296255 3008.289754740991 C 957.1576879296255 3044.7852970511226 927.5722053313211 3074.3707796494273 891.0766630211895 3074.3707796494273 854.5811207110578 3074.3707796494273 824.99563811275345 3044.7852970511226 824.99563811275345 3008.289754740991 824.99563811275345 2971.7942124308597 854.5811207110578 2942.208729832555 891.0766630211895 2942.208729832555 927.5722053313211 2942.208729832555 957.1576879296255 2971.7942124308597 957.1576879296255 3008.289754740991 Z M863.0 3068.0 "></path><path fill="#ff780a" id="piXUVZazW" d="M4294.653270092895 3007.9005765898737 C 4294.653270092895 3044.3770585382226 4265.083238970748 3073.94708966037 4228.606757022399 3073.94708966037 4192.13027507405 3073.94708966037 4162.560243951903 3044.3770585382226 4162.560243951903 3007.9005765898737 4162.560243951903 2971.424094641525 4192.13027507405 2941.8540635193776 4228.606757022399 2941.8540635193776 4265.083238970748 2941.8540635193776 4294.653270092895 2971.424094641525 4294.653270092895 3007.9005765898737 Z M4205.0 3068.0 "></path><path fill="#ff780a" id="p1D6bF2eZ1" d="M 2492 2968 c -9 -9 -12 -120 -12 -440 0 -311 -3 -428 -11 -428 -6 0 -41 22 -78 49 -108 79 -174 120 -183 115 -4 -3 -8 -43 -8 -90 0 -84 0 -84 46 -117 26 -17 92 -65 148 -104 101 -73 101 -73 188 -73 48 0 89 4 93 9 4 7 8 750 5 1074 0 15 -11 17 -88 17 -55 0 -92 -4 -100 -12 z "></path><path fill="#ff780a" id="po04o0HIv" d="M959.7301044670759 2559.863236106993 C 959.7301044670759 2630.9465869367614 902.1056630727787 2688.5710283310586 831.02231224301045 2688.5710283310586 759.93896141324217 2688.5710283310586 702.314520018945 2630.9465869367614 702.314520018945 2559.863236106993 702.314520018945 2488.779885277225 759.93896141324217 2431.1554438829276 831.02231224301045 2431.1554438829276 902.1056630727787 2431.1554438829276 959.7301044670759 2488.779885277225 959.7301044670759 2559.863236106993 Z M771.0 2673.0 "></path><path fill="#ff780a" id="pfelV8nVK" d="M4417.7134037939836 2560.423889865999 C 4417.7134037939836 2631.7334678617744 4359.9055690464297 2689.5413026093283 4288.5959910506544 2689.5413026093283 4217.286413054879 2689.5413026093283 4159.4785783073253 2631.7334678617744 4159.4785783073253 2560.423889865999 4159.4785783073253 2489.114311870224 4217.286413054879 2431.30647712267 4288.5959910506544 2431.30647712267 4359.9055690464297 2431.30647712267 4417.7134037939836 2489.114311870224 4417.7134037939836 2560.423889865999 Z M4243.0 2683.0 "></path><path fill="#ff780a" id="pECzMTFe6" d="M1215.1323997658286 2560.05583995295 C 1215.1323997658286 2595.470016829294 1186.4235370558347 2624.178879539288 1151.0093601794907 2624.178879539288 1115.5951833031468 2624.178879539288 1086.8863205931528 2595.470016829294 1086.8863205931528 2560.05583995295 1086.8863205931528 2524.641663076606 1115.5951833031468 2495.932800366612 1151.0093601794907 2495.932800366612 1186.4235370558347 2495.932800366612 1215.1323997658286 2524.641663076606 1215.1323997658286 2560.05583995295 Z M1095.0 2591.0 "></path><path fill="#ff780a" id="pILaPkZoy" d="M 3916 2598 c -34 -48 -6 -98 54 -98 34 0 42 4 55 30 14 27 14 33 0 60 -13 26 -21 30 -55 30 -29 0 -43 -6 -54 -22 z "></path><path fill="#ff780a" id="p4zKL3RnP" d="M956.6775772799733 2112.7705739075545 C 956.6775772799733 2149.3300810829517 927.0402409130049 2178.96741744992 890.4807337376077 2178.96741744992 853.9212265622104 2178.96741744992 824.28389019524207 2149.3300810829517 824.28389019524207 2112.7705739075545 824.28389019524207 2076.2110667321574 853.9212265622104 2046.573730365189 890.4807337376077 2046.573730365189 927.0402409130049 2046.573730365189 956.6775772799733 2076.2110667321574 956.6775772799733 2112.7705739075545 Z M841.0 2154.0 "></path><path fill="#ff780a" id="p9HFwG8P3" d="M4294.5153352623593 2112.7014875616467 C 4294.5153352623593 2148.9708677950944 4265.1131932519897 2178.3730098054643 4228.843813018542 2178.3730098054643 4192.574432785094 2178.3730098054643 4163.1722907747244 2148.9708677950944 4163.1722907747244 2112.7014875616467 4163.1722907747244 2076.432107328199 4192.574432785094 2047.029965317829 4228.843813018542 2047.029965317829 4265.1131932519897 2047.029965317829 4294.5153352623593 2076.432107328199 4294.5153352623593 2112.7014875616467 Z M4182.0 2157.0 "></path><path fill="#ff780a" id="pWQrV3xbP" d="M4120.2405678666914 1696.7301903102282 C 4120.2405678666914 1732.2741394657114 4091.426503938598 1761.0882033938046 4055.8825547831148 1761.0882033938046 4020.3386056276313 1761.0882033938046 3991.524541699538 1732.2741394657114 3991.524541699538 1696.7301903102282 3991.524541699538 1661.186241154745 4020.3386056276313 1632.3721772266517 4055.8825547831148 1632.3721772266517 4091.426503938598 1632.3721772266517 4120.2405678666914 1661.186241154745 4120.2405678666914 1696.7301903102282 Z M4004.0 1735.0 "></path><path fill="#ff780a" id="pTwR0wQQm" d="M3846.0454005688985 1338.1117917328786 C 3846.0454005688985 1373.6175450074898 3817.2623005201544 1402.400645056234 3781.756547245543 1402.400645056234 3746.2507939709317 1402.400645056234 3717.4676939221877 1373.6175450074898 3717.4676939221877 1338.1117917328786 3717.4676939221877 1302.6060384582673 3746.2507939709317 1273.8229384095232 3781.756547245543 1273.8229384095232 3817.2623005201544 1273.8229384095232 3846.0454005688985 1302.6060384582673 3846.0454005688985 1338.1117917328786 Z M3732.0 1385.0 "></path><path fill="#ff780a" id="pFrERO7zG" d="M2624.49468366917 1151.9510686450186 C 2624.49468366917 1187.6321098030222 2595.5694847147643 1216.5573087574281 2559.8884435567606 1216.5573087574281 2524.207402398757 1216.5573087574281 2495.282203444351 1187.6321098030222 2495.282203444351 1151.9510686450186 2495.282203444351 1116.270027487015 2524.207402398757 1087.3448285326091 2559.8884435567606 1087.3448285326091 2595.5694847147643 1087.3448285326091 2624.49468366917 1116.270027487015 2624.49468366917 1151.9510686450186 Z M2522.0 1204.0 "></path><path fill="#ff780a" id="plkBTmmzl" d="M1761.1979543990803 1064.0372800635126 C 1761.1979543990803 1099.8095351473336 1732.1988119479026 1128.8086775985112 1696.4265568640817 1128.8086775985112 1660.6543017802608 1128.8086775985112 1631.655159329083 1099.8095351473336 1631.655159329083 1064.0372800635126 1631.655159329083 1028.2650249796917 1660.6543017802608 999.2658825285141 1696.4265568640817 999.2658825285141 1732.1988119479026 999.2658825285141 1761.1979543990803 1028.2650249796917 1761.1979543990803 1064.0372800635126 Z M1663.0 1120.0 "></path><path fill="#ff780a" id="pRPRSwcJA" d="M3488.354434225192 1063.8022364852459 C 3488.354434225192 1099.5633854800367 3459.3642950380554 1128.5535246671734 3423.6031460432646 1128.5535246671734 3387.841997048474 1128.5535246671734 3358.851857861337 1099.5633854800367 3358.851857861337 1063.8022364852459 3358.851857861337 1028.0410874904551 3387.841997048474 999.0509483033184 3423.6031460432646 999.0509483033184 3459.3642950380554 999.0509483033184 3488.354434225192 1028.0410874904551 3488.354434225192 1063.8022364852459 Z M3382.0 1114.0 "></path><path fill="#ff780a" id="payF2dnue" d="M2178.284988032386 891.0651397432102 C 2178.284988032386 927.3389864362962 2148.8792252410785 956.7447492276036 2112.6053785479926 956.7447492276036 2076.3315318549066 956.7447492276036 2046.925769063599 927.3389864362962 2046.925769063599 891.0651397432102 2046.925769063599 854.7912930501243 2076.3315318549066 825.38553025881686 2112.6053785479926 825.38553025881686 2148.8792252410785 825.38553025881686 2178.284988032386 854.7912930501243 2178.284988032386 891.0651397432102 Z M2079.0 947.0 "></path><path fill="#ff780a" id="pTIwdkdAZ" d="M2689.0522787582568 831.14045478290655 C 2689.0522787582568 902.273819446721 2631.3872931406604 959.9388050643172 2560.253928476846 959.9388050643172 2489.1205638130314 959.9388050643172 2431.455578195435 902.273819446721 2431.455578195435 831.14045478290655 2431.455578195435 760.00709011909214 2489.1205638130314 702.34210450149584 2560.253928476846 702.34210450149584 2631.3872931406604 702.34210450149584 2689.0522787582568 760.00709011909214 2689.0522787582568 831.14045478290655 Z M2478.0 930.0 "></path><path fill="#ff780a" id="pDiiHlM1W" d="M3073.1904327038983 890.9890940196763 C 3073.1904327038983 927.2349397164729 3043.8073692050525 956.6180032153185 3007.561523508256 956.6180032153185 2971.3156778114594 956.6180032153185 2941.9326143126136 927.2349397164729 2941.9326143126136 890.9890940196763 2941.9326143126136 854.7432483228796 2971.3156778114594 825.36018482403404 3007.561523508256 825.36018482403404 3043.8073692050525 825.36018482403404 3073.1904327038983 854.7432483228796 3073.1904327038983 890.9890940196763 Z M2961.0 936.0 "></path></g></g></svg>