<svg xmlns="http://www.w3.org/2000/svg" viewBox="0 0 1277 1069" fill="#000">

  <path d="M383.71 55.25q1.28 1.75 3.33 2.25M395.25 62.96q.03 1.43 1.5 1.83M396.75 64.79q1.55 1.65 3.75 2M407.75 71.71q-.39.58.12.78.44.17.57.27 2.23 1.67 4.56 3.2M421.96 82.25q1.14 1.98 3.29 2.04M447 98.96q.38 1.82 2.25 1.83M473.5 117.71q2.97 3.73 7.5 5.25m13.5 9.25q-.13.03-.2.12a.3.18 42.2 0 0 .09.31q3.96 3.82 8.86 6.32M509.75 142.96q-.37.54.31.98 2.14 1.38 4.44 3.85M514.5 147.79q2.05 1.86 4.7 2.43.5.11.87.41 3.19 2.61 6.54 4.99.34.24.43-.12M540.25 164.96q.23 2.01 2.25 1.83M568.25 184.71q-.3.73.69 1.1 2.24.85 3.1.94M592 200.96q-.39.58.12.78.46.17.58.26 4.35 3.14 9.05 5.71M616 217.96q-.29.12-.25.33.02.13.22.23 3.28 1.74 7.03 1.8.88.02 1.25-.78M629.75 219.96q-1.25.26 0 .54 3.68.83 6.25.04m10.25 0q4.53 1.25 8.75-.75m3.75-.25q3.3.97 6.58-.17.78-.27.17-.66M674.75 212.96l.25.04a.62.32-51.3 0 0 .43-.19l5.28-4.81M701.25 194.04q2.03-.21 2.87-2.01.19-.4.62-.72l4.47-3.31m10.29-7.71 1.47-.41a1.59.68-62.7 0 0 .75-.62q.74-.96 2.09-1.45.75-.26.44-.85M727.25 175.96q1.17-.52 3.25-2.21.72-.59.25-1.04M734.46 169.5q2.17-.48 3.83-2m18.46-12.54q2.68-1.54 4.5-4M771.75 143.96q1.39.02 1.5-1.25M816 113.04q1.67.07 3.01-1.03 3.27-2.69 6.2-5.76M903.54 51.25q1.42-.08 1.21-1.29m3.75.5q-1.41 1.82.54 2.54m4.21 32.71.79 5.04M915.54 98q.86 4.88 1.71 9.75.19 1.08.71 1.25m1.25 8.75q-.69 1.6.75 2.25M923.25 144.71q-.67 1.48-.04 3.04M923.21 147.75q.46 3.2 1.39 6.28.08.25.07.57 0 .91.54.4M925.75 158.21q-.4 3.22 1.21 6.04M931.5 196.96q.91 8.43 2.97 16.66a.14.14 79.1 0 0 .16.11l.12-.02m6.71 44.04q.07 4.1 1.33 8M944.04 273.25q-.17 1.38.96 1.96M949.96 307q.32 7.32 1.83 14.5M951.79 321.5q1.2 6.4 2.38 12.81.04.24 0 .88-.06.67.54.81M958.46 357.75q1.08 8.01 6.25 14.25m3.04 5.71q.95 4.78 3.55 8.94 1.74 2.77 3.45 5.56M977.5 396.96q-.63-.05-.39.46 7.09 14.71 14.51 29.26.04.09 5.14 10.64 2.82 5.85 6.24 11.39M1003.54 450q2.81 7.81 7.46 14.71m2.46 5.29q-.28.43.1 1.19 2.64 5.29 4.46 8.22.18.29.56 1.4.28.86 1.13 1.19M1022.46 488q-.3.31.04 1 2.31 4.71 4.85 9.3.04.07.32.82.26.69 1.04.88m3.54 7.71q.07.99.59 1.84.8 1.31.82 1.35 7.42 15.17 15.3 30.1M1048.96 541q1.64 4.45 5.35 10.94 2.62 4.58 6.63 13.68.81 1.83 2.67 4.9 1.45 2.4 2.5 5.02 2.56 6.39 6.14 12.25M1072.25 587.79q3.45 6.35 4.94 10.52.41 1.16 1.1 1.19M1078.04 609.25q-1.64.09-.79 1.79M1073 615.29q-2.78.98-3.21 3.96M1059.46 631q-1.47.67-1.96 2.21M1053.75 637.29q-3.11 1.61-3.75 5M1046.96 645.25q-1.7.47-1.92 2.25M1042.75 650.04q-1.95 1.51-3.58 3.37-.16.19-.53.48-.69.54.07.86m-3.75 4.25q-1.59.63-2.17 2.25M1029.75 665.29q-2.29.62-2.71 2.96M1023.25 671.79q-1.46 1.12-2.26 2.79-.03.07-.13.19-.21.29.39.27M261.25 674.54q-.16-2.08-2.25-2.5m-3.25-4q-.4-2.37-2.79-2.79M249.5 660.79q-.52-2-2.5-2.75M236.25 645.79q-.16-2.34-2.54-2.54M216 623.29l.22-.03a.21.19 72.6 0 0 .13-.29q-.63-1.39-2.1-1.93M212.75 618.04q-.02-1.83-1.79-1.54M203.71 608q-2.04-2.45-.13-4.92.47-.61-.08-1.12M211 586.96q1.97-1 1.71-3.21m7.29-14.79q1.88-.91 1.75-3M227.75 552.29q2.91-1.25 2.75-4.33M237.04 534q2.82-1.25 2.5-4.25m5.75-12.25q3.58-2.96 4.21-7.54m3.54-7.96q1.45-1.34 2.12-3.22.16-.45.53-.8 1.86-1.72 2.06-4.27M261 485.96q2.85-3.1 3.79-7.21M273.04 462q2.72-2.5 3.84-5.99a.2.16-79.6 0 0-.14-.26h-.2M291.04 426q1.41-1.31 3.27-4.44.6-1 .19-1.6m5.79-12.46q1.87-1.57 3.27-4.69.34-.74-.27-.81M309.04 390q2.99-2.45 3.67-6.25M317.04 374q3.14-3.7 4.71-8.29m.29-1.46q2.39-3.94 2.71-8.54M327.29 340.75q.76-.36.78-1.14.05-1.16.06-1.23 1.54-7.28 2.69-14.62.08-.53-.32-.8M335.29 289.75q.93-.66 1.01-1.72.1-1.45.13-1.57.69-3.08 1.03-6.21M337.46 280.25q1.33-3.66 1.29-7.54M344.29 235q.55-.48.68-1.25 1.23-7.41 2.78-14.75.53-2.52.21-3.5M353.29 178.75q.73-.07.75-.66.02-.63.03-.67 1.93-9.92 3.74-19.86.17-.9-.1-1.31M363.29 118.75h.11a.12.11 5.7 0 0 .12-.09q2.11-7.86 2.98-15.95m2.79-22.96q1.46-.89.25-2M372.29 62.75q1.32-.6.5-2M373.29 58q1.46-3.78 1.69-7.83.01-.12.25-.76.14-.37-.48-.45"/>
  <path d="M1072.54 587.5q-.06.23-.29.29M944.46 273l-.42.25m-606.58 7-.42.25m60.21-215.79-.5.08m25.29 16.96-.08.5M515 147.71l-.5.08M1049.21 540.5q-.3.15-.25.5M914.71 90.75h-.67M943.21 265.75h-.42M378.5 487.46q-1.99-.61-2.25 1.33M359.5 693.71q.15 2.64 2.75 3.25m410-227.67q-2.84.76-3.75 3.5m-79.5 74.5q-1.79-.07-2 1.67"/>
  <path d="m378.04 51.25 5.67 4q1.28 1.75 3.33 2.25 4.67 1.86 8.21 5.46.03 1.43 1.5 1.83 1.55 1.65 3.75 2 2.31.81 2.69 1.27 1.87 2.32 4.56 3.65-.39.58.12.78.44.17.57.27 2.23 1.67 4.56 3.2l3.54 2.04 5.42 4.25q1.14 1.98 3.29 2.04 1.56 1.19 3.3 2.08 2.04 1.05 3.27 2.04 7.22 5.78 15.18 10.55.38 1.82 2.25 1.83 2.73 2.79 4.06 3.15 2.56.68 4.46 2.35 3.33 2.91 3.38 2.95 6.12 4.32 12.35 8.47 2.97 3.73 7.5 5.25.74-.36 1.45-.27.41.06.09.44-.44.54.4 1.18 7.13 5.5 11.56 7.9-.13.03-.2.12a.3.18 42.2 0 0 .09.31q3.96 3.82 8.86 6.32l6.5 4q-.37.54.31.98 2.14 1.38 4.44 3.85 2.05 1.86 4.7 2.43.5.11.87.41 3.19 2.61 6.54 4.99.34.24.43-.12l13.21 9.46q.23 2.01 2.25 1.83 3.39 1.33 6.19 3.53 5.47 4.28 5.56 4.34 4.36 2.93 8.69 5.9 4.02 2.76 5.31 4.15-.3.73.69 1.1 2.24.85 3.1.94L592 200.96q-.39.58.12.78.46.17.58.26 4.35 3.14 9.05 5.71 1.69 1.23 3.27 2.59 1.61 1.39 3.36 2.41 4 2.35 7.62 5.25-.29.12-.25.33.02.13.22.23 3.28 1.74 7.03 1.8.88.02 1.25-.78l5.5.42q-1.25.26 0 .54 3.68.83 6.25.04 5.13.98 10.25 0 4.53 1.25 8.75-.75l3.75-.25q3.3.97 6.58-.17.78-.27.17-.66l1.52-.75a1.43.69-79.4 0 0 .55-.75q.41-1.09 1.68-1.71 3.89-1.91 5.5-2.54l.25.04a.62.32-51.3 0 0 .43-.19l5.28-4.81q4.99-3.73 10.29-7.04 3.69-2.31-.65-2.68-.4-.04-.63-.22-.59-.48.07-.7a1.22.55 34.7 0 1 .85.16l2.14 1.07a.87.69-48.5 0 0 .85-.15q3.48-2.75 7.62-4.4 2.03-.21 2.87-2.01.19-.4.62-.72l4.47-3.31q1.58-1.63 3.59-2.72 3.72-2.01 6.7-4.99l1.47-.41a1.59.68-62.7 0 0 .75-.62q.74-.96 2.09-1.45.75-.26.44-.85 1.64-.14 3-1 1.17-.52 3.25-2.21.72-.59.25-1.04l3.71-3.21q2.17-.48 3.83-2 1.05.63 1.4-.2.25-.61.48-.83 3.59-3.41 6.77-5.28 6.54-3.87 9.81-6.23 2.68-1.54 4.5-4 4.96-1.75 5.94-3.02 1.88-2.46 4.56-3.98 1.39.02 1.5-1.25 4.34-2.95 8.77-5.76 1.4-.88 4.47-3.5 2.2-1.86 4.83-3.13 3.01-1.45 4.9-4.15a1.16.98 10.7 0 1 .78-.44q1.24-.14 1.63-1.25a1.09.9-86.8 0 1 .59-.64q3.49-1.2 5.72-2.9 6.89-5.28 11.06-7.9 1.67.07 3.01-1.03 3.27-2.69 6.2-5.76 3.74-1.95 7.01-4.54 1.91-1.51 4.29-3.08 2.21-1.46 4.18-3.23a1.45 1.26 20.1 0 1 .86-.33q1.79-.09 2.76-1.57a1.89 1.51-80.7 0 1 .72-.65q3.95-1.88 6.27-5.61a1.01.97 13.2 0 1 .76-.45q3.71-.32 7.47-4.26.38-.4.84-.71 6.85-4.6 12.68-8.59 1.06-.73 3.29-3.09 1.72-1.83 4.09-2.77 2.65-1.05 3.78-1.93 1.4-1.09 2.76-2.23 1.38-1.16 2.85-2.08 5.33-3.33 10.41-7.06.09-.07 1.64-.95 1.13-.64 1.67-1.87 1.42-.08 1.21-1.29 2.42-2 3.75.5-1.41 1.82.54 2.54.29 4.67.71 6.5 2.97 12.94 3.5 26.21l.79 5.04 1.5 7.25q.86 4.88 1.71 9.75.19 1.08.71 1.25l1.25 8.75q-.69 1.6.75 2.25l3.29 24.71q-.67 1.48-.04 3.04.46 3.2 1.39 6.28.08.25.07.57 0 .91.54.4l.54 3.21q-.4 3.22 1.21 6.04.6 3.32 1.09 6.65.46 3.21 1.1 6.66 1.79 9.62 2.35 19.4.91 8.43 2.97 16.66a.14.14 79.1 0 0 .16.11l.12-.02q2.14 12.03 4.17 24.07.51 3.06 1.08 10 .41 5.02 1.46 9.97.07 4.1 1.33 8l1.25 7.5q-.17 1.38.96 1.96 1.34 10.78 2.56 15.98 1.55 6.57 1.9 10.56l.5 5.25q.32 7.32 1.83 14.5 1.2 6.4 2.38 12.81.04.24 0 .88-.06.67.54.81l3.75 21.75q1.08 8.01 6.25 14.25l3.04 5.71q.95 4.78 3.55 8.94 1.74 2.77 3.45 5.56l2.75 4.75q-.63-.05-.39.46 7.09 14.71 14.51 29.26.04.09 5.14 10.64 2.82 5.85 6.24 11.39.55.52.54 1.29 2.81 7.81 7.46 14.71l2.46 5.29q-.28.43.1 1.19 2.64 5.29 4.46 8.22.18.29.56 1.4.28.86 1.13 1.19l2.75 6q-.3.31.04 1 2.31 4.71 4.85 9.3.04.07.32.82.26.69 1.04.88l3.54 7.71q.07.99.59 1.84.8 1.31.82 1.35 7.42 15.17 15.3 30.1 1.64 4.45 5.35 10.94 2.62 4.58 6.63 13.68.81 1.83 2.67 4.9 1.45 2.4 2.5 5.02 2.56 6.39 6.14 12.25 3.45 6.35 4.94 10.52.41 1.16 1.1 1.19l2.47 5.31a.87.68-43.1 0 1-.12.78l-2.6 3.66q-1.64.09-.79 1.79-1.78 2.48-4.25 4.25-2.78.98-3.21 3.96-1.16.56-1.8 1.65-.9 1.5-1.34 1.94-3.04 3.02-5.88 6.22-.13.15-.78.59-.63.42-.53 1.35-1.47.67-1.96 2.21l-3.75 4.08q-3.11 1.61-3.75 5l-3.04 2.96q-1.7.47-1.92 2.25l-2.29 2.54q-1.95 1.51-3.58 3.37-.16.19-.53.48-.69.54.07.86l-3.75 4.25q-1.59.63-2.17 2.25l-3.04 4.04q-2.29.62-2.71 2.96-1.54 2.15-3.79 3.54-1.46 1.12-2.26 2.79-.03.07-.13.19-.21.29.39.27-1.34.81-1.44 2.15a.64.58 9.7 0 0 .49.62q43.78 11.24 75.2 22.44 36.22 12.92 66.69 28.31 13.91 7.03 30.85 18.12 18.25 11.94 33.52 27.51 14.79 15.09 21.94 33.06 5.28 13.28 4.31 27.78-.66 9.78-4.35 19.44-4.04 10.6-11.15 20.34-7.34 10.08-14.7 17.06-15.31 14.53-35.3 26.94-18.25 11.34-33.37 18.62-33.4 16.08-68.58 27.77-36.87 12.26-74.68 21.2-67.85 16.04-137.02 24.8-221.26 28.02-442.91 3.05-80.74-9.1-158.44-27.31-34.78-8.16-70.67-19.74-36.31-11.73-70.81-27.93-9.62-4.53-17.85-9.02-16.94-9.27-31.42-19.31-11.92-8.27-23.98-19.77-12.92-12.32-21.05-27.91-5.03-9.64-6.96-18.69-4.85-22.74 6.18-44.35 6.14-12.02 15.17-22.06 12.86-14.3 28.51-25.49 19.82-14.18 41.64-25.03 40.76-20.26 85.68-34.39 29.26-9.2 55.2-15.69a.86.71-4.6 0 0 .62-.6q.26-1.42-1.32-2.42-.16-2.08-2.25-2.5l-3.25-4q-.4-2.37-2.79-2.79l-3.46-4.46q-.52-2-2.5-2.75l-6.39-6.91q-.45-.49-.65-.8-1.68-2.66-3.71-4.54-.16-2.34-2.54-2.54l-7.7-9.56a.7.59-29.6 0 0-.76-.14q-.84.36-1.19-.36-3.11-6.49-8.06-9.9l.22-.03a.21.19 72.6 0 0 .13-.29q-.63-1.39-2.1-1.93-1.22-1.24-1.5-3-.02-1.83-1.79-1.54-2.54-1.76-3.4-3.06-.88-1.35-1.73-2.1-1.19-1.04-1.41-1.42-.52-.89-.71-1.92-2.04-2.45-.13-4.92.47-.61-.08-1.12.39-2.09.94-3.27 2.51-5.36 6.56-11.73 1.97-1 1.71-3.21.05-1.38 1.48-4.31 2.63-5.4 5.81-10.48 1.88-.91 1.75-3 .37-3.85 2.81-7.4 1.74-2.52 3.19-6.27 2.91-1.25 2.75-4.33.45-3.11 2.44-6.27 1.49-2.37 4.1-7.69 2.82-1.25 2.5-4.25 2.13-6.46 5.75-12.25 3.58-2.96 4.21-7.54 1.04-4.3 3.54-7.96 1.45-1.34 2.12-3.22.16-.45.53-.8 1.86-1.72 2.06-4.27l3.25-7.75q2.85-3.1 3.79-7.21l1.28-1.72q.46-.63.52-.83 2.4-7.46 6.45-14.2 2.72-2.5 3.84-5.99a.2.16-79.6 0 0-.14-.26h-.2q2.84-8.24 6.9-13.81 1.62-2.24 2.32-4.4 1.16-3.58 1.57-4.36 1.87-3.59 3.71-7.18 1.41-1.31 3.27-4.44.6-1 .19-1.6.8-4.15 2.94-7.27 1.91-2.79 2.85-5.19 1.87-1.57 3.27-4.69.34-.74-.27-.81 2.24-6.3 5.75-12 2.99-2.45 3.67-6.25 1.05-5.35 4.33-9.75 3.14-3.7 4.71-8.29-.04-.75.29-1.46 2.39-3.94 2.71-8.54.64-7.59 2.54-14.96.76-.36.78-1.14.05-1.16.06-1.23 1.54-7.28 2.69-14.62.08-.53-.32-.8.8-10.62 2.25-18.21 1.86-9.7 2.54-15 .93-.66 1.01-1.72.1-1.45.13-1.57.69-3.08 1.03-6.21 1.33-3.66 1.29-7.54.26-2.49.53-4.98 1.76-16.48 5.01-32.73.55-.48.68-1.25 1.23-7.41 2.78-14.75.53-2.52.21-3.5 1.75-7.3 2.16-14.75.3-5.42 1.07-9.41 1.2-6.27 2.1-12.59.73-.07.75-.66.02-.63.03-.67 1.93-9.92 3.74-19.86.17-.9-.1-1.31.54-2.5 1.04-8.5 1.08-12.91 4.54-29h.11a.12.11 5.7 0 0 .12-.09q2.11-7.86 2.98-15.95l2.79-22.96q1.46-.89.25-2l2.75-15q1.32-.6.5-2-.09-1.44.5-2.75 1.46-3.78 1.69-7.83.01-.12.25-.76.14-.37-.48-.45 1.29-.23 2.52.13a.41.37-68.2 0 1 .21.57q-.49.97.56 1.59zm11.47 282.78q-1.41 6.6-2.74 13.22-1.26 6.3-.79 11.74a1.23 1.22 75.7 0 0 1.71 1.02q7.53-3.25 13.06-6.55 3.53-2.1 7.44-3.22 3.3-.94 5.44-2.13 7.73-4.31 13.31-6.42 6.35-2.42 10.87-4.88 6.14-3.34 11.63-5.12 3.25-1.06 14.89-6.83 1.88-.93 3.87-1.59 2.46-.81 3.85-1.51 6.21-3.11 12.38-6.31 1.69-.88 3.84-1.32 2.82-.56 3.92-1.19 4.53-2.59 9.07-5.2a1.03 1.03-38.5 0 0 .19-1.65q-1.35-1.24-2.28-3.17-5.55-11.45-12.52-22.1-.46-.7-.73-1.93-.23-1.05-.79-1.99-2.3-3.93-4.73-7.78-.03-.05-1.29-1.77-1.22-1.66-2.17-4.54-.82-2.48-4.13-7.12-2.01-2.83-4.29-7.71-1.72-3.67-4.22-7.57-1.72-2.68-3.2-5.51-2.47-4.7-2.98-5.6-5.61-9.96-11.12-19.97-1.1-2.01-3.69-5.39-1.46-1.92-2.68-4.98-1.18-2.96-2.49-5.01-3.25-5.12-5.96-10.54-2.05-4.1-4.9-8.57-4.32-6.78-7.34-14.28-1.52-3.78-2.25-.12-1.75 8.77-3.44 17.56-.82 4.25-1.1 7.28-.55 5.87-.55 5.91-3.08 22.05-7.56 43.85-.72 3.5-.92 7.11-.33 5.89-.56 7.16-2.59 14.21-5.07 28.44-.15.86-1.66 8.45-.84 4.23-1.35 8.51-1.18 9.98-1.19 10.04-1.15 8.01-2.35 16.01-.92 6.19-2.43 13.27zm391.88-26.41q6.59 4.31 13.71 6.7 4.27 1.43 8.2 3.64 5.26 2.94 10.83 5.24 8.42 3.48 16.18 7.42.81.41 1.66.72 10.11 3.7 18.78 8.8 1.26.73 2.71.85 2.97.23 5.75 1.8 4.31 2.43 4.4 2.47 2.99 1.48 5.33 3.05 1.68 1.13 3.47 1.51 2.77.57 3.55.92 6.92 3.04 13.44 6.88 2.85 1.68 6.11 2.38a1.04 1.04.2 0 0 1.24-1.23q-1.33-6.45-1.5-13.02-.15-5.6-3.75-22.5-2.43-11.4-4.77-27.78-.01-.04-1.09-10.48-.6-5.69-2.08-12.3-1.83-8.19-4.42-24.01-.67-4.1-2.31-17.43-1.07-8.73-2.75-17.38-2.48-12.71-2.49-12.77-1.41-7.8-2.84-15.6-.63-3.45-.87-7.82-.27-5.09-.65-7.82-1.02-7.31-1.54-9.3-.52-1.95-1.68-1.14-.47.32-.93 1.2-9.76 18.44-20.46 36.35-1.56 2.61-3.86 7.25-2.18 4.42-4.2 7.09-2.69 3.58-3.94 7.86-.53 1.81-1.61 3.28-1.98 2.68-2.12 2.93-8.99 15.27-17.27 30.93-.72 1.35-2.53 3.73-1.39 1.83-2.33 3.92-2.18 4.85-2.68 5.69-2.53 4.23-5.15 8.4-.87 1.38-1.79 3.74-.76 1.96-1.85 3.76-6.25 10.26-12.09 21.33a.57.57-59.7 0 0 .19.74zM378.5 487.46q-1.99-.61-2.25 1.33l-73.85 45.53a2.73 2.64-6.3 0 0-1.12 1.35q-1.04 2.75-2.36 5.29-2.79 5.32-4.56 11.03-1.5 4.83-2.9 7.78l-3.54 7.54q-.87 1.86-1.94 5.44-.78 2.61-2.04 5.44-4.35 9.71-6.45 13.84-2 3.91.71 6.63l1.38 1.39q10.92 12.64 21.84 25.27.75.87 2.51 3.42 1.23 1.77 2.79 3.24 3.42 3.24 4.04 4.06 1.51 1.99 3.28 4.74.31.49.72.89 4.38 4.26 6.96 8.24.6.93 1.23 1.55.69.69 1.4 1.36 1.18 1.1 2.04 2.13 10.92 13.08 22.22 25.84.43.48 2.95 3.69 1.36 1.72 3.19 3.52 2.26 2.22 4.75 5.71.15 2.64 2.75 3.25l12.01 14q1.41 1.64 2.41-.3 1.58-3.06 4.08-5.17 2.4-2.01 4.24-4.48 2.72-3.65 3.81-4.8 5.65-6 8.26-9.15 10.96-13.18 22.52-25.84 1.83-2 3.68-4.55 1.76-2.43 3.54-4.67.56-.7.76.17 2.24 9.73 3.25 19.63.71 6.96 1.85 12.14 3.32 15.04 6.12 30.19.38 2.07 1.36 10.81.57 5.06 1.92 10.75 2.39 10.05 6.94 35.26.99 5.48 1.37 11.04.52 7.62 2.44 10.7 1.56 2.48 10.12 12.2.38.43 2.71 2.63 1.39 1.32 2.4 2.95 1.38 2.24 2.68 3.44 3.56 3.28 6.5 7.13 3.01 3.95 6.63 7.36 1.71 1.62 2.54 3.81a2.09 1.81-84.3 0 0 .56.79q2.62 2.12 6.05 6.25 10.54 12.69 33.69 39.06 4.35 4.96 6.5 7.78 1 1.3 3.03 2.88 2.67 2.07 4.16 5.55.22.5.62.86 4.95 4.44 7.83 8.34 2.63 3.58 4.29 5.21 8.21 8.04 10.69 11.76 3.25 4.85 9.79 5.36 2.59.2 5.03 1.12 6.32 2.39 13.12 4.93 4.56 1.7 12.09 3.64 9.01 2.31 17.48 5.85a1.25 1.24-80.6 0 0 1.72-1.24q-.46-7.04-.96-13.56-.01-.12 0-2.07.02-2.33-1.64-3.91-34.79-33.08-69.77-66.75-.73-.7.29-.77 3.17-.21 6.38-1.8 8.56-4.22 17.57-7.29.08-.03 4.24-1.14 2.76-.73 6.66-2.5 5.51-2.48 11.01-4.97 4.14-1.87 7.18-1.84 36.71.39 73.41.26 3.5-.01 6.51 1.03 6.4 2.22 12.48 5.22 4.64 2.3 5.85 2.49 4.69.76 11.94 4.06 8.37 3.82 16.58 6.85a.72.71 27.5 0 1 .34 1.08q-2.62 3.75-6.21 6.39-2.34 1.71-3.6 2.99-1.66 1.68-3.37 3.31-27.36 26.16-54.63 52.42-.09.1-1.88 1.47-1.72 1.31-1.64 3.47.09 2.81.07 2.93-.56 5.87-.91 12.63a1.33 1.33-8.1 0 0 1.76 1.32q7.16-2.47 15.23-5.35 3.2-1.14 6.59-1.57.86-.11 1.67-.42 11.1-4.19 20.98-7.44 2.36-.77 6.58-1.14 4.1-.36 6.81-4.19 4.22-5.96 26.14-30.24l2.95-2.79q1.74-1.64 2.8-3.86 1.36-2.86 4.04-4.56 2.03-1.29 3.63-3.97 1.62-2.71 3.02-4.21 2.86-3.06 8.61-9.68 19.78-22.77 39.54-45.55.03-.03 1.7-1.61 1.21-1.15 2.32-3.28 1.24-2.36 4.5-4.79 1.72-1.27 2.83-3.04 3.37-5.35 8.49-9.45 1.93-1.54 1.86-4.01-.08-3.4.26-7.02.67-7.09 7-35 1.18-5.22 1.67-9.8.82-7.7 1.21-9.83 3.1-17.05 6.68-34 1.37-6.46 2.57-15.86 1.66-12.89 4.79-25.48.69-2.81 2.01-.23 2.19 4.3 5.79 7.46 1.61 1.42 4.59 5.43 1.06 1.42 7.46 8.37.64.7 1.58 2.2.74 1.17 1.71 2.13 2.48 2.45 2.55 2.53 13.06 15.14 25.88 29.89a1.06 1.06 44.5 0 0 1.62-.01q38.07-45.2 76.45-89.74.79-.92 2.95-3.89 1.03-1.42 3.38-3.43 1.76-1.51 3.04-3.44 1.87-2.83 2.64-3.7 3.25-3.64 6.62-7.16.46-.48.96-1.9.13-.38.57-.77 1.03-.93.35-2.76-.27-.72-.47-1.46-1.46-5.49-2.99-8.2-3.17-5.63-5.33-11.67-3.36-9.4-4.12-11.17-2.3-5.29-4.7-10.54-.92-2.02-2.09-6.29-1.02-3.75-3.03-7.13-.06-.1-.89-1.78-.97-1.96-3.39-3.08-4.44-2.06-9.29-5.74-2.59-1.96-5.97-3.72-3.37-1.75-7.36-4.42-5.06-3.38-31.65-19.29-.67-.4-1.74-1.42-.84-.8-1.88-1.31-2.63-1.3-2.71-1.35-32.9-20.65-66.1-40.81-.13-.08-2.85-2.19-1.36-1.06-3.26-1.69-2.34-.78-5.05-2.68-7.37-5.16-15.3-9.41-1.61-.86-4.23-3.04-2.67-2.24-6.22-3.47-2.44-.85-4.37.87-2.51 2.25-4.94 4.78-2.64 2.75-4.94 4.75-7.29 6.35-14.02 13.3-1.58 1.63-4.34 3.76-2.45 1.89-4.28 3.95-2.82 3.19-5.56 5.23-2.84.76-3.75 3.5-6.42 6.11-12.63 12.44-.87.89-2.69 1.95-1.48.87-2.62 2.14-3.04 3.37-3.09 3.42-10.49 9.48-12.91 11.82-1.16 1.12-2.04 1.57-.49.24-.75.59-1.79 2.49-4.83 5.22-16.07 14.41-37.94 35.35-1.79-.07-2 1.67-7.62 7.3-15.7 14.09-2.16 1.82-3.11 5.64-1.03 4.1-4.91 11.75-3.15 6.23-5.4 11.5-3.15 7.4-6.7 14.62-.41.84-1.36 3.63-.51 1.52-1.51 3.62-2.87 6.06-5.89 12.05-.42.82-.94 1.23-1.63 1.27-1.57-1.54.02-.51-.2-.93-4.8-9.34-8.75-19.06-1.65-4.05-4.07-8.77-2.23-4.32-4.12-8.79-.51-1.2-1.48-4.76-.81-2.95-2.23-4.55-1.41-1.6-1.98-3-.88-2.19-.92-2.27-2-3.79-3.76-9.29a2.52 2.52 6.6 0 0-1.11-1.4q-2.21-1.34-4.12-2.69-1.52-1.08-3.42-3.48-3.04-3.83-7.37-6.25-.42-.24-.72-.68-.97-1.43-2.97-3.32-43.14-40.63-87.85-81.75-.4-.37-.67-.84-1.34-2.29-3.13-3.46-3-1.94-3.16-2.1-1.72-1.64-3.44-3.85-1.34-1.71-3.24-3.01-2.48-1.68-3.46-2.65-5.38-5.31-10.6-10.79-2.97-3.12-7.04-5.5a2.4 2.39-43.2 0 0-2.26-.07q-3.64 1.84-6.74 4.05-4.51 3.21-6.5 4.37-7.41 4.34-15.15 9.42-.43.28-.91.48-2.98 1.25-5.43 2.94-4.75 3.27-5.06 3.45-7.59 4.55-15.02 9.37-1.72 1.11-4.57 2.62-2.34 1.23-4.55 2.68-4.15 2.71-6.69 4.14-6.2 3.5-11.91 7.75-2.02 1.51-6.81 3.9z"/>
  <path d="M374.75 48.96q.62.08.48.45-.24.64-.25.76-.23 4.05-1.69 7.83.39-4.13.96-8.25.08-.62.5-.79zm530 1q.21 1.21-1.21 1.29-.78-1.57 1.21-1.29zm3.75.5.54 2.54q-1.95-.72-.54-2.54zM378.04 51.25l5.96 3.71q-.23.06-.29.29l-5.67-4z"/>
  <path d="m384 54.96 3.04 2.54q-2.05-.5-3.33-2.25.06-.23.29-.29zM372.79 60.75q.82 1.4-.5 2 0-1.06.5-2zM395.25 62.96l2 1.75-.5.08q-1.47-.4-1.5-1.83z"/>
  <path d="m396.75 64.79.5-.08 3.25 2.08q-2.2-.35-3.75-2zM407.75 71.71q3.13 1.54 5.25 4.25-2.33-1.53-4.56-3.2-.13-.1-.57-.27-.51-.2-.12-.78zM369.54 77.75q1.21 1.11-.25 2-.18-1.03.25-2zM416.54 78q3.05 1.43 5.5 3.75l-.08.5-5.42-4.25z"/>
  <path d="m422.04 81.75 3.21 2.54q-2.15-.06-3.29-2.04l.08-.5zm491.21 3.96q1.24 2.36 1.46 5.04h-.67l-.79-5.04zM914.04 90.75h.67l1.29 7.21-.46.04-1.5-7.25zM915.54 98l.46-.04 1.96 11.04q-.52-.17-.71-1.25-.85-4.87-1.71-9.75zM447 98.96l2.25 1.83q-1.87-.01-2.25-1.83zM366.5 102.71q-.87 8.09-2.98 15.95a.12.11 5.7 0 1-.12.09h-.11q.33-3.58 1.1-7.08.1-.44.66-4.54.31-2.31 1.45-4.42zM825.21 106.25q-2.93 3.07-6.2 5.76-1.34 1.1-3.01 1.03 3.71-1.61 6.26-4.76 1.18-1.45 2.95-2.03zM473.5 117.71l4.69 3.41q.39.29.87.38 1.31.27 1.94 1.46-4.53-1.52-7.5-5.25zM919.21 117.75l.75 2.25q-1.44-.65-.75-2.25zM494.5 132.21l8.75 6.75q-4.9-2.5-8.86-6.32a.3.18 42.2 0 1-.09-.31q.07-.09.2-.12zM773.25 142.71q-.11 1.27-1.5 1.25.36-1.06 1.5-1.25zM509.75 142.96q3.03 1.92 5.25 4.75l-.5.08q-2.3-2.47-4.44-3.85-.68-.44-.31-.98zM923.25 144.71l.46 2.29q-.66.04-.5.75-.63-1.56.04-3.04z"/>
  <path d="m923.71 147 1.5 8q-.54.51-.54-.4.01-.32-.07-.57-.93-3.08-1.39-6.28-.16-.71.5-.75zM514.5 147.79l.5-.08q2.52 1.73 5.45 2.48.41.11.84.47l5.75 4.84q-.09.36-.43.12-3.35-2.38-6.54-4.99-.37-.3-.87-.41-2.65-.57-4.7-2.43zM761.25 150.96q-1.82 2.46-4.5 4 1.82-2.47 4.5-4zM357.71 156.25q.27.41.1 1.31-1.81 9.94-3.74 19.86-.01.04-.03.67-.02.59-.75.66.43-3.38 1.16-6.69.64-2.92 1.16-6.69.64-4.64 2.1-9.12zM925.75 158.21l1.21 6.04q-1.61-2.82-1.21-6.04zM540.25 164.96l2.25 1.83q-2.02.18-2.25-1.83zM738.29 167.5q-1.66 1.52-3.83 2 1.56-1.66 3.83-2zM730.75 172.71q.47.45-.25 1.04-2.08 1.69-3.25 2.21l3.5-3.25zM724.25 176.96q.31.59-.44.85-1.35.49-2.09 1.45a1.59.68-62.7 0 1-.75.62l-1.47.41q-.56-.23-.49-.6a.44.3 23.2 0 1 .61-.12q.62.36 1.32-.38 1.01-1.08 3.31-2.23zM568.25 184.71l3.79 2.04q-.86-.09-3.1-.94-.99-.37-.69-1.1zM709.21 188l-4.47 3.31q-.43.32-.62.72-.84 1.8-2.87 2.01 3.41-3.78 7.96-6.04zM931.5 196.96q1.01 1.53 1.22 3.31.33 2.85.35 2.94 1.08 5.21 1.68 10.5l-.12.02a.14.14 79.1 0 1-.16-.11q-2.06-8.23-2.97-16.66zM592 200.96l9.75 6.75q-4.7-2.57-9.05-5.71-.12-.09-.58-.26-.51-.2-.12-.78zM680.71 208l-5.28 4.81a.62.32-51.3 0 1-.43.19l-.25-.04q2.34-3.28 5.96-4.96zM347.96 215.5q.32.98-.21 3.5-1.55 7.34-2.78 14.75-.13.77-.68 1.25l3.67-19.5zM616 217.96q3.95 1.62 8.25 1.58-.37.8-1.25.78-3.75-.06-7.03-1.8-.2-.1-.22-.23-.04-.21.25-.33zM665.5 218.71q.61.39-.17.66-3.28 1.14-6.58.17l6.75-.83zm-10.5 1.08q-4.22 2-8.75.75l8.75-.75zm-25.25.17 6.25.58q-2.57.79-6.25-.04-1.25-.28 0-.54zM941.46 257.75q1.38 3.89 1.75 8h-.42q-1.26-3.9-1.33-8zM942.79 265.75h.42l1.25 7.25-.42.25-1.25-7.5z"/>
  <path d="M338.75 272.71q.04 3.88-1.29 7.54l-.42.25q.14-4.05 1.71-7.79zm605.71.29q.53 1.04.54 2.21-1.13-.58-.96-1.96l.42-.25zM337.46 280.25q-.34 3.13-1.03 6.21-.03.12-.13 1.57-.08 1.06-1.01 1.72l1.75-9.25.42-.25zM949.46 301.75l1 4.25q-.59.29-.5 1l-.5-5.25z"/>
  <path d="m950.46 306 1.79 15.46-.46.04q-1.51-7.18-1.83-14.5-.09-.71.5-1z"/>
  <path d="m951.79 321.5.46-.04 2.46 14.54q-.6-.14-.54-.81.04-.64 0-.88-1.18-6.41-2.38-12.81zM330.5 322.96q.4.27.32.8-1.15 7.34-2.69 14.62-.01.07-.06 1.23-.02.78-.78 1.14l3.21-17.79zM324.75 355.71q-.32 4.6-2.71 8.54l2.71-8.54zM958.46 357.75q2.51 7.39 6.25 14.25-5.17-6.24-6.25-14.25zM321.75 365.71q-1.57 4.59-4.71 8.29l4.71-8.29zM967.75 377.71q.88.73 1.17 1.77.5 1.78.53 1.86 1.87 4.21 4.36 8.1.62.96.94 2.77-1.71-2.79-3.45-5.56-2.6-4.16-3.55-8.94zM312.71 383.75q-.68 3.8-3.67 6.25l3.67-6.25zM977.5 396.96q11.02 22.33 22.19 44.6 2.91 5.82 3.31 7.15-3.42-5.54-6.24-11.39-5.1-10.55-5.14-10.64-7.42-14.55-14.51-29.26-.24-.51.39-.46zM303.29 402q.61.07.27.81-1.4 3.12-3.27 4.69l3-5.5zm-8.79 17.96q.41.6-.19 1.6-1.86 3.13-3.27 4.44l3.46-6.04zM1003.54 450l7.46 14.71q-4.65-6.9-7.46-14.71zm-727 5.75h.2a.2.16-79.6 0 1 .14.26q-1.12 3.49-3.84 5.99l3.5-6.25zm495.71 13.54-3.75 3.5q.91-2.74 3.75-3.5zm241.21.71 6.25 12q-.85-.33-1.13-1.19-.38-1.11-.56-1.4-1.82-2.93-4.46-8.22-.38-.76-.1-1.19zM264.79 478.75q-.94 4.11-3.79 7.21l3.79-7.21zm113.71 8.71-2.25 1.33q.26-1.94 2.25-1.33zm643.96.54 6.25 12q-.78-.19-1.04-.88-.28-.75-.32-.82-2.54-4.59-4.85-9.3-.34-.69-.04-1zM257.75 493.71q-.2 2.55-2.06 4.27-.37.35-.53.8-.67 1.88-2.12 3.22 1.82-4.44 4.71-8.29zM1032.25 507.71q5.8 9.83 6.56 11.73 2.96 7.33 6.94 14.14 1.02 1.74 1.8 3.42.81 1.76 1.66 3.5-.3.15-.25.5-7.88-14.93-15.3-30.1-.02-.04-.82-1.35-.52-.85-.59-1.84zM249.5 509.96q-.63 4.58-4.21 7.54l4.21-7.54zm-9.96 19.79q.32 3-2.5 4.25l2.5-4.25z"/>
  <path d="M1049.21 540.5q4.48 9.17 9.22 18.2.49.93 2.59 5.9.85 2 2 3.85 1.53 2.44 2.16 3.76 3.63 7.67 7.36 15.29-.06.23-.29.29-3.58-5.86-6.14-12.25-1.05-2.62-2.5-5.02-1.86-3.07-2.67-4.9-4.01-9.1-6.63-13.68-3.71-6.49-5.35-10.94-.05-.35.25-.5zM689 547.29l-2 1.67q.21-1.74 2-1.67zM230.5 547.96q.16 3.08-2.75 4.33-3.13-1.55.43-1.6a1.08.78 10.7 0 0 .83-.39l1.49-2.34zM478.45 619.07a1.11 1.09 3.1 0 1-.63-.69q-2.18-6.94-4.65-11.54-1.81-3.38-2.57-5.26-.73-1.81-1.51-3.61-.57-1.32-1.04-3.72-.5-2.56-1.82-4.79-2.07-3.5-2.4-4.28-.99-2.29-1.93-4.59-.04-.1-1.73-3.4-.99-1.94-1.17-4.19-.14-1.72-2.26-5.71-4.69-8.8-7.65-18.02-.5-1.53.96-.84 3.61 1.73 7.54 2.34 3.39.53 6.59 1.82 4.57 1.85 9.16 3.63.12.05 5.23 2.25 3.19 1.38 5.74 1.72 4.25.56 6.64 1.6 4.38 1.89 8.82 3.65l5.01 2.2q3.36 1.47 6.96 2.22 3.4.7 4.48 1.02 2.13.64 4.36 1.4a1.43 1.4-84.7 0 1 .94 1.15q.31 2.22 1.57 4.04 2.09 3.05 2.15 3.15 2.68 4.91 5.19 9.92l.87 2.1q.67 1.63 2.39 4.42 4.94 8.02 7.87 15.88.51 1.37 1.51 2.05.42.29.65.72l5.7 10.42q.25.46.28.92.15 2.2 1.74 4.76 3 4.83 6.07 10.74a.31.31-13.7 0 1-.28.45q-3.42 0-5.5-.69-7.32-2.41-14.64-4.8-.06-.02-4.64-1.64-3.93-1.39-10.64-3.18-12.86-3.44-18.25-5.75-4.33-1.86-8.02-2.68-7.08-1.57-7.35-1.65-4.95-1.56-9.74-3.54zm282.61-45.63a1.9 1.89-87.8 0 1 .99-.92q4.27-1.73 8.28-2.34 3.19-.49 5.98-2.12 1.98-1.15 5.72-2.39 3.08-1.02 5.81-2.16 4.96-2.06 10.13-3.51 5.94-1.66 9.81-3.26 7.11-2.94 9.97-3.74 7.6-2.14 15.09-4.62.51-.16.81-.02.61.27.04 1.08-1.73 2.45-2.36 4.78-.93 3.43-.95 3.48-2.7 7.15-7.12 15.79-.26.5-.43 1.03-2.7 8.25-6.77 16.54-1.95 3.98-2.76 6.58-2.35 7.5-5.97 14.47-.02.04-1.68 2.84-1.22 2.04-1.84 4.35a.86.86-89.4 0 1-.63.62q-4.61 1.08-8.4 2.65-2.9 1.19-6.51 1.47-1.83.13-3.54.77-11.06 4.14-21.83 7.34-.12.04-5.87 1.31-3.06.67-6.59 2.23-4.69 2.05-16.45 5.61-.05.02-2.93 1.02-2.5.87-4.98.92a.71.71 13.1 0 1-.65-1.04q6.65-12.66 13.13-25.39 1.64-3.21 2.6-5.29 1.41-3.03 2.75-5.19 2.65-4.26 4.81-8.78 3.07-6.41 4.44-8.93 4.05-7.45 7.9-15.18zM221.75 565.96q.13 2.09-1.75 3l1.75-3zm-9.04 17.79q.26 2.21-1.71 3.21l1.71-3.21z"/>
  <path d="M1072.54 587.5q3.47 5.72 5.75 12-.69-.03-1.1-1.19-1.49-4.17-4.94-10.52.23-.06.29-.29zM203.5 601.96q.55.51.08 1.12-1.91 2.47.13 4.92-3.65-2.59-.21-6.04zm874.54 7.29q-.19 1-.79 1.79-.85-1.7.79-1.79zM1077.68 612.59q.46-.56.79-.11a.73.6-42.9 0 1-.11.84q-1.15 1.27-.99.03.05-.45.31-.76zm-4.68 2.7q-.53 2.9-3.21 3.96.43-2.98 3.21-3.96zM212.75 618.04l-1.79-1.54q1.77-.29 1.79 1.54zM214.25 621.04q1.47.54 2.1 1.93a.21.19 72.6 0 1-.13.29l-.22.03q-1.23-.85-1.75-2.25zm845.21 9.96q-.11 1.86-1.96 2.21.49-1.54 1.96-2.21zM1053.75 637.29l-3.75 5q.64-3.39 3.75-5zM236.25 645.79l-2.54-2.54q2.38.2 2.54 2.54zm810.71-.54q-.06 1.82-1.92 2.25.22-1.78 1.92-2.25zM1042.75 650.04l-4.04 4.71q-.76-.32-.07-.86.37-.29.53-.48 1.63-1.86 3.58-3.37zm-795.75 8q1.98.75 2.5 2.75l-2.5-2.75zm787.96.96q-.65 1.54-2.17 2.25.58-1.62 2.17-2.25zM255.75 668.04l-2.79-2.79q2.39.42 2.79 2.79zM1029.75 665.29l-2.71 2.96q.42-2.34 2.71-2.96zM1023.25 671.79q-.55 1.91-2 3.25-.6.02-.39-.27.1-.12.13-.19.8-1.67 2.26-2.79zM259 672.04q2.09.42 2.25 2.5-1.4-1.01-2.25-2.5zM359.5 693.71l2.75 3.25q-2.6-.61-2.75-3.25z"/>
</svg>
