<?xml version="1.0" standalone="no"?>
<!DOCTYPE svg PUBLIC "-//W3C//DTD SVG 20010904//EN"
 "http://www.w3.org/TR/2001/REC-SVG-20010904/DTD/svg10.dtd">
<svg version="1.0" xmlns="http://www.w3.org/2000/svg"
 width="700.000000pt" height="700.000000pt" viewBox="0 0 700.000000 700.000000"
 preserveAspectRatio="xMidYMid meet">
<metadata>
Created by potrace 1.14, written by Peter Selinger 2001-2017
</metadata>
<g transform="translate(0.000000,700.000000) scale(0.100000,-0.100000)"
fill="#000000" stroke="none">
<path d="M3087 6574 c-1 -1 -47 -5 -102 -8 -55 -4 -111 -9 -125 -10 -96 -14
-200 -22 -369 -31 -42 -3 -204 -7 -361 -10 -471 -8 -540 -15 -581 -56 -29 -29
-23 -48 34 -101 79 -75 138 -99 332 -133 123 -21 228 -46 239 -55 4 -5 10 -46
11 -92 24 -613 24 -5046 1 -5188 -2 -14 -7 -47 -11 -73 -8 -60 -32 -77 -202
-146 -192 -79 -314 -154 -297 -183 3 -4 26 -10 52 -14 26 -4 56 -13 67 -20 19
-12 35 -15 150 -29 182 -22 1442 -36 1870 -21 227 8 307 15 414 38 518 110
955 406 1244 841 129 194 233 435 254 587 2 19 8 62 13 95 9 67 6 493 -4 540
-31 141 -42 181 -73 264 -102 275 -259 496 -513 726 -113 102 -266 206 -458
310 -79 43 -155 87 -169 100 l-26 22 49 54 c27 30 67 77 89 104 22 28 42 52
45 55 13 11 190 251 252 340 135 195 205 381 234 625 10 87 4 301 -11 355 -1
3 -5 23 -10 45 -20 101 -88 246 -158 335 -84 106 -96 120 -212 236 -227 225
-557 397 -860 448 -115 19 -192 29 -325 42 -61 6 -477 13 -483 8z m504 -413
c159 -37 290 -88 349 -133 67 -52 144 -134 203 -215 45 -61 153 -287 161 -334
14 -85 20 -223 20 -454 -1 -290 -6 -321 -84 -476 -98 -197 -172 -275 -331
-347 -69 -32 -197 -76 -252 -86 -7 -1 -37 -8 -67 -14 -108 -23 -276 -40 -372
-39 -192 4 -192 3 -192 1027 1 338 2 665 4 725 5 131 23 248 45 282 17 25 60
48 111 58 16 3 43 8 59 11 131 26 221 25 346 -5z m-71 -2607 c244 -29 391 -79
585 -197 272 -166 466 -379 616 -677 89 -177 133 -319 146 -475 9 -104 9 -368
0 -469 -18 -193 -179 -516 -333 -670 -51 -51 -102 -85 -199 -134 -201 -103
-273 -122 -490 -128 -115 -3 -153 0 -210 15 -214 58 -428 168 -509 263 -91
106 -99 214 -99 1268 -1 866 6 1016 49 1119 38 91 70 103 254 96 80 -3 165 -8
190 -11z m-1060 -224 c0 -11 -4 -20 -9 -20 -11 0 -22 26 -14 34 12 12 23 5 23
-14z"/>
</g>
</svg>
