<?xml version="1.0" encoding="UTF-8"?>
<svg xmlns:xlink="http://www.w3.org/1999/xlink" xmlns="http://www.w3.org/2000/svg" width="512px" height="512px"
     viewBox="0 0 512 512" version="1.1">
    <g id="surface1">
        <path style=" stroke:none;fill-rule:nonzero;fill:rgb(0%,0%,0%);fill-opacity:1;"
              d="M 225.792969 31.160156 C 225.71875 31.230469 222.355469 31.523438 218.332031 31.742188 C 214.308594 32.035156 210.210938 32.402344 209.1875 32.476562 C 202.167969 33.5 194.558594 34.085938 182.199219 34.742188 C 179.125 34.960938 167.277344 35.253906 155.792969 35.472656 C 121.34375 36.058594 116.296875 36.570312 113.296875 39.570312 C 111.175781 41.691406 111.617188 43.082031 115.785156 46.957031 C 121.5625 52.445312 125.878906 54.199219 140.070312 56.6875 C 149.066406 58.222656 156.746094 60.050781 157.550781 60.707031 C 157.84375 61.074219 158.28125 64.074219 158.355469 67.4375 C 160.109375 112.273438 160.109375 436.515625 158.425781 446.902344 C 158.28125 447.925781 157.914062 450.339844 157.621094 452.242188 C 157.039062 456.628906 155.28125 457.875 142.847656 462.921875 C 128.804688 468.699219 119.882812 474.183594 121.125 476.304688 C 121.34375 476.597656 123.027344 477.039062 124.929688 477.332031 C 126.828125 477.621094 129.023438 478.28125 129.828125 478.792969 C 131.21875 479.671875 132.386719 479.890625 140.800781 480.914062 C 154.113281 482.523438 246.273438 483.546875 277.578125 482.449219 C 294.179688 481.863281 300.03125 481.351562 307.859375 479.671875 C 345.746094 471.625 377.710938 449.976562 398.847656 418.15625 C 408.285156 403.96875 415.890625 386.339844 417.425781 375.222656 C 417.574219 373.832031 418.011719 370.6875 418.378906 368.273438 C 419.035156 363.375 418.816406 332.214844 418.085938 328.777344 C 415.816406 318.464844 415.011719 315.539062 412.746094 309.46875 C 405.285156 289.351562 393.800781 273.1875 375.222656 256.367188 C 366.957031 248.90625 355.765625 241.296875 341.722656 233.691406 C 335.945312 230.546875 330.386719 227.328125 329.363281 226.378906 L 327.460938 224.769531 L 331.042969 220.816406 C 333.019531 218.625 335.945312 215.1875 337.554688 213.210938 C 339.164062 211.164062 340.625 209.40625 340.847656 209.1875 C 341.796875 208.382812 354.742188 190.828125 359.277344 184.320312 C 369.152344 170.058594 374.273438 156.453125 376.394531 138.605469 C 377.125 132.242188 376.6875 116.589844 375.589844 112.640625 C 375.515625 112.421875 375.222656 110.957031 374.855469 109.347656 C 373.394531 101.960938 368.421875 91.355469 363.300781 84.847656 C 357.15625 77.09375 356.277344 76.070312 347.792969 67.585938 C 331.191406 51.125 307.054688 38.546875 284.890625 34.816406 C 276.480469 33.425781 270.847656 32.695312 261.121094 31.742188 C 256.660156 31.304688 226.230469 30.792969 225.792969 31.160156 Z M 262.65625 61.367188 C 274.285156 64.074219 283.867188 67.804688 288.183594 71.09375 C 293.082031 74.898438 298.714844 80.894531 303.03125 86.820312 C 306.324219 91.28125 314.222656 107.8125 314.808594 111.25 C 315.832031 117.46875 316.269531 127.5625 316.269531 144.457031 C 316.195312 165.667969 315.832031 167.9375 310.125 179.273438 C 302.957031 193.683594 297.546875 199.386719 285.914062 204.652344 C 280.867188 206.996094 271.507812 210.210938 267.484375 210.945312 C 266.972656 211.015625 264.777344 211.527344 262.582031 211.96875 C 254.683594 213.648438 242.394531 214.894531 235.375 214.820312 C 221.332031 214.527344 221.332031 214.601562 221.332031 139.703125 C 221.402344 114.980469 221.476562 91.0625 221.621094 86.675781 C 221.988281 77.09375 223.304688 68.535156 224.914062 66.046875 C 226.15625 64.21875 229.304688 62.539062 233.03125 61.804688 C 234.203125 61.585938 236.179688 61.21875 237.347656 61 C 246.929688 59.097656 253.511719 59.171875 262.65625 61.367188 Z M 257.460938 252.050781 C 275.308594 254.171875 286.0625 257.828125 300.25 266.460938 C 320.144531 278.601562 334.335938 294.179688 345.308594 315.976562 C 351.816406 328.921875 355.035156 339.308594 355.984375 350.71875 C 356.644531 358.328125 356.644531 377.636719 355.984375 385.023438 C 354.667969 399.140625 342.894531 422.765625 331.628906 434.03125 C 327.898438 437.761719 324.167969 440.246094 317.074219 443.832031 C 302.371094 451.363281 297.105469 452.753906 281.234375 453.191406 C 272.824219 453.414062 270.042969 453.191406 265.875 452.097656 C 250.222656 447.855469 234.570312 439.808594 228.644531 432.859375 C 221.988281 425.105469 221.402344 417.207031 221.402344 340.113281 C 221.332031 276.773438 221.84375 265.800781 224.988281 258.265625 C 227.765625 251.613281 230.109375 250.734375 243.566406 251.246094 C 249.417969 251.464844 255.632812 251.832031 257.460938 252.050781 Z M 179.929688 268.433594 C 179.929688 269.238281 179.640625 269.898438 179.273438 269.898438 C 178.46875 269.898438 177.664062 267.996094 178.25 267.410156 C 179.125 266.53125 179.929688 267.042969 179.929688 268.433594 Z M 179.929688 268.433594 "/>
    </g>
</svg>
